<svg width="268" height="81" viewBox="0 0 268 81" fill="none" xmlns="http://www.w3.org/2000/svg">
<path d="M3.056 78.1963H7.88V77.2843H6.104V69.4003H5.264C4.796 69.6883 4.232 69.8923 3.44 70.0243V70.7323H5.012V77.2843H3.056V78.1963ZM14.7523 78.3643C16.4083 78.3643 17.4763 76.8403 17.4763 73.7683C17.4763 70.7203 16.4083 69.2443 14.7523 69.2443C13.0723 69.2443 12.0043 70.7203 12.0043 73.7683C12.0043 76.8403 13.0723 78.3643 14.7523 78.3643ZM14.7523 77.4763C13.7443 77.4763 13.0603 76.3603 13.0603 73.7683C13.0603 71.2123 13.7443 70.1203 14.7523 70.1203C15.7483 70.1203 16.4203 71.2123 16.4203 73.7683C16.4203 76.3603 15.7483 77.4763 14.7523 77.4763ZM24.1685 78.3643C25.8245 78.3643 26.8925 76.8403 26.8925 73.7683C26.8925 70.7203 25.8245 69.2443 24.1685 69.2443C22.4885 69.2443 21.4205 70.7203 21.4205 73.7683C21.4205 76.8403 22.4885 78.3643 24.1685 78.3643ZM24.1685 77.4763C23.1605 77.4763 22.4765 76.3603 22.4765 73.7683C22.4765 71.2123 23.1605 70.1203 24.1685 70.1203C25.1645 70.1203 25.8365 71.2123 25.8365 73.7683C25.8365 76.3603 25.1645 77.4763 24.1685 77.4763ZM38.2963 77.6203V78.4963H45.0403V77.6203H38.2963ZM37.8403 74.1043V79.1563H38.7523V74.9563H44.5843V79.1203H45.5323V74.1043H37.8403ZM42.8803 69.9523C44.0563 71.0203 45.4243 72.5323 46.0123 73.5523L46.7923 72.9883C46.1683 71.9923 44.7523 70.5043 43.5763 69.4843L42.8803 69.9523ZM37.1923 73.0843C37.1923 72.9043 37.7923 72.6283 37.7923 72.6283V72.6043C39.0643 71.5483 40.4083 70.0603 41.5603 68.4643L40.6603 68.0803C39.7243 69.5683 38.3203 71.0923 37.8763 71.4883C37.4803 71.8843 37.1683 72.1483 36.8923 72.1963C37.0003 72.4363 37.1563 72.8923 37.1923 73.0843ZM37.1923 73.0843C37.6723 72.9163 38.3923 72.8923 45.6283 72.4843C45.5803 72.2923 45.5443 71.9323 45.5323 71.6803L37.8523 72.0403L37.1803 72.3763L37.1923 73.0843ZM51.2203 71.1643V72.0643H54.7483V71.1643H51.2203ZM57.2323 68.3443V77.0683C57.2323 78.3403 57.5443 78.6763 58.6003 78.6763C58.8163 78.6763 59.9803 78.6763 60.2083 78.6763C61.3723 78.6763 61.6003 77.8243 61.6963 75.3403C61.4443 75.2923 61.0603 75.1003 60.8203 74.9083C60.7483 77.2123 60.6763 77.8003 60.1363 77.8003C59.8843 77.8003 58.9123 77.8003 58.7083 77.8003C58.2403 77.8003 58.1563 77.6923 58.1563 77.0803V68.3443H57.2323ZM54.2683 68.3443V77.2243H55.1923V68.3443H54.2683ZM50.8483 78.1363L51.2683 79.0363C52.6603 78.4843 54.5323 77.7043 56.2723 76.9603L56.1043 76.1683C54.2083 76.9123 52.1323 77.7043 50.8483 78.1363ZM57.7123 71.1643V72.0523H61.5403V71.1643H57.7123ZM70.6963 70.4203V79.1443H71.6323V70.4203H70.6963ZM65.8123 69.8803V70.7563H76.6243V69.8803H65.8123ZM66.9883 72.4003V77.7643H67.8883V73.2763H74.8723V72.4003H66.9883ZM74.6203 72.4003V76.6243C74.6203 76.7923 74.5723 76.8403 74.3563 76.8643C74.1403 76.8643 73.4203 76.8643 72.6043 76.8403C72.7243 77.0923 72.8683 77.4523 72.9163 77.7283C73.9363 77.7283 74.6203 77.7163 75.0283 77.5723C75.4363 77.4283 75.5443 77.1523 75.5443 76.6243V72.4003H74.6203ZM70.1683 68.2963C70.5043 68.8723 70.8883 69.6643 71.0563 70.1443L71.9803 69.8203C71.8003 69.3523 71.3803 68.5843 71.0443 68.0323L70.1683 68.2963ZM81.1243 70.2643V75.9763H82.0243V71.1523H89.8603V75.9163H90.7963V70.2643H81.1243ZM81.6043 74.3443V75.2203H90.4003V74.3443H81.6043ZM85.4683 68.1163V79.1443H86.4043V68.1163H85.4683ZM95.8003 69.0043V69.8803H105.736V69.0043H95.8003ZM100.996 73.0843V73.9723H105.256V73.0843H100.996ZM95.3443 77.7523V78.6283H106.132V77.7523H95.3443ZM100.564 69.3283V78.1843H101.5V69.3283H100.564ZM96.9883 72.0883V78.2203H97.9123V72.0883H96.9883ZM114.676 70.9123H117.436V72.2923H114.676V70.9123ZM113.836 70.2643V72.9403H118.324V70.2643H113.836ZM113.284 74.4163H114.88V76.1923H113.284V74.4163ZM112.516 73.7563V76.8523H115.672V73.7563H112.516ZM117.256 74.4163H118.936V76.1923H117.256V74.4163ZM116.488 73.7563V76.8523H119.728V73.7563H116.488ZM110.188 68.6803V69.4843H120.316V68.6803H110.188ZM110.692 68.7403V76.2403C110.692 78.0043 111.58 78.6043 113.428 78.6043C113.872 78.6043 117.892 78.6043 118.744 78.6043C119.68 78.6043 120.592 78.5803 120.916 78.4963C120.868 78.2923 120.808 77.8723 120.772 77.6323C120.34 77.7163 119.416 77.7643 118.768 77.7643C117.916 77.7643 114.112 77.7643 113.332 77.7643C112.036 77.7643 111.568 77.3323 111.568 76.3123V68.7403H110.692ZM127.732 75.0523V77.6443C127.732 78.6523 128.08 78.9283 129.4 78.9283C129.664 78.9283 131.572 78.9283 131.872 78.9283C133 78.9283 133.288 78.5083 133.408 76.8643C133.156 76.8043 132.76 76.6603 132.556 76.5043C132.496 77.8723 132.4 78.0643 131.8 78.0643C131.38 78.0643 129.784 78.0643 129.472 78.0643C128.776 78.0643 128.656 77.9923 128.656 77.6443V75.0523H127.732ZM129.16 74.9443C129.868 75.4603 130.72 76.2043 131.14 76.6963L131.848 76.1323C131.404 75.6523 130.54 74.9323 129.844 74.4523L129.16 74.9443ZM133.072 75.4243C133.732 76.3003 134.5 77.4883 134.848 78.2203L135.676 77.7763C135.316 77.0443 134.5 75.8803 133.852 75.0403L133.072 75.4243ZM126.172 75.0883C125.872 76.0243 125.356 77.2363 124.744 78.0163L125.584 78.4003C126.148 77.5963 126.64 76.3483 126.976 75.4003L126.172 75.0883ZM129.772 68.1283V74.5963H130.684V68.1283H129.772ZM126.712 70.3723H133.804V72.5563H126.712V70.3723ZM125.836 69.5563V73.3603H134.704V69.5563H125.836ZM139.624 71.4883V72.2803H150.4V71.4883H139.624ZM140.548 75.7123V76.5043H150.28V75.7123H140.548ZM142.972 73.3603V74.0923H148.048V73.3603H142.972ZM140.656 69.4363V70.2283H147.364V69.4363H140.656ZM143.776 68.1163V71.9083H144.652V68.1163H143.776ZM148.936 68.5723C146.704 71.3083 143.128 73.5043 139.408 74.7883C139.588 74.9563 139.888 75.3283 140.008 75.5323C143.644 74.1283 147.268 71.9083 149.68 69.0043L148.936 68.5723ZM144.904 75.1123V78.1123C144.904 78.2803 144.856 78.3163 144.64 78.3283C144.436 78.3403 143.692 78.3403 142.9 78.3163C143.032 78.5443 143.176 78.8803 143.236 79.1323C144.232 79.1323 144.88 79.1203 145.276 78.9883C145.684 78.8563 145.792 78.6283 145.792 78.1363V75.1123H144.904ZM147.772 73.3603V73.5283C147.172 74.0683 145.948 74.7403 144.904 75.1123C145.048 75.2323 145.264 75.4723 145.372 75.6283C146.548 75.1963 147.856 74.5003 148.78 73.8043L148.204 73.3123L148.012 73.3603H147.772ZM155.644 77.5243V78.3643H163.984V77.5243H155.644ZM155.128 71.5123V79.1083H156.004V72.3523H163.588V79.0723H164.5V71.5123H155.128ZM154.48 68.9083V69.7843H165.028V68.9083H154.48ZM158.044 69.4363V71.9803C158.044 73.1443 157.792 74.3923 155.98 75.2683C156.148 75.4003 156.436 75.7363 156.532 75.9163C158.5 74.9443 158.86 73.3723 158.86 72.0043V69.4363H158.044ZM160.588 69.4123V74.2483C160.588 75.2203 160.828 75.4723 161.812 75.4723C162.004 75.4723 163.228 75.4723 163.432 75.4723C164.056 75.4723 164.32 75.3163 164.428 74.8723C164.176 74.8123 163.828 74.6923 163.648 74.5603C163.624 74.6083 163.564 74.6203 163.348 74.6203C163.108 74.6203 162.088 74.6203 161.92 74.6203C161.5 74.6203 161.452 74.5723 161.452 74.2363V69.4123H160.588ZM174.892 77.9083V78.7003H178.852V77.9083H174.892ZM175.48 69.3523V70.1323H178.648V69.3523H175.48ZM174.544 74.8123V79.1323H175.372V75.5923H178.396V79.0963H179.26V74.8123H174.544ZM178.324 69.3523V69.5083C177.544 72.0163 175.42 73.9483 173.296 74.7643C173.476 74.9323 173.716 75.2443 173.824 75.4483C176.104 74.4763 178.3 72.5083 179.224 69.5563L178.648 69.3163L178.48 69.3523H178.324ZM175.684 68.1163C175.228 69.5923 174.4 70.9963 173.416 71.8963C173.632 72.0283 173.98 72.3163 174.124 72.4723C175.12 71.4763 176.008 69.9523 176.548 68.3203L175.684 68.1163ZM175.444 69.8443L174.856 70.3363C175.588 72.0643 177.172 74.2363 179.644 75.3043C179.764 75.0763 180.016 74.7283 180.208 74.5603C177.748 73.6243 176.14 71.5603 175.444 69.8443ZM169.6 73.4443V77.8003H170.356V73.4443H169.6ZM170.404 69.4123H172.66V71.5243H170.404V69.4123ZM169.6 68.6203V72.3163H173.5V68.6203H169.6ZM171.292 71.9203V77.4043H172.108V71.9203H171.292ZM168.976 77.7043L169.144 78.5803C170.404 78.2683 172.132 77.8483 173.776 77.4403L173.692 76.6363C171.964 77.0443 170.164 77.4643 168.976 77.7043ZM171.58 74.0563V74.8603H173.608V74.0563H171.58ZM183.82 73.0243V74.0083H194.8V73.0243H183.82ZM205.024 68.5723V69.3523H207.28V68.5723H205.024ZM203.644 73.5643V74.3563H207.988V73.5643H203.644ZM199.804 71.0563V71.8483H203.044V71.0563H199.804ZM199.816 73.5043V74.3083H203.032V73.5043H199.816ZM204.784 74.2843L204.052 74.4763C204.916 76.7923 206.596 78.4363 209.008 79.1323C209.128 78.8923 209.38 78.5443 209.572 78.3643C207.244 77.8003 205.564 76.2883 204.784 74.2843ZM198.448 76.3243L198.592 77.1763C199.852 76.9723 201.604 76.6963 203.26 76.4083L203.224 75.6283C201.448 75.8923 199.636 76.1683 198.448 76.3243ZM202.636 68.0563C201.904 68.4403 200.62 68.8963 199.48 69.1963C199.588 69.3883 199.732 69.6883 199.792 69.8803C200.968 69.5923 202.372 69.1843 203.38 68.7283L202.636 68.0563ZM204.508 68.5603V70.0243C204.508 70.9003 204.316 71.9563 203.128 72.7483C203.308 72.8683 203.632 73.1683 203.764 73.3363C205.072 72.4603 205.336 71.1163 205.336 70.0363V68.5603H204.508ZM207.796 73.5643V73.7203C207.16 76.3963 205.18 77.8603 202.768 78.4363C202.948 78.6163 203.152 78.9763 203.236 79.2043C205.864 78.4603 207.916 76.9123 208.684 73.7323L208.132 73.5403L207.976 73.5643H207.796ZM199.468 69.1843V78.9883H200.332V69.4843L199.468 69.1843ZM207.016 68.5603V71.5963C207.016 72.4243 207.172 72.7243 207.976 72.7243C208.12 72.7243 208.72 72.7243 208.888 72.7243C209.116 72.7243 209.356 72.7243 209.5 72.6763C209.464 72.4963 209.452 72.1843 209.428 71.9803C209.284 72.0163 209.032 72.0283 208.876 72.0283C208.72 72.0283 208.192 72.0283 208.06 72.0283C207.892 72.0283 207.856 71.9323 207.856 71.6203V68.5603H207.016ZM216.424 78.3643C217.78 78.3643 218.944 77.2123 218.944 75.5083C218.944 73.6603 217.984 72.7483 216.496 72.7483C215.788 72.7483 214.972 73.1803 214.432 73.8883L214.468 74.7643C215.056 73.8883 215.764 73.5523 216.328 73.5523C217.384 73.5523 217.912 74.3083 217.912 75.5083C217.912 76.6963 217.264 77.5003 216.424 77.5003C215.188 77.5003 214.504 76.2643 214.504 74.0083C214.504 71.1283 215.536 70.1563 216.772 70.1563C217.3 70.1563 217.84 70.4083 218.176 70.8163L218.788 70.1443C218.308 69.6283 217.636 69.2443 216.724 69.2443C215.02 69.2443 213.472 70.5643 213.472 74.0083C213.472 76.9123 214.732 78.3643 216.424 78.3643ZM223.969 69.3283H226.033V71.1283H223.969V69.3283ZM223.285 68.6443V71.8123H226.753V68.6443H223.285ZM222.709 72.7603V73.5523H227.041V72.7603H222.709ZM223.837 73.0963C223.705 73.8643 223.489 74.8483 223.297 75.5083H224.089C224.257 74.8843 224.473 73.9003 224.617 73.0963H223.837ZM223.921 74.7763L223.729 75.5083H226.093V74.7763H223.921ZM225.781 74.7763V74.9083C225.625 77.1163 225.469 77.9563 225.241 78.1843C225.157 78.2803 225.049 78.3043 224.869 78.3043C224.689 78.3043 224.245 78.2923 223.777 78.2563C223.909 78.4603 223.981 78.7843 223.993 79.0123C224.473 79.0483 224.953 79.0483 225.193 79.0243C225.517 79.0003 225.697 78.9283 225.889 78.7123C226.213 78.3763 226.369 77.4763 226.549 75.1363C226.561 75.0163 226.573 74.7763 226.573 74.7763H225.781ZM230.341 68.9443V69.6883H233.221V68.9443H230.341ZM227.977 70.5043V71.2363H233.233V70.5043H227.977ZM227.569 70.5043V73.5643C227.569 75.1003 227.461 77.1883 226.477 78.6883C226.669 78.7843 227.005 79.0243 227.137 79.1803C228.205 77.5843 228.361 75.2323 228.361 73.5643V70.5043H227.569ZM228.613 72.4363L228.697 73.0843L232.297 72.7123L232.225 72.0763L228.613 72.4363ZM232.993 70.5043V70.6123C232.909 71.2483 232.753 72.0283 232.621 72.5203L233.305 72.6883C233.461 72.1603 233.665 71.3203 233.809 70.6123L233.257 70.4683L233.113 70.5043H232.993ZM229.321 75.0643C229.249 76.7323 229.021 77.8963 227.893 78.5563C228.073 78.6883 228.301 78.9643 228.397 79.1563C229.705 78.3523 230.017 76.9963 230.089 75.0643H229.321ZM231.109 75.0643V77.8363C231.109 78.3763 231.157 78.5563 231.349 78.7123C231.517 78.8563 231.793 78.9043 232.057 78.9043C232.177 78.9043 232.549 78.9043 232.705 78.9043C232.921 78.9043 233.185 78.8563 233.341 78.7843C233.509 78.6883 233.629 78.5443 233.701 78.3283C233.761 78.1123 233.809 77.5123 233.821 76.9483C233.593 76.8883 233.305 76.7203 233.149 76.5763C233.161 77.1283 233.137 77.5963 233.113 77.7883C233.089 77.9083 233.017 78.0043 232.957 78.0403C232.897 78.0883 232.753 78.1003 232.633 78.1003C232.501 78.1003 232.321 78.1003 232.225 78.1003C232.117 78.1003 232.021 78.0883 231.973 78.0403C231.889 78.0163 231.877 77.9323 231.877 77.8483V75.0643H231.109ZM229.933 68.1163V70.8883H230.797V68.1163H229.933ZM229.885 71.3083V73.3243C229.885 74.1043 230.053 74.4403 230.821 74.4403C231.013 74.4403 232.033 74.4403 232.273 74.4403C232.573 74.4403 232.885 74.4283 233.053 74.3683C233.017 74.1763 232.993 73.9243 232.969 73.6963C232.813 73.7443 232.453 73.7563 232.237 73.7563C232.033 73.7563 231.145 73.7563 230.953 73.7563C230.701 73.7563 230.665 73.6483 230.665 73.3483V71.3083H229.885ZM238.045 78.1963H242.869V77.2843H241.093V69.4003H240.253C239.785 69.6883 239.221 69.8923 238.429 70.0243V70.7323H240.001V77.2843H238.045V78.1963ZM250.017 78.3643C251.373 78.3643 252.537 77.2123 252.537 75.5083C252.537 73.6603 251.577 72.7483 250.089 72.7483C249.381 72.7483 248.565 73.1803 248.025 73.8883L248.061 74.7643C248.649 73.8883 249.357 73.5523 249.921 73.5523C250.977 73.5523 251.505 74.3083 251.505 75.5083C251.505 76.6963 250.857 77.5003 250.017 77.5003C248.781 77.5003 248.097 76.2643 248.097 74.0083C248.097 71.1283 249.129 70.1563 250.365 70.1563C250.893 70.1563 251.433 70.4083 251.769 70.8163L252.381 70.1443C251.901 69.6283 251.229 69.2443 250.317 69.2443C248.613 69.2443 247.065 70.5643 247.065 74.0083C247.065 76.9123 248.325 78.3643 250.017 78.3643ZM259.985 75.4843V76.2043H267.341V75.4843H259.985ZM263.165 68.1163V74.4523H264.005V68.1163H263.165ZM261.473 69.4843H265.685V71.4163H261.473V69.4843ZM260.693 68.8843V72.0163H266.501V68.8843H260.693ZM261.257 73.2403H265.949V73.9963H261.257V73.2403ZM260.429 72.6283V74.5963H266.801V72.6283H260.429ZM265.397 74.9683C264.977 76.9603 263.945 78.0643 259.853 78.5203C259.985 78.6883 260.141 78.9883 260.201 79.1803C264.497 78.6403 265.733 77.3443 266.213 74.9683H265.397ZM260.693 77.2243C262.685 77.6563 265.229 78.4963 266.501 79.1323L267.161 78.5683C265.733 77.8843 263.213 77.1043 261.293 76.7203L260.693 77.2243ZM259.985 70.0843V70.7803H261.245V70.7083H265.997V70.7803H267.245V70.0843H265.997V70.1563H261.245V70.0843H259.985ZM260.693 77.2243H261.677C262.301 76.5763 263.189 75.4723 263.741 74.5123L262.937 74.2963C262.385 75.2803 261.449 76.4563 260.693 77.2243ZM256.301 70.4443V71.2723H259.745V70.4443H256.301ZM257.693 68.1163V79.1443H258.521V68.1163H257.693ZM257.633 70.9843C257.381 72.4963 256.733 74.6803 256.121 75.7843C256.265 76.0003 256.481 76.3963 256.577 76.6723C257.225 75.3523 257.849 72.9523 258.137 71.2243L257.633 70.9843ZM258.473 71.8603L258.041 72.1963C258.353 72.6883 259.133 74.1163 259.397 74.7163L259.949 74.0683C259.721 73.7083 258.749 72.1843 258.473 71.8603Z" fill="#BDBDBD"/>
<path d="M3.248 49.6569V50.5449H12.704V49.6569H3.248ZM2.624 54.7569V55.6569H13.388V54.7569H2.624ZM4.088 51.3729C4.544 52.2609 5.012 53.4249 5.18 54.1329L6.044 53.8449C5.876 53.1369 5.384 51.9969 4.892 51.1209L4.088 51.3729ZM11.048 51.0729C10.76 51.9369 10.196 53.1729 9.752 53.9289L10.52 54.1809C10.988 53.4609 11.552 52.3089 12.008 51.3369L11.048 51.0729ZM7.508 50.0049V59.8809H8.432V50.0049H7.508ZM17.132 49.6569V59.7489H18.056V50.5689H24.044V59.7009H24.992V49.6569H17.132ZM17.744 53.8209V54.7089H24.44V53.8209H17.744ZM17.732 58.0689V58.9689H24.464V58.0689H17.732ZM36.9591 59.1169C39.0591 59.1169 40.4591 57.2829 40.4591 53.6989C40.4591 50.1289 39.0591 48.3789 36.9591 48.3789C34.8451 48.3789 33.4451 50.1289 33.4451 53.6989C33.4451 57.2829 34.8451 59.1169 36.9591 59.1169ZM36.9591 57.5069C36.0631 57.5069 35.3911 56.6109 35.3911 53.6989C35.3911 50.8009 36.0631 49.9609 36.9591 49.9609C37.8551 49.9609 38.5131 50.8009 38.5131 53.6989C38.5131 56.6109 37.8551 57.5069 36.9591 57.5069ZM45.8469 59.1169C47.9049 59.1169 49.8229 57.4229 49.8229 53.5029C49.8229 49.9189 48.0589 48.3789 46.0849 48.3789C44.3209 48.3789 42.8369 49.6949 42.8369 51.8369C42.8369 54.0349 44.0689 55.0849 45.8049 55.0849C46.5329 55.0849 47.4709 54.6229 48.0309 53.8529L47.9189 52.4529C47.4149 53.3069 46.7709 53.6289 46.1829 53.6289C45.3009 53.6289 44.7129 53.0409 44.7129 51.8369C44.7129 50.5489 45.3429 49.9189 46.1269 49.9189C47.1349 49.9189 47.9329 50.8569 47.9329 53.5029C47.9329 56.4709 46.9389 57.4509 45.7209 57.4509C45.1049 57.4509 44.4749 57.1289 44.0829 56.6949L42.9909 57.9409C43.6209 58.5849 44.5449 59.1169 45.8469 59.1169ZM53.9928 53.8109C54.7208 53.8109 55.2808 53.2369 55.2808 52.4669C55.2808 51.7109 54.7208 51.1369 53.9928 51.1369C53.2508 51.1369 52.7188 51.7109 52.7188 52.4669C52.7188 53.2369 53.2508 53.8109 53.9928 53.8109ZM53.9928 59.1169C54.7208 59.1169 55.2808 58.5429 55.2808 57.7729C55.2808 57.0029 54.7208 56.4429 53.9928 56.4429C53.2508 56.4429 52.7188 57.0029 52.7188 57.7729C52.7188 58.5429 53.2508 59.1169 53.9928 59.1169ZM61.5975 59.1169C63.6975 59.1169 65.0975 57.2829 65.0975 53.6989C65.0975 50.1289 63.6975 48.3789 61.5975 48.3789C59.4835 48.3789 58.0835 50.1289 58.0835 53.6989C58.0835 57.2829 59.4835 59.1169 61.5975 59.1169ZM61.5975 57.5069C60.7015 57.5069 60.0295 56.6109 60.0295 53.6989C60.0295 50.8009 60.7015 49.9609 61.5975 49.9609C62.4935 49.9609 63.1515 50.8009 63.1515 53.6989C63.1515 56.6109 62.4935 57.5069 61.5975 57.5069ZM71.0453 59.1169C73.1453 59.1169 74.5453 57.2829 74.5453 53.6989C74.5453 50.1289 73.1453 48.3789 71.0453 48.3789C68.9313 48.3789 67.5313 50.1289 67.5313 53.6989C67.5313 57.2829 68.9313 59.1169 71.0453 59.1169ZM71.0453 57.5069C70.1493 57.5069 69.4773 56.6109 69.4773 53.6989C69.4773 50.8009 70.1493 49.9609 71.0453 49.9609C71.9413 49.9609 72.5993 50.8009 72.5993 53.6989C72.5993 56.6109 71.9413 57.5069 71.0453 57.5069ZM77.0351 55.6589H80.8711V54.1889H77.0351V55.6589ZM88.2306 58.9209H94.4746V57.2549H92.5286V48.5609H91.0026C90.3306 48.9669 89.6306 49.2329 88.5806 49.4289V50.7029H90.4706V57.2549H88.2306V58.9209ZM100.66 59.1169C102.746 59.1169 104.146 57.9269 104.146 56.3589C104.146 54.9309 103.362 54.1049 102.41 53.5869V53.5169C103.082 53.0269 103.74 52.1729 103.74 51.1369C103.74 49.4849 102.564 48.3929 100.73 48.3929C98.9244 48.3929 97.5944 49.4569 97.5944 51.1229C97.5944 52.2149 98.1824 53.0129 98.9664 53.5869V53.6429C98.0144 54.1469 97.2024 55.0289 97.2024 56.3589C97.2024 57.9829 98.6724 59.1169 100.66 59.1169ZM101.318 53.0129C100.226 52.5789 99.4144 52.0889 99.4144 51.1229C99.4144 50.2969 99.9744 49.8349 100.688 49.8349C101.542 49.8349 102.06 50.4229 102.06 51.2769C102.06 51.8929 101.822 52.4809 101.318 53.0129ZM100.702 57.6609C99.7364 57.6609 98.9664 57.0589 98.9664 56.1209C98.9664 55.3509 99.3584 54.6509 99.9324 54.2029C101.262 54.7629 102.228 55.1969 102.228 56.2749C102.228 57.1709 101.598 57.6609 100.702 57.6609ZM108.26 53.8109C108.988 53.8109 109.548 53.2369 109.548 52.4669C109.548 51.7109 108.988 51.1369 108.26 51.1369C107.518 51.1369 106.986 51.7109 106.986 52.4669C106.986 53.2369 107.518 53.8109 108.26 53.8109ZM108.26 59.1169C108.988 59.1169 109.548 58.5429 109.548 57.7729C109.548 57.0029 108.988 56.4429 108.26 56.4429C107.518 56.4429 106.986 57.0029 106.986 57.7729C106.986 58.5429 107.518 59.1169 108.26 59.1169ZM115.557 59.1169C117.545 59.1169 119.211 58.0249 119.211 56.1209C119.211 54.7489 118.315 53.8949 117.139 53.5589V53.4889C118.245 53.0689 118.861 52.2429 118.861 51.1369C118.861 49.3589 117.503 48.3789 115.501 48.3789C114.297 48.3789 113.303 48.8689 112.407 49.6389L113.457 50.9129C114.073 50.3389 114.675 49.9889 115.417 49.9889C116.299 49.9889 116.803 50.4789 116.803 51.2909C116.803 52.2149 116.187 52.8589 114.283 52.8589V54.3429C116.537 54.3429 117.139 54.9729 117.139 55.9949C117.139 56.9189 116.425 57.4509 115.361 57.4509C114.423 57.4509 113.681 56.9749 113.065 56.3729L112.085 57.6749C112.813 58.5149 113.919 59.1169 115.557 59.1169ZM125.313 59.1169C127.413 59.1169 128.813 57.2829 128.813 53.6989C128.813 50.1289 127.413 48.3789 125.313 48.3789C123.199 48.3789 121.799 50.1289 121.799 53.6989C121.799 57.2829 123.199 59.1169 125.313 59.1169ZM125.313 57.5069C124.417 57.5069 123.745 56.6109 123.745 53.6989C123.745 50.8009 124.417 49.9609 125.313 49.9609C126.209 49.9609 126.867 50.8009 126.867 53.6989C126.867 56.6109 126.209 57.5069 125.313 57.5069ZM135.574 61.4269H136.498L140.684 47.8049H139.774L135.574 61.4269ZM151.585 49.3329V50.0889H157.213V49.3329H151.585ZM151.765 51.1209V51.7689H157.009V51.1209H151.765ZM151.693 52.8729V53.5329H157.129V52.8729H151.693ZM153.877 49.9569V53.1009H154.645V49.9569H153.877ZM151.105 49.3329V52.4529C151.105 53.9769 151.045 56.0889 150.349 57.6129C150.553 57.6849 150.925 57.9129 151.081 58.0569C151.813 56.4369 151.933 54.0849 151.933 52.4529V49.3329H151.105ZM156.829 49.3329V57.1569C156.829 57.3249 156.769 57.3849 156.589 57.3849C156.445 57.3969 155.893 57.4089 155.281 57.3849C155.389 57.5889 155.509 57.9249 155.545 58.1529C156.409 58.1529 156.925 58.1409 157.249 58.0089C157.549 57.8649 157.669 57.6369 157.669 57.1689V49.3329H156.829ZM147.841 49.2609C148.345 49.8489 148.969 50.6889 149.269 51.1929L149.977 50.7369C149.677 50.2449 149.053 49.4769 148.525 48.8889L147.841 49.2609ZM147.445 51.6129V52.3689H149.845V51.6129H147.445ZM149.509 57.1209L148.909 57.3969C149.821 59.3889 151.405 59.7129 154.237 59.7129C155.569 59.7129 157.093 59.6769 158.233 59.6169C158.281 59.3649 158.389 58.9449 158.533 58.7409C157.297 58.8489 155.521 58.9089 154.249 58.9089C151.837 58.9089 150.253 58.6929 149.509 57.1209ZM149.437 54.6129V54.7689C149.161 56.9169 148.357 58.4649 147.217 59.2929C147.397 59.4249 147.697 59.7249 147.829 59.9169C149.029 58.9809 149.893 57.2649 150.265 54.7569L149.809 54.5889L149.653 54.6129H149.437ZM147.613 55.5129C147.697 55.4169 148.009 55.3449 148.297 55.3449H149.773V54.6129H148.033L147.613 54.8289V55.5129ZM147.613 55.5129C147.613 55.2849 148.285 54.9489 148.285 54.9489C148.921 54.1809 149.929 52.6209 150.457 51.8169L149.857 51.5649L149.593 51.6729V51.7089C149.233 52.3449 148.177 53.9889 147.841 54.3489C147.649 54.5769 147.457 54.6609 147.277 54.7089C147.373 54.8889 147.553 55.3089 147.613 55.5129ZM152.653 54.2769V57.3129H153.313V54.9249H155.221V56.9169H155.905V54.2769H152.653ZM152.785 56.2569V56.9169H155.737V56.2569H152.785ZM160.645 50.8689V51.7569H171.193V50.8689H160.645ZM161.257 53.8689V54.7449H170.569V53.8689H161.257ZM165.409 48.8409V59.8689H166.345V48.8409H165.409ZM165.169 54.3009C164.137 55.9809 162.145 57.6369 160.321 58.4289C160.537 58.6209 160.825 58.9689 160.993 59.2089C162.805 58.2729 164.773 56.4969 165.889 54.6129L165.169 54.3009ZM166.585 54.2649L165.865 54.5649C167.005 56.4129 168.997 58.2489 170.821 59.1729C170.977 58.9329 171.277 58.5729 171.493 58.3809C169.657 57.6009 167.629 55.9209 166.585 54.2649ZM174.577 59.0889C175.021 59.0889 175.381 58.7409 175.381 58.2489C175.381 57.7449 175.021 57.4089 174.577 57.4089C174.145 57.4089 173.797 57.7449 173.797 58.2489C173.797 58.7409 174.145 59.0889 174.577 59.0889ZM180.953 49.4649V50.2689H185.309V49.4649H180.953ZM182.129 51.9729L181.877 52.7769H184.421V51.9729H182.129ZM181.433 54.6969C182.093 55.1529 182.873 55.8009 183.245 56.2569L183.641 55.4769C183.269 55.0689 182.477 54.4449 181.817 54.0129L181.433 54.6969ZM185.381 50.2089V57.1329H186.197V50.2089H185.381ZM187.565 49.0329V58.7529C187.565 58.9569 187.493 59.0169 187.301 59.0289C187.097 59.0289 186.461 59.0409 185.741 59.0169C185.861 59.2689 185.993 59.6649 186.041 59.8929C186.977 59.8929 187.577 59.8689 187.925 59.7249C188.273 59.5809 188.417 59.3289 188.417 58.7529V49.0329H187.565ZM182.117 49.7409C181.901 51.5889 181.373 53.9649 180.197 55.3689C180.377 55.5249 180.629 55.8129 180.761 55.9929C182.057 54.4689 182.669 51.9369 182.993 49.8609L182.117 49.7409ZM184.073 51.9729V52.1649C183.677 55.6689 182.453 58.0209 180.689 59.2329C180.869 59.3649 181.157 59.7009 181.277 59.9169C183.125 58.5969 184.445 56.0169 184.913 52.1049L184.397 51.9369L184.241 51.9729H184.073ZM180.065 48.8889C179.489 50.7369 178.541 52.5729 177.485 53.7729C177.641 53.9889 177.881 54.4809 177.965 54.6849C179.153 53.2929 180.221 51.1929 180.905 49.1289L180.065 48.8889ZM179.105 51.8529V59.8809H179.933V51.0609L179.909 51.0369L179.105 51.8529ZM192.809 48.9129C192.365 50.7609 191.633 52.6089 190.721 53.8209C190.877 54.0369 191.117 54.5049 191.201 54.7209C192.269 53.3169 193.121 51.2049 193.661 49.1049L192.809 48.9129ZM192.005 51.9849V59.8809H192.857V51.1809L192.833 51.1569L192.005 51.9849ZM194.489 54.4209V55.1889H197.105V54.4209H194.489ZM194.489 56.6889V57.4569H197.237V56.6889H194.489ZM197.501 54.0489V54.8049H200.789V54.0489H197.501ZM194.417 49.3809V50.1489H196.565V52.3689H194.417V53.1249H197.357V49.3809H194.417ZM197.849 49.3809V50.1609H200.393V52.3329H197.849V53.1129H201.233V49.3809H197.849ZM194.057 49.3809V59.8449H194.897V49.3809H194.057ZM200.573 54.0489V54.1929C200.057 56.8809 198.473 58.5369 196.493 59.2449C196.649 59.4009 196.853 59.7129 196.949 59.9049C199.133 59.0409 200.777 57.3249 201.401 54.1809L200.885 54.0249L200.729 54.0489H200.573ZM198.437 54.7689L197.741 54.9369C198.353 57.1929 199.541 59.0409 201.353 59.8689C201.473 59.6529 201.725 59.3409 201.905 59.1849C200.177 58.4889 198.977 56.7729 198.437 54.7689ZM205.433 49.6569V59.7489H206.357V50.5689H212.345V59.7009H213.293V49.6569H205.433ZM206.045 53.8209V54.7089H212.741V53.8209H206.045ZM206.033 58.0689V58.9689H212.765V58.0689H206.033ZM223.349 51.5289V52.2729H227.753V51.5289H223.349ZM217.061 49.5849V50.1849H222.461V49.5849H217.061ZM216.929 53.7849V54.3729H222.341V53.7849H216.929ZM225.509 51.8769V55.1289H226.325V51.8769H225.509ZM218.621 55.3929V59.8929H219.509V56.1129H225.149V59.8569H226.073V55.3929H218.621ZM219.089 57.0969V57.7449H225.617V57.0969H219.089ZM219.089 58.7529V59.4609H225.581V58.7529H219.089ZM218.117 52.1769H221.429V52.7649H218.117V52.1769ZM218.117 51.1329H221.429V51.7089H218.117V51.1329ZM217.409 50.6529V53.2449H222.149V50.6529H217.409ZM219.377 48.8409V55.1289H220.169V48.8409H219.377ZM226.925 48.9969C226.037 49.2969 224.441 49.5129 223.121 49.6209C223.205 49.8129 223.301 50.0769 223.337 50.2569C224.693 50.1729 226.325 49.9569 227.405 49.6329L226.925 48.9969ZM223.121 49.6209V51.4329C223.121 52.4289 223.025 53.7369 222.257 54.7209C222.449 54.8049 222.809 55.0329 222.953 55.1769C223.757 54.1329 223.925 52.5729 223.925 51.4449V49.6209H223.121ZM233.261 49.9209V50.6889H240.773V49.9209H233.261ZM234.125 56.0529V56.7849H239.681V56.0529H234.125ZM234.953 51.9969H238.901V52.9929H234.953V51.9969ZM234.125 51.3369V53.6529H239.765V51.3369H234.125ZM236.489 56.3529V58.8729C236.489 59.0169 236.429 59.0529 236.249 59.0649C236.057 59.0769 235.397 59.0769 234.677 59.0529C234.797 59.2929 234.917 59.6049 234.965 59.8449C235.901 59.8449 236.513 59.8449 236.909 59.7249C237.281 59.6049 237.389 59.3649 237.389 58.8969V56.3529H236.489ZM233.069 54.3969V56.3529H233.849V55.1529H239.945V56.3529H240.761V54.3969H233.069ZM236.117 49.0209C236.393 49.4529 236.657 50.0289 236.765 50.4009L237.629 50.1249C237.509 49.7529 237.209 49.1889 236.945 48.7809L236.117 49.0209ZM232.505 48.8649C231.881 50.6889 230.849 52.4889 229.745 53.6529C229.901 53.8689 230.153 54.3369 230.237 54.5529C231.461 53.1969 232.601 51.1569 233.333 49.1289L232.505 48.8649ZM231.257 51.9969V59.8809H232.085V51.1569L232.073 51.1449L231.257 51.9969ZM244.037 49.2849V50.1249H246.821V49.2849H244.037ZM244.037 52.0929V52.9329H246.845V52.0929H244.037ZM248.717 53.4009V54.2409H253.073V53.4009H248.717ZM244.013 54.9729V55.8249H246.821V54.9729H244.013ZM243.665 49.2849V53.6049C243.665 55.3689 243.605 57.7809 242.777 59.4729C242.993 59.5569 243.353 59.7609 243.521 59.9049C244.373 58.1289 244.493 55.4769 244.493 53.6049V49.2849H243.665ZM246.317 49.2849V58.8009C246.317 58.9689 246.257 59.0169 246.089 59.0289C245.945 59.0409 245.441 59.0409 244.877 59.0289C244.997 59.2569 245.105 59.6649 245.141 59.8809C245.957 59.8929 246.437 59.8689 246.749 59.7249C247.049 59.5689 247.157 59.2929 247.157 58.8129V49.2849H246.317ZM252.449 49.3209V51.6369C252.449 51.7809 252.401 51.8289 252.209 51.8289C252.017 51.8409 251.381 51.8409 250.661 51.8289C250.769 52.0449 250.901 52.3449 250.949 52.5969C251.861 52.5969 252.461 52.5969 252.833 52.4649C253.217 52.3329 253.313 52.0929 253.313 51.6489V49.3209H252.449ZM252.833 53.4009V53.5689C252.317 56.1969 250.829 58.2489 249.125 59.1489C249.305 59.3049 249.545 59.6169 249.653 59.8209C251.525 58.7049 253.061 56.6289 253.661 53.5569L253.133 53.3769L252.989 53.4009H252.833ZM250.061 53.9169L249.341 54.1089C250.097 56.6649 251.489 58.8369 253.433 59.8929C253.565 59.6889 253.817 59.3769 254.021 59.2089C252.137 58.2969 250.745 56.2449 250.061 53.9169ZM248.213 49.3209V59.8809H249.065V50.1609H252.689V49.3209H248.213ZM256.085 49.4409V50.2209H260.177V49.4409H256.085ZM260.717 55.5729V56.3529H265.925V55.5729H260.717ZM255.953 53.0649V53.8689H260.465V53.0649H255.953ZM258.053 53.3889V58.8369C258.053 58.9689 258.005 59.0049 257.873 59.0169C257.729 59.0169 257.249 59.0169 256.733 59.0049C256.853 59.2449 256.973 59.6169 256.997 59.8449C257.741 59.8449 258.209 59.8329 258.509 59.7009C258.833 59.5449 258.917 59.3049 258.917 58.8369V53.3889H258.053ZM265.613 55.5729V55.7169C265.433 57.8169 265.217 58.6569 264.965 58.8969C264.857 59.0049 264.749 59.0169 264.557 59.0169C264.365 59.0169 263.885 59.0049 263.369 58.9569C263.501 59.1969 263.585 59.5569 263.609 59.7969C264.149 59.8329 264.677 59.8329 264.953 59.8089C265.277 59.7849 265.493 59.7129 265.709 59.4969C266.057 59.1369 266.273 58.2249 266.501 55.9689C266.525 55.8369 266.537 55.5729 266.537 55.5729H265.613ZM262.961 54.3849C262.757 56.4609 262.289 58.2729 259.793 59.1969C259.985 59.3529 260.225 59.6769 260.333 59.8929C263.045 58.8369 263.633 56.8089 263.861 54.3849H262.961ZM256.505 51.4449C257.525 51.9009 258.749 52.6569 259.349 53.2089L259.949 52.5489C259.325 51.9969 258.077 51.2889 257.069 50.8689L256.505 51.4449ZM260.225 53.0649V53.2209C260.033 54.0849 259.733 55.1529 259.421 55.8129L260.057 56.1249C260.429 55.3809 260.789 54.2289 261.041 53.2209L260.489 53.0289L260.357 53.0649H260.225ZM265.037 50.4729C264.389 52.3329 262.709 53.4009 260.525 53.9529C260.705 54.1449 260.981 54.5169 261.089 54.7089C263.357 54.0009 265.157 52.8009 265.961 50.6289L265.037 50.4729ZM262.469 48.8409C261.989 49.9929 261.113 51.0849 260.165 51.7929C260.393 51.9129 260.753 52.1649 260.909 52.3209C261.833 51.5529 262.757 50.3529 263.321 49.0689L262.469 48.8409ZM262.253 50.7249L261.509 50.9769C262.469 52.8249 264.269 54.1689 266.465 54.7569C266.585 54.5169 266.849 54.1689 267.041 53.9889C264.905 53.5209 263.117 52.3209 262.253 50.7249ZM257.945 53.3289C257.549 54.7089 256.697 56.2809 255.833 57.0969C255.989 57.3129 256.205 57.6849 256.301 57.9369C257.237 57.0009 258.101 55.1409 258.557 53.5569L257.945 53.3289ZM262.205 50.1129L261.833 50.8809H266.789V50.1129H262.205ZM259.961 49.4409V49.6089C259.565 50.2569 258.725 51.1329 257.957 51.6369C258.137 51.7449 258.413 51.9369 258.569 52.0809C259.397 51.5289 260.333 50.6169 260.885 49.7769L260.297 49.4049L260.153 49.4409H259.961Z" fill="#BDBDBD"/>
<path d="M22.0526 7.83824L17.4338 6.76715C17.1981 6.70301 16.9472 6.72832 16.7288 6.83803C16.5104 6.94774 16.3398 7.13419 16.2495 7.3621L14.1177 12.4788C14.0022 12.7018 13.9746 12.9604 14.0404 13.203C14.1063 13.4456 14.2608 13.6545 14.473 13.7878L17.1969 16.0485C15.5144 19.5232 12.7204 22.3303 9.26199 24.0208L7.01181 21.2843C6.84496 21.1151 6.63673 20.9928 6.40805 20.9301C6.17937 20.8675 5.93828 20.8666 5.70906 20.9272L0.616535 23.0691C0.397344 23.1696 0.219011 23.3424 0.111266 23.5589C0.00352056 23.7754 -0.0271325 24.0226 0.0243796 24.259L1.09025 28.8995C1.16229 29.131 1.30296 29.3346 1.49346 29.4835C1.68395 29.6323 1.91516 29.7192 2.15612 29.7324C7.6833 29.7293 12.9832 27.522 16.8915 23.5952C20.7998 19.6684 22.9969 14.3435 23 8.79022C22.9682 8.54896 22.8582 8.32494 22.6869 8.15286C22.5157 7.98077 22.2927 7.87016 22.0526 7.83824Z" fill="#FF8E30"/>
<path d="M45.652 16.5661V20.4075C45.652 21.919 45.4739 23.2331 45.1177 24.3499C44.7711 25.4667 44.2705 26.391 43.6158 27.1226C42.9708 27.8543 42.2006 28.3983 41.3052 28.7545C40.4099 29.1107 39.423 29.2888 38.3448 29.2888C37.4783 29.2888 36.6696 29.1781 35.9187 28.9567C35.1677 28.7256 34.489 28.379 33.8824 27.9169C33.2855 27.4452 32.7705 26.8579 32.3372 26.1551C31.904 25.4523 31.5718 24.6243 31.3408 23.6712C31.1097 22.7084 30.9942 21.6205 30.9942 20.4075V16.5661C30.9942 15.045 31.1675 13.7308 31.5141 12.6237C31.8703 11.5069 32.3757 10.5827 33.0304 9.85097C33.6851 9.11928 34.4601 8.57533 35.3554 8.21911C36.2508 7.86289 37.2376 7.68479 38.3159 7.68479C39.1824 7.68479 39.9863 7.80032 40.7276 8.03138C41.4785 8.25281 42.1573 8.5994 42.7638 9.07114C43.3703 9.53326 43.8854 10.1157 44.309 10.8185C44.7422 11.5213 45.0744 12.3541 45.3054 13.3169C45.5365 14.27 45.652 15.3531 45.652 16.5661ZM40.7853 20.9996V15.9452C40.7853 15.2712 40.7468 14.684 40.6698 14.1833C40.6024 13.6827 40.4965 13.2591 40.3521 12.9125C40.2173 12.5659 40.0488 12.2867 39.8467 12.0749C39.6445 11.8535 39.4134 11.6946 39.1535 11.5984C38.9032 11.4925 38.624 11.4395 38.3159 11.4395C37.9308 11.4395 37.5842 11.5213 37.2761 11.685C36.9777 11.839 36.7225 12.0894 36.5107 12.4359C36.2989 12.7825 36.1353 13.2446 36.0197 13.8223C35.9138 14.3999 35.8609 15.1076 35.8609 15.9452V20.9996C35.8609 21.6831 35.8946 22.28 35.962 22.7903C36.039 23.2909 36.1449 23.7193 36.2797 24.0756C36.4241 24.4221 36.5974 24.7061 36.7996 24.9276C37.0017 25.1394 37.2328 25.2934 37.4927 25.3897C37.7527 25.486 38.0367 25.5341 38.3448 25.5341C38.7202 25.5341 39.0572 25.4571 39.3557 25.3031C39.6541 25.149 39.9092 24.8987 40.121 24.5521C40.3425 24.1959 40.5061 23.729 40.612 23.1513C40.7276 22.564 40.7853 21.8468 40.7853 20.9996ZM66.3572 23.2091C66.3572 24.5473 66.0395 25.6689 65.4041 26.5739C64.7783 27.4789 63.9119 28.1576 62.8047 28.6101C61.7072 29.0626 60.4556 29.2888 59.05 29.2888C57.654 29.2888 56.3976 29.0626 55.2808 28.6101C54.1737 28.1576 53.2976 27.4789 52.6525 26.5739C52.0075 25.6689 51.685 24.5473 51.685 23.2091C51.685 22.2945 51.8679 21.4761 52.2337 20.7541C52.6092 20.0224 53.1291 19.4014 53.7934 18.8912C54.4577 18.3809 55.2327 17.991 56.1184 17.7214C57.0138 17.4519 57.9813 17.3171 59.0211 17.3171C60.4267 17.3171 61.6831 17.5578 62.7903 18.0391C63.8974 18.5109 64.7687 19.1848 65.4041 20.0609C66.0395 20.937 66.3572 21.9864 66.3572 23.2091ZM61.4617 22.8192C61.4617 22.2415 61.3606 21.7553 61.1584 21.3606C60.9562 20.9563 60.6722 20.6482 60.3064 20.4364C59.9405 20.2246 59.5121 20.1187 59.0211 20.1187C58.5397 20.1187 58.1113 20.2246 57.7358 20.4364C57.37 20.6482 57.0812 20.9563 56.8694 21.3606C56.6672 21.7553 56.5661 22.2415 56.5661 22.8192C56.5661 23.3776 56.672 23.8637 56.8838 24.2777C57.0956 24.6821 57.3844 24.995 57.7503 25.2164C58.1258 25.4282 58.559 25.5341 59.05 25.5341C59.541 25.5341 59.9646 25.4282 60.3208 25.2164C60.6867 24.995 60.9659 24.6821 61.1584 24.2777C61.3606 23.8637 61.4617 23.3776 61.4617 22.8192ZM65.924 13.5912C65.924 14.6888 65.6304 15.6515 65.0431 16.4795C64.4654 17.2978 63.6567 17.938 62.617 18.4002C61.5868 18.8526 60.3978 19.0789 59.05 19.0789C57.7118 19.0789 56.518 18.8526 55.4686 18.4002C54.4288 17.938 53.6105 17.2978 53.0136 16.4795C52.4263 15.6515 52.1327 14.6888 52.1327 13.5912C52.1327 12.3012 52.4263 11.2181 53.0136 10.342C53.6105 9.46587 54.4288 8.80157 55.4686 8.34908C56.5083 7.89659 57.6925 7.67035 59.0211 7.67035C60.369 7.67035 61.5628 7.89659 62.6025 8.34908C63.6423 8.80157 64.4558 9.46587 65.0431 10.342C65.6304 11.2181 65.924 12.3012 65.924 13.5912ZM61.0573 13.8512C61.0573 13.3506 60.9803 12.9221 60.8263 12.5659C60.6722 12.2001 60.446 11.9209 60.1475 11.7283C59.8491 11.5261 59.4736 11.4251 59.0211 11.4251C58.5879 11.4251 58.222 11.5213 57.9236 11.7139C57.6251 11.9064 57.3989 12.1856 57.2448 12.5515C57.0908 12.9077 57.0138 13.3409 57.0138 13.8512C57.0138 14.3518 57.0908 14.7899 57.2448 15.1653C57.3989 15.5408 57.6251 15.8344 57.9236 16.0462C58.2317 16.258 58.6071 16.3639 59.05 16.3639C59.5025 16.3639 59.8731 16.258 60.162 16.0462C60.4604 15.8344 60.6818 15.5408 60.8263 15.1653C60.9803 14.7899 61.0573 14.3518 61.0573 13.8512ZM87.0625 16.5661V20.4075C87.0625 21.919 86.8843 23.2331 86.5281 24.3499C86.1815 25.4667 85.6809 26.391 85.0262 27.1226C84.3812 27.8543 83.611 28.3983 82.7157 28.7545C81.8203 29.1107 80.8335 29.2888 79.7552 29.2888C78.8887 29.2888 78.08 29.1781 77.3291 28.9567C76.5781 28.7256 75.8994 28.379 75.2929 27.9169C74.696 27.4452 74.1809 26.8579 73.7477 26.1551C73.3144 25.4523 72.9823 24.6243 72.7512 23.6712C72.5202 22.7084 72.4046 21.6205 72.4046 20.4075V16.5661C72.4046 15.045 72.5779 13.7308 72.9245 12.6237C73.2807 11.5069 73.7862 10.5827 74.4408 9.85097C75.0955 9.11928 75.8705 8.57533 76.7659 8.21911C77.6612 7.86289 78.648 7.68479 79.7263 7.68479C80.5928 7.68479 81.3967 7.80032 82.138 8.03138C82.8889 8.25281 83.5677 8.5994 84.1742 9.07114C84.7807 9.53326 85.2958 10.1157 85.7194 10.8185C86.1527 11.5213 86.4848 12.3541 86.7159 13.3169C86.9469 14.27 87.0625 15.3531 87.0625 16.5661ZM82.1958 20.9996V15.9452C82.1958 15.2712 82.1573 14.684 82.0802 14.1833C82.0128 13.6827 81.9069 13.2591 81.7625 12.9125C81.6278 12.5659 81.4593 12.2867 81.2571 12.0749C81.0549 11.8535 80.8239 11.6946 80.5639 11.5984C80.3136 11.4925 80.0344 11.4395 79.7263 11.4395C79.3412 11.4395 78.9946 11.5213 78.6866 11.685C78.3881 11.839 78.133 12.0894 77.9212 12.4359C77.7094 12.7825 77.5457 13.2446 77.4302 13.8223C77.3243 14.3999 77.2713 15.1076 77.2713 15.9452V20.9996C77.2713 21.6831 77.305 22.28 77.3724 22.7903C77.4494 23.2909 77.5553 23.7193 77.6901 24.0756C77.8345 24.4221 78.0078 24.7061 78.21 24.9276C78.4122 25.1394 78.6432 25.2934 78.9032 25.3897C79.1631 25.486 79.4471 25.5341 79.7552 25.5341C80.1307 25.5341 80.4676 25.4571 80.7661 25.3031C81.0645 25.149 81.3197 24.8987 81.5315 24.5521C81.7529 24.1959 81.9166 23.729 82.0225 23.1513C82.138 22.564 82.1958 21.8468 82.1958 20.9996ZM107.768 16.5661V20.4075C107.768 21.919 107.59 23.2331 107.233 24.3499C106.887 25.4667 106.386 26.391 105.731 27.1226C105.086 27.8543 104.316 28.3983 103.421 28.7545C102.526 29.1107 101.539 29.2888 100.46 29.2888C99.594 29.2888 98.7852 29.1781 98.0343 28.9567C97.2834 28.7256 96.6046 28.379 95.9981 27.9169C95.4012 27.4452 94.8861 26.8579 94.4529 26.1551C94.0196 25.4523 93.6875 24.6243 93.4564 23.6712C93.2254 22.7084 93.1099 21.6205 93.1099 20.4075V16.5661C93.1099 15.045 93.2831 13.7308 93.6297 12.6237C93.986 11.5069 94.4914 10.5827 95.1461 9.85097C95.8007 9.11928 96.5757 8.57533 97.4711 8.21911C98.3664 7.86289 99.3533 7.68479 100.432 7.68479C101.298 7.68479 102.102 7.80032 102.843 8.03138C103.594 8.25281 104.273 8.5994 104.879 9.07114C105.486 9.53326 106.001 10.1157 106.425 10.8185C106.858 11.5213 107.19 12.3541 107.421 13.3169C107.652 14.27 107.768 15.3531 107.768 16.5661ZM102.901 20.9996V15.9452C102.901 15.2712 102.862 14.684 102.785 14.1833C102.718 13.6827 102.612 13.2591 102.468 12.9125C102.333 12.5659 102.164 12.2867 101.962 12.0749C101.76 11.8535 101.529 11.6946 101.269 11.5984C101.019 11.4925 100.74 11.4395 100.432 11.4395C100.046 11.4395 99.6999 11.5213 99.3918 11.685C99.0933 11.839 98.8382 12.0894 98.6264 12.4359C98.4146 12.7825 98.2509 13.2446 98.1354 13.8223C98.0295 14.3999 97.9765 15.1076 97.9765 15.9452V20.9996C97.9765 21.6831 98.0102 22.28 98.0776 22.7903C98.1546 23.2909 98.2605 23.7193 98.3953 24.0756C98.5397 24.4221 98.713 24.7061 98.9152 24.9276C99.1174 25.1394 99.3485 25.2934 99.6084 25.3897C99.8683 25.486 100.152 25.5341 100.46 25.5341C100.836 25.5341 101.173 25.4571 101.471 25.3031C101.77 25.149 102.025 24.8987 102.237 24.5521C102.458 24.1959 102.622 23.729 102.728 23.1513C102.843 22.564 102.901 21.8468 102.901 20.9996ZM123.447 18.0536V21.8227H114.768V18.0536H123.447ZM145.337 23.2091C145.337 24.5473 145.019 25.6689 144.384 26.5739C143.758 27.4789 142.891 28.1576 141.784 28.6101C140.687 29.0626 139.435 29.2888 138.029 29.2888C136.634 29.2888 135.377 29.0626 134.26 28.6101C133.153 28.1576 132.277 27.4789 131.632 26.5739C130.987 25.6689 130.664 24.5473 130.664 23.2091C130.664 22.2945 130.847 21.4761 131.213 20.7541C131.589 20.0224 132.109 19.4014 132.773 18.8912C133.437 18.3809 134.212 17.991 135.098 17.7214C135.993 17.4519 136.961 17.3171 138.001 17.3171C139.406 17.3171 140.663 17.5578 141.77 18.0391C142.877 18.5109 143.748 19.1848 144.384 20.0609C145.019 20.937 145.337 21.9864 145.337 23.2091ZM140.441 22.8192C140.441 22.2415 140.34 21.7553 140.138 21.3606C139.936 20.9563 139.652 20.6482 139.286 20.4364C138.92 20.2246 138.492 20.1187 138.001 20.1187C137.519 20.1187 137.091 20.2246 136.715 20.4364C136.35 20.6482 136.061 20.9563 135.849 21.3606C135.647 21.7553 135.546 22.2415 135.546 22.8192C135.546 23.3776 135.652 23.8637 135.863 24.2777C136.075 24.6821 136.364 24.995 136.73 25.2164C137.105 25.4282 137.538 25.5341 138.029 25.5341C138.52 25.5341 138.944 25.4282 139.3 25.2164C139.666 24.995 139.945 24.6821 140.138 24.2777C140.34 23.8637 140.441 23.3776 140.441 22.8192ZM144.904 13.5912C144.904 14.6888 144.61 15.6515 144.023 16.4795C143.445 17.2978 142.636 17.938 141.596 18.4002C140.566 18.8526 139.377 19.0789 138.029 19.0789C136.691 19.0789 135.497 18.8526 134.448 18.4002C133.408 17.938 132.59 17.2978 131.993 16.4795C131.406 15.6515 131.112 14.6888 131.112 13.5912C131.112 12.3012 131.406 11.2181 131.993 10.342C132.59 9.46587 133.408 8.80157 134.448 8.34908C135.488 7.89659 136.672 7.67035 138.001 7.67035C139.348 7.67035 140.542 7.89659 141.582 8.34908C142.622 8.80157 143.435 9.46587 144.023 10.342C144.61 11.2181 144.904 12.3012 144.904 13.5912ZM140.037 13.8512C140.037 13.3506 139.96 12.9221 139.806 12.5659C139.652 12.2001 139.425 11.9209 139.127 11.7283C138.829 11.5261 138.453 11.4251 138.001 11.4251C137.567 11.4251 137.202 11.5213 136.903 11.7139C136.605 11.9064 136.378 12.1856 136.224 12.5515C136.07 12.9077 135.993 13.3409 135.993 13.8512C135.993 14.3518 136.07 14.7899 136.224 15.1653C136.378 15.5408 136.605 15.8344 136.903 16.0462C137.211 16.258 137.587 16.3639 138.029 16.3639C138.482 16.3639 138.853 16.258 139.141 16.0462C139.44 15.8344 139.661 15.5408 139.806 15.1653C139.96 14.7899 140.037 14.3518 140.037 13.8512ZM166.042 23.2091C166.042 24.5473 165.724 25.6689 165.089 26.5739C164.463 27.4789 163.597 28.1576 162.489 28.6101C161.392 29.0626 160.14 29.2888 158.735 29.2888C157.339 29.2888 156.082 29.0626 154.966 28.6101C153.858 28.1576 152.982 27.4789 152.337 26.5739C151.692 25.6689 151.37 24.5473 151.37 23.2091C151.37 22.2945 151.553 21.4761 151.918 20.7541C152.294 20.0224 152.814 19.4014 153.478 18.8912C154.142 18.3809 154.917 17.991 155.803 17.7214C156.699 17.4519 157.666 17.3171 158.706 17.3171C160.111 17.3171 161.368 17.5578 162.475 18.0391C163.582 18.5109 164.453 19.1848 165.089 20.0609C165.724 20.937 166.042 21.9864 166.042 23.2091ZM161.146 22.8192C161.146 22.2415 161.045 21.7553 160.843 21.3606C160.641 20.9563 160.357 20.6482 159.991 20.4364C159.625 20.2246 159.197 20.1187 158.706 20.1187C158.224 20.1187 157.796 20.2246 157.421 20.4364C157.055 20.6482 156.766 20.9563 156.554 21.3606C156.352 21.7553 156.251 22.2415 156.251 22.8192C156.251 23.3776 156.357 23.8637 156.569 24.2777C156.78 24.6821 157.069 24.995 157.435 25.2164C157.81 25.4282 158.244 25.5341 158.735 25.5341C159.226 25.5341 159.649 25.4282 160.006 25.2164C160.371 24.995 160.651 24.6821 160.843 24.2777C161.045 23.8637 161.146 23.3776 161.146 22.8192ZM165.609 13.5912C165.609 14.6888 165.315 15.6515 164.728 16.4795C164.15 17.2978 163.341 17.938 162.302 18.4002C161.272 18.8526 160.083 19.0789 158.735 19.0789C157.396 19.0789 156.203 18.8526 155.153 18.4002C154.114 17.938 153.295 17.2978 152.698 16.4795C152.111 15.6515 151.817 14.6888 151.817 13.5912C151.817 12.3012 152.111 11.2181 152.698 10.342C153.295 9.46587 154.114 8.80157 155.153 8.34908C156.193 7.89659 157.377 7.67035 158.706 7.67035C160.054 7.67035 161.247 7.89659 162.287 8.34908C163.327 8.80157 164.141 9.46587 164.728 10.342C165.315 11.2181 165.609 12.3012 165.609 13.5912ZM160.742 13.8512C160.742 13.3506 160.665 12.9221 160.511 12.5659C160.357 12.2001 160.131 11.9209 159.832 11.7283C159.534 11.5261 159.158 11.4251 158.706 11.4251C158.273 11.4251 157.907 11.5213 157.608 11.7139C157.31 11.9064 157.084 12.1856 156.93 12.5515C156.776 12.9077 156.699 13.3409 156.699 13.8512C156.699 14.3518 156.776 14.7899 156.93 15.1653C157.084 15.5408 157.31 15.8344 157.608 16.0462C157.916 16.258 158.292 16.3639 158.735 16.3639C159.187 16.3639 159.558 16.258 159.847 16.0462C160.145 15.8344 160.367 15.5408 160.511 15.1653C160.665 14.7899 160.742 14.3518 160.742 13.8512ZM176.306 19.6277L172.436 18.7179L173.707 7.97361H185.996V11.7572H177.678L177.202 15.9307C177.433 15.7959 177.823 15.6371 178.371 15.4542C178.93 15.2616 179.546 15.1653 180.22 15.1653C181.26 15.1653 182.179 15.3242 182.978 15.6419C183.787 15.95 184.47 16.4073 185.029 17.0138C185.587 17.6107 186.006 18.3472 186.285 19.2233C186.574 20.0994 186.718 21.1007 186.718 22.2271C186.718 23.1321 186.569 24.0082 186.271 24.8554C185.982 25.693 185.534 26.4487 184.928 27.1226C184.331 27.7869 183.575 28.3164 182.66 28.7112C181.746 29.0963 180.663 29.2888 179.411 29.2888C178.477 29.2888 177.567 29.1444 176.682 28.8556C175.796 28.5668 174.997 28.1528 174.284 27.6136C173.582 27.0649 173.023 26.4054 172.609 25.6352C172.205 24.8554 172.008 23.9841 172.017 23.0213H176.913C176.942 23.5316 177.062 23.9745 177.274 24.3499C177.486 24.7254 177.77 25.019 178.126 25.2308C178.492 25.433 178.91 25.5341 179.382 25.5341C179.864 25.5341 180.263 25.4378 180.581 25.2453C180.898 25.0527 181.149 24.788 181.332 24.451C181.515 24.1141 181.645 23.729 181.722 23.2957C181.799 22.8529 181.837 22.3859 181.837 21.8949C181.837 21.375 181.779 20.9081 181.664 20.4941C181.558 20.0802 181.385 19.7287 181.144 19.4399C180.903 19.1415 180.59 18.9152 180.205 18.7612C179.83 18.6071 179.377 18.5301 178.848 18.5301C178.145 18.5301 177.591 18.6505 177.187 18.8912C176.783 19.1318 176.489 19.3773 176.306 19.6277ZM202.427 18.0536V21.8227H193.748V18.0536H202.427ZM224.388 25.2453V29H209.716V25.8229L216.475 18.7179C217.072 18.0343 217.553 17.423 217.919 16.8838C218.285 16.3351 218.549 15.8393 218.713 15.3964C218.886 14.9535 218.973 14.554 218.973 14.1978C218.973 13.5912 218.882 13.0858 218.699 12.6814C218.525 12.2675 218.265 11.9546 217.919 11.7428C217.582 11.531 217.163 11.4251 216.662 11.4251C216.162 11.4251 215.724 11.5695 215.348 11.8583C214.973 12.1471 214.679 12.5418 214.467 13.0425C214.265 13.5431 214.164 14.1063 214.164 14.7321H209.283C209.283 13.442 209.596 12.2626 210.222 11.194C210.857 10.1253 211.738 9.27332 212.864 8.63791C213.991 7.99287 215.295 7.67035 216.778 7.67035C218.328 7.67035 219.628 7.91103 220.677 8.39241C221.726 8.87378 222.516 9.57177 223.045 10.4864C223.585 11.3914 223.854 12.4841 223.854 13.7645C223.854 14.4962 223.739 15.199 223.508 15.8729C223.276 16.5469 222.944 17.216 222.511 17.8803C222.078 18.5349 221.548 19.2089 220.923 19.902C220.306 20.5952 219.604 21.3317 218.814 22.1115L216.099 25.2453H224.388ZM245.094 25.2453V29H230.421V25.8229L237.18 18.7179C237.777 18.0343 238.258 17.423 238.624 16.8838C238.99 16.3351 239.255 15.8393 239.418 15.3964C239.592 14.9535 239.678 14.554 239.678 14.1978C239.678 13.5912 239.587 13.0858 239.404 12.6814C239.231 12.2675 238.971 11.9546 238.624 11.7428C238.287 11.531 237.868 11.4251 237.368 11.4251C236.867 11.4251 236.429 11.5695 236.053 11.8583C235.678 12.1471 235.384 12.5418 235.173 13.0425C234.97 13.5431 234.869 14.1063 234.869 14.7321H229.988C229.988 13.442 230.301 12.2626 230.927 11.194C231.562 10.1253 232.443 9.27332 233.57 8.63791C234.696 7.99287 236.001 7.67035 237.483 7.67035C239.033 7.67035 240.333 7.91103 241.382 8.39241C242.432 8.87378 243.221 9.57177 243.751 10.4864C244.29 11.3914 244.559 12.4841 244.559 13.7645C244.559 14.4962 244.444 15.199 244.213 15.8729C243.982 16.5469 243.65 17.216 243.216 17.8803C242.783 18.5349 242.254 19.2089 241.628 19.902C241.012 20.5952 240.309 21.3317 239.519 22.1115L236.804 25.2453H245.094ZM265.799 25.2453V29H251.127V25.8229L257.885 18.7179C258.482 18.0343 258.963 17.423 259.329 16.8838C259.695 16.3351 259.96 15.8393 260.123 15.3964C260.297 14.9535 260.383 14.554 260.383 14.1978C260.383 13.5912 260.292 13.0858 260.109 12.6814C259.936 12.2675 259.676 11.9546 259.329 11.7428C258.992 11.531 258.573 11.4251 258.073 11.4251C257.572 11.4251 257.134 11.5695 256.759 11.8583C256.383 12.1471 256.09 12.5418 255.878 13.0425C255.676 13.5431 255.575 14.1063 255.575 14.7321H250.693C250.693 13.442 251.006 12.2626 251.632 11.194C252.267 10.1253 253.148 9.27332 254.275 8.63791C255.401 7.99287 256.706 7.67035 258.188 7.67035C259.738 7.67035 261.038 7.91103 262.087 8.39241C263.137 8.87378 263.926 9.57177 264.456 10.4864C264.995 11.3914 265.265 12.4841 265.265 13.7645C265.265 14.4962 265.149 15.199 264.918 15.8729C264.687 16.5469 264.355 17.216 263.922 17.8803C263.488 18.5349 262.959 19.2089 262.333 19.902C261.717 20.5952 261.014 21.3317 260.225 22.1115L257.51 25.2453H265.799Z" fill="#FF8E30"/>
</svg>
