<svg width="162" height="34" viewBox="0 0 162 34" fill="none" xmlns="http://www.w3.org/2000/svg">
<g style="mix-blend-mode:screen">
<rect width="162" height="34" rx="17" transform="matrix(1 0 0 -1 0 34)" fill="url(#paint0_linear_14_33500)"/>
</g>
<path d="M54.0259 19.512C53.8819 18.776 53.4819 17.672 53.0339 16.824L52.2019 17.096V15.784H53.6419V14.424H51.2099V12.792H53.2899V11.464H51.2099V9.576H49.8339V11.464H47.5939V12.792H49.8339V14.424H47.0019V15.784H49.0819C49.0179 19.384 48.7619 21.832 46.9379 23.272C47.2259 23.512 47.6259 23.976 47.8019 24.312C49.8659 22.616 50.1859 19.784 50.2499 15.784H51.0019V22.76C51.0019 22.936 50.9539 22.968 50.7779 22.984C50.6179 23 50.0739 23 49.4979 22.984C49.6579 23.32 49.8179 23.832 49.8499 24.168C50.7299 24.168 51.3059 24.152 51.7059 23.944C52.0899 23.752 52.2019 23.384 52.2019 22.76V17.304C52.5859 18.136 52.9379 19.176 53.0499 19.88L54.0259 19.512ZM47.6739 16.824C47.4819 18.104 47.1779 19.416 46.6979 20.328C46.9539 20.456 47.4339 20.712 47.6419 20.856C48.1059 19.912 48.5219 18.44 48.7299 17.032L47.6739 16.824ZM54.7459 16.808C54.5539 18.184 54.1859 19.576 53.5939 20.52C53.8499 20.648 54.3299 20.936 54.5379 21.08C55.1299 20.088 55.5619 18.552 55.8179 16.984L54.7459 16.808ZM61.3219 15.784V14.424H58.3459V12.792H60.7619V11.464H58.3459V9.576H56.9859V11.464H54.5539V12.792H56.9859V14.424H54.0899V15.784H56.1379C56.0739 19.4 55.8179 21.816 53.8979 23.24C54.2019 23.464 54.5859 23.944 54.7619 24.248C56.9059 22.584 57.2419 19.8 57.3059 15.784H58.1379V22.856C58.1379 23.032 58.0899 23.08 57.8979 23.08C57.7219 23.08 57.1619 23.08 56.5699 23.064C56.7299 23.416 56.8739 23.944 56.9059 24.28C57.8179 24.28 58.4419 24.264 58.8419 24.056C59.2419 23.864 59.3379 23.496 59.3379 22.856V15.784H61.3219ZM59.3539 17.048C59.8979 18.312 60.3619 19.96 60.5059 21.048L61.6099 20.744C61.4659 19.672 60.9699 18.04 60.3939 16.808L59.3539 17.048ZM76.3459 9.88C74.3779 10.424 71.1299 10.792 68.4259 10.984C68.5539 11.288 68.7299 11.832 68.7779 12.168C71.4979 12.024 74.8259 11.704 77.0179 11.144L76.3459 9.88ZM75.6259 11.928C75.2419 13.064 74.6339 14.376 74.0579 15.256C74.4099 15.384 74.9859 15.656 75.2579 15.832C75.7859 14.936 76.4419 13.512 76.9219 12.296L75.6259 11.928ZM73.6419 14.824C73.4819 14.104 73.0979 13 72.7459 12.152L71.5299 12.52C71.8499 13.384 72.2339 14.504 72.3619 15.24L73.6419 14.824ZM71.0979 15.368C70.8579 14.648 70.3619 13.544 69.8979 12.664L68.7459 13.112C69.1939 13.992 69.6899 15.144 69.9139 15.864L71.0979 15.368ZM68.5379 19.016C68.4259 18.168 68.0419 16.76 67.6739 15.672L66.6339 15.928C66.7779 16.376 66.9219 16.888 67.0339 17.384L64.9699 17.64C66.2019 16.2 67.4339 14.392 68.3939 12.616L67.1459 11.864C66.8099 12.616 66.3939 13.352 65.9939 14.04L64.5859 14.168C65.4179 12.968 66.2499 11.48 66.8739 10.056L65.5139 9.512C64.9379 11.224 63.9139 13.016 63.5779 13.496C63.2579 13.96 63.0019 14.296 62.7139 14.36C62.8739 14.712 63.0819 15.368 63.1619 15.656C63.3859 15.56 63.7539 15.464 65.1779 15.304C64.6819 16.056 64.2339 16.616 64.0259 16.872C63.5299 17.464 63.1779 17.864 62.8259 17.944C62.9859 18.296 63.2099 18.984 63.2739 19.272C63.5939 19.096 64.1059 18.984 67.3059 18.504C67.3699 18.808 67.4179 19.112 67.4499 19.352L68.5379 19.016ZM63.4659 19.864C63.3379 21.192 63.1139 22.632 62.7459 23.624C63.0499 23.72 63.5939 23.896 63.8499 24.024C64.1859 23.016 64.4579 21.496 64.6179 20.072L63.4659 19.864ZM65.0819 20.04C65.2579 21.144 65.4179 22.6 65.4339 23.576L66.5539 23.368C66.5059 22.408 66.3299 20.984 66.1379 19.848L65.0819 20.04ZM77.0179 18.296V16.952H73.4499V15.496H71.9939V16.952H68.7779V18.296H71.4659C70.6819 19.72 69.4819 21.144 68.3779 22.024C68.2339 21.304 67.8979 20.248 67.6099 19.432L66.6179 19.736C66.9219 20.584 67.2419 21.736 67.3699 22.456L68.1539 22.184C68.4739 22.456 68.9379 22.952 69.1779 23.304C70.1539 22.424 71.2099 20.984 71.9939 19.464V24.216H73.4499V19.32C74.3299 20.872 75.4979 22.36 76.6179 23.24C76.8579 22.872 77.3059 22.376 77.6419 22.12C76.3459 21.304 74.9379 19.8 74.0099 18.296H77.0179ZM84.3619 14.376H79.6099V15.544H84.3779V15.16C84.6499 15.416 85.0979 15.928 85.2739 16.216C87.2099 15.096 87.6419 13.368 87.6419 11.896V11.512H89.9619V13.688C89.9619 15.064 90.2179 15.592 91.4499 15.592H92.3939C92.6979 15.592 93.0339 15.576 93.2259 15.496C93.1779 15.16 93.1459 14.632 93.1139 14.248C92.9219 14.312 92.5859 14.344 92.3939 14.344H91.5779C91.3699 14.344 91.3379 14.184 91.3379 13.736V10.136H86.2819V11.864C86.2819 12.936 86.0259 14.152 84.3619 15.08V14.376ZM79.6099 17.656H84.3939V16.504H79.6099V17.656ZM85.0339 12.248H81.7859L82.9539 11.592C82.7299 11.016 82.2019 10.168 81.7699 9.496L80.6019 10.088C81.0339 10.744 81.5139 11.656 81.7539 12.248H78.9219V13.432H85.0339V12.248ZM90.8419 17.912C90.3459 18.968 89.6579 19.864 88.8259 20.616C87.9299 19.848 87.2259 18.952 86.7299 17.912H90.8419ZM83.0819 22.136H80.8899V19.848H83.0819V22.136ZM91.8019 16.472L91.5459 16.52H84.8259V17.912H86.2659L85.4019 18.216C85.9779 19.48 86.7459 20.584 87.6739 21.496C86.6819 22.136 85.5619 22.6 84.3779 22.904V18.648H79.6099V24.056H80.8899V23.336H84.3779V23.112C84.6179 23.464 84.8579 23.928 84.9859 24.264C86.3779 23.848 87.6899 23.272 88.8259 22.472C89.9299 23.256 91.1939 23.848 92.6499 24.216C92.8579 23.8 93.2739 23.176 93.5779 22.872C92.2499 22.584 91.0499 22.12 90.0259 21.496C91.2259 20.312 92.1699 18.808 92.7139 16.872L91.8019 16.472ZM101.818 12.248H98.2019L99.3859 11.592C99.1459 11.016 98.6339 10.168 98.1859 9.496L97.0179 10.088C97.4499 10.744 97.9299 11.656 98.1699 12.248H95.2099V13.432H101.818V12.248ZM101.146 15.544V14.376H95.8979V15.544H101.146ZM101.098 16.488H95.8979V17.64H101.098V16.488ZM99.8659 19.848V22.136H97.2739V19.848H99.8659ZM101.162 18.648H95.9939V24.056H97.2739V23.336H101.162V18.648ZM109.418 14.984H106.282V9.88H104.746V14.984H101.786V16.44H104.746V24.264H106.282V16.44H109.418V14.984ZM119.994 11.64C119.738 11.416 119.402 11.176 119.018 10.936C119.338 10.632 119.61 10.312 119.85 9.992L118.842 9.72C118.666 9.944 118.442 10.2 118.17 10.424C117.818 10.216 117.434 10.024 117.098 9.864L116.378 10.488C116.714 10.632 117.066 10.824 117.386 11.016C116.986 11.304 116.522 11.56 116.074 11.752C116.33 11.912 116.714 12.28 116.89 12.44C117.338 12.216 117.818 11.896 118.266 11.56C118.666 11.816 119.018 12.072 119.258 12.312L119.994 11.64ZM113.93 14.52H115.946C116.17 14.68 116.538 15.048 116.698 15.256H113.962L113.93 14.52ZM112.762 16.376H123.53V18.312H125.002V15.256H123.786C123.914 13.816 124.058 11.768 124.138 10.152H120.33V11.128H122.682L122.65 11.848H120.41V12.808H122.586L122.522 13.544H120.33V14.52H122.458C122.426 14.776 122.394 15.016 122.378 15.256H116.794C117.258 14.984 117.77 14.68 118.234 14.312C118.682 14.616 119.05 14.904 119.306 15.16L120.058 14.472C119.786 14.216 119.434 13.944 119.002 13.656C119.338 13.336 119.626 13.016 119.882 12.68L118.874 12.36C118.682 12.632 118.442 12.888 118.154 13.144C117.786 12.92 117.386 12.712 117.034 12.536L116.314 13.16C116.65 13.32 117.018 13.528 117.354 13.736C116.938 14.024 116.458 14.28 116.01 14.488V13.544H113.85L113.802 12.808H115.946V11.848H113.754L113.706 11.208C114.506 11.064 115.37 10.84 116.058 10.584L115.418 9.704C114.586 9.96 113.21 10.36 112.282 10.52L112.57 15.256H111.354V18.312H112.762V16.376ZM125.274 20.024H119.05V19.896C120.266 19.368 121.514 18.68 122.442 17.96L121.594 17.192L121.274 17.272H114.026V18.36H119.754C119.082 18.776 118.298 19.16 117.594 19.448V20.024H111.034V21.24H117.594V22.728C117.594 22.936 117.514 23 117.258 23C117.018 23 116.09 23 115.21 22.968C115.402 23.32 115.61 23.848 115.69 24.232C116.938 24.232 117.754 24.232 118.33 24.024C118.89 23.832 119.05 23.48 119.05 22.776V21.24H125.274V20.024ZM139.898 12.792V14.36H133.722V12.792H139.898ZM133.61 15.656H140.058V14.44H141.322V11.496H137.834C137.658 10.936 137.242 10.088 136.858 9.448L135.482 9.848C135.754 10.328 136.042 10.984 136.234 11.496H132.346V14.44H133.61V15.656ZM131.21 10.168L131.002 10.232H127.434V24.232H128.746V11.56H130.49C130.202 12.616 129.77 13.96 129.37 15.016C130.426 16.216 130.682 17.288 130.682 18.104C130.682 18.568 130.586 18.968 130.362 19.144C130.234 19.224 130.09 19.272 129.898 19.272C129.674 19.288 129.386 19.272 129.082 19.256C129.29 19.624 129.402 20.184 129.418 20.552C129.786 20.552 130.186 20.552 130.474 20.52C130.81 20.472 131.098 20.376 131.338 20.2C131.802 19.848 131.994 19.176 131.994 18.248C131.994 17.288 131.754 16.152 130.698 14.84C131.178 13.608 131.738 12.04 132.186 10.728L131.21 10.168ZM139.066 22.792C138.762 22.792 138.714 22.728 138.714 22.296V18.536H141.402V17.208H132.394V18.536H134.474C134.266 20.792 133.674 22.232 131.018 23.08C131.322 23.352 131.706 23.896 131.866 24.264C134.89 23.208 135.658 21.336 135.914 18.536H137.306V22.312C137.306 23.656 137.594 24.056 138.826 24.056H140.122C141.146 24.056 141.482 23.512 141.61 21.368C141.242 21.288 140.666 21.08 140.362 20.824C140.33 22.536 140.266 22.792 139.962 22.792H139.066Z" fill="white"/>
<path d="M26.4425 17.9689C26.1859 17.1263 25.698 16.3753 25.0359 15.8035C24.8418 15.6552 24.6308 15.5011 24.4058 15.3385L24.1245 15.1359L23.8938 14.9676L23.8206 14.9163L23.5393 14.7223L23.3987 14.6167L23.2074 14.4769C22.1496 13.6924 21.3619 13.0191 20.9821 12.4799L20.2282 14.785L20.1325 15.096V15.1131L20.0003 15.5182C19.9985 15.5683 20.0042 15.6183 20.0172 15.6666C20.1747 16.1915 21.0946 17.0189 23.0892 18.4368L23.1989 18.5167L23.4043 18.665L23.6125 18.8134C24.9234 19.7691 25.8208 20.5051 26.2484 21.1214L26.2765 21.1556C26.7001 20.1463 26.7588 19.0178 26.4425 17.9689Z" fill="white"/>
<path d="M26.0374 21.7519C25.9136 21.2555 25.0669 20.4395 23.5056 19.3126L23.4718 19.421C22.6475 21.943 22.414 23.2354 22.7066 23.6205C22.7532 23.6461 22.8056 23.6589 22.8585 23.6576C23.4746 23.6548 24.7659 22.7418 26.0374 21.7519Z" fill="white"/>
<path d="M23.9754 14.4313C24.4958 14.2173 25.0866 12.4342 25.4692 11.139H25.1006C22.5688 11.139 21.3253 11.3244 21.1031 11.7381C20.9934 12.3058 22.9063 13.6895 23.9754 14.4313Z" fill="white"/>
<path d="M30.1757 10.1319C30.4787 10.5635 30.881 10.9136 31.3477 11.1518C31.8145 11.3899 32.3315 11.5089 32.8538 11.4985C33.2349 11.4967 33.6138 11.4401 33.9791 11.3302C33.9144 11.1333 33.8497 10.9279 33.7794 10.7082L33.6809 10.3915C33.0873 8.53429 32.4121 6.65422 31.8157 6.53725C31.2475 6.63139 30.5639 8.79961 30.1757 10.1319Z" fill="white"/>
<path d="M33.6106 21.9031C33.5937 21.9015 33.5768 21.9015 33.5599 21.9031C32.9635 21.9031 31.782 22.7133 30.5104 23.6919L30.6314 23.7803C32.5191 25.1811 33.6471 25.8344 34.1816 25.8344C34.248 25.8338 34.3133 25.8183 34.3729 25.7888C34.7809 25.3665 34.0466 23.1384 33.6106 21.9031Z" fill="white"/>
<path d="M36.6403 19.2013C35.9736 17.3384 35.8132 16.7906 35.546 15.8805L35.4166 15.444C34.7431 16.0217 34.226 16.764 33.9143 17.6009C33.6864 18.1676 33.5716 18.7747 33.5768 19.3868C33.5768 19.4125 33.5768 19.4381 33.5768 19.4638C33.5768 19.4895 33.5768 19.5209 33.5768 19.5494C33.5768 19.5779 33.5768 19.5722 33.5768 19.5836C33.5928 20.3204 33.7615 21.0455 34.0719 21.7119C34.1 21.7918 34.131 21.8717 34.1563 21.9487C34.2013 22.0856 34.2463 22.2169 34.2913 22.3481C34.7245 23.649 34.9862 24.6476 34.9777 25.3209L36.4687 24.1797L36.8963 23.8659L37.1551 23.669L37.504 23.4065C37.9063 22.9758 37.2958 21.0415 36.6403 19.2013Z" fill="white"/>
<path opacity="0.3" d="M27.0502 21.5864C27.2697 21.4152 27.4778 21.2555 27.6719 21.11C27.4523 21.2514 27.2444 21.4108 27.0502 21.5864Z" fill="white"/>
<path d="M30.1222 20.3882C29.2537 20.3888 28.4031 20.639 27.6691 21.11C27.475 21.2555 27.2668 21.4152 27.0474 21.5864L26.7661 21.8032L26.541 21.9801L26.4735 22.0343C26.3863 22.1028 26.2935 22.1712 26.2091 22.2397L26.0684 22.3453L25.8827 22.4879C24.8306 23.2839 23.967 23.8516 23.334 24.0542L25.3032 25.4806L25.5592 25.6632H25.5733L25.9165 25.9086C25.9667 25.928 26.0203 25.9368 26.074 25.9342C26.6142 25.9342 27.6663 25.2866 29.5849 23.7689L29.6918 23.6861L29.8943 23.5292L30.0941 23.3723C31.3797 22.3795 32.3446 21.7262 33.0423 21.4922L33.0845 21.4751C32.2541 20.7703 31.2051 20.3853 30.1222 20.3882Z" fill="white"/>
<path opacity="0.3" d="M26.5185 20.3967C26.5579 20.2854 26.5916 20.1685 26.6226 20.0544L26.5185 20.3967Z" fill="white"/>
<path opacity="0.3" d="M29.4358 10.9279L29.326 11.3016C29.3682 11.1789 29.4048 11.0534 29.4358 10.9279Z" fill="white"/>
<path d="M28.6565 6.57147H28.3358L27.8941 6.58288C27.4525 6.65991 26.9067 7.8667 26.1584 10.4999C26.1584 10.5484 26.1303 10.5941 26.119 10.6426C26.1078 10.6911 26.0712 10.8081 26.0459 10.8908L25.9755 11.1361C25.5114 12.7195 25.1091 13.8321 24.6758 14.4313C24.7518 14.4313 24.8249 14.4313 24.9009 14.4313H25.0978C26.0319 14.4035 26.9356 14.0885 27.6892 13.528C28.4428 12.9676 29.0107 12.1882 29.3176 11.2931L29.4273 10.9193C29.4723 10.7681 29.5173 10.634 29.5595 10.4714C29.5598 10.4667 29.5598 10.4619 29.5595 10.4571C29.5905 10.3544 29.6186 10.2603 29.6467 10.1719L29.6805 10.0577C29.7086 9.95789 29.7368 9.85518 29.7677 9.77245C29.7987 9.68971 29.8268 9.57559 29.8577 9.48715C29.8577 9.45292 29.8774 9.41868 29.8887 9.38445C30.2994 8.05214 30.6651 7.10211 31.059 6.56291L28.6565 6.57147Z" fill="white"/>
<path d="M30.4739 11.1704V11.2022C30.4751 11.1926 30.4751 11.1829 30.4739 11.1733V11.1704Z" fill="white"/>
<path opacity="0.5" d="M35.591 14.3457C35.4475 14.3771 35.2928 14.417 35.1296 14.4598C35.2872 14.4284 35.4447 14.3913 35.5994 14.3457H35.591Z" fill="white"/>
<path d="M38.3282 11.1761C38.0694 11.1533 37.8162 11.139 37.5659 11.139C36.6584 11.1443 35.7567 11.2866 34.8905 11.5612C34.7864 11.5898 34.6767 11.6211 34.5839 11.6525L34.3616 11.7267L34.311 11.7438L34.1281 11.798C33.718 11.9216 33.2928 11.9859 32.865 11.9892C32.3352 11.9917 31.8105 11.8839 31.3234 11.6725C31.0825 11.5664 30.8526 11.4364 30.637 11.2845L30.4794 11.1675C30.4807 11.177 30.4807 11.1866 30.4794 11.1961C30.6319 12.0608 31.0578 12.8517 31.6927 13.4492C32.3276 14.0468 33.1371 14.4185 33.9987 14.5083C34.1333 14.5222 34.2685 14.5289 34.4038 14.5283C34.6473 14.5272 34.8902 14.5043 35.1296 14.4598C35.2928 14.417 35.4475 14.3771 35.591 14.3457C36.0279 14.2377 36.4783 14.1964 36.9273 14.223C37.6043 14.2858 38.2745 14.409 38.9302 14.591L41.0823 11.7752C40.1907 11.4663 39.2663 11.2652 38.3282 11.1761Z" fill="white"/>
<defs>
<linearGradient id="paint0_linear_14_33500" x1="98" y1="39.5" x2="98" y2="-6" gradientUnits="userSpaceOnUse">
<stop stop-color="#FF8E30"/>
<stop offset="0.489583" stop-color="#FF8E30" stop-opacity="0"/>
<stop offset="1" stop-color="#FF8E30"/>
</linearGradient>
</defs>
</svg>
