<svg width="19" height="436" viewBox="0 0 19 436" fill="none" xmlns="http://www.w3.org/2000/svg">
<path d="M15.375 127.828L15.375 128.797L5.35937 133L15.375 137.211L15.375 138.172L4 133.367L4 132.633L15.375 127.828ZM15.375 127.531L15.375 128.383L8.96875 128.484L4 128.484L4 127.531L15.375 127.531ZM15.375 137.633L15.375 138.484L4 138.484L4 137.523L8.96875 137.523L15.375 137.633ZM15.375 152.242L15.375 153.203L7.67187 153.203C6.81771 153.203 6.10677 153.023 5.53906 152.664C4.97135 152.305 4.54687 151.82 4.26562 151.211C3.98437 150.607 3.84375 149.937 3.84375 149.203C3.84375 148.448 3.98437 147.768 4.26562 147.164C4.54687 146.56 4.97135 146.081 5.53906 145.727C6.10677 145.378 6.81771 145.203 7.67187 145.203L15.375 145.203L15.375 146.156L7.67187 146.156C7.01042 146.156 6.45573 146.286 6.00781 146.547C5.55989 146.807 5.22396 147.167 5 147.625C4.77604 148.083 4.66406 148.609 4.66406 149.203C4.66406 149.792 4.77604 150.315 5 150.773C5.22396 151.232 5.55989 151.591 6.00781 151.852C6.45573 152.112 7.01042 152.242 7.67187 152.242L15.375 152.242ZM6.79687 166.344C7.10937 166.344 7.38802 166.292 7.63281 166.187C7.8776 166.083 8.09635 165.911 8.28906 165.672C8.48698 165.437 8.66927 165.12 8.83594 164.719C9.00781 164.323 9.17708 163.828 9.34375 163.234C9.50521 162.667 9.68229 162.154 9.875 161.695C10.0677 161.237 10.2891 160.844 10.5391 160.516C10.7891 160.193 11.0807 159.945 11.4141 159.773C11.7526 159.602 12.1458 159.516 12.5937 159.516C13.0312 159.516 13.4297 159.609 13.7891 159.797C14.1484 159.984 14.4583 160.247 14.7187 160.586C14.9792 160.93 15.1797 161.333 15.3203 161.797C15.4609 162.266 15.5312 162.779 15.5312 163.336C15.5312 164.133 15.3802 164.82 15.0781 165.398C14.776 165.982 14.3672 166.432 13.8516 166.75C13.3411 167.073 12.7682 167.234 12.1328 167.234L12.1328 166.273C12.6276 166.273 13.0677 166.156 13.4531 165.922C13.8437 165.693 14.1484 165.359 14.3672 164.922C14.5911 164.49 14.7031 163.961 14.7031 163.336C14.7031 162.711 14.6068 162.185 14.4141 161.758C14.2266 161.336 13.974 161.016 13.6562 160.797C13.3437 160.583 12.9948 160.477 12.6094 160.477C12.3385 160.477 12.0885 160.529 11.8594 160.633C11.6354 160.737 11.4245 160.906 11.2266 161.141C11.0339 161.38 10.8516 161.695 10.6797 162.086C10.513 162.477 10.3542 162.958 10.2031 163.531C10.0365 164.135 9.85156 164.672 9.64844 165.141C9.44531 165.609 9.21094 166.005 8.94531 166.328C8.68489 166.651 8.38021 166.896 8.03125 167.062C7.68229 167.229 7.27604 167.312 6.8125 167.312C6.34896 167.312 5.93229 167.214 5.5625 167.016C5.19791 166.823 4.88802 166.549 4.63281 166.195C4.3776 165.846 4.18229 165.432 4.04687 164.953C3.91146 164.479 3.84375 163.961 3.84375 163.398C3.84375 162.893 3.90885 162.391 4.03906 161.891C4.16927 161.391 4.36979 160.932 4.64062 160.516C4.91667 160.104 5.27083 159.773 5.70312 159.523C6.13542 159.279 6.65104 159.156 7.25 159.156L7.25 160.109C6.77083 160.109 6.36719 160.206 6.03906 160.398C5.71094 160.591 5.44531 160.846 5.24219 161.164C5.03906 161.487 4.89062 161.841 4.79687 162.227C4.70833 162.617 4.66406 163.008 4.66406 163.398C4.66406 163.997 4.7526 164.516 4.92969 164.953C5.10677 165.396 5.35416 165.737 5.67187 165.977C5.99479 166.221 6.36979 166.344 6.79687 166.344ZM15.375 174.562L4 174.562L4 173.602L15.375 173.602L15.375 174.562ZM7.54687 188.742L7.54687 189.703C6.78125 189.625 6.11979 189.414 5.5625 189.07C5.01041 188.727 4.58593 188.258 4.28906 187.664C3.99218 187.07 3.84375 186.354 3.84375 185.516C3.84375 184.87 3.96614 184.284 4.21093 183.758C4.45573 183.237 4.80208 182.789 5.25 182.414C5.70312 182.039 6.24479 181.75 6.875 181.547C7.50521 181.344 8.20573 181.242 8.97656 181.242L10.3984 181.242C11.1693 181.242 11.8672 181.344 12.4922 181.547C13.1224 181.75 13.6641 182.042 14.1172 182.422C14.5703 182.802 14.9193 183.258 15.1641 183.789C15.4089 184.32 15.5312 184.919 15.5312 185.586C15.5312 186.393 15.3828 187.091 15.0859 187.68C14.7943 188.268 14.3724 188.732 13.8203 189.07C13.2682 189.414 12.6016 189.625 11.8203 189.703L11.8203 188.742C12.4349 188.669 12.9557 188.508 13.3828 188.258C13.8099 188.008 14.1354 187.661 14.3594 187.219C14.5885 186.781 14.7031 186.237 14.7031 185.586C14.7031 185.055 14.6016 184.581 14.3984 184.164C14.1953 183.747 13.9036 183.393 13.5234 183.102C13.1484 182.81 12.6979 182.586 12.1719 182.43C11.6458 182.279 11.0599 182.203 10.4141 182.203L8.97656 182.203C8.35156 182.203 7.77604 182.276 7.25 182.422C6.72396 182.568 6.26823 182.781 5.88281 183.062C5.49739 183.349 5.19791 183.698 4.98437 184.109C4.77083 184.521 4.66406 184.99 4.66406 185.516C4.66406 186.187 4.77083 186.747 4.98437 187.195C5.20312 187.648 5.52604 188 5.95312 188.25C6.38021 188.5 6.91146 188.664 7.54687 188.742ZM8.63281 215.727L8.63281 212.484L9.45312 212.484L9.45312 215.727C9.45312 216.404 9.5625 216.953 9.78125 217.375C10.0052 217.802 10.3073 218.112 10.6875 218.305C11.0677 218.503 11.4948 218.602 11.9687 218.602C12.4323 218.602 12.8594 218.503 13.25 218.305C13.6406 218.112 13.9531 217.802 14.1875 217.375C14.4271 216.953 14.5469 216.404 14.5469 215.727L14.5469 212.82L4 212.82L4 211.859L15.375 211.859L15.375 215.727C15.375 216.56 15.2318 217.26 14.9453 217.828C14.6589 218.401 14.2604 218.833 13.75 219.125C13.2396 219.417 12.651 219.562 11.9844 219.562C11.2865 219.562 10.6849 219.417 10.1797 219.125C9.67968 218.833 9.29687 218.404 9.03125 217.836C8.76562 217.268 8.63281 216.565 8.63281 215.727ZM15.375 225.695L15.375 229.391C15.375 230.177 15.2474 230.859 14.9922 231.437C14.737 232.016 14.3594 232.461 13.8594 232.773C13.3646 233.091 12.7552 233.25 12.0312 233.25C11.4948 233.25 11.0078 233.135 10.5703 232.906C10.1328 232.682 9.76562 232.372 9.46875 231.977C9.17708 231.581 8.97656 231.122 8.86718 230.602L8.74218 230.266L8.74218 226.32L9.5625 226.305L9.5625 229.609C9.5625 230.203 9.67708 230.698 9.90625 231.094C10.1354 231.49 10.4375 231.786 10.8125 231.984C11.1927 232.187 11.599 232.289 12.0312 232.289C12.5469 232.289 12.9922 232.177 13.3672 231.953C13.7474 231.734 14.0391 231.409 14.2422 230.977C14.4453 230.544 14.5469 230.016 14.5469 229.391L14.5469 226.656L4 226.656L4 225.695L15.375 225.695ZM4 232.719L9.08593 229.773L9.09375 230.805L4.10156 233.742L4 233.742L4 232.719ZM10.2969 248.289L9.07812 248.289C8.28124 248.289 7.55989 248.185 6.91406 247.977C6.27343 247.773 5.72395 247.477 5.26562 247.086C4.80729 246.701 4.45572 246.237 4.21093 245.695C3.96614 245.154 3.84374 244.544 3.84374 243.867C3.84374 243.206 3.96614 242.602 4.21093 242.055C4.45572 241.513 4.80729 241.047 5.26562 240.656C5.72395 240.266 6.27343 239.964 6.91406 239.75C7.55989 239.536 8.28125 239.43 9.07812 239.43L10.2969 239.43C11.0937 239.43 11.8125 239.534 12.4531 239.742C13.099 239.956 13.651 240.258 14.1094 240.648C14.5677 241.039 14.9193 241.505 15.1641 242.047C15.4088 242.589 15.5312 243.19 15.5312 243.852C15.5312 244.529 15.4088 245.138 15.1641 245.68C14.9193 246.221 14.5677 246.687 14.1094 247.078C13.651 247.469 13.099 247.768 12.4531 247.977C11.8125 248.185 11.0937 248.289 10.2969 248.289ZM9.07812 247.336L10.3125 247.336C10.9844 247.336 11.5885 247.258 12.125 247.102C12.6615 246.951 13.1198 246.724 13.5 246.422C13.8802 246.125 14.1719 245.76 14.375 245.328C14.5781 244.896 14.6797 244.404 14.6797 243.852C14.6797 243.315 14.5781 242.833 14.375 242.406C14.1719 241.979 13.8802 241.615 13.5 241.312C13.1198 241.016 12.6615 240.786 12.125 240.625C11.5885 240.469 10.9844 240.391 10.3125 240.391L9.07812 240.391C8.40104 240.391 7.79166 240.469 7.24999 240.625C6.71354 240.786 6.2526 241.018 5.86718 241.32C5.48697 241.622 5.19531 241.987 4.99218 242.414C4.78906 242.846 4.68749 243.331 4.68749 243.867C4.68749 244.424 4.78906 244.917 4.99218 245.344C5.19531 245.771 5.48697 246.133 5.86718 246.43C6.2526 246.727 6.71354 246.951 7.24999 247.102C7.79166 247.258 8.40104 247.336 9.07812 247.336ZM3.99999 257.828L3.99999 255.25L4.82031 255.266L4.82031 257.828C4.82031 258.646 5.0026 259.349 5.36718 259.937C5.73697 260.531 6.24739 260.99 6.89843 261.312C7.54947 261.635 8.30468 261.797 9.16406 261.797L10.2266 261.797C10.8828 261.797 11.4766 261.703 12.0078 261.516C12.5391 261.333 12.9922 261.07 13.3672 260.727C13.7474 260.383 14.0391 259.971 14.2422 259.492C14.4453 259.018 14.5469 258.487 14.5469 257.898L14.5469 255.203L15.375 255.203L15.375 257.898C15.375 258.607 15.2526 259.255 15.0078 259.844C14.7682 260.437 14.4193 260.951 13.9609 261.383C13.5078 261.82 12.9635 262.156 12.3281 262.391C11.6927 262.63 10.9844 262.75 10.2031 262.75L9.16406 262.75C8.38281 262.75 7.67447 262.63 7.03906 262.391C6.40364 262.156 5.85937 261.82 5.40624 261.383C4.95312 260.945 4.60416 260.427 4.35937 259.828C4.11979 259.229 3.99999 258.562 3.99999 257.828ZM15.375 255.68L3.99999 255.68L3.99999 254.719L15.375 254.719L15.375 255.68ZM15.375 276.07L15.375 277.031L7.67187 277.031C6.8177 277.031 6.10676 276.852 5.53906 276.492C4.97135 276.133 4.54687 275.648 4.26562 275.039C3.98437 274.435 3.84374 273.766 3.84374 273.031C3.84374 272.276 3.98437 271.596 4.26562 270.992C4.54687 270.388 4.97135 269.909 5.53906 269.555C6.10676 269.206 6.8177 269.031 7.67187 269.031L15.375 269.031L15.375 269.984L7.67187 269.984C7.01041 269.984 6.45572 270.115 6.00781 270.375C5.55989 270.635 5.22395 270.995 4.99999 271.453C4.77604 271.911 4.66406 272.437 4.66406 273.031C4.66406 273.62 4.77604 274.143 4.99999 274.602C5.22395 275.06 5.55989 275.419 6.00781 275.68C6.45572 275.94 7.01041 276.07 7.67187 276.07L15.375 276.07ZM7.54687 290.82L7.54687 291.781C6.78124 291.703 6.11978 291.492 5.56249 291.148C5.01041 290.805 4.58593 290.336 4.28906 289.742C3.99218 289.148 3.84374 288.432 3.84374 287.594C3.84374 286.948 3.96614 286.362 4.21093 285.836C4.45572 285.315 4.80208 284.867 5.24999 284.492C5.70312 284.117 6.24478 283.828 6.87499 283.625C7.5052 283.422 8.20572 283.32 8.97656 283.32L10.3984 283.32C11.1693 283.32 11.8672 283.422 12.4922 283.625C13.1224 283.828 13.6641 284.12 14.1172 284.5C14.5703 284.88 14.9193 285.336 15.1641 285.867C15.4088 286.398 15.5312 286.997 15.5312 287.664C15.5312 288.471 15.3828 289.169 15.0859 289.758C14.7943 290.346 14.3724 290.81 13.8203 291.148C13.2682 291.492 12.6016 291.703 11.8203 291.781L11.8203 290.82C12.4349 290.747 12.9557 290.586 13.3828 290.336C13.8099 290.086 14.1354 289.74 14.3594 289.297C14.5885 288.859 14.7031 288.315 14.7031 287.664C14.7031 287.133 14.6016 286.659 14.3984 286.242C14.1953 285.826 13.9036 285.471 13.5234 285.18C13.1484 284.888 12.6979 284.664 12.1719 284.508C11.6458 284.357 11.0599 284.281 10.4141 284.281L8.97656 284.281C8.35156 284.281 7.77603 284.354 7.24999 284.5C6.72395 284.646 6.26822 284.859 5.88281 285.141C5.49739 285.427 5.19791 285.776 4.98437 286.187C4.77083 286.599 4.66406 287.068 4.66406 287.594C4.66406 288.266 4.77083 288.826 4.98437 289.273C5.20312 289.727 5.52603 290.078 5.95312 290.328C6.3802 290.578 6.91145 290.742 7.54687 290.82ZM15.375 301.703L3.99999 301.703L3.99999 300.75L15.375 300.75L15.375 301.703ZM15.375 305.602L14.5469 305.602L14.5469 296.859L15.375 296.859L15.375 305.602ZM15.375 312.625L3.99999 312.625L3.99999 311.664L15.375 311.664L15.375 312.625ZM10.2969 328.117L9.07812 328.117C8.28124 328.117 7.55989 328.013 6.91405 327.805C6.27343 327.602 5.72395 327.305 5.26562 326.914C4.80728 326.529 4.45572 326.065 4.21093 325.523C3.96614 324.982 3.84374 324.372 3.84374 323.695C3.84374 323.034 3.96614 322.43 4.21093 321.883C4.45572 321.341 4.80728 320.875 5.26562 320.484C5.72395 320.094 6.27343 319.792 6.91405 319.578C7.55989 319.365 8.28124 319.258 9.07812 319.258L10.2969 319.258C11.0937 319.258 11.8125 319.362 12.4531 319.57C13.0989 319.784 13.651 320.086 14.1094 320.477C14.5677 320.867 14.9193 321.333 15.1641 321.875C15.4088 322.417 15.5312 323.018 15.5312 323.68C15.5312 324.357 15.4088 324.966 15.1641 325.508C14.9193 326.049 14.5677 326.516 14.1094 326.906C13.651 327.297 13.0989 327.596 12.4531 327.805C11.8125 328.013 11.0937 328.117 10.2969 328.117ZM9.07812 327.164L10.3125 327.164C10.9844 327.164 11.5885 327.086 12.125 326.93C12.6614 326.779 13.1198 326.552 13.5 326.25C13.8802 325.953 14.1719 325.589 14.375 325.156C14.5781 324.724 14.6797 324.232 14.6797 323.68C14.6797 323.143 14.5781 322.661 14.375 322.234C14.1719 321.807 13.8802 321.443 13.5 321.141C13.1198 320.844 12.6614 320.615 12.125 320.453C11.5885 320.297 10.9844 320.219 10.3125 320.219L9.07812 320.219C8.40103 320.219 7.79166 320.297 7.24999 320.453C6.71353 320.615 6.2526 320.846 5.86718 321.148C5.48697 321.451 5.1953 321.815 4.99218 322.242C4.78905 322.674 4.68749 323.159 4.68749 323.695C4.68749 324.253 4.78905 324.745 4.99218 325.172C5.1953 325.599 5.48697 325.961 5.86718 326.258C6.2526 326.555 6.71353 326.779 7.24999 326.93C7.79166 327.086 8.40103 327.164 9.07812 327.164ZM15.375 343.016L3.99999 343.016L3.99999 342.047L13.7187 335.508L3.99999 335.508L3.99999 334.547L15.375 334.547L15.375 335.508L5.65624 342.062L15.375 342.062L15.375 343.016ZM6.79686 372.172C7.10936 372.172 7.38801 372.12 7.6328 372.016C7.87759 371.911 8.09634 371.74 8.28905 371.5C8.48697 371.266 8.66926 370.948 8.83593 370.547C9.0078 370.151 9.17707 369.656 9.34374 369.062C9.5052 368.495 9.68228 367.982 9.87499 367.523C10.0677 367.065 10.2891 366.672 10.5391 366.344C10.7891 366.021 11.0807 365.773 11.4141 365.602C11.7526 365.43 12.1458 365.344 12.5937 365.344C13.0312 365.344 13.4297 365.437 13.7891 365.625C14.1484 365.812 14.4583 366.076 14.7187 366.414C14.9792 366.758 15.1797 367.161 15.3203 367.625C15.4609 368.094 15.5312 368.607 15.5312 369.164C15.5312 369.961 15.3802 370.648 15.0781 371.227C14.776 371.81 14.3672 372.26 13.8516 372.578C13.3411 372.901 12.7682 373.062 12.1328 373.062L12.1328 372.102C12.6276 372.102 13.0677 371.984 13.4531 371.75C13.8437 371.521 14.1484 371.187 14.3672 370.75C14.5911 370.318 14.7031 369.789 14.7031 369.164C14.7031 368.539 14.6068 368.013 14.4141 367.586C14.2266 367.164 13.9739 366.844 13.6562 366.625C13.3437 366.411 12.9948 366.305 12.6094 366.305C12.3385 366.305 12.0885 366.357 11.8594 366.461C11.6354 366.565 11.4245 366.734 11.2266 366.969C11.0338 367.208 10.8516 367.523 10.6797 367.914C10.513 368.305 10.3542 368.786 10.2031 369.359C10.0364 369.964 9.85155 370.5 9.64843 370.969C9.4453 371.437 9.21093 371.833 8.9453 372.156C8.68489 372.479 8.3802 372.724 8.03124 372.891C7.68228 373.057 7.27603 373.141 6.81249 373.141C6.34895 373.141 5.93228 373.042 5.56249 372.844C5.19791 372.651 4.88801 372.378 4.6328 372.023C4.37759 371.674 4.18228 371.26 4.04686 370.781C3.91145 370.307 3.84374 369.789 3.84374 369.227C3.84374 368.721 3.90884 368.219 4.03905 367.719C4.16926 367.219 4.36978 366.76 4.64061 366.344C4.91666 365.932 5.27082 365.602 5.70311 365.352C6.13541 365.107 6.65103 364.984 7.24999 364.984L7.24999 365.937C6.77082 365.937 6.36718 366.034 6.03905 366.227C5.71093 366.419 5.4453 366.674 5.24218 366.992C5.03905 367.315 4.89061 367.669 4.79686 368.055C4.70832 368.445 4.66405 368.836 4.66405 369.227C4.66405 369.826 4.75259 370.344 4.92968 370.781C5.10676 371.224 5.35416 371.565 5.67186 371.805C5.99478 372.049 6.36978 372.172 6.79686 372.172ZM4.8203 386.289L3.99999 386.289L3.99999 379.891L4.8203 379.891L4.8203 386.289ZM15.375 380.18L3.99999 380.18L3.99999 379.219L15.375 379.219L15.375 380.18ZM10.2734 385.492L9.45311 385.492L9.45311 379.891L10.2734 379.891L10.2734 385.492ZM15.375 386.25L14.5469 386.25L14.5469 379.891L15.375 379.891L15.375 386.25ZM15.375 392.305L15.375 396C15.375 396.786 15.2474 397.469 14.9922 398.047C14.737 398.625 14.3594 399.07 13.8594 399.383C13.3646 399.701 12.7552 399.859 12.0312 399.859C11.4948 399.859 11.0078 399.745 10.5703 399.516C10.1328 399.292 9.76561 398.982 9.46874 398.586C9.17707 398.19 8.97655 397.732 8.86718 397.211L8.74218 396.875L8.74218 392.93L9.56249 392.914L9.56249 396.219C9.56249 396.812 9.67707 397.307 9.90624 397.703C10.1354 398.099 10.4375 398.396 10.8125 398.594C11.1927 398.797 11.5989 398.898 12.0312 398.898C12.5469 398.898 12.9922 398.786 13.3672 398.562C13.7474 398.344 14.0391 398.018 14.2422 397.586C14.4453 397.154 14.5469 396.625 14.5469 396L14.5469 393.266L3.99999 393.266L3.99999 392.305L15.375 392.305ZM3.99999 399.328L9.08593 396.383L9.09374 397.414L4.10155 400.352L3.99999 400.352L3.99999 399.328ZM15.375 407.672L3.99999 407.672L3.99999 406.711L15.375 406.711L15.375 407.672ZM4.8203 421.836L3.99999 421.836L3.99999 415.437L4.8203 415.437L4.8203 421.836ZM15.375 415.727L3.99999 415.727L3.99999 414.766L15.375 414.766L15.375 415.727ZM10.2734 421.039L9.45311 421.039L9.45311 415.437L10.2734 415.437L10.2734 421.039ZM15.375 421.797L14.5469 421.797L14.5469 415.437L15.375 415.437L15.375 421.797ZM6.79686 434.312C7.10936 434.312 7.38801 434.26 7.6328 434.156C7.87759 434.052 8.09634 433.88 8.28905 433.641C8.48697 433.406 8.66926 433.089 8.83592 432.687C9.0078 432.292 9.17707 431.797 9.34374 431.203C9.5052 430.635 9.68228 430.122 9.87499 429.664C10.0677 429.206 10.289 428.812 10.539 428.484C10.789 428.161 11.0807 427.914 11.414 427.742C11.7526 427.57 12.1458 427.484 12.5937 427.484C13.0312 427.484 13.4297 427.578 13.789 427.766C14.1484 427.953 14.4583 428.216 14.7187 428.555C14.9792 428.898 15.1797 429.302 15.3203 429.766C15.4609 430.234 15.5312 430.747 15.5312 431.305C15.5312 432.102 15.3802 432.789 15.0781 433.367C14.776 433.951 14.3672 434.401 13.8515 434.719C13.3411 435.042 12.7682 435.203 12.1328 435.203L12.1328 434.242C12.6276 434.242 13.0677 434.125 13.4531 433.891C13.8437 433.661 14.1484 433.328 14.3672 432.891C14.5911 432.458 14.7031 431.93 14.7031 431.305C14.7031 430.68 14.6068 430.154 14.414 429.727C14.2265 429.305 13.9739 428.984 13.6562 428.766C13.3437 428.552 12.9948 428.445 12.6094 428.445C12.3385 428.445 12.0885 428.497 11.8594 428.602C11.6354 428.706 11.4245 428.875 11.2265 429.109C11.0338 429.349 10.8515 429.664 10.6797 430.055C10.513 430.445 10.3542 430.927 10.2031 431.5C10.0364 432.104 9.85155 432.641 9.64842 433.109C9.4453 433.578 9.21092 433.974 8.9453 434.297C8.68488 434.62 8.38019 434.865 8.03124 435.031C7.68228 435.198 7.27603 435.281 6.81249 435.281C6.34894 435.281 5.93228 435.182 5.56249 434.984C5.1979 434.792 4.88801 434.518 4.6328 434.164C4.37759 433.815 4.18228 433.401 4.04686 432.922C3.91144 432.448 3.84374 431.93 3.84374 431.367C3.84374 430.862 3.90884 430.359 4.03905 429.859C4.16926 429.359 4.36978 428.901 4.64061 428.484C4.91665 428.073 5.27082 427.742 5.70311 427.492C6.1354 427.247 6.65103 427.125 7.24999 427.125L7.24999 428.078C6.77082 428.078 6.36717 428.174 6.03905 428.367C5.71092 428.56 5.4453 428.815 5.24217 429.133C5.03905 429.456 4.89061 429.81 4.79686 430.195C4.70832 430.586 4.66405 430.977 4.66405 431.367C4.66405 431.966 4.75259 432.484 4.92967 432.922C5.10676 433.365 5.35415 433.706 5.67186 433.945C5.99478 434.19 6.36978 434.312 6.79686 434.312Z" fill="white"/>
<path d="M15 0C15 3.28125 5 3.28125 5 6.5625C5 9.84375 15 9.84375 15 13.125C15 16.4062 5 16.4063 5 19.6875C5 22.9688 15 22.9687 15 26.25C15 29.5312 5 29.5313 5 32.8125C5 36.0938 15 36.0938 15 39.375C15 42.6563 5 42.6563 5 45.9375C5 49.2188 15 49.2187 15 52.5C15 55.7812 5 55.7813 5 59.0625C5 62.3438 15 62.3438 15 65.625C15 68.9063 5 68.9063 5 72.1875C5 75.4688 15 75.4688 15 78.75C15 82.0313 5 82.0313 5 85.3125C5 88.5938 15 88.5938 15 91.875C15 95.1563 5 95.1563 5 98.4375C5 101.719 15 101.719 15 105" stroke="#FF8E30" stroke-width="0.75" stroke-miterlimit="10"/>
</svg>
