<svg width="194" height="21" viewBox="0 0 194 21" fill="none" xmlns="http://www.w3.org/2000/svg">
<path d="M16.5273 10.1973C16.5273 11.0996 16.4089 11.9701 16.1719 12.8086C15.944 13.638 15.6159 14.4173 15.1875 15.1465C14.7591 15.8665 14.2487 16.5273 13.6562 17.1289C13.0638 17.7214 12.403 18.2318 11.6738 18.6602C10.9447 19.0885 10.1608 19.4212 9.32227 19.6582C8.49284 19.8861 7.62695 20 6.72461 20H0.818359V0.394531H6.72461C7.62695 0.394531 8.49284 0.513021 9.32227 0.75C10.1608 0.977865 10.9447 1.30599 11.6738 1.73438C12.403 2.16276 13.0638 2.67773 13.6562 3.2793C14.2487 3.87174 14.7591 4.53255 15.1875 5.26172C15.6159 5.98177 15.944 6.76107 16.1719 7.59961C16.4089 8.42904 16.5273 9.29492 16.5273 10.1973ZM12.6035 10.1973C12.6035 9.38607 12.4486 8.625 12.1387 7.91406C11.8379 7.20312 11.4186 6.58333 10.8809 6.05469C10.3522 5.51693 9.72786 5.0931 9.00781 4.7832C8.29688 4.47331 7.53581 4.31836 6.72461 4.31836H4.76953V16.0762H6.72461C7.53581 16.0762 8.29688 15.9258 9.00781 15.625C9.72786 15.3151 10.3522 14.8958 10.8809 14.3672C11.4186 13.8294 11.8379 13.2051 12.1387 12.4941C12.4486 11.7741 12.6035 11.0085 12.6035 10.1973ZM23.0625 20H19.1387V0.394531H23.0625V20ZM42.3125 18.0176C41.401 18.7923 40.3848 19.3893 39.2637 19.8086C38.1426 20.2188 36.9759 20.4238 35.7637 20.4238C34.834 20.4238 33.9362 20.3008 33.0703 20.0547C32.2135 19.8177 31.4115 19.4805 30.6641 19.043C29.9167 18.5964 29.2331 18.0677 28.6133 17.457C27.9935 16.8372 27.4648 16.1536 27.0273 15.4062C26.5898 14.6497 26.248 13.8385 26.002 12.9727C25.765 12.1068 25.6465 11.209 25.6465 10.2793C25.6465 9.34961 25.765 8.45638 26.002 7.59961C26.248 6.74284 26.5898 5.94076 27.0273 5.19336C27.4648 4.43685 27.9935 3.75326 28.6133 3.14258C29.2331 2.52279 29.9167 1.99414 30.6641 1.55664C31.4115 1.11914 32.2135 0.781901 33.0703 0.544922C33.9362 0.298828 34.834 0.175781 35.7637 0.175781C36.9759 0.175781 38.1426 0.385417 39.2637 0.804688C40.3848 1.21484 41.401 1.80729 42.3125 2.58203L40.2617 6C39.6693 5.39844 38.9857 4.92904 38.2109 4.5918C37.4362 4.24544 36.6204 4.07227 35.7637 4.07227C34.9069 4.07227 34.1003 4.23633 33.3438 4.56445C32.5964 4.89258 31.9401 5.33919 31.375 5.9043C30.8099 6.46029 30.3633 7.11654 30.0352 7.87305C29.707 8.62044 29.543 9.42253 29.543 10.2793C29.543 11.1452 29.707 11.9564 30.0352 12.7129C30.3633 13.4694 30.8099 14.1302 31.375 14.6953C31.9401 15.2604 32.5964 15.707 33.3438 16.0352C34.1003 16.3633 34.9069 16.5273 35.7637 16.5273C36.2559 16.5273 36.7344 16.4681 37.1992 16.3496C37.6641 16.2311 38.1061 16.0671 38.5254 15.8574V10.2793H42.3125V18.0176ZM49.2578 20H45.334V0.394531H49.2578V20ZM61.1387 20H57.2285V4.31836H51.3359V0.394531H67.0176V4.31836H61.1387V20ZM80.0332 12.166V8.24219C80.0332 7.70443 79.9284 7.19857 79.7188 6.72461C79.5182 6.24154 79.2402 5.82227 78.8848 5.4668C78.5293 5.11133 78.11 4.83333 77.627 4.63281C77.153 4.42318 76.6471 4.31836 76.1094 4.31836C75.5716 4.31836 75.0612 4.42318 74.5781 4.63281C74.1042 4.83333 73.6895 5.11133 73.334 5.4668C72.9785 5.82227 72.696 6.24154 72.4863 6.72461C72.2858 7.19857 72.1855 7.70443 72.1855 8.24219V12.166H80.0332ZM83.957 20H80.0332V16.0762H72.1855V20H68.2754V8.24219C68.2754 7.15755 68.4805 6.14128 68.8906 5.19336C69.3008 4.23633 69.8568 3.40234 70.5586 2.69141C71.2695 1.98047 72.099 1.41992 73.0469 1.00977C74.0039 0.599609 75.0247 0.394531 76.1094 0.394531C77.194 0.394531 78.2103 0.599609 79.1582 1.00977C80.1152 1.41992 80.9492 1.98047 81.6602 2.69141C82.3711 3.40234 82.9316 4.23633 83.3418 5.19336C83.752 6.14128 83.957 7.15755 83.957 8.24219V20ZM101.088 20H87.3613V0.394531H91.2852V16.0762H101.088V20Z" fill="#FF8E30"/>
<path d="M130.441 20H126.531V6C126.531 5.72656 126.477 5.47135 126.367 5.23438C126.267 4.9974 126.126 4.79232 125.943 4.61914C125.77 4.43685 125.565 4.29557 125.328 4.19531C125.091 4.09505 124.836 4.04492 124.562 4.04492C124.289 4.04492 124.034 4.09505 123.797 4.19531C123.56 4.29557 123.35 4.43685 123.168 4.61914C122.995 4.79232 122.858 4.9974 122.758 5.23438C122.658 5.47135 122.607 5.72656 122.607 6V20H118.684V6C118.684 5.72656 118.633 5.47135 118.533 5.23438C118.433 4.9974 118.292 4.79232 118.109 4.61914C117.936 4.43685 117.731 4.29557 117.494 4.19531C117.257 4.09505 117.002 4.04492 116.729 4.04492C116.455 4.04492 116.2 4.09505 115.963 4.19531C115.726 4.29557 115.516 4.43685 115.334 4.61914C115.161 4.79232 115.024 4.9974 114.924 5.23438C114.824 5.47135 114.773 5.72656 114.773 6V20H110.85V6C110.85 5.1888 111 4.42773 111.301 3.7168C111.611 2.99674 112.03 2.3724 112.559 1.84375C113.096 1.30599 113.721 0.886719 114.432 0.585938C115.152 0.276042 115.917 0.121094 116.729 0.121094C117.458 0.121094 118.16 0.253255 118.834 0.517578C119.508 0.772786 120.115 1.14648 120.652 1.63867C121.19 1.14648 121.792 0.772786 122.457 0.517578C123.132 0.253255 123.833 0.121094 124.562 0.121094C125.374 0.121094 126.135 0.276042 126.846 0.585938C127.566 0.886719 128.19 1.30599 128.719 1.84375C129.257 2.3724 129.676 2.99674 129.977 3.7168C130.286 4.42773 130.441 5.1888 130.441 6V20ZM149.418 12.166C149.418 13.2507 149.213 14.2715 148.803 15.2285C148.393 16.1764 147.832 17.0059 147.121 17.7168C146.41 18.4186 145.576 18.9746 144.619 19.3848C143.671 19.7949 142.655 20 141.57 20C140.486 20 139.465 19.7949 138.508 19.3848C137.56 18.9746 136.73 18.4186 136.02 17.7168C135.318 17.0059 134.762 16.1764 134.352 15.2285C133.941 14.2715 133.736 13.2507 133.736 12.166V0.394531H137.646V12.166C137.646 12.7038 137.747 13.2096 137.947 13.6836C138.157 14.1576 138.439 14.5723 138.795 14.9277C139.15 15.2832 139.565 15.5658 140.039 15.7754C140.522 15.9759 141.033 16.0762 141.57 16.0762C142.108 16.0762 142.614 15.9759 143.088 15.7754C143.571 15.5658 143.99 15.2832 144.346 14.9277C144.701 14.5723 144.979 14.1576 145.18 13.6836C145.389 13.2096 145.494 12.7038 145.494 12.166V0.394531H149.418V12.166ZM151.674 6.27344C151.674 5.46224 151.829 4.70117 152.139 3.99023C152.449 3.2793 152.868 2.65951 153.396 2.13086C153.934 1.5931 154.559 1.16927 155.27 0.859375C155.98 0.549479 156.742 0.394531 157.553 0.394531H166.549V4.31836H157.553C157.279 4.31836 157.024 4.36849 156.787 4.46875C156.55 4.56901 156.34 4.71029 156.158 4.89258C155.985 5.06576 155.848 5.27083 155.748 5.50781C155.648 5.74479 155.598 6 155.598 6.27344C155.598 6.54688 155.648 6.80664 155.748 7.05273C155.848 7.28971 155.985 7.49935 156.158 7.68164C156.34 7.85482 156.55 7.99154 156.787 8.0918C157.024 8.19206 157.279 8.24219 157.553 8.24219H161.477C162.288 8.24219 163.049 8.39714 163.76 8.70703C164.48 9.00781 165.104 9.42708 165.633 9.96484C166.171 10.4935 166.59 11.1178 166.891 11.8379C167.201 12.5488 167.355 13.3099 167.355 14.1211C167.355 14.9323 167.201 15.6934 166.891 16.4043C166.59 17.1152 166.171 17.7396 165.633 18.2773C165.104 18.806 164.48 19.2253 163.76 19.5352C163.049 19.8451 162.288 20 161.477 20H152.768V16.0762H161.477C161.75 16.0762 162.005 16.026 162.242 15.9258C162.479 15.8255 162.684 15.6888 162.857 15.5156C163.04 15.3333 163.181 15.1237 163.281 14.8867C163.382 14.6497 163.432 14.3945 163.432 14.1211C163.432 13.8477 163.382 13.5924 163.281 13.3555C163.181 13.1185 163.04 12.9134 162.857 12.7402C162.684 12.5579 162.479 12.4167 162.242 12.3164C162.005 12.2161 161.75 12.166 161.477 12.166H157.553C156.742 12.166 155.98 12.0111 155.27 11.7012C154.559 11.3913 153.934 10.972 153.396 10.4434C152.868 9.9056 152.449 9.28125 152.139 8.57031C151.829 7.85026 151.674 7.08464 151.674 6.27344ZM173.863 20H169.939V0.394531H173.863V20ZM193.168 17.9902C192.257 18.7741 191.236 19.3757 190.105 19.7949C188.975 20.2142 187.804 20.4238 186.592 20.4238C185.662 20.4238 184.764 20.3008 183.898 20.0547C183.042 19.8177 182.235 19.4805 181.479 19.043C180.731 18.5964 180.048 18.0632 179.428 17.4434C178.808 16.8236 178.275 16.14 177.828 15.3926C177.391 14.6361 177.049 13.8294 176.803 12.9727C176.566 12.1068 176.447 11.209 176.447 10.2793C176.447 9.34961 176.566 8.45182 176.803 7.58594C177.049 6.72005 177.391 5.91341 177.828 5.16602C178.275 4.40951 178.808 3.72135 179.428 3.10156C180.048 2.48177 180.731 1.95312 181.479 1.51562C182.235 1.06901 183.042 0.727214 183.898 0.490234C184.764 0.244141 185.662 0.121094 186.592 0.121094C187.804 0.121094 188.975 0.330729 190.105 0.75C191.236 1.16016 192.257 1.76172 193.168 2.55469L191.09 5.97266C190.516 5.35286 189.837 4.87891 189.053 4.55078C188.269 4.21354 187.449 4.04492 186.592 4.04492C185.726 4.04492 184.915 4.20898 184.158 4.53711C183.402 4.86523 182.741 5.31185 182.176 5.87695C181.611 6.43294 181.164 7.09375 180.836 7.85938C180.508 8.61589 180.344 9.42253 180.344 10.2793C180.344 11.1361 180.508 11.9427 180.836 12.6992C181.164 13.4466 181.611 14.1029 182.176 14.668C182.741 15.2331 183.402 15.6797 184.158 16.0078C184.915 16.3359 185.726 16.5 186.592 16.5C187.449 16.5 188.269 16.3359 189.053 16.0078C189.837 15.6706 190.516 15.1921 191.09 14.5723L193.168 17.9902Z" fill="white"/>
</svg>
