<svg width="200" height="201" viewBox="0 0 200 201" fill="none" xmlns="http://www.w3.org/2000/svg">
<path d="M190.996 142.282H9.44374C9.07373 141.542 8.7037 140.802 8.45703 139.938H192.106C191.613 140.802 191.366 141.542 190.996 142.282Z" fill="url(#paint0_linear_16_503)"/>
<path d="M198.397 119.094H2.04349C1.92015 118.354 1.79681 117.614 1.67348 116.751H198.767C198.643 117.491 198.52 118.354 198.397 119.094Z" fill="url(#paint1_linear_16_503)"/>
<path d="M195.437 130.688H4.88025C4.63358 129.948 4.3869 129.208 4.14023 128.344H196.053C195.93 129.208 195.683 129.948 195.437 130.688Z" fill="url(#paint2_linear_16_503)"/>
<path d="M199.877 107.5H0.563446C0.563446 106.76 0.440109 106.02 0.440109 105.157H200C200 105.897 199.877 106.637 199.877 107.5Z" fill="url(#paint3_linear_16_503)"/>
<path d="M0.440109 93.5633H199.753C199.877 94.3033 200 95.0433 200 95.7834H0.316772C0.440109 95.0433 0.440109 94.3033 0.440109 93.5633Z" fill="url(#paint4_linear_16_503)"/>
<path d="M146.965 188.78H53.3519C51.9951 188.04 50.6384 187.3 49.2817 186.436H151.035C149.678 187.3 148.322 188.04 146.965 188.78Z" fill="url(#paint5_linear_16_503)"/>
<path d="M184.583 153.999H15.7339C15.2406 153.259 14.7472 152.519 14.3772 151.655H186.063C185.57 152.395 185.076 153.135 184.583 153.999Z" fill="url(#paint6_linear_16_503)"/>
<path d="M164.232 177.186H36.0846C35.2213 176.446 34.3579 175.706 33.3712 174.843H166.822C166.082 175.706 165.096 176.446 164.232 177.186Z" fill="url(#paint7_linear_16_503)"/>
<path d="M176.073 165.592H24.3676C23.7509 164.852 23.1342 164.112 22.3942 163.249H177.923C177.306 163.989 176.689 164.852 176.073 165.592Z" fill="url(#paint8_linear_16_503)"/>
<path d="M1.92015 81.9696H198.397C198.52 82.7096 198.643 83.4496 198.767 84.313H1.55016C1.67349 83.4496 1.79681 82.7096 1.92015 81.9696Z" fill="url(#paint9_linear_16_503)"/>
<path d="M53.3519 12.1606H146.965C148.322 12.9006 149.678 13.6407 151.035 14.504H49.2817C50.6384 13.6407 51.9951 12.9006 53.3519 12.1606Z" fill="url(#paint10_linear_16_503)"/>
<path d="M100.22 200.373C92.8198 200.373 85.6662 199.633 78.8827 198.03H121.557C114.651 199.633 107.497 200.373 100.22 200.373Z" fill="url(#paint11_linear_16_503)"/>
<path d="M36.0846 23.7543H164.232C165.096 24.4943 165.959 25.2344 166.946 26.0977H33.4945C34.3579 25.3577 35.2213 24.6177 36.0846 23.7543Z" fill="url(#paint12_linear_16_503)"/>
<path d="M100.22 0.566895C107.62 0.566895 114.774 1.30692 121.557 2.91031H78.7593C85.6662 1.30692 92.8198 0.566895 100.22 0.566895Z" fill="url(#paint13_linear_16_503)"/>
<path d="M9.44374 58.6588H190.996C191.366 59.3988 191.613 60.2622 191.983 61.0022H8.33371C8.70372 60.2622 9.07373 59.3988 9.44374 58.6588Z" fill="url(#paint14_linear_16_503)"/>
<path d="M4.88025 70.2525H195.437C195.683 70.9926 195.93 71.7326 196.177 72.5959H4.26357C4.3869 71.8559 4.63358 71.1159 4.88025 70.2525Z" fill="url(#paint15_linear_16_503)"/>
<path d="M24.3676 35.4714H176.073C176.689 36.2114 177.306 36.9514 178.046 37.8148H22.5175C23.0108 36.9514 23.6275 36.2114 24.3676 35.4714Z" fill="url(#paint16_linear_16_503)"/>
<path d="M15.7339 47.0651H184.583C185.076 47.8051 185.57 48.5451 185.94 49.4085H14.2539C14.7472 48.5451 15.2406 47.8051 15.7339 47.0651Z" fill="url(#paint17_linear_16_503)"/>
<circle cx="23" cy="28" r="23" fill="url(#paint18_linear_16_503)"/>
<defs>
<linearGradient id="paint0_linear_16_503" x1="100.098" y1="-40.1344" x2="100.098" y2="221.341" gradientUnits="userSpaceOnUse">
<stop stop-color="#FF8E30"/>
<stop offset="1"/>
</linearGradient>
<linearGradient id="paint1_linear_16_503" x1="100.098" y1="-40.1344" x2="100.098" y2="221.341" gradientUnits="userSpaceOnUse">
<stop stop-color="#FF8E30"/>
<stop offset="1"/>
</linearGradient>
<linearGradient id="paint2_linear_16_503" x1="100.098" y1="-40.1344" x2="100.098" y2="221.341" gradientUnits="userSpaceOnUse">
<stop stop-color="#FF8E30"/>
<stop offset="1"/>
</linearGradient>
<linearGradient id="paint3_linear_16_503" x1="100.098" y1="-40.1344" x2="100.098" y2="221.341" gradientUnits="userSpaceOnUse">
<stop stop-color="#FF8E30"/>
<stop offset="1"/>
</linearGradient>
<linearGradient id="paint4_linear_16_503" x1="100.098" y1="-40.1344" x2="100.098" y2="221.341" gradientUnits="userSpaceOnUse">
<stop stop-color="#FF8E30"/>
<stop offset="1"/>
</linearGradient>
<linearGradient id="paint5_linear_16_503" x1="100.098" y1="-40.1344" x2="100.098" y2="221.341" gradientUnits="userSpaceOnUse">
<stop stop-color="#FF8E30"/>
<stop offset="1"/>
</linearGradient>
<linearGradient id="paint6_linear_16_503" x1="100.098" y1="-40.1344" x2="100.098" y2="221.341" gradientUnits="userSpaceOnUse">
<stop stop-color="#FF8E30"/>
<stop offset="1"/>
</linearGradient>
<linearGradient id="paint7_linear_16_503" x1="100.098" y1="-40.1344" x2="100.098" y2="221.341" gradientUnits="userSpaceOnUse">
<stop stop-color="#FF8E30"/>
<stop offset="1"/>
</linearGradient>
<linearGradient id="paint8_linear_16_503" x1="100.098" y1="-40.1344" x2="100.098" y2="221.341" gradientUnits="userSpaceOnUse">
<stop stop-color="#FF8E30"/>
<stop offset="1"/>
</linearGradient>
<linearGradient id="paint9_linear_16_503" x1="100.098" y1="-40.1344" x2="100.098" y2="221.341" gradientUnits="userSpaceOnUse">
<stop stop-color="#FF8E30"/>
<stop offset="1"/>
</linearGradient>
<linearGradient id="paint10_linear_16_503" x1="100.098" y1="-40.1344" x2="100.098" y2="221.341" gradientUnits="userSpaceOnUse">
<stop stop-color="#FF8E30"/>
<stop offset="1"/>
</linearGradient>
<linearGradient id="paint11_linear_16_503" x1="100.098" y1="-40.1344" x2="100.098" y2="221.341" gradientUnits="userSpaceOnUse">
<stop stop-color="#FF8E30"/>
<stop offset="1"/>
</linearGradient>
<linearGradient id="paint12_linear_16_503" x1="100.098" y1="-40.1344" x2="100.098" y2="221.341" gradientUnits="userSpaceOnUse">
<stop stop-color="#FF8E30"/>
<stop offset="1"/>
</linearGradient>
<linearGradient id="paint13_linear_16_503" x1="100.098" y1="-40.1344" x2="100.098" y2="221.341" gradientUnits="userSpaceOnUse">
<stop stop-color="#FF8E30"/>
<stop offset="1"/>
</linearGradient>
<linearGradient id="paint14_linear_16_503" x1="100.098" y1="-40.1344" x2="100.098" y2="221.341" gradientUnits="userSpaceOnUse">
<stop stop-color="#FF8E30"/>
<stop offset="1"/>
</linearGradient>
<linearGradient id="paint15_linear_16_503" x1="100.098" y1="-40.1344" x2="100.098" y2="221.341" gradientUnits="userSpaceOnUse">
<stop stop-color="#FF8E30"/>
<stop offset="1"/>
</linearGradient>
<linearGradient id="paint16_linear_16_503" x1="100.098" y1="-40.1344" x2="100.098" y2="221.341" gradientUnits="userSpaceOnUse">
<stop stop-color="#FF8E30"/>
<stop offset="1"/>
</linearGradient>
<linearGradient id="paint17_linear_16_503" x1="100.098" y1="-40.1344" x2="100.098" y2="221.341" gradientUnits="userSpaceOnUse">
<stop stop-color="#FF8E30"/>
<stop offset="1"/>
</linearGradient>
<linearGradient id="paint18_linear_16_503" x1="23" y1="5" x2="23" y2="51" gradientUnits="userSpaceOnUse">
<stop stop-color="#FF8E30"/>
<stop offset="1" stop-color="#6C2700"/>
</linearGradient>
</defs>
</svg>
