<svg width="147" height="153" viewBox="0 0 147 153" fill="none" xmlns="http://www.w3.org/2000/svg">
<path d="M6.45607 111.345H136.639C136.904 110.814 137.169 110.284 137.346 109.665H5.66012C6.01387 110.284 6.19075 110.814 6.45607 111.345Z" fill="url(#paint0_linear_14_33389)"/>
<path d="M1.14971 94.7184H141.945C142.034 94.1878 142.122 93.6572 142.21 93.0381H0.884393C0.972832 93.5687 1.06127 94.1878 1.14971 94.7184Z" fill="url(#paint1_linear_14_33389)"/>
<path d="M3.27225 103.032H139.911C140.088 102.501 140.265 101.97 140.442 101.351H2.83006C2.9185 101.97 3.09538 102.501 3.27225 103.032Z" fill="url(#paint2_linear_14_33389)"/>
<path d="M0.0884393 86.4052H143.006C143.006 85.8745 143.095 85.3439 143.095 84.7248H0C0 85.2554 0.0884393 85.7861 0.0884393 86.4052Z" fill="url(#paint3_linear_14_33389)"/>
<path d="M143.095 76.4115H0.176879C0.0884393 76.9421 0 77.4728 0 78.0034H143.183C143.095 77.4728 143.095 76.9421 143.095 76.4115Z" fill="url(#paint4_linear_14_33389)"/>
<path d="M38.0289 144.687H105.154C106.127 144.156 107.1 143.625 108.073 143.006H35.1104C36.0832 143.625 37.0561 144.156 38.0289 144.687Z" fill="url(#paint5_linear_14_33389)"/>
<path d="M11.0549 119.747H132.128C132.482 119.216 132.836 118.686 133.101 118.066H9.99364C10.3474 118.597 10.7012 119.128 11.0549 119.747Z" fill="url(#paint6_linear_14_33389)"/>
<path d="M25.6474 136.373H117.536C118.155 135.843 118.774 135.312 119.482 134.693H23.7902C24.3208 135.312 25.0283 135.843 25.6474 136.373Z" fill="url(#paint7_linear_14_33389)"/>
<path d="M17.1572 128.06H125.938C126.38 127.529 126.822 126.999 127.353 126.38H15.8306C16.2728 126.91 16.715 127.529 17.1572 128.06Z" fill="url(#paint8_linear_14_33389)"/>
<path d="M142.034 68.0982H1.14971C1.06127 68.6289 0.972832 69.1595 0.884393 69.7786H142.299C142.21 69.1595 142.122 68.6289 142.034 68.0982Z" fill="url(#paint9_linear_14_33389)"/>
<path d="M105.154 18.0416H38.0289C37.0561 18.5722 36.0832 19.1028 35.1104 19.7219H108.073C107.1 19.1028 106.127 18.5722 105.154 18.0416Z" fill="url(#paint10_linear_14_33389)"/>
<path d="M71.5474 153C76.8538 153 81.9832 152.469 86.8474 151.32H56.2474C61.2 152.469 66.3295 153 71.5474 153Z" fill="url(#paint11_linear_14_33389)"/>
<path d="M117.536 26.3549H25.6474C25.0283 26.8855 24.4092 27.4161 23.7017 28.0352H119.393C118.774 27.5046 118.155 26.9739 117.536 26.3549Z" fill="url(#paint12_linear_14_33389)"/>
<path d="M71.5474 9.72827C66.241 9.72827 61.1116 10.2589 56.2474 11.4086H86.9358C81.9832 10.2589 76.8538 9.72827 71.5474 9.72827Z" fill="url(#paint13_linear_14_33389)"/>
<path d="M136.639 51.3832H6.45607C6.19075 51.9138 6.01387 52.5329 5.74855 53.0635H137.435C137.169 52.5329 136.904 51.9138 136.639 51.3832Z" fill="url(#paint14_linear_14_33389)"/>
<path d="M139.911 59.6965H3.27225C3.09538 60.2271 2.9185 60.7578 2.74162 61.3768H140.353C140.265 60.8462 140.088 60.3156 139.911 59.6965Z" fill="url(#paint15_linear_14_33389)"/>
<path d="M125.938 34.7566H17.1572C16.715 35.2872 16.2728 35.8179 15.7422 36.4369H127.264C126.91 35.8179 126.468 35.2872 125.938 34.7566Z" fill="url(#paint16_linear_14_33389)"/>
<path d="M132.128 43.0699H11.0549C10.7012 43.6005 10.3474 44.1312 10.0821 44.7502H133.19C132.836 44.1312 132.482 43.6005 132.128 43.0699Z" fill="url(#paint17_linear_14_33389)"/>
<path opacity="0.9" d="M146.279 18.3069C146.279 8.22487 138.054 -3.5952e-07 127.972 -8.00221e-07C117.89 -1.24092e-06 109.665 8.22486 109.665 18.3069C109.665 28.389 117.89 36.6139 127.972 36.6139C138.054 36.5254 146.279 28.389 146.279 18.3069ZM113.821 18.3069C113.821 10.5243 120.189 4.15666 127.972 4.15666C135.754 4.15666 142.122 10.5243 142.122 18.3069C142.122 26.0896 135.754 32.4572 127.972 32.4572C120.189 32.4572 113.821 26.0896 113.821 18.3069Z" fill="url(#paint18_linear_14_33389)"/>
<defs>
<linearGradient id="paint0_linear_14_33389" x1="71.6349" y1="-19.4567" x2="71.6349" y2="168.035" gradientUnits="userSpaceOnUse">
<stop stop-color="#FF8E30"/>
<stop offset="1"/>
</linearGradient>
<linearGradient id="paint1_linear_14_33389" x1="71.6349" y1="-19.4567" x2="71.6349" y2="168.035" gradientUnits="userSpaceOnUse">
<stop stop-color="#FF8E30"/>
<stop offset="1"/>
</linearGradient>
<linearGradient id="paint2_linear_14_33389" x1="71.6349" y1="-19.4567" x2="71.6349" y2="168.035" gradientUnits="userSpaceOnUse">
<stop stop-color="#FF8E30"/>
<stop offset="1"/>
</linearGradient>
<linearGradient id="paint3_linear_14_33389" x1="71.6349" y1="-19.4567" x2="71.6349" y2="168.035" gradientUnits="userSpaceOnUse">
<stop stop-color="#FF8E30"/>
<stop offset="1"/>
</linearGradient>
<linearGradient id="paint4_linear_14_33389" x1="71.6349" y1="-19.4567" x2="71.6349" y2="168.035" gradientUnits="userSpaceOnUse">
<stop stop-color="#FF8E30"/>
<stop offset="1"/>
</linearGradient>
<linearGradient id="paint5_linear_14_33389" x1="71.6349" y1="-19.4567" x2="71.6349" y2="168.035" gradientUnits="userSpaceOnUse">
<stop stop-color="#FF8E30"/>
<stop offset="1"/>
</linearGradient>
<linearGradient id="paint6_linear_14_33389" x1="71.6349" y1="-19.4567" x2="71.6349" y2="168.035" gradientUnits="userSpaceOnUse">
<stop stop-color="#FF8E30"/>
<stop offset="1"/>
</linearGradient>
<linearGradient id="paint7_linear_14_33389" x1="71.6349" y1="-19.4567" x2="71.6349" y2="168.035" gradientUnits="userSpaceOnUse">
<stop stop-color="#FF8E30"/>
<stop offset="1"/>
</linearGradient>
<linearGradient id="paint8_linear_14_33389" x1="71.6349" y1="-19.4567" x2="71.6349" y2="168.035" gradientUnits="userSpaceOnUse">
<stop stop-color="#FF8E30"/>
<stop offset="1"/>
</linearGradient>
<linearGradient id="paint9_linear_14_33389" x1="71.6349" y1="-19.4567" x2="71.6349" y2="168.035" gradientUnits="userSpaceOnUse">
<stop stop-color="#FF8E30"/>
<stop offset="1"/>
</linearGradient>
<linearGradient id="paint10_linear_14_33389" x1="71.6349" y1="-19.4567" x2="71.6349" y2="168.035" gradientUnits="userSpaceOnUse">
<stop stop-color="#FF8E30"/>
<stop offset="1"/>
</linearGradient>
<linearGradient id="paint11_linear_14_33389" x1="71.6349" y1="-19.4567" x2="71.6349" y2="168.035" gradientUnits="userSpaceOnUse">
<stop stop-color="#FF8E30"/>
<stop offset="1"/>
</linearGradient>
<linearGradient id="paint12_linear_14_33389" x1="71.6349" y1="-19.4567" x2="71.6349" y2="168.035" gradientUnits="userSpaceOnUse">
<stop stop-color="#FF8E30"/>
<stop offset="1"/>
</linearGradient>
<linearGradient id="paint13_linear_14_33389" x1="71.6349" y1="-19.4567" x2="71.6349" y2="168.035" gradientUnits="userSpaceOnUse">
<stop stop-color="#FF8E30"/>
<stop offset="1"/>
</linearGradient>
<linearGradient id="paint14_linear_14_33389" x1="71.6349" y1="-19.4567" x2="71.6349" y2="168.035" gradientUnits="userSpaceOnUse">
<stop stop-color="#FF8E30"/>
<stop offset="1"/>
</linearGradient>
<linearGradient id="paint15_linear_14_33389" x1="71.6349" y1="-19.4567" x2="71.6349" y2="168.035" gradientUnits="userSpaceOnUse">
<stop stop-color="#FF8E30"/>
<stop offset="1"/>
</linearGradient>
<linearGradient id="paint16_linear_14_33389" x1="71.6349" y1="-19.4567" x2="71.6349" y2="168.035" gradientUnits="userSpaceOnUse">
<stop stop-color="#FF8E30"/>
<stop offset="1"/>
</linearGradient>
<linearGradient id="paint17_linear_14_33389" x1="71.6349" y1="-19.4567" x2="71.6349" y2="168.035" gradientUnits="userSpaceOnUse">
<stop stop-color="#FF8E30"/>
<stop offset="1"/>
</linearGradient>
<linearGradient id="paint18_linear_14_33389" x1="104" y1="45" x2="146" y2="-6" gradientUnits="userSpaceOnUse">
<stop stop-color="white"/>
<stop offset="1" stop-color="white" stop-opacity="0"/>
</linearGradient>
</defs>
</svg>
