<svg width="310" height="72" viewBox="0 0 310 72" fill="none" xmlns="http://www.w3.org/2000/svg">
<path d="M6.61101 6.65488L5.9039 5.94778L6.61101 6.65488ZM54.7074 0.305357H55.7074V-0.694643H54.7074V0.305357ZM54.7074 14.6543V15.6543H55.7074V14.6543H54.7074ZM16.7103 16.7541L16.0032 16.047L16.7103 16.7541ZM15.2104 24.6535L14.2842 25.0309L14.2894 25.0432L15.2104 24.6535ZM16.7103 26.9534L15.9853 27.6421L16.0029 27.6607L16.0215 27.6784L16.7103 26.9534ZM44.5082 30.7031L44.1086 31.6198L44.1156 31.6229L44.1227 31.6258L44.5082 30.7031ZM51.3577 35.3027L50.6445 36.0038L50.6505 36.0099L50.6566 36.0159L51.3577 35.3027ZM55.9573 42.1522L55.0346 42.5377L55.0376 42.5448L55.0406 42.5518L55.9573 42.1522ZM55.9573 58.851L55.0406 58.4514L55.0364 58.4613L55.9573 58.851ZM51.3577 65.7005L52.0648 66.4076L51.3577 65.7005ZM44.5082 70.3001L44.1129 69.3816L44.1086 69.3834L44.5082 70.3001ZM4.31118 72H3.31118V73H4.31118V72ZM4.31118 57.6511V56.6511H3.31118V57.6511H4.31118ZM41.2084 55.6012L40.5013 54.8941L41.2084 55.6012ZM41.2084 45.452L40.4834 46.1407L40.5011 46.1593L40.5197 46.177L41.2084 45.452ZM6.61101 37.0526L5.89789 37.7536L5.90388 37.7597L5.90997 37.7657L6.61101 37.0526ZM2.01135 30.2031L1.0928 30.5984L1.09466 30.6027L2.01135 30.2031ZM1.31148 21.8037C1.31148 18.9684 1.85227 16.3219 2.92805 13.854L1.09466 13.0548C-0.0960579 15.7864 -0.688519 18.7063 -0.688519 21.8037H1.31148ZM2.92805 13.854C4.01319 11.3645 5.47672 9.20339 7.31812 7.36199L5.9039 5.94778C3.87893 7.97276 2.27601 10.3446 1.09466 13.0548L2.92805 13.854ZM7.31812 7.36199C9.19437 5.48573 11.3727 4.00618 13.8601 2.92193L13.0609 1.08853C10.3487 2.27078 7.96069 3.891 5.9039 5.94778L7.31812 7.36199ZM13.8601 2.92193C16.3281 1.84614 18.9745 1.30536 21.8099 1.30536V-0.694643C18.7124 -0.694643 15.7925 -0.10218 13.0609 1.08853L13.8601 2.92193ZM21.8099 1.30536H54.7074V-0.694643H21.8099V1.30536ZM53.7074 0.305357V14.6543H55.7074V0.305357H53.7074ZM54.7074 13.6543H21.8099V15.6543H54.7074V13.6543ZM21.8099 13.6543C20.6846 13.6543 19.6179 13.8613 18.6204 14.2833L19.3997 16.1252C20.1354 15.8139 20.9353 15.6543 21.8099 15.6543V13.6543ZM18.6204 14.2833C17.635 14.7002 16.7607 15.2895 16.0032 16.047L17.4174 17.4612C17.9931 16.8855 18.652 16.4416 19.3997 16.1252L18.6204 14.2833ZM16.0032 16.047C15.2742 16.7759 14.7036 17.6352 14.2894 18.6143L16.1313 19.3936C16.4504 18.6395 16.8797 17.9989 17.4174 17.4612L16.0032 16.047ZM14.2894 18.6143C13.8674 19.6118 13.6604 20.6785 13.6604 21.8037H15.6604C15.6604 20.9292 15.8201 20.1293 16.1313 19.3936L14.2894 18.6143ZM13.6604 21.8037C13.6604 22.9292 13.8674 24.0076 14.2843 25.0308L16.1365 24.2762C15.8201 23.4996 15.6604 22.6781 15.6604 21.8037H13.6604ZM14.2894 25.0432C14.7017 26.0178 15.2673 26.8863 15.9853 27.6421L17.4353 26.2646C16.8867 25.6872 16.4523 25.0225 16.1313 24.2639L14.2894 25.0432ZM16.0215 27.6784C16.7773 28.3964 17.6458 28.9619 18.6204 29.3742L19.3997 27.5323C18.6412 27.2114 17.9764 26.7769 17.399 26.2284L16.0215 27.6784ZM18.6204 29.3742C19.6179 29.7962 20.6846 30.0032 21.8099 30.0032V28.0032C20.9353 28.0032 20.1354 27.8436 19.3997 27.5323L18.6204 29.3742ZM21.8099 30.0032H36.1588V28.0032H21.8099V30.0032ZM36.1588 30.0032C38.9942 30.0032 41.6406 30.544 44.1086 31.6198L44.9078 29.7864C42.1761 28.5957 39.2563 28.0032 36.1588 28.0032V30.0032ZM44.1227 31.6258C46.6373 32.6762 48.808 34.1356 50.6445 36.0038L52.0708 34.6017C50.041 32.5369 47.6453 30.9298 44.8936 29.7804L44.1227 31.6258ZM50.6566 36.0159C52.5248 37.8524 53.9842 40.0231 55.0346 42.5377L56.8801 41.7668C55.7306 39.0151 54.1235 36.6194 52.0587 34.5896L50.6566 36.0159ZM55.0406 42.5518C56.1164 45.0198 56.6572 47.6662 56.6572 50.5016H58.6572C58.6572 47.4041 58.0647 44.4843 56.874 41.7526L55.0406 42.5518ZM56.6572 50.5016C56.6572 53.337 56.1164 55.9834 55.0406 58.4514L56.874 59.2506C58.0647 56.5189 58.6572 53.5991 58.6572 50.5016H56.6572ZM55.0364 58.4613C53.9858 60.9444 52.5246 63.1193 50.6506 64.9934L52.0648 66.4076C54.1237 64.3486 55.729 61.9572 56.8783 59.2406L55.0364 58.4613ZM50.6506 64.9934C48.8113 66.8326 46.6353 68.296 44.1129 69.3816L44.9035 71.2187C47.6473 70.0378 50.0377 68.4347 52.0648 66.4076L50.6506 64.9934ZM44.1086 69.3834C41.6406 70.4592 38.9942 71 36.1588 71V73C39.2563 73 42.1761 72.4075 44.9078 71.2168L44.1086 69.3834ZM36.1588 71H4.31118V73H36.1588V71ZM5.31118 72V57.6511H3.31118V72H5.31118ZM4.31118 58.6511H36.1588V56.6511H4.31118V58.6511ZM36.1588 58.6511C37.2841 58.6511 38.3507 58.4441 39.3482 58.0221L38.569 56.1801C37.8332 56.4914 37.0334 56.6511 36.1588 56.6511V58.6511ZM39.3482 58.0221C40.3273 57.6078 41.1866 57.0373 41.9155 56.3083L40.5013 54.8941C39.9637 55.4318 39.3231 55.8611 38.569 56.1801L39.3482 58.0221ZM41.9155 56.3083C42.673 55.5508 43.2624 54.6765 43.6793 53.691L41.8373 52.9118C41.521 53.6595 41.077 54.3184 40.5013 54.8941L41.9155 56.3083ZM43.6793 53.691C44.1013 52.6936 44.3083 51.6269 44.3083 50.5016H42.3083C42.3083 51.3762 42.1486 52.176 41.8373 52.9118L43.6793 53.691ZM44.3083 50.5016C44.3083 49.3763 44.1013 48.3097 43.6793 47.3122L41.8373 48.0915C42.1486 48.8272 42.3083 49.627 42.3083 50.5016H44.3083ZM43.6793 47.3122C43.2604 46.3221 42.6658 45.4572 41.8972 44.727L40.5197 46.177C41.0843 46.7134 41.523 47.3484 41.8373 48.0915L43.6793 47.3122ZM41.9334 44.7632C41.2032 43.9946 40.3384 43.4 39.3482 42.9811L38.569 44.8231C39.312 45.1375 39.947 45.5761 40.4834 46.1407L41.9334 44.7632ZM39.3482 42.9811C38.3507 42.5591 37.2841 42.3521 36.1588 42.3521V44.3521C37.0334 44.3521 37.8332 44.5118 38.569 44.8231L39.3482 42.9811ZM36.1588 42.3521H21.8099V44.3521H36.1588V42.3521ZM21.8099 42.3521C18.9745 42.3521 16.3281 41.8114 13.8601 40.7356L13.0609 42.569C15.7925 43.7597 18.7124 44.3521 21.8099 44.3521V42.3521ZM13.8601 40.7356C11.3691 39.6498 9.18888 38.1845 7.31205 36.3395L5.90997 37.7657C7.96618 39.7871 10.3523 41.3883 13.0609 42.569L13.8601 40.7356ZM7.32413 36.3516C5.47911 34.4747 4.01385 32.2945 2.92805 29.8035L1.09466 30.6027C2.27535 33.3114 3.87653 35.6974 5.89789 37.7536L7.32413 36.3516ZM2.9299 29.8078C1.85227 27.3039 1.31148 24.6391 1.31148 21.8037H-0.688519C-0.688519 24.9013 -0.0960579 27.8361 1.09281 30.5984L2.9299 29.8078ZM96.2043 72V73H97.2043V72H96.2043ZM81.9054 72H80.9054V73H81.9054V72ZM81.9054 14.6543H82.9054V13.6543H81.9054V14.6543ZM60.357 14.6543H59.357V15.6543H60.357V14.6543ZM60.357 0.305357V-0.694643H59.357V0.305357H60.357ZM117.703 0.305357H118.703V-0.694643H117.703V0.305357ZM117.703 14.6543V15.6543H118.703V14.6543H117.703ZM96.2043 14.6543V13.6543H95.2043V14.6543H96.2043ZM96.2043 71H81.9054V73H96.2043V71ZM82.9054 72V14.6543H80.9054V72H82.9054ZM81.9054 13.6543H60.357V15.6543H81.9054V13.6543ZM61.357 14.6543V0.305357H59.357V14.6543H61.357ZM60.357 1.30536H117.703V-0.694643H60.357V1.30536ZM116.703 0.305357V14.6543H118.703V0.305357H116.703ZM117.703 13.6543H96.2043V15.6543H117.703V13.6543ZM95.2043 14.6543V72H97.2043V14.6543H95.2043ZM165.299 43.3521V44.3521H166.299V43.3521H165.299ZM164.149 23.4536L163.226 23.837L163.23 23.8476L163.235 23.8581L164.149 23.4536ZM156.5 15.8042L156.095 16.7187L156.106 16.7234L156.116 16.7278L156.5 15.8042ZM145.351 15.8042L145.74 16.7252L145.749 16.7215L145.351 15.8042ZM137.701 23.4536L136.784 23.0555L136.78 23.064L137.701 23.4536ZM136.601 43.3521H135.601V44.3521H136.601V43.3521ZM179.648 72V73H180.648V72H179.648ZM165.299 72H164.299V73H165.299V72ZM165.299 57.6511H166.299V56.6511H165.299V57.6511ZM136.601 57.6511V56.6511H135.601V57.6511H136.601ZM136.601 72V73H137.601V72H136.601ZM122.302 72H121.302V73H122.302V72ZM124.552 17.854L125.47 18.2512L125.471 18.248L124.552 17.854ZM130.652 8.70473L129.945 7.99761L129.94 8.0022L130.652 8.70473ZM139.751 2.55519L139.357 1.63604L139.354 1.63742L139.751 2.55519ZM162.099 2.55519L161.702 3.47297L161.705 3.47433L162.099 2.55519ZM177.398 17.854L176.479 18.248L176.48 18.2512L177.398 17.854ZM166.299 43.3521V29.0032H164.299V43.3521H166.299ZM166.299 29.0032C166.299 26.9027 165.889 24.9146 165.064 23.0491L163.235 23.8581C163.943 25.4591 164.299 27.1706 164.299 29.0032H166.299ZM165.073 23.0703C164.291 21.1876 163.203 19.5432 161.807 18.1469L160.392 19.5611C161.596 20.7646 162.541 22.1865 163.226 23.837L165.073 23.0703ZM161.807 18.1469C160.41 16.7505 158.766 15.6621 156.883 14.8806L156.116 16.7278C157.767 17.4129 159.189 18.3576 160.392 19.5611L161.807 18.1469ZM156.904 14.8897C155.039 14.0646 153.051 13.6543 150.95 13.6543V15.6543C152.783 15.6543 154.494 16.0106 156.095 16.7187L156.904 14.8897ZM150.95 13.6543C148.85 13.6543 146.847 14.0645 144.953 14.8869L145.749 16.7215C147.387 16.0106 149.118 15.6543 150.95 15.6543V13.6543ZM144.961 14.8832C143.112 15.6655 141.487 16.7537 140.094 18.1469L141.508 19.5611C142.715 18.3544 144.123 17.4095 145.74 16.7252L144.961 14.8832ZM140.094 18.1469C138.701 19.5398 137.598 21.1793 136.784 23.0555L138.619 23.8517C139.338 22.1949 140.301 20.7679 141.508 19.5611L140.094 18.1469ZM136.78 23.064C135.992 24.926 135.601 26.909 135.601 29.0032H137.601C137.601 27.1644 137.943 25.4477 138.622 23.8433L136.78 23.064ZM135.601 29.0032V43.3521H137.601V29.0032H135.601ZM136.601 44.3521H165.299V42.3521H136.601V44.3521ZM179.648 71H165.299V73H179.648V71ZM166.299 72V57.6511H164.299V72H166.299ZM165.299 56.6511H136.601V58.6511H165.299V56.6511ZM135.601 57.6511V72H137.601V57.6511H135.601ZM136.601 71H122.302V73H136.601V71ZM123.302 72V29.0032H121.302V72H123.302ZM123.302 29.0032C123.302 25.1665 124.027 21.5859 125.47 18.2512L123.634 17.4569C122.078 21.055 121.302 24.9072 121.302 29.0032H123.302ZM125.471 18.248C126.924 14.8582 128.888 11.9143 131.363 9.40726L129.94 8.0022C127.282 10.6947 125.18 13.8504 123.633 17.4601L125.471 18.248ZM131.359 9.41183C133.867 6.90361 136.794 4.92418 140.148 3.47296L139.354 1.63742C135.775 3.18597 132.636 5.30624 129.945 7.99762L131.359 9.41183ZM140.145 3.47433C143.515 2.03002 147.114 1.30536 150.95 1.30536V-0.694643C146.854 -0.694643 142.987 0.0805836 139.357 1.63604L140.145 3.47433ZM150.95 1.30536C154.787 1.30536 158.367 2.03002 161.702 3.47296L162.497 1.63742C158.898 0.0805817 155.046 -0.694643 150.95 -0.694643V1.30536ZM161.705 3.47433C165.093 4.92593 168.035 6.90519 170.542 9.41183L171.956 7.99762C169.263 5.30465 166.106 3.18423 162.493 1.63604L161.705 3.47433ZM170.542 9.41183C173.048 11.9185 175.028 14.8609 176.479 18.248L178.317 17.4601C176.769 13.8477 174.649 10.6906 171.956 7.99762L170.542 9.41183ZM176.48 18.2512C177.923 21.5859 178.648 25.1665 178.648 29.0032H180.648C180.648 24.9072 179.873 21.055 178.316 17.4569L176.48 18.2512ZM178.648 29.0032V72H180.648V29.0032H178.648ZM206.446 14.6543V13.6543H205.446V14.6543H206.446ZM206.446 43.3521H205.446V44.3521H206.446V43.3521ZM226.345 42.2522L226.734 43.1732L226.742 43.17L226.749 43.1668L226.345 42.2522ZM233.944 34.6028L233.027 34.2047L233.023 34.2132L233.944 34.6028ZM233.944 23.4536L233.02 23.837L233.025 23.8476L233.029 23.8581L233.944 23.4536ZM226.345 15.8042L225.94 16.7187L225.947 16.722L225.955 16.7252L226.345 15.8042ZM206.446 72V73H207.446V72H206.446ZM192.097 72H191.097V73H192.097V72ZM192.097 0.305357V-0.694643H191.097V0.305357H192.097ZM228.394 1.35528L228.118 2.31638L228.13 2.31974L228.394 1.35528ZM235.194 4.25506L234.677 5.11135L234.685 5.11615L234.693 5.1208L235.194 4.25506ZM240.993 8.75473L240.28 9.45507L240.286 9.46186L240.293 9.46853L240.993 8.75473ZM245.493 14.5543L244.627 15.0548L244.633 15.0648L245.493 14.5543ZM248.393 21.4038L247.428 21.668L247.432 21.6802L248.393 21.4038ZM248.493 36.2027L247.528 35.9407L247.524 35.9536L248.493 36.2027ZM245.843 42.8522L244.969 42.3665L244.963 42.3772L245.843 42.8522ZM236.044 53.2514L235.511 52.4049L234.791 52.8581L235.123 53.6418L236.044 53.2514ZM243.993 72V73H245.503L244.914 71.6096L243.993 72ZM228.744 72L227.827 72.397L228.087 73H228.744V72ZM222.495 57.5511L223.413 57.1541L223.15 56.547L222.489 56.5511L222.495 57.5511ZM206.446 57.6511L206.44 56.6511L205.446 56.6573V57.6511H206.446ZM205.446 14.6543V43.3521H207.446V14.6543H205.446ZM206.446 44.3521H220.795V42.3521H206.446V44.3521ZM220.795 44.3521C222.889 44.3521 224.872 43.961 226.734 43.1732L225.955 41.3313C224.351 42.01 222.634 42.3521 220.795 42.3521V44.3521ZM226.749 43.1668C228.592 42.3518 230.212 41.2494 231.601 39.8596L230.187 38.4454C228.977 39.6553 227.564 40.6194 225.94 41.3377L226.749 43.1668ZM231.601 39.8596C232.995 38.4664 234.083 36.8414 234.865 34.9924L233.023 34.2132C232.339 35.8306 231.394 37.2387 230.187 38.4454L231.601 39.8596ZM234.861 35.0009C235.684 33.106 236.094 31.1037 236.094 29.0032H234.094C234.094 30.8358 233.738 32.5665 233.027 34.2047L234.861 35.0009ZM236.094 29.0032C236.094 26.9027 235.684 24.9146 234.859 23.0491L233.029 23.8581C233.738 25.4591 234.094 27.1706 234.094 29.0032H236.094ZM234.868 23.0703C234.086 21.1876 232.998 19.5432 231.601 18.1469L230.187 19.5611C231.391 20.7646 232.335 22.1865 233.02 23.837L234.868 23.0703ZM231.601 18.1469C230.208 16.7537 228.583 15.6655 226.734 14.8832L225.955 16.7252C227.572 17.4095 228.98 18.3544 230.187 19.5611L231.601 18.1469ZM226.749 14.8897C224.884 14.0646 222.895 13.6543 220.795 13.6543V15.6543C222.628 15.6543 224.339 16.0106 225.94 16.7187L226.749 14.8897ZM220.795 13.6543H206.446V15.6543H220.795V13.6543ZM206.446 71H192.097V73H206.446V71ZM193.097 72V0.305357H191.097V72H193.097ZM192.097 1.30536H220.795V-0.694643H192.097V1.30536ZM220.795 1.30536C223.338 1.30536 225.778 1.64323 228.118 2.3163L228.671 0.394253C226.144 -0.332569 223.518 -0.694643 220.795 -0.694643V1.30536ZM228.13 2.31974C230.477 2.96277 232.659 3.89362 234.677 5.11135L235.71 3.39877C233.53 2.08336 231.178 1.08102 228.659 0.39082L228.13 2.31974ZM234.693 5.1208C236.748 6.3086 238.609 7.75276 240.28 9.45507L241.707 8.05439C239.911 6.22362 237.906 4.66801 235.694 3.38933L234.693 5.1208ZM240.293 9.46853C241.995 11.1387 243.44 13.0002 244.627 15.0548L246.359 14.0538C245.08 11.842 243.525 9.83714 241.694 8.04092L240.293 9.46853ZM244.633 15.0648C245.853 17.1197 246.785 19.3198 247.428 21.668L249.357 21.1395C248.668 18.6215 247.666 16.2553 246.353 14.0438L244.633 15.0648ZM247.432 21.6802C248.105 24.02 248.443 26.4598 248.443 29.0032H250.443C250.443 26.2803 250.081 23.6539 249.354 21.1273L247.432 21.6802ZM248.443 29.0032C248.443 31.383 248.137 33.6947 247.528 35.9407L249.458 36.4646C250.115 34.0444 250.443 31.5564 250.443 29.0032H248.443ZM247.524 35.9536C246.946 38.2045 246.094 40.3414 244.969 42.3665L246.717 43.3378C247.925 41.1632 248.84 38.8672 249.461 36.4517L247.524 35.9536ZM244.963 42.3772C243.872 44.3989 242.524 46.2613 240.916 47.9655L242.371 49.338C244.096 47.5091 245.548 45.5051 246.723 43.3271L244.963 42.3772ZM240.916 47.9655C239.308 49.6703 237.507 51.1498 235.511 52.4049L236.576 54.0979C238.714 52.7532 240.646 51.1663 242.371 49.338L240.916 47.9655ZM235.123 53.6418L243.073 72.3904L244.914 71.6096L236.965 52.861L235.123 53.6418ZM243.993 71H228.744V73H243.993V71ZM229.662 71.603L223.413 57.1541L221.577 57.9481L227.827 72.397L229.662 71.603ZM222.489 56.5511L206.44 56.6511L206.452 58.6511L222.501 58.5511L222.489 56.5511ZM205.446 57.6511V72H207.446V57.6511H205.446ZM287.69 72V73H288.69V72H287.69ZM273.391 72H272.391V73H273.391V72ZM273.391 14.6543H274.391V13.6543H273.391V14.6543ZM251.843 14.6543H250.843V15.6543H251.843V14.6543ZM251.843 0.305357V-0.694643H250.843V0.305357H251.843ZM309.188 0.305357H310.188V-0.694643H309.188V0.305357ZM309.188 14.6543V15.6543H310.188V14.6543H309.188ZM287.69 14.6543V13.6543H286.69V14.6543H287.69ZM287.69 71H273.391V73H287.69V71ZM274.391 72V14.6543H272.391V72H274.391ZM273.391 13.6543H251.843V15.6543H273.391V13.6543ZM252.843 14.6543V0.305357H250.843V14.6543H252.843ZM251.843 1.30536H309.188V-0.694643H251.843V1.30536ZM308.188 0.305357V14.6543H310.188V0.305357H308.188ZM309.188 13.6543H287.69V15.6543H309.188V13.6543ZM286.69 14.6543V72H288.69V14.6543H286.69Z" fill="#FF8E30"/>
</svg>
