<svg width="296" height="441" viewBox="0 0 296 441" fill="none" xmlns="http://www.w3.org/2000/svg">
<rect x="1.33667" y="79.5" width="293.837" height="361" rx="11.5" fill="black" stroke="#FF8E30"/>
<path d="M148.337 0L173.571 17.5794L203.845 22.9921L209.257 53.2659L226.837 78.5L209.257 103.734L203.845 134.008L173.571 139.421L148.337 157L123.103 139.421L92.8288 134.008L87.4161 103.734L69.8367 78.5L87.4161 53.2659L92.8288 22.9921L123.103 17.5794L148.337 0Z" fill="url(#paint0_linear_16_1187)"/>
<path d="M171.678 21.8699L171.768 21.9326L171.876 21.9519L199.878 26.9585L204.885 54.9611L204.904 55.069L204.967 55.1589L221.227 78.5L204.967 101.841L204.904 101.931L204.885 102.039L199.878 130.041L171.876 135.048L171.768 135.067L171.678 135.13L148.337 151.391L124.996 135.13L124.906 135.067L124.798 135.048L96.7952 130.041L91.7885 102.039L91.7693 101.931L91.7066 101.841L75.446 78.5L91.7066 55.1589L91.7693 55.069L91.7885 54.9611L96.7952 26.9585L124.798 21.9519L124.906 21.9326L124.996 21.8699L148.337 5.60937L171.678 21.8699Z" stroke="white"/>
<path d="M116.604 94.6255V96.3503H127.463V94.6255H116.604ZM116.977 99.0355V100.721H125.503V99.0355H116.977ZM121.053 91.6659V99.9763H122.876V91.6659H121.053ZM119.152 100.329L117.486 100.819C119.231 105.347 122.308 108.502 127.012 109.874C127.267 109.404 127.796 108.659 128.207 108.287C123.68 107.13 120.603 104.249 119.152 100.329ZM125.326 99.0355V99.3491C124.013 104.053 120.073 107.032 115.467 108.169C115.82 108.561 116.271 109.345 116.467 109.835C121.445 108.365 125.561 105.17 127.188 99.4667L126.012 98.9767L125.679 99.0355H125.326ZM109.764 101.858L110.273 103.641C112.057 103.151 114.35 102.524 116.506 101.877L116.271 100.192C113.919 100.839 111.449 101.485 109.764 101.858ZM110.019 95.5271V97.2519H116.33V95.5271H110.019ZM112.429 91.6659V107.718C112.429 108.012 112.331 108.11 112.057 108.11C111.802 108.11 110.959 108.11 110.097 108.091C110.332 108.581 110.587 109.325 110.646 109.796C112.018 109.796 112.88 109.737 113.468 109.463C114.056 109.169 114.252 108.698 114.252 107.738V91.6659H112.429ZM130.579 93.2339C131.873 93.8219 133.499 94.7627 134.264 95.4487L135.342 93.9003C134.519 93.2535 132.872 92.3911 131.618 91.8815L130.579 93.2339ZM129.481 98.5455C130.755 99.0943 132.363 100.015 133.127 100.662L134.166 99.1335C133.343 98.4867 131.716 97.6439 130.481 97.1539L129.481 98.5455ZM130.167 108.365L131.735 109.619C132.892 107.757 134.205 105.405 135.244 103.328L133.891 102.113C132.735 104.347 131.206 106.875 130.167 108.365ZM140.281 91.6659V100.956H142.163V91.6659H140.281ZM135.381 99.7999V101.564H147.141V99.7999H135.381ZM136.224 94.8411V96.6051H146.377V94.8411H136.224ZM142.476 104.151C143.809 105.915 145.22 108.326 145.71 109.855L147.357 109.012C146.788 107.444 145.338 105.151 143.966 103.426L142.476 104.151ZM136.4 109.286C136.988 109.012 137.929 108.855 145.142 107.953C145.063 107.561 145.005 106.836 145.024 106.346L137.321 107.189L136.341 107.816L136.4 109.286ZM136.4 109.286C136.4 108.914 137.655 108.267 137.655 108.267V108.228C139.164 106.307 140.81 103.543 141.986 100.819L140.007 100.172C139.105 102.74 137.517 105.464 137.027 106.15C136.557 106.875 136.185 107.326 135.753 107.424C135.989 107.953 136.302 108.875 136.4 109.286ZM149.846 93.3319V96.6051H151.531V94.8019H164.683V96.6051H166.447V93.3319H149.846ZM157.47 96.0563C157.392 97.2715 157.235 98.8003 157.039 99.7999H158.627C158.783 98.8395 158.921 97.3107 159.019 96.0563H157.47ZM153.648 103.622H162.645V104.406H153.648V103.622ZM153.648 105.366H162.645V106.17H153.648V105.366ZM153.648 101.917H162.645V102.661H153.648V101.917ZM151.865 100.897V107.169H164.526V100.897H151.865ZM159.195 108.032C161.469 108.659 163.781 109.404 165.193 109.953L166.447 108.796C164.899 108.247 162.429 107.522 160.155 106.954L159.195 108.032ZM154.275 96.6051H162.115L161.9 99.1727H153.942L154.275 96.6051ZM152.747 95.6055L152.159 100.192H163.507L163.938 95.6055H152.747ZM155.647 106.973C154.413 107.64 151.708 108.365 149.571 108.679C149.885 109.012 150.336 109.6 150.571 109.953C152.786 109.6 155.471 108.855 157.117 107.973L155.647 106.973ZM149.238 97.1735V98.5455H153.57V98.3691H162.566V98.5455H167.094V97.1735H162.566V97.3499H153.57V97.1735H149.238ZM156.529 91.9991C156.98 92.6851 157.47 93.6455 157.627 94.2727L159.352 93.7435C159.136 93.1163 158.627 92.1755 158.137 91.5091L156.529 91.9991ZM170.563 93.4495H172.033V95.0567H170.563V93.4495ZM169.211 92.2343V96.2915H173.444V92.2343H169.211ZM175.62 93.4495H177.129V95.0567H175.62V93.4495ZM174.267 92.2343V96.2915H178.54V92.2343H174.267ZM178.579 97.5067L178.795 99.2315L186.949 98.2123L186.733 96.5071L178.579 97.5067ZM183.009 92.7243C183.852 93.7631 184.753 95.1939 185.106 96.1151L186.596 95.2723C186.223 94.3511 185.283 92.9791 184.42 91.9795L183.009 92.7243ZM170.935 101.309H176.757V102.681H170.935V101.309ZM170.935 98.6043H176.757V99.9763H170.935V98.6043ZM169.387 97.2127V104.092H178.383V97.2127H169.387ZM168.583 105.307V106.954H178.952V105.307H168.583ZM173.033 97.7027V103.504H172.915V109.874H174.718V103.504H174.601V97.7027H173.033ZM180.304 91.8031C180.618 102.191 181.676 109.757 185.047 109.913C185.871 109.933 186.733 109.11 187.164 105.856C186.87 105.68 186.106 105.209 185.792 104.837C185.675 106.699 185.42 107.718 185.067 107.699C183.362 107.581 182.225 100.368 182.068 91.8031H180.304ZM184.891 99.0747C183.636 102.995 180.892 106.719 177.403 108.385C177.874 108.718 178.442 109.267 178.756 109.698C182.166 107.816 184.969 103.916 186.302 99.8587L184.891 99.0747Z" fill="white"/>
<path d="M130.946 68.6719C130.946 70.4844 130.618 72.1953 129.962 73.8047C129.321 75.4141 128.43 76.8281 127.29 78.0469C126.149 79.25 124.79 80.2031 123.212 80.9062C121.649 81.6094 119.954 81.9609 118.126 81.9609C116.298 81.9609 114.571 81.6094 112.946 80.9062C111.337 80.2031 109.93 79.25 108.727 78.0469C107.524 76.8281 106.571 75.4141 105.868 73.8047C105.18 72.1953 104.837 70.4844 104.837 68.6719C104.837 66.5156 105.048 64.4141 105.469 62.3672C105.891 60.3047 106.509 58.3594 107.321 56.5312C108.134 54.6875 109.126 52.9922 110.298 51.4453C111.469 49.8984 112.798 48.5469 114.282 47.3906H123.352C122.415 48 121.501 48.6797 120.61 49.4297C119.719 50.1797 118.868 50.9844 118.055 51.8438C117.259 52.7031 116.516 53.6094 115.829 54.5625C115.141 55.5156 114.532 56.5078 114.001 57.5391C114.673 57.0859 115.399 56.7031 116.18 56.3906C116.977 56.0625 117.79 55.8984 118.618 55.8984C120.509 55.8984 122.212 56.2188 123.727 56.8594C125.259 57.4844 126.555 58.3672 127.618 59.5078C128.68 60.6328 129.501 61.9766 130.079 63.5391C130.657 65.1016 130.946 66.8125 130.946 68.6719ZM124.219 68.6719C124.219 67.7812 124.071 66.9453 123.774 66.1641C123.493 65.3672 123.087 64.6719 122.555 64.0781C122.024 63.4688 121.384 62.9922 120.634 62.6484C119.884 62.3047 119.048 62.1328 118.126 62.1328C117.204 62.1328 116.368 62.3047 115.618 62.6484C114.868 62.9922 114.227 63.4688 113.696 64.0781C113.18 64.6719 112.782 65.3672 112.501 66.1641C112.219 66.9453 112.079 67.7812 112.079 68.6719C112.079 69.5312 112.219 70.3594 112.501 71.1562C112.798 71.9375 113.212 72.6328 113.743 73.2422C114.274 73.8516 114.907 74.3359 115.641 74.6953C116.391 75.0547 117.219 75.2344 118.126 75.2344C119.048 75.2344 119.884 75.0625 120.634 74.7188C121.384 74.375 122.024 73.9062 122.555 73.3125C123.087 72.7031 123.493 72 123.774 71.2031C124.071 70.4062 124.219 69.5625 124.219 68.6719ZM159.024 70.4297C159.024 72.0703 158.735 73.5469 158.157 74.8594C157.579 76.1719 156.805 77.2812 155.837 78.1875C154.868 79.0938 153.743 79.7891 152.462 80.2734C151.196 80.7578 149.868 81 148.477 81H134.93V74.2734H148.477C148.93 74.2734 149.384 74.2031 149.837 74.0625C150.305 73.9219 150.719 73.6953 151.079 73.3828C151.454 73.0703 151.751 72.6719 151.969 72.1875C152.204 71.7031 152.321 71.1172 152.321 70.4297C152.321 69.8047 152.204 69.2578 151.969 68.7891C151.751 68.3047 151.454 67.9062 151.079 67.5938C150.719 67.2656 150.305 67.0234 149.837 66.8672C149.384 66.6953 148.93 66.6094 148.477 66.6094H134.93L136.899 47.3906H157.641V54.1172H142.946L142.337 59.8828H148.477C149.868 59.8828 151.196 60.125 152.462 60.6094C153.743 61.0938 154.868 61.7969 155.837 62.7188C156.805 63.625 157.579 64.7344 158.157 66.0469C158.735 67.3438 159.024 68.8047 159.024 70.4297ZM171.516 55.3125C171.516 53.9219 171.313 52.8984 170.907 52.2422C170.516 51.5703 169.946 51.2344 169.196 51.2344C168.477 51.2344 167.923 51.5703 167.532 52.2422C167.141 52.8984 166.946 53.9219 166.946 55.3125C166.946 56.6875 167.141 57.7109 167.532 58.3828C167.923 59.0547 168.477 59.3906 169.196 59.3906C169.946 59.3906 170.516 59.0547 170.907 58.3828C171.313 57.7109 171.516 56.6875 171.516 55.3125ZM175.969 55.3125C175.969 56.875 175.79 58.2031 175.43 59.2969C175.087 60.375 174.61 61.25 174.001 61.9219C173.391 62.5938 172.673 63.0781 171.844 63.375C171.032 63.6719 170.149 63.8203 169.196 63.8203C168.259 63.8203 167.376 63.6641 166.548 63.3516C165.735 63.0391 165.024 62.5469 164.415 61.875C163.805 61.1875 163.321 60.3047 162.962 59.2266C162.618 58.1484 162.446 56.8438 162.446 55.3125C162.446 53.75 162.618 52.4297 162.962 51.3516C163.321 50.2734 163.805 49.3984 164.415 48.7266C165.024 48.0547 165.735 47.5703 166.548 47.2734C167.376 46.9766 168.259 46.8281 169.196 46.8281C170.149 46.8281 171.032 46.9844 171.844 47.2969C172.673 47.5938 173.391 48.0781 174.001 48.75C174.61 49.4219 175.087 50.2969 175.43 51.375C175.79 52.4531 175.969 53.7656 175.969 55.3125ZM170.555 81H165.469L183.938 47.3906H189.024L170.555 81ZM187.407 72.9844C187.407 71.5781 187.204 70.5469 186.798 69.8906C186.407 69.2344 185.837 68.9062 185.087 68.9062C184.368 68.9062 183.813 69.2344 183.423 69.8906C183.032 70.5469 182.837 71.5781 182.837 72.9844C182.837 74.3438 183.032 75.3594 183.423 76.0312C183.813 76.6875 184.368 77.0156 185.087 77.0156C185.837 77.0156 186.407 76.6875 186.798 76.0312C187.204 75.3594 187.407 74.3438 187.407 72.9844ZM191.86 72.9844C191.86 74.5469 191.68 75.8672 191.321 76.9453C190.977 78.0234 190.501 78.8984 189.891 79.5703C189.282 80.2422 188.563 80.7266 187.735 81.0234C186.923 81.3203 186.04 81.4688 185.087 81.4688C184.149 81.4688 183.266 81.3125 182.438 81C181.626 80.7031 180.915 80.2188 180.305 79.5469C179.696 78.8594 179.212 77.9766 178.852 76.8984C178.509 75.8203 178.337 74.5156 178.337 72.9844C178.337 71.4219 178.509 70.1016 178.852 69.0234C179.212 67.9453 179.696 67.0703 180.305 66.3984C180.915 65.7266 181.626 65.2422 182.438 64.9453C183.266 64.6328 184.149 64.4766 185.087 64.4766C186.04 64.4766 186.923 64.6328 187.735 64.9453C188.563 65.2422 189.282 65.7344 189.891 66.4219C190.501 67.0938 190.977 67.9688 191.321 69.0469C191.68 70.125 191.86 71.4375 191.86 72.9844Z" fill="white"/>
<path d="M74.8367 358.384C75.8027 356.112 77.5569 355.354 79.9975 355.405C84.7769 355.506 89.5564 355.43 94.3359 355.43C94.7935 355.43 95.2511 355.43 95.8104 355.43C95.8104 353.89 95.8104 352.451 95.8104 350.86C94.4121 350.86 93.0902 350.86 91.7427 350.86C89.1242 350.835 87.5226 349.32 87.4972 346.745C87.4717 339.903 87.4717 333.061 87.4972 326.22C87.4972 323.644 89.0988 322.104 91.7173 322.079C95.4036 322.054 99.0645 322.079 102.751 322.079C103.208 322.079 103.666 322.079 104.124 322.079C104.352 319.655 104.454 317.307 104.785 315.01C106.717 301.68 113.098 290.874 123.674 282.492C124.868 281.558 125.936 281.558 126.674 282.492C127.462 283.427 127.207 284.537 125.962 285.497C116.987 292.541 111.242 301.579 109.005 312.738C108.395 315.742 108.217 318.848 107.81 322.104C108.623 322.104 109.081 322.104 109.539 322.104C115.92 322.104 122.301 322.104 128.682 322.104C131.783 322.104 133.233 323.569 133.258 326.649C133.258 333.238 133.258 339.827 133.258 346.417C133.258 349.396 131.758 350.86 128.733 350.885C127.512 350.885 126.292 350.885 124.97 350.885C124.97 352.4 124.97 353.839 124.97 355.455C125.453 355.455 125.885 355.455 126.343 355.455C131.3 355.455 136.232 355.455 141.19 355.455C144.419 355.455 145.893 356.945 145.893 360.151C145.893 360.782 145.868 361.413 145.893 362.044C145.969 363.787 145.944 365.503 144.317 366.867C149.249 367.927 153.952 368.28 158.884 367.775C158.884 367.271 158.833 366.816 158.884 366.362C159.545 359.798 158.02 353.435 156.952 347.048C156.571 344.801 157.587 342.983 159.774 342.352C163.587 341.267 166.892 339.348 169.765 336.621C171.341 335.132 173.35 335.081 175.053 336.444C178.332 339.095 181.586 341.771 184.79 344.498C186.646 346.089 186.696 348.487 185.019 350.305C184.18 351.188 183.29 352.047 182.375 352.855C181.459 353.663 180.493 354.42 179.248 355.455C180.849 355.455 182.197 355.304 183.468 355.48C185.629 355.758 187.052 354.874 188.476 353.334C197.145 343.766 201.365 332.556 200.882 319.731C200.069 298.448 183.722 280.094 162.596 276.509C152.35 274.716 142.588 276.206 133.309 280.826C133.131 280.927 132.927 281.028 132.75 281.104C131.58 281.609 130.538 281.255 130.08 280.245C129.648 279.286 129.953 278.226 131.097 277.746C134.402 276.358 137.656 274.767 141.088 273.833C168.24 266.41 196.052 282.189 203.094 309.279C207.365 325.74 203.704 340.686 193.001 353.94C192.671 354.37 192.315 354.773 191.73 355.43C192.417 355.43 192.849 355.43 193.281 355.43C195.442 355.455 197.603 355.354 199.738 355.581C202.611 355.91 204.747 358.308 204.772 361.186C204.823 372.522 204.823 383.858 204.772 395.193C204.747 398.299 202.789 400.015 199.992 400.975C187.891 400.975 175.816 400.975 163.714 400.975C160.13 399.738 158.833 397.188 158.909 393.502C159.037 386.71 158.96 379.894 158.96 373.103C158.96 372.623 158.96 372.118 158.96 371.562C153.088 372.093 147.495 371.537 141.775 370.149C141.775 370.805 141.775 371.285 141.775 371.79C141.775 379.818 141.724 387.821 141.8 395.85C141.825 398.248 141.114 400.015 138.851 401C123.699 401 108.573 401 93.4206 401C92.6325 400.445 91.9207 399.813 92.2004 398.728C92.7088 396.733 94.5138 397.364 95.8358 397.137C95.8358 395.597 95.8358 394.158 95.8358 392.669C93.624 392.669 91.5139 392.669 89.4293 392.669C87.2938 392.669 85.1583 392.669 82.9211 392.669C82.9211 393.552 82.9211 394.259 82.9211 394.966C82.9211 395.698 82.9211 396.43 82.9211 397.213C83.9888 397.213 84.8278 397.238 85.6667 397.213C86.7345 397.188 87.7005 397.314 88.1582 398.475C88.6158 399.662 87.8785 400.344 87.065 401C85.3617 401 83.6838 401 81.9804 401C79.7432 399.99 79.006 398.248 79.0568 395.85C79.1585 389.437 79.0823 382.999 79.0823 376.587C79.0823 373.936 79.1077 371.31 79.0568 368.659C79.0568 368.306 78.7518 367.649 78.523 367.624C76.6671 367.422 75.6502 366.235 74.8621 364.721C74.8367 362.6 74.8367 360.504 74.8367 358.384ZM200.933 378.303C200.933 372.926 200.933 367.548 200.933 362.196C200.933 359.899 200.247 359.217 197.882 359.217C187.154 359.217 176.4 359.217 165.672 359.217C163.409 359.217 162.672 359.924 162.672 362.145C162.672 372.901 162.672 383.63 162.672 394.385C162.672 396.481 163.409 397.213 165.494 397.213C176.349 397.213 187.23 397.213 198.086 397.213C200.196 397.213 200.933 396.506 200.933 394.436C200.933 389.058 200.933 383.681 200.933 378.303ZM82.9211 388.781C87.2938 388.781 91.5394 388.781 95.8866 388.781C95.8866 385.423 95.8866 382.166 95.8866 378.884C95.8866 376.915 96.4714 376.309 98.4289 376.309C99.9543 376.309 101.48 376.309 103.005 376.309C109.335 376.309 115.691 376.309 122.021 376.309C124.385 376.309 124.868 376.789 124.868 379.212C124.868 381.636 124.868 384.085 124.868 386.508C124.868 387.241 124.868 387.998 124.868 388.781C129.267 388.781 133.512 388.781 137.834 388.781C137.834 381.712 137.834 374.718 137.834 367.674C119.504 367.674 101.251 367.674 82.9211 367.674C82.9211 374.744 82.9211 381.712 82.9211 388.781ZM129.394 325.942C116.606 325.942 103.996 325.942 91.336 325.942C91.336 333.011 91.336 340.004 91.336 346.998C104.073 346.998 116.733 346.998 129.394 346.998C129.394 339.928 129.394 332.96 129.394 325.942ZM142.029 359.318C120.852 359.318 99.7763 359.318 78.7263 359.318C78.7263 360.833 78.7263 362.246 78.7263 363.711C99.8526 363.711 120.903 363.711 142.029 363.711C142.029 362.221 142.029 360.807 142.029 359.318ZM162.316 355.682C164.07 355.581 165.672 355.253 167.223 355.48C171.189 356.011 174.366 354.496 177.29 352.097C178.002 351.517 178.765 350.986 179.451 350.355C180.468 349.446 181.434 348.487 182.502 347.477C179.095 344.65 175.816 341.948 172.485 339.196C169.129 342.529 165.189 344.751 160.638 346.013C161.223 349.371 161.782 352.602 162.316 355.682ZM108.395 397.137C108.395 391.406 108.395 385.802 108.395 380.172C105.471 380.172 102.624 380.172 99.7509 380.172C99.7509 385.877 99.7509 391.482 99.7509 397.137C102.649 397.137 105.471 397.137 108.395 397.137ZM120.979 397.137C120.979 391.432 120.979 385.852 120.979 380.197C118.055 380.197 115.233 380.197 112.335 380.197C112.335 385.877 112.335 391.482 112.335 397.137C115.233 397.137 118.055 397.137 120.979 397.137ZM124.945 392.694C124.945 394.259 124.945 395.698 124.945 397.112C129.292 397.112 133.512 397.112 137.758 397.112C137.758 395.597 137.758 394.158 137.758 392.694C133.461 392.694 129.267 392.694 124.945 392.694ZM99.7255 355.329C101.302 355.329 102.751 355.329 104.2 355.329C104.2 353.814 104.2 352.4 104.2 350.961C102.674 350.961 101.225 350.961 99.7255 350.961C99.7255 352.426 99.7255 353.839 99.7255 355.329ZM112.589 350.961C111.039 350.961 109.589 350.961 108.166 350.961C108.166 352.501 108.166 353.94 108.166 355.354C109.691 355.354 111.115 355.354 112.589 355.354C112.589 353.89 112.589 352.476 112.589 350.961ZM116.555 350.936C116.555 352.476 116.555 353.915 116.555 355.329C118.106 355.329 119.555 355.329 120.979 355.329C120.979 353.814 120.979 352.4 120.979 350.936C119.504 350.936 118.081 350.936 116.555 350.936Z" fill="url(#paint1_linear_16_1187)"/>
<path d="M154.46 338.338C145.283 338.313 137.859 330.915 137.885 321.827C137.91 312.713 145.359 305.341 154.537 305.366C163.714 305.391 171.138 312.788 171.087 321.877C171.061 331.016 163.638 338.363 154.46 338.338ZM167.299 321.852C167.299 314.808 161.553 309.128 154.486 309.153C147.444 309.178 141.775 314.783 141.724 321.801C141.673 328.82 147.393 334.526 154.486 334.551C161.553 334.576 167.299 328.896 167.299 321.852Z" fill="url(#paint2_linear_16_1187)"/>
<path d="M145.944 281.281C147.952 281.306 149.579 282.568 149.91 284.462C150.673 288.678 151.41 292.869 152.096 297.11C152.401 298.953 151.308 300.796 149.452 301.326C145.461 302.462 142.029 304.457 139.054 307.31C137.656 308.648 135.622 308.648 134.046 307.386C130.69 304.684 127.385 301.958 124.131 299.155C122.402 297.691 122.275 295.292 123.826 293.626C129.699 287.315 136.893 283.25 145.308 281.306C145.563 281.281 145.817 281.281 145.944 281.281ZM136.537 304.558C139.919 301.2 143.834 298.978 148.384 297.741C147.647 293.449 146.91 289.259 146.173 284.992C138.393 286.86 131.936 290.546 126.546 296.277C129.877 299.054 133.156 301.756 136.537 304.558Z" fill="url(#paint3_linear_16_1187)"/>
<path d="M175.739 380.853C175.739 380.298 175.739 379.843 175.739 379.414C175.739 376.258 175.714 373.128 175.739 369.972C175.765 367.422 177.01 366.008 179.578 365.68C183.544 365.15 187.535 364.62 191.527 364.216C194.552 363.887 196.332 365.554 196.357 368.609C196.357 374.567 196.382 380.525 196.357 386.483C196.332 389.715 194.12 392.189 190.942 392.618C188.069 393.022 185.222 391.078 184.383 388.2C183.137 383.883 186.9 379.843 191.425 380.626C191.756 380.676 192.086 380.752 192.569 380.853C192.569 380.323 192.569 379.869 192.569 379.439C192.569 378.076 192.569 376.688 192.569 375.173C188.196 375.703 183.976 376.233 179.553 376.763C179.553 377.268 179.553 377.697 179.553 378.152C179.553 380.954 179.604 383.782 179.527 386.584C179.426 389.841 177.265 392.164 174.138 392.593C171.367 392.972 168.57 391.179 167.655 388.427C166.206 384.06 169.994 379.793 174.621 380.601C174.926 380.676 175.231 380.752 175.739 380.853ZM179.604 372.926C184.002 372.37 188.247 371.84 192.442 371.335C192.442 370.098 192.442 369.038 192.442 367.851C188.069 368.407 183.849 368.937 179.604 369.442C179.604 370.679 179.604 371.714 179.604 372.926ZM190.205 388.856C191.45 388.882 192.544 387.771 192.544 386.534C192.518 385.322 191.501 384.337 190.281 384.312C189.01 384.287 188.018 385.221 187.993 386.458C187.917 387.746 188.934 388.831 190.205 388.856ZM173.451 384.312C172.129 384.287 171.138 385.297 171.163 386.584C171.189 387.796 172.206 388.831 173.4 388.831C174.646 388.856 175.739 387.771 175.714 386.508C175.688 385.297 174.697 384.337 173.451 384.312Z" fill="url(#paint4_linear_16_1187)"/>
<path d="M101.937 330.41C105.318 330.41 108.064 333.112 108.064 336.47C108.064 339.752 105.344 342.478 102.039 342.529C98.6323 342.554 95.8866 339.878 95.8612 336.545C95.8612 333.137 98.556 330.436 101.937 330.41ZM101.963 334.197C100.717 334.197 99.7255 335.157 99.6746 336.394C99.6492 337.682 100.641 338.742 101.937 338.742C103.158 338.742 104.2 337.757 104.251 336.545C104.302 335.283 103.259 334.223 101.963 334.197Z" fill="url(#paint5_linear_16_1187)"/>
<path d="M160.587 321.902C160.562 325.26 157.816 327.936 154.41 327.911C151.054 327.886 148.359 325.134 148.384 321.751C148.435 318.469 151.156 315.793 154.486 315.818C157.893 315.818 160.613 318.545 160.587 321.902ZM154.511 324.124C155.732 324.124 156.774 323.139 156.799 321.928C156.825 320.665 155.782 319.605 154.511 319.605C153.24 319.605 152.198 320.665 152.223 321.928C152.249 323.139 153.266 324.124 154.511 324.124Z" fill="url(#paint6_linear_16_1187)"/>
<line x1="128.837" y1="244" x2="167.837" y2="244" stroke="#FF8E30" stroke-width="6"/>
<path d="M85.6355 204.293C85.6355 203.424 85.8015 202.608 86.1335 201.847C86.4656 201.085 86.9148 200.421 87.4812 199.854C88.0574 199.278 88.7263 198.824 89.488 198.492C90.2498 198.16 91.0652 197.994 91.9343 197.994H101.573V202.198H91.9343C91.6414 202.198 91.3679 202.252 91.114 202.359C90.8601 202.467 90.6355 202.618 90.4402 202.813C90.2546 202.999 90.1082 203.219 90.0007 203.473C89.8933 203.727 89.8396 204 89.8396 204.293C89.8396 204.586 89.8933 204.864 90.0007 205.128C90.1082 205.382 90.2546 205.606 90.4402 205.802C90.6355 205.987 90.8601 206.134 91.114 206.241C91.3679 206.349 91.6414 206.402 91.9343 206.402H96.1384C97.0076 206.402 97.823 206.568 98.5847 206.9C99.3562 207.223 100.025 207.672 100.592 208.248C101.168 208.814 101.617 209.483 101.939 210.255C102.271 211.017 102.437 211.832 102.437 212.701C102.437 213.57 102.271 214.386 101.939 215.147C101.617 215.909 101.168 216.578 100.592 217.154C100.025 217.721 99.3562 218.17 98.5847 218.502C97.823 218.834 97.0076 219 96.1384 219H86.8074V214.796H96.1384C96.4314 214.796 96.7048 214.742 96.9587 214.635C97.2126 214.527 97.4324 214.381 97.6179 214.195C97.8132 214 97.9646 213.775 98.072 213.521C98.1794 213.268 98.2332 212.994 98.2332 212.701C98.2332 212.408 98.1794 212.135 98.072 211.881C97.9646 211.627 97.8132 211.407 97.6179 211.222C97.4324 211.026 97.2126 210.875 96.9587 210.768C96.7048 210.66 96.4314 210.606 96.1384 210.606H91.9343C91.0652 210.606 90.2498 210.44 89.488 210.108C88.7263 209.776 88.0574 209.327 87.4812 208.761C86.9148 208.185 86.4656 207.516 86.1335 206.754C85.8015 205.982 85.6355 205.162 85.6355 204.293ZM109.41 219H105.206V197.994H109.41V208.497L117.232 197.994H122.008L115.372 206.856L122.008 219H117.232L112.618 210.504L109.41 214.796V219ZM128.16 219H123.956V197.994H128.16V219ZM146.778 219H132.071V197.994H136.275V214.796H146.778V219ZM163.682 219H148.975V197.994H153.179V214.796H163.682V219ZM186.373 208.497C186.373 206.163 185.982 204.43 185.201 203.297C184.429 202.164 183.35 201.598 181.964 201.598C180.587 201.598 179.517 202.159 178.756 203.282C177.994 204.405 177.613 206.144 177.613 208.497C177.613 210.831 177.994 212.564 178.756 213.697C179.517 214.83 180.587 215.396 181.964 215.396C182.657 215.396 183.277 215.26 183.824 214.986C184.371 214.703 184.83 214.278 185.201 213.712C185.582 213.146 185.87 212.433 186.065 211.573C186.27 210.704 186.373 209.679 186.373 208.497ZM190.372 208.497C190.372 210.489 190.152 212.174 189.713 213.551C189.273 214.928 188.673 216.041 187.911 216.891C187.149 217.74 186.256 218.355 185.23 218.736C184.215 219.107 183.126 219.293 181.964 219.293C180.802 219.293 179.708 219.103 178.682 218.722C177.667 218.331 176.778 217.711 176.016 216.861C175.264 216.002 174.669 214.889 174.229 213.521C173.79 212.145 173.57 210.47 173.57 208.497C173.57 206.505 173.79 204.825 174.229 203.458C174.669 202.081 175.264 200.968 176.016 200.118C176.778 199.269 177.667 198.653 178.682 198.272C179.708 197.892 180.802 197.701 181.964 197.701C183.126 197.701 184.215 197.896 185.23 198.287C186.256 198.668 187.149 199.288 187.911 200.147C188.673 201.007 189.273 202.12 189.713 203.487C190.152 204.854 190.372 206.524 190.372 208.497ZM207.613 204.293C207.613 205.162 207.447 205.982 207.115 206.754C206.783 207.516 206.329 208.185 205.753 208.761C205.186 209.327 204.522 209.776 203.76 210.108C202.999 210.44 202.183 210.606 201.314 210.606H199.205C198.912 210.606 198.638 210.66 198.385 210.768C198.131 210.875 197.906 211.026 197.711 211.222C197.525 211.407 197.379 211.627 197.271 211.881C197.164 212.135 197.11 212.408 197.11 212.701V214.796H207.042V219H192.906V212.701C192.906 211.832 193.072 211.017 193.404 210.255C193.736 209.483 194.185 208.814 194.752 208.248C195.328 207.672 195.997 207.223 196.759 206.9C197.52 206.568 198.336 206.402 199.205 206.402H201.314C201.607 206.402 201.881 206.349 202.135 206.241C202.388 206.134 202.608 205.987 202.794 205.802C202.989 205.606 203.14 205.382 203.248 205.128C203.355 204.864 203.409 204.586 203.409 204.293C203.409 204 203.355 203.727 203.248 203.473C203.14 203.219 202.989 202.999 202.794 202.813C202.608 202.618 202.388 202.467 202.135 202.359C201.881 202.252 201.607 202.198 201.314 202.198H193.814V197.994H201.314C202.183 197.994 202.999 198.16 203.76 198.492C204.522 198.824 205.186 199.278 205.753 199.854C206.329 200.421 206.783 201.085 207.115 201.847C207.447 202.608 207.613 203.424 207.613 204.293Z" fill="#FF8E30"/>
<defs>
<linearGradient id="paint0_linear_16_1187" x1="148.337" y1="0" x2="148.337" y2="157" gradientUnits="userSpaceOnUse">
<stop stop-color="white"/>
<stop offset="0.505208" stop-color="#FF8E30"/>
<stop offset="1" stop-color="white"/>
</linearGradient>
<linearGradient id="paint1_linear_16_1187" x1="139.837" y1="272" x2="139.837" y2="401" gradientUnits="userSpaceOnUse">
<stop stop-color="white"/>
<stop offset="0.505208" stop-color="#FF8E30"/>
<stop offset="1" stop-color="white"/>
</linearGradient>
<linearGradient id="paint2_linear_16_1187" x1="139.837" y1="272" x2="139.837" y2="401" gradientUnits="userSpaceOnUse">
<stop stop-color="white"/>
<stop offset="0.505208" stop-color="#FF8E30"/>
<stop offset="1" stop-color="white"/>
</linearGradient>
<linearGradient id="paint3_linear_16_1187" x1="139.837" y1="272" x2="139.837" y2="401" gradientUnits="userSpaceOnUse">
<stop stop-color="white"/>
<stop offset="0.505208" stop-color="#FF8E30"/>
<stop offset="1" stop-color="white"/>
</linearGradient>
<linearGradient id="paint4_linear_16_1187" x1="139.837" y1="272" x2="139.837" y2="401" gradientUnits="userSpaceOnUse">
<stop stop-color="white"/>
<stop offset="0.505208" stop-color="#FF8E30"/>
<stop offset="1" stop-color="white"/>
</linearGradient>
<linearGradient id="paint5_linear_16_1187" x1="139.837" y1="272" x2="139.837" y2="401" gradientUnits="userSpaceOnUse">
<stop stop-color="white"/>
<stop offset="0.505208" stop-color="#FF8E30"/>
<stop offset="1" stop-color="white"/>
</linearGradient>
<linearGradient id="paint6_linear_16_1187" x1="139.837" y1="272" x2="139.837" y2="401" gradientUnits="userSpaceOnUse">
<stop stop-color="white"/>
<stop offset="0.505208" stop-color="#FF8E30"/>
<stop offset="1" stop-color="white"/>
</linearGradient>
</defs>
</svg>
