<svg width="296" height="441" viewBox="0 0 296 441" fill="none" xmlns="http://www.w3.org/2000/svg">
<rect x="1.17334" y="79.5" width="293.837" height="361" rx="11.5" fill="#FF8E30" fill-opacity="0.3" stroke="#FF8E30"/>
<path d="M148.173 0L173.407 17.5794L203.681 22.9921L209.094 53.2659L226.673 78.5L209.094 103.734L203.681 134.008L173.407 139.421L148.173 157L122.939 139.421L92.6655 134.008L87.2527 103.734L69.6733 78.5L87.2527 53.2659L92.6655 22.9921L122.939 17.5794L148.173 0Z" fill="url(#paint0_linear_16_1198)"/>
<path d="M171.514 21.8699L171.604 21.9326L171.712 21.9519L199.715 26.9585L204.721 54.9611L204.741 55.069L204.803 55.1589L221.064 78.5L204.803 101.841L204.741 101.931L204.721 102.039L199.715 130.041L171.712 135.048L171.604 135.067L171.514 135.13L148.173 151.391L124.832 135.13L124.742 135.067L124.634 135.048L96.6319 130.041L91.6252 102.039L91.6059 101.931L91.5433 101.841L75.2827 78.5L91.5433 55.1589L91.6059 55.069L91.6252 54.9611L96.6319 26.9585L124.634 21.9519L124.742 21.9326L124.832 21.8699L148.173 5.60937L171.514 21.8699Z" stroke="white"/>
<path d="M110.149 103.72V105.268H127.456V103.72H110.149ZM110.208 95.0371V96.5267H127.378V95.0371H110.208ZM111.012 98.5063V99.9567H126.653V98.5063H111.012ZM111.992 101.152V102.524H125.712V101.152H111.992ZM117.813 99.1923V109.874H119.655V99.1923H117.813ZM116.088 91.6463V95.7819H117.813V91.6463H116.088ZM119.753 91.6463V95.6839H121.517V91.6463H119.753ZM124.301 91.8619C123.987 92.7439 123.399 93.9983 122.889 94.8019L124.399 95.2919C124.928 94.5275 125.614 93.4299 126.221 92.3519L124.301 91.8619ZM121.811 96.4287C121.557 96.9579 121.047 97.7615 120.675 98.3103L122.223 98.7807C122.674 98.3103 123.223 97.6439 123.752 96.9383L121.811 96.4287ZM111.737 92.3715C112.345 93.2731 112.991 94.5079 113.246 95.2919L114.912 94.6647C114.657 93.8807 113.971 92.6851 113.325 91.8227L111.737 92.3715ZM114.109 96.8011C114.501 97.4087 114.912 98.2319 115.069 98.7415L116.872 98.2907C116.676 97.7615 116.245 96.9775 115.853 96.4091L114.109 96.8011ZM115.716 106.111C114.481 106.915 112.07 107.64 110.051 107.953C110.424 108.287 110.933 108.894 111.169 109.306C113.207 108.855 115.696 107.836 117.068 106.738L115.716 106.111ZM120.733 106.934C122.517 107.62 124.947 108.659 126.163 109.286L127.417 108.208C126.104 107.581 123.673 106.621 121.929 105.993L120.733 106.934ZM133.375 97.0755H143.352V98.8983H133.375V97.0755ZM133.375 93.8415H143.352V95.6447H133.375V93.8415ZM131.533 92.3127V100.407H145.273V92.3127H131.533ZM140.765 99.4079L139.197 99.9959C140.745 102.289 143.43 104.151 146.272 105.072C146.547 104.582 147.095 103.857 147.507 103.485C144.763 102.779 142.097 101.25 140.765 99.4079ZM136.041 99.4079C134.669 101.231 131.984 102.857 129.338 103.622C129.749 103.994 130.298 104.68 130.573 105.151C133.317 104.171 136.08 102.269 137.668 100.055L136.041 99.4079ZM134.512 102.916V104.131C134.512 105.503 134.14 107.307 130.769 108.483C131.18 108.855 131.788 109.521 132.043 109.992C135.904 108.502 136.413 106.072 136.413 104.19V102.916H134.512ZM137.413 93.1163V99.6823H139.275V93.1163H137.413ZM140.627 102.936V109.815H142.548V102.936H140.627ZM148.644 101.877L149.095 103.681C150.761 103.151 152.917 102.485 154.935 101.838L154.681 100.153C152.466 100.839 150.173 101.485 148.644 101.877ZM148.938 95.5271V97.2323H154.955V95.5271H148.938ZM151.251 91.6855V107.738C151.251 107.993 151.172 108.071 150.937 108.071C150.702 108.091 149.977 108.091 149.212 108.051C149.447 108.561 149.643 109.325 149.702 109.776C150.937 109.796 151.741 109.717 152.25 109.443C152.779 109.149 152.975 108.659 152.975 107.738V91.6855H151.251ZM155.817 93.5867V95.1743H166.441V93.5867H155.817ZM155.347 98.1535V99.7411H166.833V98.1535H155.347ZM157.248 95.7819C157.758 96.5267 158.307 97.5655 158.522 98.1927L160.129 97.5459C159.914 96.9187 159.345 95.9387 158.797 95.2135L157.248 95.7819ZM163.285 95.2527C162.971 96.1543 162.344 97.4479 161.854 98.2515L163.344 98.7415C163.853 97.9771 164.461 96.8207 165.029 95.7623L163.285 95.2527ZM155.112 101.721V103.308H167.087V101.721H155.112ZM163.814 100.564C162.991 105.425 160.737 107.503 154.955 108.267C155.269 108.659 155.621 109.325 155.759 109.835C162.07 108.757 164.657 106.385 165.598 100.858L163.814 100.564ZM159.639 91.9207C160.071 92.7243 160.541 93.8219 160.717 94.5275L162.834 94.0767C162.619 93.3711 162.148 92.3519 161.678 91.5679L159.639 91.9207ZM156.111 105.523L157.973 105.739C158.993 104.367 160.404 102.113 161.247 100.172L159.502 99.8195C158.718 101.721 157.287 104.033 156.111 105.523ZM156.111 105.523C159.326 106.601 163.481 108.463 165.48 109.815L166.754 108.463C164.52 107.091 160.345 105.347 157.268 104.347L156.111 105.523ZM177.397 95.8799V97.5263H183.924V95.8799H177.397ZM179.279 91.7051V98.2319C179.279 101.936 178.965 105.837 175.809 108.835C176.26 109.071 176.927 109.619 177.24 109.972C180.631 106.699 180.984 102.328 180.984 98.2319V91.7051H179.279ZM168.753 93.6847V95.2919H177.221V93.6847H168.753ZM168.479 104.935V106.581H177.417V104.935H168.479ZM172.144 91.6855V97.2323H173.889V91.6855H172.144ZM172.321 97.2323V102.818H172.144V109.855H173.869V102.818H173.712V97.2323H172.321ZM170.655 100.701H175.437V102.23H170.655V100.701ZM170.655 97.9379H175.437V99.4471H170.655V97.9379ZM169.204 96.6051V103.563H176.946V96.6051H169.204ZM182.709 95.8799V107.444C182.709 108.6 182.787 108.973 183.081 109.286C183.395 109.619 183.826 109.737 184.277 109.737C184.512 109.737 184.943 109.737 185.217 109.737C185.59 109.737 185.982 109.639 186.256 109.423C186.531 109.208 186.707 108.894 186.825 108.365C186.903 107.895 186.981 106.621 187.001 105.562C186.57 105.405 186.021 105.111 185.688 104.837C185.707 105.935 185.668 106.856 185.649 107.248C185.609 107.503 185.531 107.699 185.472 107.816C185.413 107.895 185.276 107.934 185.159 107.934C185.021 107.934 184.884 107.934 184.786 107.934C184.669 107.934 184.571 107.875 184.492 107.797C184.453 107.738 184.414 107.601 184.414 107.463V95.8799H182.709Z" fill="white"/>
<path d="M121.923 81H115.197V54.1172H111.845V47.3906H121.923V81ZM151.736 70.4297C151.736 72.0703 151.447 73.5469 150.869 74.8594C150.291 76.1719 149.517 77.2812 148.548 78.1875C147.58 79.0938 146.455 79.7891 145.173 80.2734C143.908 80.7578 142.58 81 141.189 81H127.642V74.2734H141.189C141.642 74.2734 142.095 74.2031 142.548 74.0625C143.017 73.9219 143.431 73.6953 143.791 73.3828C144.166 73.0703 144.462 72.6719 144.681 72.1875C144.916 71.7031 145.033 71.1172 145.033 70.4297C145.033 69.8047 144.916 69.2578 144.681 68.7891C144.462 68.3047 144.166 67.9062 143.791 67.5938C143.431 67.2656 143.017 67.0234 142.548 66.8672C142.095 66.6953 141.642 66.6094 141.189 66.6094H127.642L129.611 47.3906H150.353V54.1172H135.658L135.048 59.8828H141.189C142.58 59.8828 143.908 60.125 145.173 60.6094C146.455 61.0938 147.58 61.7969 148.548 62.7188C149.517 63.625 150.291 64.7344 150.869 66.0469C151.447 67.3438 151.736 68.8047 151.736 70.4297ZM164.228 55.3125C164.228 53.9219 164.025 52.8984 163.619 52.2422C163.228 51.5703 162.658 51.2344 161.908 51.2344C161.189 51.2344 160.634 51.5703 160.244 52.2422C159.853 52.8984 159.658 53.9219 159.658 55.3125C159.658 56.6875 159.853 57.7109 160.244 58.3828C160.634 59.0547 161.189 59.3906 161.908 59.3906C162.658 59.3906 163.228 59.0547 163.619 58.3828C164.025 57.7109 164.228 56.6875 164.228 55.3125ZM168.681 55.3125C168.681 56.875 168.501 58.2031 168.142 59.2969C167.798 60.375 167.322 61.25 166.712 61.9219C166.103 62.5938 165.384 63.0781 164.556 63.375C163.744 63.6719 162.861 63.8203 161.908 63.8203C160.97 63.8203 160.087 63.6641 159.259 63.3516C158.447 63.0391 157.736 62.5469 157.126 61.875C156.517 61.1875 156.033 60.3047 155.673 59.2266C155.33 58.1484 155.158 56.8438 155.158 55.3125C155.158 53.75 155.33 52.4297 155.673 51.3516C156.033 50.2734 156.517 49.3984 157.126 48.7266C157.736 48.0547 158.447 47.5703 159.259 47.2734C160.087 46.9766 160.97 46.8281 161.908 46.8281C162.861 46.8281 163.744 46.9844 164.556 47.2969C165.384 47.5938 166.103 48.0781 166.712 48.75C167.322 49.4219 167.798 50.2969 168.142 51.375C168.501 52.4531 168.681 53.7656 168.681 55.3125ZM163.267 81H158.181L176.65 47.3906H181.736L163.267 81ZM180.119 72.9844C180.119 71.5781 179.916 70.5469 179.509 69.8906C179.119 69.2344 178.548 68.9062 177.798 68.9062C177.08 68.9062 176.525 69.2344 176.134 69.8906C175.744 70.5469 175.548 71.5781 175.548 72.9844C175.548 74.3438 175.744 75.3594 176.134 76.0312C176.525 76.6875 177.08 77.0156 177.798 77.0156C178.548 77.0156 179.119 76.6875 179.509 76.0312C179.916 75.3594 180.119 74.3438 180.119 72.9844ZM184.572 72.9844C184.572 74.5469 184.392 75.8672 184.033 76.9453C183.689 78.0234 183.212 78.8984 182.603 79.5703C181.994 80.2422 181.275 80.7266 180.447 81.0234C179.634 81.3203 178.751 81.4688 177.798 81.4688C176.861 81.4688 175.978 81.3125 175.15 81C174.337 80.7031 173.626 80.2188 173.017 79.5469C172.408 78.8594 171.923 77.9766 171.564 76.8984C171.22 75.8203 171.048 74.5156 171.048 72.9844C171.048 71.4219 171.22 70.1016 171.564 69.0234C171.923 67.9453 172.408 67.0703 173.017 66.3984C173.626 65.7266 174.337 65.2422 175.15 64.9453C175.978 64.6328 176.861 64.4766 177.798 64.4766C178.751 64.4766 179.634 64.6328 180.447 64.9453C181.275 65.2422 181.994 65.7344 182.603 66.4219C183.212 67.0938 183.689 67.9688 184.033 69.0469C184.392 70.125 184.572 71.4375 184.572 72.9844Z" fill="white"/>
<path d="M101.653 307.2V308.22H113.633V307.2H101.653ZM101.693 304.74V305.82H113.013V309.6H101.693V310.7H114.493V304.74H101.693ZM106.813 305.28V311.3C106.813 312.94 107.453 313.34 109.693 313.34C110.193 313.34 113.813 313.34 114.333 313.34C116.233 313.34 116.693 312.7 116.913 310.28C116.493 310.2 115.933 310 115.593 309.76C115.493 311.78 115.313 312.12 114.233 312.12C113.453 312.12 110.373 312.12 109.773 312.12C108.493 312.12 108.253 312 108.253 311.3V305.28H106.813ZM100.913 304.74V311.74H102.353V304.74H100.913ZM100.053 296V297.08H115.233V296H100.053ZM106.853 296.28V303.98H108.333V296.28H106.853ZM99.1733 298.36V302.66H100.613V299.42H114.673V302.66H116.173V298.36H99.1733ZM100.973 302.9L101.433 304.06C102.733 303.8 104.253 303.5 105.793 303.18L105.753 302.22C103.973 302.5 102.253 302.76 100.973 302.9ZM101.493 300.62C102.793 300.88 104.473 301.4 105.373 301.78L105.813 300.88C104.913 300.48 103.213 300.04 101.933 299.82L101.493 300.62ZM113.233 299.72C112.253 300.08 110.573 300.68 109.413 300.94L109.953 301.72C111.113 301.48 112.753 301.06 113.893 300.58L113.233 299.72ZM109.173 303.04C110.733 303.26 112.773 303.74 113.873 304.12L114.213 303.1C113.093 302.72 111.073 302.28 109.533 302.12L109.173 303.04ZM128.493 300.5H134.353V302.5H128.493V300.5ZM128.493 303.68H134.353V305.7H128.493V303.68ZM128.493 297.34H134.353V299.3H128.493V297.34ZM127.113 296.1V306.94H135.793V296.1H127.113ZM132.013 306.52V311.66C132.013 313.12 132.333 313.52 133.693 313.52C133.973 313.52 135.073 313.52 135.353 313.52C136.533 313.52 136.913 312.88 137.033 310.28C136.633 310.18 136.053 309.94 135.753 309.7C135.693 311.92 135.633 312.18 135.193 312.18C134.953 312.18 134.073 312.18 133.893 312.18C133.493 312.18 133.413 312.12 133.413 311.66V306.52H132.013ZM128.933 306.72C128.673 309.64 127.973 311.54 124.713 312.56C125.013 312.82 125.393 313.34 125.533 313.66C129.133 312.44 130.013 310.18 130.313 306.72H128.933ZM118.733 298.64V300.02H124.973V298.64H118.733ZM121.653 304.54V313.6H123.113V302.8L121.653 304.54ZM123.053 303.18L122.173 303.94C122.893 304.68 124.593 306.62 125.213 307.48L126.173 306.24C125.673 305.72 123.653 303.66 123.053 303.18ZM124.513 298.64V298.96C123.373 301.84 120.733 304.74 118.193 306.26C118.413 306.52 118.753 307.3 118.873 307.7C121.573 305.92 124.473 302.68 125.893 299.16L125.093 298.58L124.813 298.64H124.513ZM120.873 295.98C121.573 296.78 122.353 297.88 122.693 298.6L123.873 297.8C123.513 297.08 122.733 296.04 121.973 295.28L120.873 295.98ZM142.013 311.04V312.5H153.253V311.04H142.013ZM141.253 305.18V313.6H142.773V306.6H152.493V313.54H154.073V305.18H141.253ZM149.653 298.26C151.613 300.04 153.893 302.56 154.873 304.26L156.173 303.32C155.133 301.66 152.773 299.18 150.813 297.48L149.653 298.26ZM140.173 303.48C140.173 303.18 141.173 302.72 141.173 302.72V302.68C143.293 300.92 145.533 298.44 147.453 295.78L145.953 295.14C144.393 297.62 142.053 300.16 141.313 300.82C140.653 301.48 140.133 301.92 139.673 302C139.853 302.4 140.113 303.16 140.173 303.48ZM140.173 303.48C140.973 303.2 142.173 303.16 154.233 302.48C154.153 302.16 154.093 301.56 154.073 301.14L141.273 301.74L140.153 302.3L140.173 303.48ZM169.073 296.2C170.573 297.18 172.333 298.62 173.173 299.58L174.353 298.9C173.433 297.92 171.633 296.54 170.173 295.62L169.073 296.2ZM163.273 300.88C163.853 301.62 164.453 302.64 164.693 303.3L165.813 302.86C165.553 302.22 164.933 301.24 164.373 300.52L163.273 300.88ZM173.113 300.6C173.993 301.52 174.933 302.8 175.333 303.64L176.453 303.1C176.053 302.24 175.073 301 174.173 300.12L173.113 300.6ZM168.213 304.2C166.753 305.32 164.073 306.38 161.933 306.96C162.233 307.22 162.573 307.62 162.793 307.9C164.993 307.24 167.673 306.06 169.333 304.76L168.213 304.2ZM170.393 306.14C168.553 307.64 165.113 308.84 162.053 309.46C162.353 309.76 162.673 310.24 162.853 310.56C166.033 309.8 169.493 308.46 171.553 306.72L170.393 306.14ZM172.753 308.16C170.533 310.46 166.033 311.8 161.153 312.38C161.433 312.72 161.733 313.26 161.873 313.62C166.933 312.9 171.533 311.4 174.013 308.76L172.753 308.16ZM167.273 300.16C165.633 303.1 162.273 305.1 158.473 306.18C158.753 306.48 159.193 307.08 159.353 307.38C163.233 306.06 166.753 303.88 168.653 300.58L167.273 300.16ZM168.193 300.98L166.933 301.52C169.013 304.04 172.733 306.18 176.173 307.22C176.393 306.86 176.813 306.32 177.133 306.04C173.713 305.16 170.053 303.2 168.193 300.98ZM161.473 299.2C161.473 298.9 162.433 298.54 162.433 298.54V298.52C163.953 297.88 165.593 296.9 167.073 295.78L165.733 295.1C164.513 296.18 162.813 297.18 162.293 297.42C161.813 297.68 161.393 297.84 161.033 297.88C161.193 298.26 161.413 298.92 161.473 299.2ZM161.473 299.2C162.133 298.98 163.133 298.98 172.973 298.54C172.793 298.26 172.513 297.8 172.353 297.44L162.393 297.8L161.473 298.26V299.2ZM159.853 303.22C159.853 302.94 160.713 302.54 160.713 302.54V302.5C161.593 301.86 162.573 300.82 163.333 299.8L161.993 299.22C161.413 300.24 160.453 301.22 160.173 301.48C159.893 301.74 159.613 301.9 159.373 301.96C159.533 302.3 159.753 302.94 159.853 303.22ZM159.853 303.22C160.213 303.08 160.813 303.02 164.933 302.78C164.773 302.5 164.493 302.04 164.333 301.7L160.533 301.86L159.833 302.26L159.853 303.22ZM169.673 303.12C169.673 302.86 170.533 302.44 170.533 302.44V302.4C171.213 301.82 171.993 300.84 172.573 299.9L171.213 299.34C170.813 300.28 170.093 301.2 169.873 301.44C169.653 301.68 169.413 301.82 169.213 301.88C169.353 302.22 169.573 302.86 169.673 303.12ZM169.673 303.12C170.033 303 170.653 302.92 175.053 302.62C174.893 302.34 174.613 301.88 174.453 301.54L170.353 301.76L169.653 302.16L169.673 303.12ZM186.293 298.68V300.1H196.673V298.68H186.293ZM189.593 303.16V304.56H194.753V303.16H189.593ZM194.353 303.16V303.44C194.153 309.2 193.873 311.34 193.433 311.84C193.253 312.06 193.073 312.1 192.713 312.08C192.353 312.08 191.373 312.08 190.353 311.98C190.593 312.38 190.753 312.98 190.793 313.42C191.773 313.48 192.773 313.5 193.313 313.44C193.913 313.38 194.293 313.24 194.653 312.78C195.253 312.06 195.493 309.9 195.753 303.84C195.773 303.64 195.773 303.16 195.773 303.16H194.353ZM189.033 299.5C188.913 304.72 188.673 309.92 184.853 312.6C185.193 312.84 185.653 313.3 185.853 313.64C189.913 310.66 190.293 305.16 190.453 299.5H189.033ZM190.173 295.7C190.593 296.72 190.993 298.08 191.133 298.9L192.493 298.48C192.333 297.66 191.893 296.36 191.453 295.36L190.173 295.7ZM179.393 301.26V302.46H184.953V301.26H179.393ZM179.393 303.88V305.08H184.953V303.88H179.393ZM178.613 298.6V299.86H185.753V298.6H178.613ZM179.973 306.56V307.82H183.713V311.14H179.973V312.4H184.953V306.56H179.973ZM179.373 306.56V313.34H180.573V306.56H179.373ZM180.673 295.72C181.173 296.54 181.773 297.68 182.033 298.42L183.173 297.7C182.873 297 182.293 295.94 181.733 295.12L180.673 295.72ZM88.2133 346.84L88.6133 348.3C90.2933 347.74 92.4933 347.04 94.5733 346.34L94.3533 344.96C92.0933 345.7 89.7533 346.4 88.2133 346.84ZM88.4933 340.24V341.64H94.6733V340.24H88.4933ZM91.0533 336.22V352.82C91.0533 353.08 90.9733 353.16 90.7333 353.16C90.4933 353.18 89.7333 353.18 88.8733 353.14C89.0733 353.56 89.2533 354.18 89.2933 354.54C90.5533 354.56 91.3133 354.5 91.7933 354.28C92.2733 354.04 92.4533 353.62 92.4533 352.8V336.22H91.0533ZM95.5533 338.3V339.62H106.273V338.3H95.5533ZM95.0533 342.98V344.3H106.673V342.98H95.0533ZM97.0533 340.32C97.6333 341.1 98.2533 342.2 98.4933 342.88L99.7933 342.3C99.5333 341.64 98.8933 340.6 98.2933 339.82L97.0533 340.32ZM103.353 339.86C102.993 340.82 102.293 342.24 101.733 343.1L102.953 343.5C103.513 342.66 104.193 341.4 104.773 340.26L103.353 339.86ZM94.7933 346.5V347.82H106.913V346.5H94.7933ZM103.833 345.32C103.013 350.18 100.693 352.44 94.7733 353.28C95.0333 353.62 95.3333 354.16 95.4533 354.56C101.793 353.46 104.373 350.96 105.293 345.58L103.833 345.32ZM99.5933 336.4C100.033 337.22 100.533 338.34 100.713 339.08L102.373 338.7C102.173 338 101.673 336.92 101.173 336.12L99.5933 336.4ZM95.9533 350.14L97.4933 350.32C98.5133 348.96 99.9333 346.7 100.773 344.78L99.3533 344.48C98.5733 346.36 97.1333 348.68 95.9533 350.14ZM95.9533 350.14C99.2333 351.28 103.413 353.18 105.453 354.54L106.533 353.46C104.273 352.06 100.113 350.26 96.9533 349.22L95.9533 350.14ZM116.853 346.74V354.6H118.373V346.74H116.853ZM109.273 337.7V340.6H110.673V338.98H124.713V340.6H126.153V337.7H109.273ZM108.933 341.28V342.5H126.453V341.28H108.933ZM108.713 348.4V349.7H126.653V348.4H108.713ZM121.853 339.88C120.433 344.24 116.673 345.72 108.913 346.04C109.133 346.38 109.333 346.88 109.453 347.32C117.573 346.82 121.673 345.18 123.313 340.24L121.853 339.88ZM111.453 344.46C116.853 345.3 121.833 346.44 124.733 347.52L126.213 346.52C123.013 345.46 117.793 344.28 112.693 343.54L111.453 344.46ZM116.293 336.54C116.693 337.16 117.193 338.02 117.433 338.56L118.993 338.1C118.733 337.58 118.213 336.76 117.773 336.16L116.293 336.54ZM111.453 344.46H113.113C114.433 343.32 116.373 341.36 117.573 339.64L116.113 339.18C114.993 340.92 112.993 343.1 111.453 344.46ZM113.733 350.12C112.673 351.28 110.773 352.32 108.973 352.98C109.333 353.22 109.913 353.72 110.193 354C111.953 353.22 113.993 351.96 115.233 350.62L113.733 350.12ZM119.933 350.86C121.773 351.74 124.053 353.12 125.173 354.1L126.273 353C125.093 352.04 122.773 350.72 120.953 349.9L119.933 350.86ZM138.793 343.94V345.18H145.333V343.94H138.793ZM138.073 337.14V354.58H139.453V338.48H145.193V337.14H138.073ZM144.473 337.14V340.98C144.473 341.2 144.393 341.28 144.073 341.3C143.753 341.32 142.713 341.32 141.473 341.28C141.673 341.66 141.873 342.2 141.933 342.6C143.473 342.6 144.473 342.58 145.093 342.36C145.713 342.14 145.873 341.74 145.873 341V337.14H144.473ZM140.733 344.62L139.553 344.94C140.733 349.08 142.953 352.74 146.053 354.48C146.293 354.1 146.753 353.54 147.093 353.26C144.073 351.78 141.813 348.38 140.733 344.62ZM144.873 343.94V344.26C144.233 347.94 142.233 351.68 139.113 353.62C139.453 353.88 139.893 354.3 140.113 354.64C143.453 352.48 145.533 348.54 146.333 344.2L145.413 343.86L145.153 343.94H144.873ZM129.213 338.26V339.56H136.813V338.26H129.213ZM128.593 349.22V350.52H137.333V349.22H128.593ZM128.613 341.56V342.88H137.293V341.56H128.613ZM129.033 345.72V347.02H136.953V345.72H129.033ZM132.353 336.24V342.02H133.753V336.24H132.353ZM132.353 346.24V354.54H133.753V346.24H132.353ZM134.973 342.88C134.633 343.84 133.933 345.22 133.353 346.08L134.473 346.42C135.053 345.6 135.713 344.34 136.293 343.22L134.973 342.88ZM129.953 343.28C130.373 344.06 130.793 345.1 130.913 345.76L132.093 345.36C131.953 344.72 131.513 343.7 131.073 342.94L129.953 343.28ZM153.833 337.22V338.38H166.673V337.22H153.833ZM155.653 340.56H164.673V342.48H155.653V340.56ZM154.313 339.56V343.46H166.073V339.56H154.313ZM157.773 337.6V342.86H159.013V337.6H157.773ZM161.233 337.6V342.86H162.473V337.6H161.233ZM156.133 347.46H164.373V348.6H156.133V347.46ZM156.133 349.54H164.373V350.72H156.133V349.54ZM156.133 345.38H164.373V346.52H156.133V345.38ZM154.733 344.42V351.68H165.833V344.42H154.733ZM161.233 352.68C162.953 353.28 164.733 354.06 165.753 354.66L167.053 353.78C165.893 353.18 163.953 352.4 162.213 351.82L161.233 352.68ZM157.953 351.8C156.893 352.48 154.953 353.22 153.213 353.62C153.493 353.88 153.853 354.34 154.053 354.64C155.833 354.2 157.813 353.44 159.033 352.56L157.953 351.8ZM152.313 336.32C151.353 339.4 149.773 342.48 148.013 344.48C148.273 344.86 148.673 345.66 148.813 346.02C150.793 343.68 152.573 340.16 153.713 336.7L152.313 336.32ZM150.713 341.22V354.6H152.133V339.88L152.093 339.84L150.713 341.22ZM175.213 339.36V340.76H186.233V339.36H175.213ZM175.633 343.76V345.14H184.453V343.76H175.633ZM179.933 336.2V344.54H181.413V336.2H179.933ZM177.573 344.78L176.213 345.18C177.953 349.88 181.193 353.2 185.993 354.62C186.213 354.24 186.633 353.64 186.973 353.34C182.293 352.1 179.073 348.98 177.573 344.78ZM184.333 343.76V344.02C182.873 348.96 178.653 352.06 174.073 353.24C174.353 353.56 174.733 354.2 174.873 354.6C179.773 353.12 184.133 349.86 185.833 344.12L184.893 343.7L184.613 343.76H184.333ZM168.393 346.8L168.833 348.24C170.613 347.72 172.933 347.04 175.113 346.38L174.933 345.02C172.553 345.7 170.073 346.38 168.393 346.8ZM168.653 340.24V341.66H174.933V340.24H168.653ZM171.233 336.22V352.8C171.233 353.08 171.113 353.18 170.853 353.18C170.593 353.2 169.713 353.2 168.773 353.18C168.973 353.58 169.193 354.18 169.233 354.56C170.613 354.56 171.453 354.52 171.973 354.28C172.513 354.06 172.713 353.64 172.713 352.8V336.22H171.233ZM188.513 338.82V340.3H195.753V338.82H188.513ZM195.893 337.42V338.94H206.853V337.42H195.893ZM191.513 339.26V349.58H193.013V339.26H191.513ZM188.313 349.68L188.633 351.22C190.673 350.74 193.493 350.12 196.153 349.5L196.013 348.06C193.193 348.68 190.233 349.32 188.313 349.68ZM199.013 337.94C198.593 340.38 197.833 343.68 197.233 345.68H198.853C199.373 343.74 200.093 340.48 200.593 337.94H199.013ZM204.813 344.24V344.48C204.453 349.8 204.093 352.08 203.413 352.64C203.173 352.86 202.873 352.88 202.413 352.88C201.813 352.88 200.253 352.86 198.653 352.72C198.973 353.16 199.213 353.8 199.253 354.26C200.733 354.34 202.153 354.38 202.893 354.32C203.733 354.26 204.253 354.14 204.733 353.6C205.533 352.8 205.913 350.58 206.313 344.96C206.333 344.74 206.353 344.24 206.353 344.24H204.813ZM198.293 344.24L197.893 345.68H205.373V344.24H198.293ZM88.5933 389.9V391.14H106.753V389.9H88.5933ZM89.1733 378.76V379.96H105.933V378.76H89.1733ZM100.513 388.6V393.96C100.513 394.22 100.413 394.3 100.093 394.32C99.7533 394.34 98.6333 394.34 97.4333 394.3C97.6333 394.68 97.8333 395.22 97.8933 395.6C99.5133 395.6 100.533 395.6 101.173 395.4C101.793 395.18 101.953 394.78 101.953 394V388.6H100.513ZM96.8933 377.24V387.96H98.3733V377.24H96.8933ZM91.7933 391.98C92.9933 392.72 94.3933 393.82 95.0733 394.62L96.1733 393.62C95.4733 392.84 93.9933 391.78 92.8133 391.1L91.7933 391.98ZM92.1333 384.3H103.253V385.54H92.1333V384.3ZM92.1333 382.1H103.253V383.32H92.1333V382.1ZM90.7133 381.1V386.56H104.713V381.1H90.7133ZM100.633 386.98C102.213 387.52 104.113 388.56 105.093 389.36L105.993 388.5C104.993 387.76 103.093 386.76 101.493 386.22L100.633 386.98ZM89.3933 387.72L89.4533 388.9C93.2333 388.84 98.9133 388.72 104.253 388.58L104.333 387.56C98.8533 387.66 93.0333 387.72 89.3933 387.72ZM116.853 387.74V395.6H118.373V387.74H116.853ZM109.273 378.7V381.6H110.673V379.98H124.713V381.6H126.153V378.7H109.273ZM108.933 382.28V383.5H126.453V382.28H108.933ZM108.713 389.4V390.7H126.653V389.4H108.713ZM121.853 380.88C120.433 385.24 116.673 386.72 108.913 387.04C109.133 387.38 109.333 387.88 109.453 388.32C117.573 387.82 121.673 386.18 123.313 381.24L121.853 380.88ZM111.453 385.46C116.853 386.3 121.833 387.44 124.733 388.52L126.213 387.52C123.013 386.46 117.793 385.28 112.693 384.54L111.453 385.46ZM116.293 377.54C116.693 378.16 117.193 379.02 117.433 379.56L118.993 379.1C118.733 378.58 118.213 377.76 117.773 377.16L116.293 377.54ZM111.453 385.46H113.113C114.433 384.32 116.373 382.36 117.573 380.64L116.113 380.18C114.993 381.92 112.993 384.1 111.453 385.46ZM113.733 391.12C112.673 392.28 110.773 393.32 108.973 393.98C109.333 394.22 109.913 394.72 110.193 395C111.953 394.22 113.993 392.96 115.233 391.62L113.733 391.12ZM119.933 391.86C121.773 392.74 124.053 394.12 125.173 395.1L126.273 394C125.093 393.04 122.773 391.72 120.953 390.9L119.933 391.86ZM133.013 393.78V394.94H143.573V393.78H133.013ZM129.693 382.82V386.14H131.133V384.02H144.453V386.14H145.973V382.82H129.693ZM132.913 385.26V386.4H142.053V388.12H132.913V389.28H143.513V385.26H132.913ZM132.993 390.66V391.84H143.073V395.58H144.573V390.66H132.993ZM131.893 385.26V395.62H133.393V385.26H131.893ZM136.473 381.56C136.813 382.16 137.173 382.96 137.313 383.48L138.713 383.16C138.593 382.64 138.193 381.84 137.813 381.28L136.473 381.56ZM131.193 378.64V379.84H137.553V378.64H131.193ZM139.453 378.66V379.86H146.773V378.66H139.453ZM131.593 377.06C130.913 378.72 129.773 380.36 128.513 381.46C128.833 381.7 129.353 382.2 129.573 382.46C130.833 381.22 132.153 379.34 132.933 377.44L131.593 377.06ZM139.833 377.06C139.313 378.44 138.393 379.74 137.313 380.62C137.673 380.8 138.213 381.28 138.473 381.52C139.553 380.54 140.613 379 141.213 377.4L139.833 377.06ZM132.633 380.46C133.273 381.06 134.093 381.9 134.493 382.44L135.493 381.6C135.073 381.08 134.233 380.26 133.573 379.7L132.633 380.46ZM141.353 380.56C142.113 381.18 143.033 382.04 143.493 382.62L144.513 381.72C144.033 381.16 143.073 380.34 142.333 379.78L141.353 380.56ZM157.173 383.22H164.613V385.8H157.173V383.22ZM157.173 379.44H164.613V381.98H157.173V379.44ZM155.813 378.14V387.1H166.053V378.14H155.813ZM155.553 389.44V390.82H166.333V389.44H155.553ZM154.013 393.58V394.94H166.993V393.58H154.013ZM148.573 378.56V379.98H154.813V378.56H148.573ZM148.793 384.34V385.76H154.533V384.34H148.793ZM148.373 392L148.733 393.54C150.513 392.94 152.793 392.18 154.973 391.44L154.713 390C152.393 390.78 149.993 391.56 148.373 392ZM151.073 379.12V391.8L152.513 391.52V379.12H151.073ZM160.233 378.76V386.46H160.133V394.2H161.653V386.46H161.553V378.76H160.233ZM169.573 378.52C170.913 379.1 172.553 380.06 173.353 380.76L174.233 379.5C173.373 378.84 171.713 377.96 170.413 377.42L169.573 378.52ZM168.493 383.94C169.793 384.52 171.413 385.46 172.193 386.12L173.033 384.88C172.213 384.22 170.573 383.34 169.313 382.82L168.493 383.94ZM169.173 394.32L170.433 395.34C171.613 393.48 173.013 390.98 174.073 388.86L172.993 387.88C171.833 390.16 170.253 392.8 169.173 394.32ZM179.613 377.2V386.62H181.133V377.2H179.613ZM174.453 385.68V387.12H186.413V385.68H174.453ZM175.333 380.66V382.08H185.593V380.66H175.333ZM181.753 389.78C183.133 391.58 184.633 394.04 185.173 395.6L186.493 394.92C185.893 393.34 184.373 390.98 182.953 389.2L181.753 389.78ZM175.373 394.92C175.913 394.66 176.793 394.54 184.453 393.58C184.393 393.26 184.333 392.68 184.353 392.28L176.193 393.2L175.333 393.72L175.373 394.92ZM175.373 394.92C175.373 394.6 176.433 394.08 176.433 394.08V394.04C178.013 392.1 179.693 389.32 180.973 386.56L179.393 386.02C178.373 388.62 176.673 391.4 176.153 392.1C175.653 392.84 175.253 393.32 174.853 393.42C175.053 393.84 175.293 394.58 175.373 394.92ZM199.573 379.62V390.7H201.013V379.62H199.573ZM204.473 377.58V393.62C204.473 394 204.313 394.12 203.933 394.12C203.553 394.14 202.293 394.16 200.873 394.1C201.113 394.54 201.353 395.22 201.433 395.62C203.273 395.64 204.393 395.6 205.053 395.34C205.673 395.1 205.953 394.64 205.953 393.62V377.58H204.473ZM190.993 391.2C190.433 392.52 189.433 393.84 188.353 394.72C188.733 394.94 189.333 395.38 189.613 395.64C190.693 394.66 191.813 393.14 192.473 391.6L190.993 391.2ZM194.473 391.78C195.353 392.86 196.293 394.36 196.693 395.32L198.073 394.64C197.613 393.68 196.673 392.26 195.753 391.22L194.473 391.78ZM191.013 383.04H195.893V385.52H191.013V383.04ZM191.013 386.76H195.893V389.28H191.013V386.76ZM191.013 379.34H195.893V381.8H191.013V379.34ZM189.593 377.98V390.62H197.373V377.98H189.593Z" fill="white"/>
<line x1="128.673" y1="244" x2="167.673" y2="244" stroke="#FF8E30" stroke-width="6"/>
<path d="M85.7378 204.293C85.7378 203.424 85.9038 202.608 86.2358 201.847C86.5679 201.085 87.0171 200.421 87.5835 199.854C88.1597 199.278 88.8286 198.824 89.5903 198.492C90.3521 198.16 91.1675 197.994 92.0366 197.994H101.675V202.198H92.0366C91.7437 202.198 91.4702 202.252 91.2163 202.359C90.9624 202.467 90.7378 202.618 90.5425 202.813C90.3569 202.999 90.2104 203.219 90.103 203.473C89.9956 203.727 89.9419 204 89.9419 204.293C89.9419 204.586 89.9956 204.864 90.103 205.128C90.2104 205.382 90.3569 205.606 90.5425 205.802C90.7378 205.987 90.9624 206.134 91.2163 206.241C91.4702 206.349 91.7437 206.402 92.0366 206.402H96.2407C97.1099 206.402 97.9253 206.568 98.687 206.9C99.4585 207.223 100.127 207.672 100.694 208.248C101.27 208.814 101.719 209.483 102.042 210.255C102.374 211.017 102.54 211.832 102.54 212.701C102.54 213.57 102.374 214.386 102.042 215.147C101.719 215.909 101.27 216.578 100.694 217.154C100.127 217.721 99.4585 218.17 98.687 218.502C97.9253 218.834 97.1099 219 96.2407 219H86.9097V214.796H96.2407C96.5337 214.796 96.8071 214.742 97.061 214.635C97.3149 214.527 97.5347 214.381 97.7202 214.195C97.9155 214 98.0669 213.775 98.1743 213.521C98.2817 213.268 98.3354 212.994 98.3354 212.701C98.3354 212.408 98.2817 212.135 98.1743 211.881C98.0669 211.627 97.9155 211.407 97.7202 211.222C97.5347 211.026 97.3149 210.875 97.061 210.768C96.8071 210.66 96.5337 210.606 96.2407 210.606H92.0366C91.1675 210.606 90.3521 210.44 89.5903 210.108C88.8286 209.776 88.1597 209.327 87.5835 208.761C87.0171 208.185 86.5679 207.516 86.2358 206.754C85.9038 205.982 85.7378 205.162 85.7378 204.293ZM109.512 219H105.308V197.994H109.512V208.497L117.334 197.994H122.11L115.474 206.856L122.11 219H117.334L112.72 210.504L109.512 214.796V219ZM128.262 219H124.058V197.994H128.262V219ZM146.88 219H132.173V197.994H136.377V214.796H146.88V219ZM163.785 219H149.078V197.994H153.282V214.796H163.785V219ZM186.475 208.497C186.475 206.163 186.084 204.43 185.303 203.297C184.532 202.164 183.453 201.598 182.066 201.598C180.689 201.598 179.62 202.159 178.858 203.282C178.096 204.405 177.715 206.144 177.715 208.497C177.715 210.831 178.096 212.564 178.858 213.697C179.62 214.83 180.689 215.396 182.066 215.396C182.759 215.396 183.379 215.26 183.926 214.986C184.473 214.703 184.932 214.278 185.303 213.712C185.684 213.146 185.972 212.433 186.167 211.573C186.373 210.704 186.475 209.679 186.475 208.497ZM190.474 208.497C190.474 210.489 190.254 212.174 189.815 213.551C189.375 214.928 188.775 216.041 188.013 216.891C187.251 217.74 186.358 218.355 185.333 218.736C184.317 219.107 183.228 219.293 182.066 219.293C180.904 219.293 179.81 219.103 178.785 218.722C177.769 218.331 176.88 217.711 176.119 216.861C175.367 216.002 174.771 214.889 174.332 213.521C173.892 212.145 173.672 210.47 173.672 208.497C173.672 206.505 173.892 204.825 174.332 203.458C174.771 202.081 175.367 200.968 176.119 200.118C176.88 199.269 177.769 198.653 178.785 198.272C179.81 197.892 180.904 197.701 182.066 197.701C183.228 197.701 184.317 197.896 185.333 198.287C186.358 198.668 187.251 199.288 188.013 200.147C188.775 201.007 189.375 202.12 189.815 203.487C190.254 204.854 190.474 206.524 190.474 208.497ZM207.891 212.701C207.891 213.57 207.725 214.386 207.393 215.147C207.061 215.909 206.607 216.578 206.031 217.154C205.464 217.721 204.8 218.17 204.039 218.502C203.277 218.834 202.461 219 201.592 219H193.184V214.796H201.592C201.885 214.796 202.159 214.742 202.413 214.635C202.667 214.527 202.886 214.381 203.072 214.195C203.267 214 203.418 213.775 203.526 213.521C203.633 213.268 203.687 212.994 203.687 212.701C203.687 212.408 203.633 212.135 203.526 211.881C203.418 211.627 203.267 211.407 203.072 211.222C202.886 211.026 202.667 210.875 202.413 210.768C202.159 210.66 201.885 210.606 201.592 210.606H195.865V206.402H201.592C201.885 206.402 202.159 206.349 202.413 206.241C202.667 206.134 202.886 205.987 203.072 205.802C203.267 205.606 203.418 205.382 203.526 205.128C203.633 204.864 203.687 204.586 203.687 204.293C203.687 204 203.633 203.727 203.526 203.473C203.418 203.219 203.267 202.999 203.072 202.813C202.886 202.618 202.667 202.467 202.413 202.359C202.159 202.252 201.885 202.198 201.592 202.198H193.184V197.994H201.592C202.461 197.994 203.277 198.16 204.039 198.492C204.8 198.824 205.464 199.278 206.031 199.854C206.607 200.421 207.061 201.085 207.393 201.847C207.725 202.608 207.891 203.424 207.891 204.293C207.891 205.064 207.75 205.816 207.466 206.549C207.183 207.271 206.783 207.921 206.265 208.497C206.783 209.073 207.183 209.728 207.466 210.46C207.75 211.183 207.891 211.93 207.891 212.701Z" fill="#FF8E30"/>
<defs>
<linearGradient id="paint0_linear_16_1198" x1="148.173" y1="0" x2="148.173" y2="157" gradientUnits="userSpaceOnUse">
<stop stop-color="white"/>
<stop offset="0.505208" stop-color="#FF8E30"/>
<stop offset="1" stop-color="white"/>
</linearGradient>
</defs>
</svg>
