<svg width="296" height="441" viewBox="0 0 296 441" fill="none" xmlns="http://www.w3.org/2000/svg">
<rect x="1.17334" y="79.5" width="293.837" height="361" rx="11.5" fill="black" stroke="#FF8E30"/>
<path d="M148.173 0L173.407 17.5794L203.681 22.9921L209.094 53.2659L226.673 78.5L209.094 103.734L203.681 134.008L173.407 139.421L148.173 157L122.939 139.421L92.6655 134.008L87.2527 103.734L69.6733 78.5L87.2527 53.2659L92.6655 22.9921L122.939 17.5794L148.173 0Z" fill="url(#paint0_linear_16_1198)"/>
<path d="M171.514 21.8699L171.604 21.9326L171.712 21.9519L199.715 26.9585L204.721 54.9611L204.741 55.069L204.803 55.1589L221.064 78.5L204.803 101.841L204.741 101.931L204.721 102.039L199.715 130.041L171.712 135.048L171.604 135.067L171.514 135.13L148.173 151.391L124.832 135.13L124.742 135.067L124.634 135.048L96.6319 130.041L91.6252 102.039L91.6059 101.931L91.5433 101.841L75.2827 78.5L91.5433 55.1589L91.6059 55.069L91.6252 54.9611L96.6319 26.9585L124.634 21.9519L124.742 21.9326L124.832 21.8699L148.173 5.60937L171.514 21.8699Z" stroke="white"/>
<path d="M110.149 103.72V105.268H127.456V103.72H110.149ZM110.208 95.0371V96.5267H127.378V95.0371H110.208ZM111.012 98.5063V99.9567H126.653V98.5063H111.012ZM111.992 101.152V102.524H125.712V101.152H111.992ZM117.813 99.1923V109.874H119.655V99.1923H117.813ZM116.088 91.6463V95.7819H117.813V91.6463H116.088ZM119.753 91.6463V95.6839H121.517V91.6463H119.753ZM124.301 91.8619C123.987 92.7439 123.399 93.9983 122.889 94.8019L124.399 95.2919C124.928 94.5275 125.614 93.4299 126.221 92.3519L124.301 91.8619ZM121.811 96.4287C121.557 96.9579 121.047 97.7615 120.675 98.3103L122.223 98.7807C122.674 98.3103 123.223 97.6439 123.752 96.9383L121.811 96.4287ZM111.737 92.3715C112.345 93.2731 112.991 94.5079 113.246 95.2919L114.912 94.6647C114.657 93.8807 113.971 92.6851 113.325 91.8227L111.737 92.3715ZM114.109 96.8011C114.501 97.4087 114.912 98.2319 115.069 98.7415L116.872 98.2907C116.676 97.7615 116.245 96.9775 115.853 96.4091L114.109 96.8011ZM115.716 106.111C114.481 106.915 112.07 107.64 110.051 107.953C110.424 108.287 110.933 108.894 111.169 109.306C113.207 108.855 115.696 107.836 117.068 106.738L115.716 106.111ZM120.733 106.934C122.517 107.62 124.947 108.659 126.163 109.286L127.417 108.208C126.104 107.581 123.673 106.621 121.929 105.993L120.733 106.934ZM133.375 97.0755H143.352V98.8983H133.375V97.0755ZM133.375 93.8415H143.352V95.6447H133.375V93.8415ZM131.533 92.3127V100.407H145.273V92.3127H131.533ZM140.765 99.4079L139.197 99.9959C140.745 102.289 143.43 104.151 146.272 105.072C146.547 104.582 147.095 103.857 147.507 103.485C144.763 102.779 142.097 101.25 140.765 99.4079ZM136.041 99.4079C134.669 101.231 131.984 102.857 129.338 103.622C129.749 103.994 130.298 104.68 130.573 105.151C133.317 104.171 136.08 102.269 137.668 100.055L136.041 99.4079ZM134.512 102.916V104.131C134.512 105.503 134.14 107.307 130.769 108.483C131.18 108.855 131.788 109.521 132.043 109.992C135.904 108.502 136.413 106.072 136.413 104.19V102.916H134.512ZM137.413 93.1163V99.6823H139.275V93.1163H137.413ZM140.627 102.936V109.815H142.548V102.936H140.627ZM148.644 101.877L149.095 103.681C150.761 103.151 152.917 102.485 154.935 101.838L154.681 100.153C152.466 100.839 150.173 101.485 148.644 101.877ZM148.938 95.5271V97.2323H154.955V95.5271H148.938ZM151.251 91.6855V107.738C151.251 107.993 151.172 108.071 150.937 108.071C150.702 108.091 149.977 108.091 149.212 108.051C149.447 108.561 149.643 109.325 149.702 109.776C150.937 109.796 151.741 109.717 152.25 109.443C152.779 109.149 152.975 108.659 152.975 107.738V91.6855H151.251ZM155.817 93.5867V95.1743H166.441V93.5867H155.817ZM155.347 98.1535V99.7411H166.833V98.1535H155.347ZM157.248 95.7819C157.758 96.5267 158.307 97.5655 158.522 98.1927L160.129 97.5459C159.914 96.9187 159.345 95.9387 158.797 95.2135L157.248 95.7819ZM163.285 95.2527C162.971 96.1543 162.344 97.4479 161.854 98.2515L163.344 98.7415C163.853 97.9771 164.461 96.8207 165.029 95.7623L163.285 95.2527ZM155.112 101.721V103.308H167.087V101.721H155.112ZM163.814 100.564C162.991 105.425 160.737 107.503 154.955 108.267C155.269 108.659 155.621 109.325 155.759 109.835C162.07 108.757 164.657 106.385 165.598 100.858L163.814 100.564ZM159.639 91.9207C160.071 92.7243 160.541 93.8219 160.717 94.5275L162.834 94.0767C162.619 93.3711 162.148 92.3519 161.678 91.5679L159.639 91.9207ZM156.111 105.523L157.973 105.739C158.993 104.367 160.404 102.113 161.247 100.172L159.502 99.8195C158.718 101.721 157.287 104.033 156.111 105.523ZM156.111 105.523C159.326 106.601 163.481 108.463 165.48 109.815L166.754 108.463C164.52 107.091 160.345 105.347 157.268 104.347L156.111 105.523ZM177.397 95.8799V97.5263H183.924V95.8799H177.397ZM179.279 91.7051V98.2319C179.279 101.936 178.965 105.837 175.809 108.835C176.26 109.071 176.927 109.619 177.24 109.972C180.631 106.699 180.984 102.328 180.984 98.2319V91.7051H179.279ZM168.753 93.6847V95.2919H177.221V93.6847H168.753ZM168.479 104.935V106.581H177.417V104.935H168.479ZM172.144 91.6855V97.2323H173.889V91.6855H172.144ZM172.321 97.2323V102.818H172.144V109.855H173.869V102.818H173.712V97.2323H172.321ZM170.655 100.701H175.437V102.23H170.655V100.701ZM170.655 97.9379H175.437V99.4471H170.655V97.9379ZM169.204 96.6051V103.563H176.946V96.6051H169.204ZM182.709 95.8799V107.444C182.709 108.6 182.787 108.973 183.081 109.286C183.395 109.619 183.826 109.737 184.277 109.737C184.512 109.737 184.943 109.737 185.217 109.737C185.59 109.737 185.982 109.639 186.256 109.423C186.531 109.208 186.707 108.894 186.825 108.365C186.903 107.895 186.981 106.621 187.001 105.562C186.57 105.405 186.021 105.111 185.688 104.837C185.707 105.935 185.668 106.856 185.649 107.248C185.609 107.503 185.531 107.699 185.472 107.816C185.413 107.895 185.276 107.934 185.159 107.934C185.021 107.934 184.884 107.934 184.786 107.934C184.669 107.934 184.571 107.875 184.492 107.797C184.453 107.738 184.414 107.601 184.414 107.463V95.8799H182.709Z" fill="white"/>
<path d="M121.923 81H115.197V54.1172H111.845V47.3906H121.923V81ZM151.736 70.4297C151.736 72.0703 151.447 73.5469 150.869 74.8594C150.291 76.1719 149.517 77.2812 148.548 78.1875C147.58 79.0938 146.455 79.7891 145.173 80.2734C143.908 80.7578 142.58 81 141.189 81H127.642V74.2734H141.189C141.642 74.2734 142.095 74.2031 142.548 74.0625C143.017 73.9219 143.431 73.6953 143.791 73.3828C144.166 73.0703 144.462 72.6719 144.681 72.1875C144.916 71.7031 145.033 71.1172 145.033 70.4297C145.033 69.8047 144.916 69.2578 144.681 68.7891C144.462 68.3047 144.166 67.9062 143.791 67.5938C143.431 67.2656 143.017 67.0234 142.548 66.8672C142.095 66.6953 141.642 66.6094 141.189 66.6094H127.642L129.611 47.3906H150.353V54.1172H135.658L135.048 59.8828H141.189C142.58 59.8828 143.908 60.125 145.173 60.6094C146.455 61.0938 147.58 61.7969 148.548 62.7188C149.517 63.625 150.291 64.7344 150.869 66.0469C151.447 67.3438 151.736 68.8047 151.736 70.4297ZM164.228 55.3125C164.228 53.9219 164.025 52.8984 163.619 52.2422C163.228 51.5703 162.658 51.2344 161.908 51.2344C161.189 51.2344 160.634 51.5703 160.244 52.2422C159.853 52.8984 159.658 53.9219 159.658 55.3125C159.658 56.6875 159.853 57.7109 160.244 58.3828C160.634 59.0547 161.189 59.3906 161.908 59.3906C162.658 59.3906 163.228 59.0547 163.619 58.3828C164.025 57.7109 164.228 56.6875 164.228 55.3125ZM168.681 55.3125C168.681 56.875 168.501 58.2031 168.142 59.2969C167.798 60.375 167.322 61.25 166.712 61.9219C166.103 62.5938 165.384 63.0781 164.556 63.375C163.744 63.6719 162.861 63.8203 161.908 63.8203C160.97 63.8203 160.087 63.6641 159.259 63.3516C158.447 63.0391 157.736 62.5469 157.126 61.875C156.517 61.1875 156.033 60.3047 155.673 59.2266C155.33 58.1484 155.158 56.8438 155.158 55.3125C155.158 53.75 155.33 52.4297 155.673 51.3516C156.033 50.2734 156.517 49.3984 157.126 48.7266C157.736 48.0547 158.447 47.5703 159.259 47.2734C160.087 46.9766 160.97 46.8281 161.908 46.8281C162.861 46.8281 163.744 46.9844 164.556 47.2969C165.384 47.5938 166.103 48.0781 166.712 48.75C167.322 49.4219 167.798 50.2969 168.142 51.375C168.501 52.4531 168.681 53.7656 168.681 55.3125ZM163.267 81H158.181L176.65 47.3906H181.736L163.267 81ZM180.119 72.9844C180.119 71.5781 179.916 70.5469 179.509 69.8906C179.119 69.2344 178.548 68.9062 177.798 68.9062C177.08 68.9062 176.525 69.2344 176.134 69.8906C175.744 70.5469 175.548 71.5781 175.548 72.9844C175.548 74.3438 175.744 75.3594 176.134 76.0312C176.525 76.6875 177.08 77.0156 177.798 77.0156C178.548 77.0156 179.119 76.6875 179.509 76.0312C179.916 75.3594 180.119 74.3438 180.119 72.9844ZM184.572 72.9844C184.572 74.5469 184.392 75.8672 184.033 76.9453C183.689 78.0234 183.212 78.8984 182.603 79.5703C181.994 80.2422 181.275 80.7266 180.447 81.0234C179.634 81.3203 178.751 81.4688 177.798 81.4688C176.861 81.4688 175.978 81.3125 175.15 81C174.337 80.7031 173.626 80.2188 173.017 79.5469C172.408 78.8594 171.923 77.9766 171.564 76.8984C171.22 75.8203 171.048 74.5156 171.048 72.9844C171.048 71.4219 171.22 70.1016 171.564 69.0234C171.923 67.9453 172.408 67.0703 173.017 66.3984C173.626 65.7266 174.337 65.2422 175.15 64.9453C175.978 64.6328 176.861 64.4766 177.798 64.4766C178.751 64.4766 179.634 64.6328 180.447 64.9453C181.275 65.2422 181.994 65.7344 182.603 66.4219C183.212 67.0938 183.689 67.9688 184.033 69.0469C184.392 70.125 184.572 71.4375 184.572 72.9844Z" fill="white"/>
<path d="M219.673 282.622C219.673 321.892 219.673 361.135 219.673 400.405C218.432 403.204 216.28 404 213.272 404C170.312 403.945 127.352 403.945 84.3917 403.945C80.5013 403.973 78.6802 402.161 78.6802 398.292C78.6802 375.048 78.6802 351.832 78.6802 328.588C78.6802 326.393 79.37 325.378 80.7772 325.405C82.1568 325.432 82.7914 326.42 82.7914 328.533C82.7914 349.033 82.7914 369.532 82.7914 390.032C82.7914 390.553 82.7914 391.075 82.7914 391.596C86.6542 391.596 90.3239 391.596 93.9936 391.596C93.9936 358.171 93.9936 324.856 93.9936 291.541C90.2135 291.541 86.5163 291.541 82.7914 291.541C82.7914 299.993 82.7914 308.363 82.7914 316.706C82.7914 317.172 82.819 317.639 82.7638 318.078C82.5982 319.203 81.936 319.917 80.7496 319.917C79.5632 319.917 78.901 319.231 78.7078 318.105C78.6526 317.749 78.6802 317.364 78.6802 317.008C78.6802 306.168 78.6802 295.328 78.6802 284.516C78.6802 280.921 80.5841 279.082 84.2262 279.082C96.6976 279.082 109.197 279.082 121.668 279.082C122.027 279.082 122.413 279.055 122.772 279.11C123.93 279.302 124.62 280.015 124.62 281.141C124.62 282.293 123.903 282.979 122.772 283.171C122.358 283.226 121.944 283.199 121.53 283.199C114.273 283.199 107.017 283.199 99.7878 283.199C99.2912 283.199 98.8221 283.199 98.3255 283.199C98.3255 310.092 98.3255 336.766 98.3255 363.468C101.25 363.468 104.092 363.468 107.017 363.468C106.796 362.891 106.631 362.48 106.465 362.041C104.065 356.305 102.74 350.295 102.464 344.093C101.912 331.552 105.306 320.109 112.673 309.873C113.253 309.077 113.308 308.61 112.618 307.787C109.997 304.796 110.273 300.186 113.059 297.469C115.819 294.779 120.399 294.615 123.323 297.222C124.151 297.963 124.62 297.798 125.393 297.277C144.541 283.885 169.401 283.912 188.522 297.359C189.378 297.963 189.874 297.99 190.73 297.249C193.627 294.67 198.152 294.779 200.911 297.359C203.725 299.993 204.167 304.576 201.656 307.54C200.663 308.72 200.828 309.379 201.628 310.504C210.596 323.539 213.438 337.809 210.099 353.232C209.354 356.689 208.112 360.01 207.092 363.44C209.823 363.44 212.665 363.44 215.59 363.44C215.59 362.864 215.59 362.425 215.59 361.958C215.59 336.3 215.59 310.641 215.59 285.01C215.59 283.144 215.59 283.144 213.658 283.144C186.95 283.144 160.241 283.144 133.532 283.144C133.118 283.144 132.705 283.171 132.291 283.144C131.022 283.061 130.194 282.211 130.221 281.058C130.249 279.96 131.049 279.165 132.236 279.055C132.705 279.027 133.146 279.055 133.615 279.055C160.186 279.055 186.757 279.082 213.327 279C216.28 279.027 218.459 279.851 219.673 282.622ZM98.2979 399.856C98.9877 399.856 99.5671 399.856 100.174 399.856C137.45 399.856 174.699 399.856 211.975 399.829C216.059 399.829 215.562 400.707 215.535 396.069C215.535 395.987 215.452 395.905 215.341 395.74C214.845 395.74 214.321 395.74 213.769 395.74C186.977 395.74 160.158 395.74 133.367 395.74C132.898 395.74 132.429 395.795 131.987 395.712C130.856 395.548 130.139 394.889 130.139 393.709C130.139 392.529 130.801 391.843 131.96 391.678C132.456 391.596 132.981 391.651 133.477 391.651C160.269 391.651 187.088 391.651 213.879 391.651C214.403 391.651 214.955 391.651 215.479 391.651C215.479 383.583 215.479 375.707 215.479 367.804C176.382 367.804 137.368 367.804 98.3255 367.804C98.3255 375.789 98.3255 383.665 98.3255 391.651C98.9049 391.651 99.3739 391.651 99.8706 391.651C107.072 391.651 114.273 391.651 121.475 391.651C121.944 391.651 122.413 391.596 122.854 391.706C123.93 391.925 124.565 392.639 124.565 393.709C124.565 394.779 123.93 395.493 122.827 395.712C122.441 395.795 121.999 395.767 121.585 395.767C114.329 395.767 107.072 395.767 99.843 395.767C99.3463 395.767 98.8497 395.767 98.2979 395.767C98.2979 397.139 98.2979 398.402 98.2979 399.856ZM116.205 363.577C116.177 363.303 116.205 363.193 116.177 363.111C116.094 362.891 115.984 362.699 115.874 362.507C110.742 352.408 109.528 341.87 112.038 330.866C117.226 308.061 140.568 292.364 163.773 296.151C182.949 299.28 197.6 312.836 201.904 331.689C202.704 335.175 202.76 338.824 202.98 342.419C203.091 344.258 201.297 345.411 200.001 344.395C199.394 343.929 198.98 342.886 198.952 342.09C198.897 337.782 198.373 333.528 197.103 329.412C195.807 325.213 193.93 321.289 191.282 317.584C184.88 322.524 178.562 327.408 172.271 332.293C175.554 338.413 175.83 344.423 172.437 350.323C169.015 356.25 163.635 359.132 156.737 359.406C156.599 360.806 156.433 362.15 156.295 363.523C156.737 363.55 156.958 363.605 157.178 363.605C168.656 363.605 180.135 363.632 191.585 363.577C192.082 363.577 192.854 363.138 193.047 362.727C194.593 359.241 196.083 355.729 197.49 352.161C198.097 350.625 198.897 349.911 200.138 350.24C201.408 350.57 201.96 351.613 201.518 353.177C200.939 355.153 200.304 357.101 199.559 358.995C198.98 360.504 198.235 361.958 197.572 363.413C197.738 363.495 197.821 363.577 197.904 363.577C198.869 363.605 199.835 363.523 200.801 363.632C201.904 363.769 202.429 363.276 202.842 362.315C210.182 344.889 208.692 328.314 198.069 312.644C195.945 309.516 195.917 308.226 198.345 305.235C200.001 303.177 198.952 300.021 196.441 299.637C195.117 299.445 194.013 299.801 193.047 300.762C191.889 301.914 190.481 302.463 188.909 302.079C187.888 301.832 186.895 301.228 186.012 300.625C174.533 292.721 161.924 289.922 148.211 292.172C140.623 293.407 133.725 296.398 127.49 300.844C125.089 302.546 123.048 302.491 121.006 300.707C119.35 299.28 117.308 299.17 115.929 300.487C114.549 301.805 114.605 303.78 116.067 305.537C117.833 307.65 117.943 309.653 116.315 311.876C110.631 319.615 107.403 328.259 106.686 337.836C106.051 346.563 107.541 354.906 111.349 362.836C111.514 363.193 112.066 363.55 112.452 363.577C113.639 363.632 114.88 363.577 116.205 363.577ZM160.048 299.939C156.157 299.582 152.515 299.801 148.901 300.515C120.813 306.031 106.327 337.123 120.261 361.903C121.309 363.797 124.041 364.318 125.807 362.974C130.056 359.708 134.277 356.415 138.499 353.149C139.52 352.381 140.513 351.585 141.534 350.789C138.251 344.724 137.919 338.66 141.396 332.732C144.845 326.832 150.225 323.951 157.068 323.649C158.061 315.718 159.055 307.897 160.048 299.939ZM188.743 314.291C182.094 306.827 174.009 302.189 164.159 300.378C163.138 308.418 162.172 316.267 161.234 323.704C164.297 325.46 167.084 327.052 170.036 328.753C176.051 324.115 182.342 319.258 188.743 314.291ZM156.93 327.82C149.37 327.793 143.162 333.94 143.134 341.431C143.107 348.951 149.26 355.153 156.792 355.18C164.407 355.235 170.671 349.06 170.671 341.486C170.671 333.995 164.49 327.847 156.93 327.82ZM143.741 354.274C140.044 357.128 136.098 360.202 132.07 363.303C132.291 363.44 132.373 363.523 132.429 363.523C138.72 363.55 144.983 363.55 151.274 363.523C151.55 363.523 152.019 363.138 152.074 362.864C152.295 361.519 152.405 360.175 152.515 359.269C149.508 357.568 146.749 356.003 143.741 354.274ZM94.0764 283.199C90.5446 283.199 87.1233 283.171 83.7019 283.226C83.3984 283.226 82.9018 283.72 82.8742 284.022C82.7638 285.092 82.819 286.162 82.819 287.178C86.7094 287.178 90.3791 287.178 94.0764 287.178C94.0764 285.833 94.0764 284.626 94.0764 283.199ZM93.9936 399.856C93.9936 398.512 93.9936 397.167 93.9936 395.822C90.2687 395.822 86.599 395.822 82.819 395.822C82.819 396.865 82.8466 397.798 82.819 398.759C82.7914 399.609 83.2053 399.856 84.0054 399.856C87.2888 399.856 90.5722 399.856 93.9936 399.856Z" fill="url(#paint1_linear_16_1198)"/>
<path d="M90.517 366.184C90.517 371.755 90.5446 377.326 90.4894 382.869C90.4894 383.555 90.3515 384.434 89.91 384.873C89.441 385.312 88.4201 385.641 87.8682 385.422C87.2336 385.175 86.599 384.351 86.4611 383.665C86.2127 382.568 86.3783 381.387 86.3783 380.262C86.3783 370.191 86.3783 360.092 86.3783 350.021C86.3783 349.664 86.3507 349.28 86.3783 348.923C86.4335 347.633 87.2336 346.783 88.3649 346.728C89.5513 346.7 90.4619 347.578 90.4894 348.923C90.517 351.558 90.4894 354.22 90.4894 356.854C90.517 359.955 90.517 363.056 90.517 366.184Z" fill="url(#paint2_linear_16_1198)"/>
<path d="M86.4059 306.333C86.4059 304.192 86.4059 302.052 86.4059 299.911C86.4059 298.347 87.2612 297.414 88.5304 297.441C89.7445 297.496 90.517 298.402 90.517 299.911C90.517 304.192 90.517 308.473 90.517 312.782C90.517 314.346 89.6617 315.279 88.3925 315.251C87.1785 315.196 86.4059 314.291 86.4059 312.782C86.3783 310.614 86.4059 308.473 86.4059 306.333Z" fill="url(#paint3_linear_16_1198)"/>
<path d="M152.902 382.238C153.619 382.732 154.281 383.144 154.888 383.638C155.854 384.406 156.075 385.476 155.495 386.409C154.888 387.37 153.702 387.644 152.598 387.013C151.439 386.327 150.308 385.531 149.122 384.735C149.039 384.955 148.956 385.065 148.956 385.175C148.763 386.684 147.963 387.535 146.749 387.452C145.535 387.37 144.817 386.437 144.817 384.928C144.79 382.019 144.817 379.082 144.817 376.173C144.817 371.975 144.9 371.947 149.122 371.865C151.881 371.81 154.116 372.496 155.357 375.131C156.516 377.655 155.688 380.015 152.902 382.238ZM149.039 375.57C149.039 376.914 149.039 377.738 149.039 379C149.949 378.643 150.75 378.451 151.412 378.04C151.632 377.902 151.715 376.969 151.522 376.859C150.887 376.366 150.115 376.091 149.039 375.57Z" fill="url(#paint4_linear_16_1198)"/>
<path d="M169.981 379.631C170.008 373.841 176.161 370.109 181.349 372.716C182.977 373.539 183.501 374.637 182.866 375.844C182.259 376.997 181.238 377.161 179.555 376.393C178.093 375.734 176.686 375.844 175.444 376.887C174.23 377.902 173.899 379.247 174.313 380.729C174.727 382.156 175.748 383.171 177.237 383.254C178.093 383.308 179.114 382.952 179.859 382.485C181.128 381.689 182.232 381.552 183.032 382.485C183.859 383.418 183.694 384.571 182.618 385.641C180.686 387.507 177.486 388.029 174.809 386.876C171.857 385.614 169.981 382.76 169.981 379.631Z" fill="url(#paint5_linear_16_1198)"/>
<path d="M162.752 375.981C162.752 376.613 162.752 377.052 162.752 377.518C164.435 377.93 166.946 376.777 167.111 379.741C167.194 381.195 166.311 381.552 162.779 381.799C162.779 382.266 162.779 382.732 162.779 383.391C163.607 383.391 164.463 383.363 165.318 383.391C166.642 383.446 167.47 384.214 167.525 385.339C167.58 386.492 166.67 387.425 165.318 387.452C163.8 387.507 162.283 387.507 160.793 387.452C159.303 387.397 158.558 386.629 158.558 385.092C158.53 381.442 158.53 377.793 158.558 374.17C158.558 372.633 159.303 371.92 160.82 371.865C162.338 371.838 163.856 371.838 165.345 371.865C166.642 371.892 167.498 372.716 167.525 373.841C167.553 374.966 166.697 375.844 165.428 375.926C164.573 376.009 163.718 375.981 162.752 375.981Z" fill="url(#paint6_linear_16_1198)"/>
<path d="M136.209 385.394C132.898 385.394 130.221 382.732 130.249 379.494C130.277 376.311 132.953 373.649 136.154 373.621C139.437 373.594 142.086 376.256 142.086 379.549C142.058 382.814 139.465 385.367 136.209 385.394ZM137.919 379.768C137.947 378.616 137.23 377.82 136.264 377.765C135.271 377.71 134.333 378.561 134.415 379.549C134.498 380.592 135.05 381.25 136.154 381.278C137.257 381.278 137.809 380.647 137.919 379.768Z" fill="url(#paint7_linear_16_1198)"/>
<path d="M163.773 341.486C163.8 345.273 160.682 348.374 156.902 348.374C153.095 348.374 150.005 345.273 150.005 341.514C150.005 337.782 153.067 334.735 156.82 334.708C160.627 334.653 163.745 337.699 163.773 341.486ZM159.634 341.486C159.606 340.032 158.392 338.797 156.93 338.797C155.412 338.769 154.143 340.032 154.143 341.541C154.171 342.996 155.385 344.231 156.847 344.258C158.365 344.258 159.662 342.996 159.634 341.486Z" fill="url(#paint8_linear_16_1198)"/>
<line x1="128.673" y1="244" x2="167.673" y2="244" stroke="#FF8E30" stroke-width="6"/>
<path d="M85.7378 204.293C85.7378 203.424 85.9038 202.608 86.2358 201.847C86.5679 201.085 87.0171 200.421 87.5835 199.854C88.1597 199.278 88.8286 198.824 89.5903 198.492C90.3521 198.16 91.1675 197.994 92.0366 197.994H101.675V202.198H92.0366C91.7437 202.198 91.4702 202.252 91.2163 202.359C90.9624 202.467 90.7378 202.618 90.5425 202.813C90.3569 202.999 90.2104 203.219 90.103 203.473C89.9956 203.727 89.9419 204 89.9419 204.293C89.9419 204.586 89.9956 204.864 90.103 205.128C90.2104 205.382 90.3569 205.606 90.5425 205.802C90.7378 205.987 90.9624 206.134 91.2163 206.241C91.4702 206.349 91.7437 206.402 92.0366 206.402H96.2407C97.1099 206.402 97.9253 206.568 98.687 206.9C99.4585 207.223 100.127 207.672 100.694 208.248C101.27 208.814 101.719 209.483 102.042 210.255C102.374 211.017 102.54 211.832 102.54 212.701C102.54 213.57 102.374 214.386 102.042 215.147C101.719 215.909 101.27 216.578 100.694 217.154C100.127 217.721 99.4585 218.17 98.687 218.502C97.9253 218.834 97.1099 219 96.2407 219H86.9097V214.796H96.2407C96.5337 214.796 96.8071 214.742 97.061 214.635C97.3149 214.527 97.5347 214.381 97.7202 214.195C97.9155 214 98.0669 213.775 98.1743 213.521C98.2817 213.268 98.3354 212.994 98.3354 212.701C98.3354 212.408 98.2817 212.135 98.1743 211.881C98.0669 211.627 97.9155 211.407 97.7202 211.222C97.5347 211.026 97.3149 210.875 97.061 210.768C96.8071 210.66 96.5337 210.606 96.2407 210.606H92.0366C91.1675 210.606 90.3521 210.44 89.5903 210.108C88.8286 209.776 88.1597 209.327 87.5835 208.761C87.0171 208.185 86.5679 207.516 86.2358 206.754C85.9038 205.982 85.7378 205.162 85.7378 204.293ZM109.512 219H105.308V197.994H109.512V208.497L117.334 197.994H122.11L115.474 206.856L122.11 219H117.334L112.72 210.504L109.512 214.796V219ZM128.262 219H124.058V197.994H128.262V219ZM146.88 219H132.173V197.994H136.377V214.796H146.88V219ZM163.785 219H149.078V197.994H153.282V214.796H163.785V219ZM186.475 208.497C186.475 206.163 186.084 204.43 185.303 203.297C184.532 202.164 183.453 201.598 182.066 201.598C180.689 201.598 179.62 202.159 178.858 203.282C178.096 204.405 177.715 206.144 177.715 208.497C177.715 210.831 178.096 212.564 178.858 213.697C179.62 214.83 180.689 215.396 182.066 215.396C182.759 215.396 183.379 215.26 183.926 214.986C184.473 214.703 184.932 214.278 185.303 213.712C185.684 213.146 185.972 212.433 186.167 211.573C186.373 210.704 186.475 209.679 186.475 208.497ZM190.474 208.497C190.474 210.489 190.254 212.174 189.815 213.551C189.375 214.928 188.775 216.041 188.013 216.891C187.251 217.74 186.358 218.355 185.333 218.736C184.317 219.107 183.228 219.293 182.066 219.293C180.904 219.293 179.81 219.103 178.785 218.722C177.769 218.331 176.88 217.711 176.119 216.861C175.367 216.002 174.771 214.889 174.332 213.521C173.892 212.145 173.672 210.47 173.672 208.497C173.672 206.505 173.892 204.825 174.332 203.458C174.771 202.081 175.367 200.968 176.119 200.118C176.88 199.269 177.769 198.653 178.785 198.272C179.81 197.892 180.904 197.701 182.066 197.701C183.228 197.701 184.317 197.896 185.333 198.287C186.358 198.668 187.251 199.288 188.013 200.147C188.775 201.007 189.375 202.12 189.815 203.487C190.254 204.854 190.474 206.524 190.474 208.497ZM207.891 212.701C207.891 213.57 207.725 214.386 207.393 215.147C207.061 215.909 206.607 216.578 206.031 217.154C205.464 217.721 204.8 218.17 204.039 218.502C203.277 218.834 202.461 219 201.592 219H193.184V214.796H201.592C201.885 214.796 202.159 214.742 202.413 214.635C202.667 214.527 202.886 214.381 203.072 214.195C203.267 214 203.418 213.775 203.526 213.521C203.633 213.268 203.687 212.994 203.687 212.701C203.687 212.408 203.633 212.135 203.526 211.881C203.418 211.627 203.267 211.407 203.072 211.222C202.886 211.026 202.667 210.875 202.413 210.768C202.159 210.66 201.885 210.606 201.592 210.606H195.865V206.402H201.592C201.885 206.402 202.159 206.349 202.413 206.241C202.667 206.134 202.886 205.987 203.072 205.802C203.267 205.606 203.418 205.382 203.526 205.128C203.633 204.864 203.687 204.586 203.687 204.293C203.687 204 203.633 203.727 203.526 203.473C203.418 203.219 203.267 202.999 203.072 202.813C202.886 202.618 202.667 202.467 202.413 202.359C202.159 202.252 201.885 202.198 201.592 202.198H193.184V197.994H201.592C202.461 197.994 203.277 198.16 204.039 198.492C204.8 198.824 205.464 199.278 206.031 199.854C206.607 200.421 207.061 201.085 207.393 201.847C207.725 202.608 207.891 203.424 207.891 204.293C207.891 205.064 207.75 205.816 207.466 206.549C207.183 207.271 206.783 207.921 206.265 208.497C206.783 209.073 207.183 209.728 207.466 210.46C207.75 211.183 207.891 211.93 207.891 212.701Z" fill="#FF8E30"/>
<defs>
<linearGradient id="paint0_linear_16_1198" x1="148.173" y1="0" x2="148.173" y2="157" gradientUnits="userSpaceOnUse">
<stop stop-color="white"/>
<stop offset="0.505208" stop-color="#FF8E30"/>
<stop offset="1" stop-color="white"/>
</linearGradient>
<linearGradient id="paint1_linear_16_1198" x1="149.173" y1="279" x2="149.173" y2="404" gradientUnits="userSpaceOnUse">
<stop stop-color="white"/>
<stop offset="0.505208" stop-color="#FF8E30"/>
<stop offset="1" stop-color="white"/>
</linearGradient>
<linearGradient id="paint2_linear_16_1198" x1="149.173" y1="279" x2="149.173" y2="404" gradientUnits="userSpaceOnUse">
<stop stop-color="white"/>
<stop offset="0.505208" stop-color="#FF8E30"/>
<stop offset="1" stop-color="white"/>
</linearGradient>
<linearGradient id="paint3_linear_16_1198" x1="149.173" y1="279" x2="149.173" y2="404" gradientUnits="userSpaceOnUse">
<stop stop-color="white"/>
<stop offset="0.505208" stop-color="#FF8E30"/>
<stop offset="1" stop-color="white"/>
</linearGradient>
<linearGradient id="paint4_linear_16_1198" x1="149.173" y1="279" x2="149.173" y2="404" gradientUnits="userSpaceOnUse">
<stop stop-color="white"/>
<stop offset="0.505208" stop-color="#FF8E30"/>
<stop offset="1" stop-color="white"/>
</linearGradient>
<linearGradient id="paint5_linear_16_1198" x1="149.173" y1="279" x2="149.173" y2="404" gradientUnits="userSpaceOnUse">
<stop stop-color="white"/>
<stop offset="0.505208" stop-color="#FF8E30"/>
<stop offset="1" stop-color="white"/>
</linearGradient>
<linearGradient id="paint6_linear_16_1198" x1="149.173" y1="279" x2="149.173" y2="404" gradientUnits="userSpaceOnUse">
<stop stop-color="white"/>
<stop offset="0.505208" stop-color="#FF8E30"/>
<stop offset="1" stop-color="white"/>
</linearGradient>
<linearGradient id="paint7_linear_16_1198" x1="149.173" y1="279" x2="149.173" y2="404" gradientUnits="userSpaceOnUse">
<stop stop-color="white"/>
<stop offset="0.505208" stop-color="#FF8E30"/>
<stop offset="1" stop-color="white"/>
</linearGradient>
<linearGradient id="paint8_linear_16_1198" x1="149.173" y1="279" x2="149.173" y2="404" gradientUnits="userSpaceOnUse">
<stop stop-color="white"/>
<stop offset="0.505208" stop-color="#FF8E30"/>
<stop offset="1" stop-color="white"/>
</linearGradient>
</defs>
</svg>
