<svg width="295" height="441" viewBox="0 0 295 441" fill="none" xmlns="http://www.w3.org/2000/svg">
<rect x="0.5" y="79.5" width="293.837" height="361" rx="11.5" fill="black" stroke="#FF8E30"/>
<path d="M147.5 0L172.734 17.5794L203.008 22.9921L208.421 53.2659L226 78.5L208.421 103.734L203.008 134.008L172.734 139.421L147.5 157L122.266 139.421L91.9921 134.008L86.5794 103.734L69 78.5L86.5794 53.2659L91.9921 22.9921L122.266 17.5794L147.5 0Z" fill="url(#paint0_linear_16_906)"/>
<path d="M170.841 21.8699L170.931 21.9326L171.039 21.9519L199.041 26.9585L204.048 54.9611L204.067 55.069L204.13 55.1589L220.391 78.5L204.13 101.841L204.067 101.931L204.048 102.039L199.041 130.041L171.039 135.048L170.931 135.067L170.841 135.13L147.5 151.391L124.159 135.13L124.069 135.067L123.961 135.048L95.9585 130.041L90.9519 102.039L90.9326 101.931L90.8699 101.841L74.6094 78.5L90.8699 55.1589L90.9326 55.069L90.9519 54.9611L95.9585 26.9585L123.961 21.9519L124.069 21.9326L124.159 21.8699L147.5 5.60937L170.841 21.8699Z" stroke="white"/>
<path d="M109.348 95.2527V96.9187H115.326V95.2527H109.348ZM109.525 91.6463C109.152 94.7235 108.447 97.6635 107.134 99.5059C107.565 99.7607 108.349 100.29 108.682 100.564C110.015 98.5063 110.877 95.3115 111.328 91.9011L109.525 91.6463ZM114.954 95.2527V95.5467C114.699 97.1931 114.307 99.2903 113.974 100.564L115.464 100.956C115.895 99.5843 116.385 97.3891 116.738 95.5075L115.503 95.1939L115.209 95.2527H114.954ZM110.858 98.2907V99.1923C110.858 101.74 110.524 105.621 106.232 108.483C106.702 108.777 107.349 109.404 107.643 109.815C112.269 106.621 112.7 102.171 112.7 99.2511V98.2907H110.858ZM112.661 100.682L111.112 100.956C111.857 104.955 113.249 108.267 115.914 109.835C116.189 109.345 116.757 108.639 117.169 108.287C114.699 107.013 113.308 104.053 112.661 100.682ZM98.9604 93.6651V95.3115H107.388V93.6651H98.9604ZM98.7644 104.955V106.601H107.643V104.955H98.7644ZM102.43 91.6463V97.2519H103.998V91.6463H102.43ZM102.547 97.2323V102.818H102.43V109.855H103.978V102.818H103.86V97.2323H102.547ZM100.783 100.701H105.566V102.211H100.783V100.701ZM100.783 97.9379H105.566V99.4275H100.783V97.9379ZM99.4504 96.6051V103.543H106.977V96.6051H99.4504ZM125.695 92.5087V94.1747H136.318V92.5087H125.695ZM127.537 103.759L125.95 104.131C127.596 107.601 130.673 109.325 135.573 109.894C135.789 109.423 136.259 108.679 136.632 108.287C131.986 107.914 128.89 106.523 127.537 103.759ZM129.987 93.3123V101.25C129.987 104.171 129.654 107.169 124.695 108.443C125.068 108.796 125.597 109.502 125.812 109.894C130.908 108.189 131.751 104.739 131.751 101.27V93.3123H129.987ZM127.674 100.192H134.201V101.858H127.674V100.192ZM127.674 97.2127H134.201V98.8395H127.674V97.2127ZM126.028 95.8015V103.269H135.906V95.8015H126.028ZM118.443 92.6459V94.3315H125.264V92.6459H118.443ZM120.716 98.7023V100.349H123.617V105.797H120.716V107.424H125.185V98.7023H120.716ZM120.971 93.4887C120.462 96.6247 119.58 99.5843 118.129 101.525C118.404 102.034 118.776 103.191 118.874 103.681C120.775 101.289 121.99 97.6047 122.676 93.8611L120.971 93.4887ZM119.776 98.7023V108.953H121.363V98.7023H119.776ZM146.02 100.133V101.505H155.918V100.133H146.02ZM145.785 108.13V109.521H156.094V108.13H145.785ZM148.764 91.6855V94.0963H150.234V91.6855H148.764ZM151.41 91.6855V94.0963H152.9V91.6855H151.41ZM147.784 96.7815H153.997V97.9967H147.784V96.7815ZM147.784 94.4099H153.997V95.6055H147.784V94.4099ZM146.373 93.1359V99.2511H155.467V93.1359H146.373ZM148.49 103.504H153.311V104.876H148.49V103.504ZM146.882 102.309V106.052H155.036V102.309H146.882ZM152.566 105.993C152.351 106.719 151.939 107.777 151.606 108.463L152.802 108.894C153.213 108.287 153.723 107.346 154.232 106.464L152.566 105.993ZM147.784 106.464C148.098 107.209 148.47 108.208 148.607 108.835L150.077 108.345C149.901 107.718 149.528 106.758 149.195 106.033L147.784 106.464ZM149.058 93.8023V98.7219H150.254V93.8023H149.058ZM151.488 93.8023V98.7219H152.684V93.8023H151.488ZM139.787 100.231V101.485H144.236V100.231H139.787ZM143.354 100.231V108.11C143.354 108.306 143.296 108.385 143.1 108.385C142.904 108.385 142.257 108.385 141.571 108.365C141.767 108.757 141.982 109.365 142.041 109.757C143.119 109.757 143.805 109.737 144.295 109.502C144.785 109.267 144.922 108.855 144.922 108.13V100.231H143.354ZM138.905 92.3323V98.4475H140.356V93.6847H143.433V98.4475H144.981V92.3323H138.905ZM138.102 97.8399V100.78H139.474V99.1335H144.374V100.78H145.804V97.8399H138.102ZM141.375 94.7431V98.3103H142.394V95.8603H144.432V94.7431H141.375ZM139.082 100.231V103.916C139.082 105.484 138.984 107.503 137.964 108.992C138.337 109.169 139.003 109.639 139.278 109.933C140.414 108.247 140.61 105.758 140.61 103.935V100.231H139.082ZM140.414 106.052L141.042 107.326C142.061 106.699 143.198 105.993 144.354 105.268L144.06 104.308C142.688 104.994 141.355 105.66 140.414 106.052ZM140.552 102.897C141.238 103.367 142.1 104.092 142.512 104.543L143.374 103.602C142.923 103.171 142.08 102.563 141.355 102.093L140.552 102.897ZM157.408 101.917L157.858 103.72C159.446 103.151 161.445 102.407 163.327 101.701L163.033 100.055C160.975 100.78 158.838 101.505 157.408 101.917ZM157.623 95.5271V97.2323H163.19V95.5271H157.623ZM159.701 91.6659V107.777C159.701 107.993 159.642 108.071 159.426 108.071C159.25 108.071 158.682 108.071 158.074 108.051C158.29 108.522 158.505 109.267 158.564 109.717C159.622 109.717 160.308 109.659 160.798 109.365C161.288 109.09 161.445 108.62 161.445 107.757V91.6659H159.701ZM167.364 93.7827H171.48V95.5075H167.364V93.7827ZM165.757 92.4499V96.8599H173.166V92.4499H165.757ZM165.306 98.9571H167.462V100.839H165.306V98.9571ZM163.876 97.6439V102.171H168.932V97.6439H163.876ZM171.363 98.9571H173.597V100.839H171.363V98.9571ZM169.912 97.6439V102.171H175.126V97.6439H169.912ZM163.562 103.524V105.053H175.498V103.524H163.562ZM168.54 102.132V109.894H170.324V102.132H168.54ZM166.149 105.288C165.306 106.366 163.993 107.561 162.798 108.365C163.19 108.639 163.817 109.227 164.091 109.541C165.287 108.6 166.737 107.15 167.756 105.856L166.149 105.288ZM171.049 106.189C172.304 107.15 173.852 108.541 174.558 109.482L175.773 108.345C175.028 107.424 173.46 106.091 172.186 105.17L171.049 106.189ZM185.984 94.9195L185.122 96.6835H195.334V94.9195H185.984ZM188.493 99.1923V100.878H194.863V99.1923H188.493ZM188.474 103.524V105.268H195.118V103.524H188.474ZM187.552 95.5075V109.855H189.454V95.5075H187.552ZM186.612 91.8815C185.671 94.7431 184.103 97.5851 182.339 99.3883C182.75 99.6823 183.476 100.349 183.77 100.682C185.573 98.6435 187.298 95.4879 188.395 92.3519L186.612 91.8815ZM181.692 91.7443C180.634 94.6451 178.85 97.5263 176.968 99.3687C177.302 99.8195 177.85 100.858 178.027 101.289C180.163 99.0943 182.202 95.6447 183.476 92.3127L181.692 91.7443ZM179.654 96.9579V109.835H181.516V95.1155L181.496 95.0959L179.654 96.9579Z" fill="white"/>
<path d="M127.008 57.4688C127.008 58.8594 126.742 60.1719 126.211 61.4062C125.68 62.625 124.953 63.6953 124.031 64.6172C123.125 65.5234 122.062 66.2422 120.844 66.7734C119.625 67.3047 118.32 67.5703 116.93 67.5703H113.555C113.086 67.5703 112.648 67.6562 112.242 67.8281C111.836 68 111.477 68.2422 111.164 68.5547C110.867 68.8516 110.633 69.2031 110.461 69.6094C110.289 70.0156 110.203 70.4531 110.203 70.9219V74.2734H126.094V81H103.477V70.9219C103.477 69.5312 103.742 68.2266 104.273 67.0078C104.805 65.7734 105.523 64.7031 106.43 63.7969C107.352 62.875 108.422 62.1562 109.641 61.6406C110.859 61.1094 112.164 60.8438 113.555 60.8438H116.93C117.398 60.8438 117.836 60.7578 118.242 60.5859C118.648 60.4141 119 60.1797 119.297 59.8828C119.609 59.5703 119.852 59.2109 120.023 58.8047C120.195 58.3828 120.281 57.9375 120.281 57.4688C120.281 57 120.195 56.5625 120.023 56.1562C119.852 55.75 119.609 55.3984 119.297 55.1016C119 54.7891 118.648 54.5469 118.242 54.375C117.836 54.2031 117.398 54.1172 116.93 54.1172H104.93V47.3906H116.93C118.32 47.3906 119.625 47.6562 120.844 48.1875C122.062 48.7188 123.125 49.4453 124.031 50.3672C124.953 51.2734 125.68 52.3359 126.211 53.5547C126.742 54.7734 127.008 56.0781 127.008 57.4688ZM151.289 64.1953C151.289 60.4609 150.664 57.6875 149.414 55.875C148.18 54.0625 146.453 53.1562 144.234 53.1562C142.031 53.1562 140.32 54.0547 139.102 55.8516C137.883 57.6484 137.273 60.4297 137.273 64.1953C137.273 67.9297 137.883 70.7031 139.102 72.5156C140.32 74.3281 142.031 75.2344 144.234 75.2344C145.344 75.2344 146.336 75.0156 147.211 74.5781C148.086 74.125 148.82 73.4453 149.414 72.5391C150.023 71.6328 150.484 70.4922 150.797 69.1172C151.125 67.7266 151.289 66.0859 151.289 64.1953ZM157.688 64.1953C157.688 67.3828 157.336 70.0781 156.633 72.2812C155.93 74.4844 154.969 76.2656 153.75 77.625C152.531 78.9844 151.102 79.9688 149.461 80.5781C147.836 81.1719 146.094 81.4688 144.234 81.4688C142.375 81.4688 140.625 81.1641 138.984 80.5547C137.359 79.9297 135.938 78.9375 134.719 77.5781C133.516 76.2031 132.562 74.4219 131.859 72.2344C131.156 70.0312 130.805 67.3516 130.805 64.1953C130.805 61.0078 131.156 58.3203 131.859 56.1328C132.562 53.9297 133.516 52.1484 134.719 50.7891C135.938 49.4297 137.359 48.4453 138.984 47.8359C140.625 47.2266 142.375 46.9219 144.234 46.9219C146.094 46.9219 147.836 47.2344 149.461 47.8594C151.102 48.4688 152.531 49.4609 153.75 50.8359C154.969 52.2109 155.93 53.9922 156.633 56.1797C157.336 58.3672 157.688 61.0391 157.688 64.1953ZM170.484 55.3125C170.484 53.9219 170.281 52.8984 169.875 52.2422C169.484 51.5703 168.914 51.2344 168.164 51.2344C167.445 51.2344 166.891 51.5703 166.5 52.2422C166.109 52.8984 165.914 53.9219 165.914 55.3125C165.914 56.6875 166.109 57.7109 166.5 58.3828C166.891 59.0547 167.445 59.3906 168.164 59.3906C168.914 59.3906 169.484 59.0547 169.875 58.3828C170.281 57.7109 170.484 56.6875 170.484 55.3125ZM174.938 55.3125C174.938 56.875 174.758 58.2031 174.398 59.2969C174.055 60.375 173.578 61.25 172.969 61.9219C172.359 62.5938 171.641 63.0781 170.812 63.375C170 63.6719 169.117 63.8203 168.164 63.8203C167.227 63.8203 166.344 63.6641 165.516 63.3516C164.703 63.0391 163.992 62.5469 163.383 61.875C162.773 61.1875 162.289 60.3047 161.93 59.2266C161.586 58.1484 161.414 56.8438 161.414 55.3125C161.414 53.75 161.586 52.4297 161.93 51.3516C162.289 50.2734 162.773 49.3984 163.383 48.7266C163.992 48.0547 164.703 47.5703 165.516 47.2734C166.344 46.9766 167.227 46.8281 168.164 46.8281C169.117 46.8281 170 46.9844 170.812 47.2969C171.641 47.5938 172.359 48.0781 172.969 48.75C173.578 49.4219 174.055 50.2969 174.398 51.375C174.758 52.4531 174.938 53.7656 174.938 55.3125ZM169.523 81H164.438L182.906 47.3906H187.992L169.523 81ZM186.375 72.9844C186.375 71.5781 186.172 70.5469 185.766 69.8906C185.375 69.2344 184.805 68.9062 184.055 68.9062C183.336 68.9062 182.781 69.2344 182.391 69.8906C182 70.5469 181.805 71.5781 181.805 72.9844C181.805 74.3438 182 75.3594 182.391 76.0312C182.781 76.6875 183.336 77.0156 184.055 77.0156C184.805 77.0156 185.375 76.6875 185.766 76.0312C186.172 75.3594 186.375 74.3438 186.375 72.9844ZM190.828 72.9844C190.828 74.5469 190.648 75.8672 190.289 76.9453C189.945 78.0234 189.469 78.8984 188.859 79.5703C188.25 80.2422 187.531 80.7266 186.703 81.0234C185.891 81.3203 185.008 81.4688 184.055 81.4688C183.117 81.4688 182.234 81.3125 181.406 81C180.594 80.7031 179.883 80.2188 179.273 79.5469C178.664 78.8594 178.18 77.9766 177.82 76.8984C177.477 75.8203 177.305 74.5156 177.305 72.9844C177.305 71.4219 177.477 70.1016 177.82 69.0234C178.18 67.9453 178.664 67.0703 179.273 66.3984C179.883 65.7266 180.594 65.2422 181.406 64.9453C182.234 64.6328 183.117 64.4766 184.055 64.4766C185.008 64.4766 185.891 64.6328 186.703 64.9453C187.531 65.2422 188.25 65.7344 188.859 66.4219C189.469 67.0938 189.945 67.9688 190.289 69.0469C190.648 70.125 190.828 71.4375 190.828 72.9844Z" fill="white"/>
<path d="M122.997 272C124.259 272.278 125.522 272.53 126.759 272.858C138.094 276.013 145.313 286.84 143.976 298.575C143.95 298.726 143.976 298.903 143.976 299.231C144.531 299.231 145.061 299.231 145.591 299.231C162.631 299.231 179.697 299.231 196.737 299.231C201.155 299.231 203.3 301.376 203.3 305.818C203.3 325.554 203.3 345.29 203.3 365C203.3 369.366 201.18 371.486 196.813 371.486C172.931 371.486 149.024 371.486 125.143 371.486C124.84 371.486 124.562 371.486 124.259 371.486C122.972 371.436 122.215 370.704 122.215 369.593C122.215 368.483 122.997 367.776 124.285 367.726C124.663 367.701 125.042 367.726 125.421 367.726C149.176 367.726 172.956 367.726 196.712 367.726C199.059 367.726 199.514 367.297 199.514 364.95C199.514 345.264 199.514 325.579 199.514 305.894C199.514 303.496 199.059 303.042 196.636 303.042C179.217 303.042 161.773 303.042 144.354 303.017C143.344 303.017 142.915 303.294 142.562 304.254C139.129 313.389 130.242 319.472 120.422 319.472C110.602 319.472 101.716 313.339 98.2828 304.254C97.7779 302.916 97.374 302.764 95.1272 303.042C93.9912 303.194 93.4106 303.85 93.3601 304.985C93.3348 305.313 93.3601 305.667 93.3601 305.995C93.3601 325.604 93.3601 345.214 93.3601 364.798C93.3601 367.347 93.764 367.751 96.238 367.751C102.246 367.751 108.254 367.751 114.263 367.751C114.692 367.751 115.121 367.726 115.525 367.827C116.484 368.079 117.04 368.735 116.989 369.745C116.939 370.754 116.333 371.335 115.323 371.511C115.045 371.562 114.742 371.537 114.439 371.537C108.179 371.537 101.918 371.537 95.6573 371.537C91.8959 371.537 89.5986 369.291 89.5734 365.53C89.5481 345.466 89.5481 325.403 89.5734 305.339C89.5734 301.578 91.8706 299.332 95.6321 299.282C96.0108 299.282 96.3642 299.282 96.8691 299.282C96.7933 297.995 96.7429 296.808 96.6924 295.622C89.5986 294.234 85.6605 298.701 85.6857 303.925C85.7867 324.923 85.711 345.895 85.7362 366.893C85.7362 372.142 88.9675 375.423 94.1931 375.423C129.056 375.423 163.894 375.448 198.756 375.423C203.957 375.423 207.188 372.117 207.188 366.868C207.188 345.87 207.188 324.898 207.188 303.9C207.188 298.651 203.957 295.395 198.731 295.395C183.332 295.395 167.907 295.395 152.508 295.395C151.978 295.395 151.397 295.395 150.893 295.269C149.959 295.017 149.479 294.335 149.555 293.401C149.63 292.417 150.211 291.786 151.221 291.66C151.498 291.635 151.801 291.635 152.104 291.635C167.68 291.635 183.256 291.61 198.832 291.635C205.244 291.635 209.889 295.547 210.874 301.705C210.975 302.411 211 303.118 211 303.85C211 324.873 211 345.921 211 366.943C211 374.237 206.077 379.184 198.756 379.209C186.588 379.234 174.395 379.209 162.227 379.209C161.697 379.209 161.142 379.209 160.511 379.209C160.511 385.215 160.511 391.121 160.511 397.203C161.975 397.203 163.49 397.203 164.979 397.203C166.292 397.203 167.579 397.178 168.892 397.228C170.003 397.279 170.735 398.011 170.76 399.046C170.785 400.131 170.053 400.888 168.892 400.989C168.589 401.014 168.311 400.989 168.008 400.989C153.695 400.989 139.381 400.989 125.042 400.989C124.739 400.989 124.461 401.014 124.159 400.989C123.048 400.888 122.316 400.181 122.29 399.172C122.265 398.086 122.997 397.279 124.159 397.254C126.456 397.203 128.778 397.228 131.076 397.228C131.53 397.228 131.984 397.228 132.514 397.228C132.514 391.222 132.514 385.342 132.514 379.31C131.959 379.285 131.429 379.234 130.899 379.234C118.731 379.234 106.538 379.234 94.3699 379.234C88.6898 379.234 84.272 376.231 82.6059 371.284C82.3787 370.628 82.202 369.947 82 369.265C82 346.678 82 324.09 82 301.503C82.0757 301.275 82.202 301.048 82.2524 300.821C83.5147 295.395 87.9325 291.786 93.5115 291.635C94.6728 291.61 95.8593 291.635 97.0458 291.635C97.172 291.231 97.273 290.903 97.3487 290.6C99.3178 282.272 104.316 276.543 112.294 273.489C114.111 272.782 116.08 272.48 117.974 272C119.64 272 121.306 272 122.997 272ZM120.448 315.661C131.454 315.636 140.366 306.727 140.366 295.723C140.366 284.669 131.378 275.735 120.321 275.76C109.34 275.786 100.454 284.77 100.479 295.774C100.53 306.802 109.441 315.686 120.448 315.661ZM136.352 397.077C143.117 397.077 149.807 397.077 156.446 397.077C156.446 391.07 156.446 385.165 156.446 379.285C149.706 379.285 143.041 379.285 136.352 379.285C136.352 385.241 136.352 391.121 136.352 397.077Z" fill="url(#paint1_linear_16_906)"/>
<path d="M120.397 360.937C114.591 360.937 108.81 360.937 103.004 360.937C100.05 360.937 98.6362 359.524 98.611 356.52C98.611 355.763 98.611 355.006 98.611 354.249C98.6362 351.372 100.075 349.883 102.953 349.883C109.037 349.883 115.121 349.883 121.205 349.883C126.708 349.883 132.212 349.883 137.715 349.883C140.795 349.883 142.183 351.271 142.183 354.325C142.183 355.132 142.183 355.915 142.183 356.722C142.158 359.498 140.744 360.912 138.018 360.937C132.136 360.962 126.254 360.937 120.397 360.937ZM138.371 353.769C126.33 353.769 114.439 353.769 102.499 353.769C102.499 354.93 102.499 355.99 102.499 357.076C114.515 357.076 126.431 357.076 138.371 357.076C138.371 355.915 138.371 354.88 138.371 353.769Z" fill="url(#paint2_linear_16_906)"/>
<path d="M188.002 356.823C187.598 358.514 188.532 360.836 186.008 360.861C183.382 360.886 184.367 358.464 183.938 356.899C183.029 356.899 182.12 356.924 181.186 356.899C178.434 356.823 176.238 354.628 176.188 351.902C176.137 349.227 178.157 346.955 180.858 346.728C181.842 346.652 182.852 346.703 183.988 346.703C184.013 346.047 184.064 345.517 184.064 344.987C184.064 334.236 184.064 323.51 184.064 312.759C184.064 312.229 183.938 311.522 184.215 311.169C184.645 310.588 185.301 309.982 185.957 309.856C186.841 309.68 187.548 310.311 187.75 311.244C187.851 311.724 187.825 312.254 187.825 312.759C187.825 323.51 187.825 334.236 187.825 344.987C187.825 345.492 187.825 345.971 187.825 346.703C188.961 346.703 189.996 346.627 191.032 346.703C193.632 346.905 195.626 348.974 195.727 351.574C195.853 353.997 194.061 356.344 191.637 356.747C190.476 356.975 189.239 356.823 188.002 356.823ZM185.957 353.139C187.422 353.139 188.886 353.139 190.375 353.139C191.334 353.139 191.966 352.735 191.94 351.75C191.915 350.842 191.259 350.463 190.375 350.463C187.447 350.463 184.493 350.463 181.565 350.463C180.631 350.463 179.949 350.842 180 351.851C180.025 352.76 180.656 353.139 181.54 353.139C183.029 353.139 184.493 353.139 185.957 353.139Z" fill="url(#paint3_linear_16_906)"/>
<path d="M174.118 320.38C175.102 320.38 175.91 320.38 176.693 320.38C179.671 320.405 181.893 322.525 181.943 325.352C181.994 328.254 179.848 330.5 176.844 330.627C175.986 330.652 175.102 330.627 174.092 330.627C174.092 331.258 174.092 331.737 174.092 332.242C174.092 340.898 174.092 349.53 174.092 358.186C174.092 358.691 174.092 359.196 173.941 359.675C173.663 360.584 172.956 361.013 171.997 360.937C171.038 360.836 170.482 360.255 170.331 359.322C170.28 358.918 170.306 358.489 170.306 358.06C170.306 349.454 170.306 340.848 170.306 332.242C170.306 331.788 170.306 331.333 170.306 330.652C169.473 330.652 168.69 330.652 167.933 330.652C164.701 330.601 162.429 328.481 162.429 325.503C162.429 322.525 164.701 320.405 167.933 320.38C168.69 320.38 169.422 320.38 170.306 320.38C170.306 317.932 170.306 315.585 170.306 313.263C170.306 312.809 170.28 312.33 170.306 311.875C170.356 310.689 171.063 309.881 172.098 309.831C173.184 309.781 174.042 310.613 174.067 311.85C174.118 314.197 174.092 316.544 174.092 318.891C174.118 319.32 174.118 319.775 174.118 320.38ZM172.275 324.141C170.811 324.141 169.346 324.141 167.882 324.141C166.973 324.141 166.267 324.469 166.267 325.478C166.267 326.488 166.973 326.841 167.857 326.841C170.76 326.841 173.638 326.841 176.541 326.841C177.425 326.841 178.157 326.513 178.157 325.503C178.157 324.494 177.475 324.141 176.541 324.141C175.127 324.141 173.714 324.141 172.275 324.141Z" fill="url(#paint4_linear_16_906)"/>
<path d="M160.309 335.27C161.319 335.27 162.152 335.245 162.985 335.27C166.014 335.346 168.236 337.567 168.21 340.444C168.185 343.321 165.938 345.492 162.909 345.542C162.101 345.542 161.319 345.542 160.309 345.542C160.309 346.047 160.309 346.476 160.309 346.93C160.309 350.791 160.309 354.653 160.309 358.514C160.309 360.129 159.652 360.962 158.441 360.962C157.204 360.962 156.547 360.129 156.547 358.514C156.547 354.703 156.547 350.867 156.547 347.056C156.547 346.602 156.547 346.148 156.547 345.567C155.563 345.567 154.704 345.593 153.821 345.567C150.968 345.492 148.747 343.321 148.696 340.57C148.646 337.718 150.766 335.472 153.695 335.321C154.604 335.27 155.512 335.321 156.547 335.321C156.547 334.74 156.547 334.286 156.547 333.832C156.547 326.791 156.547 319.724 156.547 312.683C156.547 312.229 156.522 311.749 156.648 311.32C156.901 310.336 157.608 309.806 158.592 309.907C159.577 310.008 160.183 310.588 160.284 311.623C160.309 312.001 160.309 312.38 160.309 312.759C160.309 319.775 160.309 326.765 160.309 333.781C160.309 334.16 160.309 334.614 160.309 335.27ZM158.441 341.756C159.905 341.756 161.369 341.756 162.859 341.756C163.717 341.756 164.373 341.403 164.398 340.469C164.424 339.46 163.767 339.056 162.859 339.056C159.93 339.056 156.977 339.031 154.048 339.056C153.139 339.056 152.458 339.46 152.508 340.469C152.533 341.403 153.19 341.756 154.048 341.756C155.512 341.756 156.977 341.756 158.441 341.756Z" fill="url(#paint5_linear_16_906)"/>
<path d="M104.392 341.756C105.578 341.756 106.74 341.731 107.926 341.756C109.138 341.782 109.895 342.514 109.921 343.574C109.946 344.684 109.188 345.492 107.901 345.517C105.503 345.542 103.104 345.542 100.732 345.517C99.4693 345.492 98.6614 344.709 98.6614 343.624C98.6614 342.539 99.4945 341.782 100.757 341.756C101.968 341.731 103.18 341.756 104.392 341.756Z" fill="url(#paint6_linear_16_906)"/>
<path d="M120.372 339.031C119.185 339.031 118.024 339.056 116.838 339.031C115.601 339.006 114.843 338.324 114.793 337.264C114.742 336.204 115.474 335.321 116.636 335.296C119.16 335.245 121.659 335.22 124.184 335.296C125.37 335.321 126.077 336.179 126.027 337.264C125.976 338.349 125.244 339.006 124.007 339.031C122.795 339.056 121.584 339.031 120.372 339.031Z" fill="url(#paint7_linear_16_906)"/>
<path d="M120.523 341.756C121.71 341.756 122.871 341.731 124.058 341.756C125.269 341.782 126.027 342.488 126.052 343.574C126.077 344.709 125.32 345.492 124.058 345.517C121.659 345.542 119.286 345.542 116.888 345.517C115.626 345.492 114.818 344.709 114.818 343.624C114.818 342.539 115.626 341.782 116.913 341.756C118.1 341.731 119.312 341.756 120.523 341.756Z" fill="url(#paint8_linear_16_906)"/>
<path d="M120.473 332.595C119.261 332.595 118.049 332.646 116.838 332.595C115.575 332.545 114.793 331.737 114.818 330.652C114.843 329.617 115.601 328.885 116.838 328.86C119.261 328.81 121.71 328.81 124.133 328.86C125.37 328.885 126.077 329.617 126.077 330.728C126.077 331.813 125.37 332.545 124.133 332.595C122.896 332.62 121.685 332.595 120.473 332.595Z" fill="url(#paint9_linear_16_906)"/>
<path d="M136.579 339.031C135.367 339.031 134.155 339.056 132.918 339.031C131.707 339.006 130.975 338.274 130.949 337.188C130.924 336.128 131.681 335.296 132.868 335.27C135.342 335.22 137.816 335.22 140.29 335.27C141.476 335.296 142.208 336.103 142.183 337.188C142.158 338.274 141.451 338.98 140.214 339.006C139.002 339.056 137.791 339.031 136.579 339.031Z" fill="url(#paint10_linear_16_906)"/>
<path d="M136.478 345.517C135.291 345.517 134.13 345.542 132.944 345.517C131.707 345.466 130.899 344.684 130.949 343.574C130.975 342.514 131.732 341.782 132.944 341.782C135.367 341.756 137.816 341.756 140.239 341.782C141.426 341.807 142.183 342.564 142.158 343.649C142.158 344.734 141.426 345.492 140.214 345.517C139.002 345.567 137.74 345.517 136.478 345.517Z" fill="url(#paint11_linear_16_906)"/>
<path d="M129.813 295.95C129.813 293.225 129.813 290.55 129.813 287.773C126.229 287.773 122.694 287.773 118.983 287.773C118.983 288.228 118.983 288.682 118.983 289.136C118.983 293.3 119.009 297.439 118.983 301.604C118.958 304.859 116.585 307.408 113.505 307.56C110.249 307.711 107.649 305.541 107.245 302.285C106.79 298.701 110.123 295.37 113.682 295.824C114.136 295.875 114.591 295.976 115.146 296.077C115.171 295.673 115.222 295.319 115.222 294.966C115.222 292.619 115.197 290.272 115.222 287.925C115.247 285.628 116.787 283.988 119.084 283.963C122.644 283.912 126.229 283.912 129.788 283.963C132.111 283.988 133.625 285.553 133.65 287.9C133.676 292.518 133.701 297.137 133.65 301.755C133.6 305.061 131.126 307.56 127.97 307.61C124.739 307.686 122.139 305.313 121.912 302.108C121.71 298.928 123.957 296.228 127.213 295.875C128.021 295.723 128.854 295.875 129.813 295.95ZM115.197 301.604C115.171 300.468 114.237 299.534 113.101 299.534C111.94 299.534 110.93 300.544 110.981 301.705C111.006 302.84 111.965 303.749 113.101 303.749C114.288 303.749 115.222 302.815 115.197 301.604ZM127.768 303.749C128.98 303.749 129.889 302.79 129.839 301.578C129.813 300.443 128.879 299.534 127.743 299.534C126.607 299.534 125.673 300.468 125.648 301.604C125.648 302.815 126.557 303.749 127.768 303.749Z" fill="url(#paint12_linear_16_906)"/>
<line x1="128" y1="244" x2="167" y2="244" stroke="#FF8E30" stroke-width="6"/>
<path d="M89.0928 204.293C89.0928 203.424 89.2588 202.608 89.5908 201.847C89.9229 201.085 90.3721 200.421 90.9385 199.854C91.5146 199.278 92.1836 198.824 92.9453 198.492C93.707 198.16 94.5225 197.994 95.3916 197.994H105.03V202.198H95.3916C95.0986 202.198 94.8252 202.252 94.5713 202.359C94.3174 202.467 94.0928 202.618 93.8975 202.813C93.7119 202.999 93.5654 203.219 93.458 203.473C93.3506 203.727 93.2969 204 93.2969 204.293C93.2969 204.586 93.3506 204.864 93.458 205.128C93.5654 205.382 93.7119 205.606 93.8975 205.802C94.0928 205.987 94.3174 206.134 94.5713 206.241C94.8252 206.349 95.0986 206.402 95.3916 206.402H99.5957C100.465 206.402 101.28 206.568 102.042 206.9C102.813 207.223 103.482 207.672 104.049 208.248C104.625 208.814 105.074 209.483 105.396 210.255C105.729 211.017 105.895 211.832 105.895 212.701C105.895 213.57 105.729 214.386 105.396 215.147C105.074 215.909 104.625 216.578 104.049 217.154C103.482 217.721 102.813 218.17 102.042 218.502C101.28 218.834 100.465 219 99.5957 219H90.2646V214.796H99.5957C99.8887 214.796 100.162 214.742 100.416 214.635C100.67 214.527 100.89 214.381 101.075 214.195C101.271 214 101.422 213.775 101.529 213.521C101.637 213.268 101.69 212.994 101.69 212.701C101.69 212.408 101.637 212.135 101.529 211.881C101.422 211.627 101.271 211.407 101.075 211.222C100.89 211.026 100.67 210.875 100.416 210.768C100.162 210.66 99.8887 210.606 99.5957 210.606H95.3916C94.5225 210.606 93.707 210.44 92.9453 210.108C92.1836 209.776 91.5146 209.327 90.9385 208.761C90.3721 208.185 89.9229 207.516 89.5908 206.754C89.2588 205.982 89.0928 205.162 89.0928 204.293ZM112.867 219H108.663V197.994H112.867V208.497L120.689 197.994H125.465L118.829 206.856L125.465 219H120.689L116.075 210.504L112.867 214.796V219ZM131.617 219H127.413V197.994H131.617V219ZM150.235 219H135.528V197.994H139.732V214.796H150.235V219ZM167.14 219H152.433V197.994H156.637V214.796H167.14V219ZM189.83 208.497C189.83 206.163 189.439 204.43 188.658 203.297C187.887 202.164 186.808 201.598 185.421 201.598C184.044 201.598 182.975 202.159 182.213 203.282C181.451 204.405 181.07 206.144 181.07 208.497C181.07 210.831 181.451 212.564 182.213 213.697C182.975 214.83 184.044 215.396 185.421 215.396C186.114 215.396 186.734 215.26 187.281 214.986C187.828 214.703 188.287 214.278 188.658 213.712C189.039 213.146 189.327 212.433 189.522 211.573C189.728 210.704 189.83 209.679 189.83 208.497ZM193.829 208.497C193.829 210.489 193.609 212.174 193.17 213.551C192.73 214.928 192.13 216.041 191.368 216.891C190.606 217.74 189.713 218.355 188.688 218.736C187.672 219.107 186.583 219.293 185.421 219.293C184.259 219.293 183.165 219.103 182.14 218.722C181.124 218.331 180.235 217.711 179.474 216.861C178.722 216.002 178.126 214.889 177.687 213.521C177.247 212.145 177.027 210.47 177.027 208.497C177.027 206.505 177.247 204.825 177.687 203.458C178.126 202.081 178.722 200.968 179.474 200.118C180.235 199.269 181.124 198.653 182.14 198.272C183.165 197.892 184.259 197.701 185.421 197.701C186.583 197.701 187.672 197.896 188.688 198.287C189.713 198.668 190.606 199.288 191.368 200.147C192.13 201.007 192.73 202.12 193.17 203.487C193.609 204.854 193.829 206.524 193.829 208.497ZM202.516 219H198.312V202.198H196.217V197.994H202.516V219Z" fill="#FF8E30"/>
<defs>
<linearGradient id="paint0_linear_16_906" x1="147.5" y1="0" x2="147.5" y2="157" gradientUnits="userSpaceOnUse">
<stop stop-color="white"/>
<stop offset="0.505208" stop-color="#FF8E30"/>
<stop offset="1" stop-color="white"/>
</linearGradient>
<linearGradient id="paint1_linear_16_906" x1="146.5" y1="272" x2="146.5" y2="401" gradientUnits="userSpaceOnUse">
<stop stop-color="white"/>
<stop offset="0.505208" stop-color="#FF8E30"/>
<stop offset="1" stop-color="white"/>
</linearGradient>
<linearGradient id="paint2_linear_16_906" x1="146.5" y1="272" x2="146.5" y2="401" gradientUnits="userSpaceOnUse">
<stop stop-color="white"/>
<stop offset="0.505208" stop-color="#FF8E30"/>
<stop offset="1" stop-color="white"/>
</linearGradient>
<linearGradient id="paint3_linear_16_906" x1="146.5" y1="272" x2="146.5" y2="401" gradientUnits="userSpaceOnUse">
<stop stop-color="white"/>
<stop offset="0.505208" stop-color="#FF8E30"/>
<stop offset="1" stop-color="white"/>
</linearGradient>
<linearGradient id="paint4_linear_16_906" x1="146.5" y1="272" x2="146.5" y2="401" gradientUnits="userSpaceOnUse">
<stop stop-color="white"/>
<stop offset="0.505208" stop-color="#FF8E30"/>
<stop offset="1" stop-color="white"/>
</linearGradient>
<linearGradient id="paint5_linear_16_906" x1="146.5" y1="272" x2="146.5" y2="401" gradientUnits="userSpaceOnUse">
<stop stop-color="white"/>
<stop offset="0.505208" stop-color="#FF8E30"/>
<stop offset="1" stop-color="white"/>
</linearGradient>
<linearGradient id="paint6_linear_16_906" x1="146.5" y1="272" x2="146.5" y2="401" gradientUnits="userSpaceOnUse">
<stop stop-color="white"/>
<stop offset="0.505208" stop-color="#FF8E30"/>
<stop offset="1" stop-color="white"/>
</linearGradient>
<linearGradient id="paint7_linear_16_906" x1="146.5" y1="272" x2="146.5" y2="401" gradientUnits="userSpaceOnUse">
<stop stop-color="white"/>
<stop offset="0.505208" stop-color="#FF8E30"/>
<stop offset="1" stop-color="white"/>
</linearGradient>
<linearGradient id="paint8_linear_16_906" x1="146.5" y1="272" x2="146.5" y2="401" gradientUnits="userSpaceOnUse">
<stop stop-color="white"/>
<stop offset="0.505208" stop-color="#FF8E30"/>
<stop offset="1" stop-color="white"/>
</linearGradient>
<linearGradient id="paint9_linear_16_906" x1="146.5" y1="272" x2="146.5" y2="401" gradientUnits="userSpaceOnUse">
<stop stop-color="white"/>
<stop offset="0.505208" stop-color="#FF8E30"/>
<stop offset="1" stop-color="white"/>
</linearGradient>
<linearGradient id="paint10_linear_16_906" x1="146.5" y1="272" x2="146.5" y2="401" gradientUnits="userSpaceOnUse">
<stop stop-color="white"/>
<stop offset="0.505208" stop-color="#FF8E30"/>
<stop offset="1" stop-color="white"/>
</linearGradient>
<linearGradient id="paint11_linear_16_906" x1="146.5" y1="272" x2="146.5" y2="401" gradientUnits="userSpaceOnUse">
<stop stop-color="white"/>
<stop offset="0.505208" stop-color="#FF8E30"/>
<stop offset="1" stop-color="white"/>
</linearGradient>
<linearGradient id="paint12_linear_16_906" x1="146.5" y1="272" x2="146.5" y2="401" gradientUnits="userSpaceOnUse">
<stop stop-color="white"/>
<stop offset="0.505208" stop-color="#FF8E30"/>
<stop offset="1" stop-color="white"/>
</linearGradient>
</defs>
</svg>
