<svg width="295" height="441" viewBox="0 0 295 441" fill="none" xmlns="http://www.w3.org/2000/svg">
<rect x="0.5" y="79.5" width="293.837" height="361" rx="11.5" fill="#FF8E30" fill-opacity="0.3" stroke="#FF8E30"/>
<path d="M147.5 0L172.734 17.5794L203.008 22.9921L208.421 53.2659L226 78.5L208.421 103.734L203.008 134.008L172.734 139.421L147.5 157L122.266 139.421L91.9921 134.008L86.5794 103.734L69 78.5L86.5794 53.2659L91.9921 22.9921L122.266 17.5794L147.5 0Z" fill="url(#paint0_linear_16_906)"/>
<path d="M170.841 21.8699L170.931 21.9326L171.039 21.9519L199.041 26.9585L204.048 54.9611L204.067 55.069L204.13 55.1589L220.391 78.5L204.13 101.841L204.067 101.931L204.048 102.039L199.041 130.041L171.039 135.048L170.931 135.067L170.841 135.13L147.5 151.391L124.159 135.13L124.069 135.067L123.961 135.048L95.9585 130.041L90.9519 102.039L90.9326 101.931L90.8699 101.841L74.6094 78.5L90.8699 55.1589L90.9326 55.069L90.9519 54.9611L95.9585 26.9585L123.961 21.9519L124.069 21.9326L124.159 21.8699L147.5 5.60937L170.841 21.8699Z" stroke="white"/>
<path d="M109.348 95.2527V96.9187H115.326V95.2527H109.348ZM109.525 91.6463C109.152 94.7235 108.447 97.6635 107.134 99.5059C107.565 99.7607 108.349 100.29 108.682 100.564C110.015 98.5063 110.877 95.3115 111.328 91.9011L109.525 91.6463ZM114.954 95.2527V95.5467C114.699 97.1931 114.307 99.2903 113.974 100.564L115.464 100.956C115.895 99.5843 116.385 97.3891 116.738 95.5075L115.503 95.1939L115.209 95.2527H114.954ZM110.858 98.2907V99.1923C110.858 101.74 110.524 105.621 106.232 108.483C106.702 108.777 107.349 109.404 107.643 109.815C112.269 106.621 112.7 102.171 112.7 99.2511V98.2907H110.858ZM112.661 100.682L111.112 100.956C111.857 104.955 113.249 108.267 115.914 109.835C116.189 109.345 116.757 108.639 117.169 108.287C114.699 107.013 113.308 104.053 112.661 100.682ZM98.9604 93.6651V95.3115H107.388V93.6651H98.9604ZM98.7644 104.955V106.601H107.643V104.955H98.7644ZM102.43 91.6463V97.2519H103.998V91.6463H102.43ZM102.547 97.2323V102.818H102.43V109.855H103.978V102.818H103.86V97.2323H102.547ZM100.783 100.701H105.566V102.211H100.783V100.701ZM100.783 97.9379H105.566V99.4275H100.783V97.9379ZM99.4504 96.6051V103.543H106.977V96.6051H99.4504ZM125.695 92.5087V94.1747H136.318V92.5087H125.695ZM127.537 103.759L125.95 104.131C127.596 107.601 130.673 109.325 135.573 109.894C135.789 109.423 136.259 108.679 136.632 108.287C131.986 107.914 128.89 106.523 127.537 103.759ZM129.987 93.3123V101.25C129.987 104.171 129.654 107.169 124.695 108.443C125.068 108.796 125.597 109.502 125.812 109.894C130.908 108.189 131.751 104.739 131.751 101.27V93.3123H129.987ZM127.674 100.192H134.201V101.858H127.674V100.192ZM127.674 97.2127H134.201V98.8395H127.674V97.2127ZM126.028 95.8015V103.269H135.906V95.8015H126.028ZM118.443 92.6459V94.3315H125.264V92.6459H118.443ZM120.716 98.7023V100.349H123.617V105.797H120.716V107.424H125.185V98.7023H120.716ZM120.971 93.4887C120.462 96.6247 119.58 99.5843 118.129 101.525C118.404 102.034 118.776 103.191 118.874 103.681C120.775 101.289 121.99 97.6047 122.676 93.8611L120.971 93.4887ZM119.776 98.7023V108.953H121.363V98.7023H119.776ZM146.02 100.133V101.505H155.918V100.133H146.02ZM145.785 108.13V109.521H156.094V108.13H145.785ZM148.764 91.6855V94.0963H150.234V91.6855H148.764ZM151.41 91.6855V94.0963H152.9V91.6855H151.41ZM147.784 96.7815H153.997V97.9967H147.784V96.7815ZM147.784 94.4099H153.997V95.6055H147.784V94.4099ZM146.373 93.1359V99.2511H155.467V93.1359H146.373ZM148.49 103.504H153.311V104.876H148.49V103.504ZM146.882 102.309V106.052H155.036V102.309H146.882ZM152.566 105.993C152.351 106.719 151.939 107.777 151.606 108.463L152.802 108.894C153.213 108.287 153.723 107.346 154.232 106.464L152.566 105.993ZM147.784 106.464C148.098 107.209 148.47 108.208 148.607 108.835L150.077 108.345C149.901 107.718 149.528 106.758 149.195 106.033L147.784 106.464ZM149.058 93.8023V98.7219H150.254V93.8023H149.058ZM151.488 93.8023V98.7219H152.684V93.8023H151.488ZM139.787 100.231V101.485H144.236V100.231H139.787ZM143.354 100.231V108.11C143.354 108.306 143.296 108.385 143.1 108.385C142.904 108.385 142.257 108.385 141.571 108.365C141.767 108.757 141.982 109.365 142.041 109.757C143.119 109.757 143.805 109.737 144.295 109.502C144.785 109.267 144.922 108.855 144.922 108.13V100.231H143.354ZM138.905 92.3323V98.4475H140.356V93.6847H143.433V98.4475H144.981V92.3323H138.905ZM138.102 97.8399V100.78H139.474V99.1335H144.374V100.78H145.804V97.8399H138.102ZM141.375 94.7431V98.3103H142.394V95.8603H144.432V94.7431H141.375ZM139.082 100.231V103.916C139.082 105.484 138.984 107.503 137.964 108.992C138.337 109.169 139.003 109.639 139.278 109.933C140.414 108.247 140.61 105.758 140.61 103.935V100.231H139.082ZM140.414 106.052L141.042 107.326C142.061 106.699 143.198 105.993 144.354 105.268L144.06 104.308C142.688 104.994 141.355 105.66 140.414 106.052ZM140.552 102.897C141.238 103.367 142.1 104.092 142.512 104.543L143.374 103.602C142.923 103.171 142.08 102.563 141.355 102.093L140.552 102.897ZM157.408 101.917L157.858 103.72C159.446 103.151 161.445 102.407 163.327 101.701L163.033 100.055C160.975 100.78 158.838 101.505 157.408 101.917ZM157.623 95.5271V97.2323H163.19V95.5271H157.623ZM159.701 91.6659V107.777C159.701 107.993 159.642 108.071 159.426 108.071C159.25 108.071 158.682 108.071 158.074 108.051C158.29 108.522 158.505 109.267 158.564 109.717C159.622 109.717 160.308 109.659 160.798 109.365C161.288 109.09 161.445 108.62 161.445 107.757V91.6659H159.701ZM167.364 93.7827H171.48V95.5075H167.364V93.7827ZM165.757 92.4499V96.8599H173.166V92.4499H165.757ZM165.306 98.9571H167.462V100.839H165.306V98.9571ZM163.876 97.6439V102.171H168.932V97.6439H163.876ZM171.363 98.9571H173.597V100.839H171.363V98.9571ZM169.912 97.6439V102.171H175.126V97.6439H169.912ZM163.562 103.524V105.053H175.498V103.524H163.562ZM168.54 102.132V109.894H170.324V102.132H168.54ZM166.149 105.288C165.306 106.366 163.993 107.561 162.798 108.365C163.19 108.639 163.817 109.227 164.091 109.541C165.287 108.6 166.737 107.15 167.756 105.856L166.149 105.288ZM171.049 106.189C172.304 107.15 173.852 108.541 174.558 109.482L175.773 108.345C175.028 107.424 173.46 106.091 172.186 105.17L171.049 106.189ZM185.984 94.9195L185.122 96.6835H195.334V94.9195H185.984ZM188.493 99.1923V100.878H194.863V99.1923H188.493ZM188.474 103.524V105.268H195.118V103.524H188.474ZM187.552 95.5075V109.855H189.454V95.5075H187.552ZM186.612 91.8815C185.671 94.7431 184.103 97.5851 182.339 99.3883C182.75 99.6823 183.476 100.349 183.77 100.682C185.573 98.6435 187.298 95.4879 188.395 92.3519L186.612 91.8815ZM181.692 91.7443C180.634 94.6451 178.85 97.5263 176.968 99.3687C177.302 99.8195 177.85 100.858 178.027 101.289C180.163 99.0943 182.202 95.6447 183.476 92.3127L181.692 91.7443ZM179.654 96.9579V109.835H181.516V95.1155L181.496 95.0959L179.654 96.9579Z" fill="white"/>
<path d="M127.008 57.4688C127.008 58.8594 126.742 60.1719 126.211 61.4062C125.68 62.625 124.953 63.6953 124.031 64.6172C123.125 65.5234 122.062 66.2422 120.844 66.7734C119.625 67.3047 118.32 67.5703 116.93 67.5703H113.555C113.086 67.5703 112.648 67.6562 112.242 67.8281C111.836 68 111.477 68.2422 111.164 68.5547C110.867 68.8516 110.633 69.2031 110.461 69.6094C110.289 70.0156 110.203 70.4531 110.203 70.9219V74.2734H126.094V81H103.477V70.9219C103.477 69.5312 103.742 68.2266 104.273 67.0078C104.805 65.7734 105.523 64.7031 106.43 63.7969C107.352 62.875 108.422 62.1562 109.641 61.6406C110.859 61.1094 112.164 60.8438 113.555 60.8438H116.93C117.398 60.8438 117.836 60.7578 118.242 60.5859C118.648 60.4141 119 60.1797 119.297 59.8828C119.609 59.5703 119.852 59.2109 120.023 58.8047C120.195 58.3828 120.281 57.9375 120.281 57.4688C120.281 57 120.195 56.5625 120.023 56.1562C119.852 55.75 119.609 55.3984 119.297 55.1016C119 54.7891 118.648 54.5469 118.242 54.375C117.836 54.2031 117.398 54.1172 116.93 54.1172H104.93V47.3906H116.93C118.32 47.3906 119.625 47.6562 120.844 48.1875C122.062 48.7188 123.125 49.4453 124.031 50.3672C124.953 51.2734 125.68 52.3359 126.211 53.5547C126.742 54.7734 127.008 56.0781 127.008 57.4688ZM151.289 64.1953C151.289 60.4609 150.664 57.6875 149.414 55.875C148.18 54.0625 146.453 53.1562 144.234 53.1562C142.031 53.1562 140.32 54.0547 139.102 55.8516C137.883 57.6484 137.273 60.4297 137.273 64.1953C137.273 67.9297 137.883 70.7031 139.102 72.5156C140.32 74.3281 142.031 75.2344 144.234 75.2344C145.344 75.2344 146.336 75.0156 147.211 74.5781C148.086 74.125 148.82 73.4453 149.414 72.5391C150.023 71.6328 150.484 70.4922 150.797 69.1172C151.125 67.7266 151.289 66.0859 151.289 64.1953ZM157.688 64.1953C157.688 67.3828 157.336 70.0781 156.633 72.2812C155.93 74.4844 154.969 76.2656 153.75 77.625C152.531 78.9844 151.102 79.9688 149.461 80.5781C147.836 81.1719 146.094 81.4688 144.234 81.4688C142.375 81.4688 140.625 81.1641 138.984 80.5547C137.359 79.9297 135.938 78.9375 134.719 77.5781C133.516 76.2031 132.562 74.4219 131.859 72.2344C131.156 70.0312 130.805 67.3516 130.805 64.1953C130.805 61.0078 131.156 58.3203 131.859 56.1328C132.562 53.9297 133.516 52.1484 134.719 50.7891C135.938 49.4297 137.359 48.4453 138.984 47.8359C140.625 47.2266 142.375 46.9219 144.234 46.9219C146.094 46.9219 147.836 47.2344 149.461 47.8594C151.102 48.4688 152.531 49.4609 153.75 50.8359C154.969 52.2109 155.93 53.9922 156.633 56.1797C157.336 58.3672 157.688 61.0391 157.688 64.1953ZM170.484 55.3125C170.484 53.9219 170.281 52.8984 169.875 52.2422C169.484 51.5703 168.914 51.2344 168.164 51.2344C167.445 51.2344 166.891 51.5703 166.5 52.2422C166.109 52.8984 165.914 53.9219 165.914 55.3125C165.914 56.6875 166.109 57.7109 166.5 58.3828C166.891 59.0547 167.445 59.3906 168.164 59.3906C168.914 59.3906 169.484 59.0547 169.875 58.3828C170.281 57.7109 170.484 56.6875 170.484 55.3125ZM174.938 55.3125C174.938 56.875 174.758 58.2031 174.398 59.2969C174.055 60.375 173.578 61.25 172.969 61.9219C172.359 62.5938 171.641 63.0781 170.812 63.375C170 63.6719 169.117 63.8203 168.164 63.8203C167.227 63.8203 166.344 63.6641 165.516 63.3516C164.703 63.0391 163.992 62.5469 163.383 61.875C162.773 61.1875 162.289 60.3047 161.93 59.2266C161.586 58.1484 161.414 56.8438 161.414 55.3125C161.414 53.75 161.586 52.4297 161.93 51.3516C162.289 50.2734 162.773 49.3984 163.383 48.7266C163.992 48.0547 164.703 47.5703 165.516 47.2734C166.344 46.9766 167.227 46.8281 168.164 46.8281C169.117 46.8281 170 46.9844 170.812 47.2969C171.641 47.5938 172.359 48.0781 172.969 48.75C173.578 49.4219 174.055 50.2969 174.398 51.375C174.758 52.4531 174.938 53.7656 174.938 55.3125ZM169.523 81H164.438L182.906 47.3906H187.992L169.523 81ZM186.375 72.9844C186.375 71.5781 186.172 70.5469 185.766 69.8906C185.375 69.2344 184.805 68.9062 184.055 68.9062C183.336 68.9062 182.781 69.2344 182.391 69.8906C182 70.5469 181.805 71.5781 181.805 72.9844C181.805 74.3438 182 75.3594 182.391 76.0312C182.781 76.6875 183.336 77.0156 184.055 77.0156C184.805 77.0156 185.375 76.6875 185.766 76.0312C186.172 75.3594 186.375 74.3438 186.375 72.9844ZM190.828 72.9844C190.828 74.5469 190.648 75.8672 190.289 76.9453C189.945 78.0234 189.469 78.8984 188.859 79.5703C188.25 80.2422 187.531 80.7266 186.703 81.0234C185.891 81.3203 185.008 81.4688 184.055 81.4688C183.117 81.4688 182.234 81.3125 181.406 81C180.594 80.7031 179.883 80.2188 179.273 79.5469C178.664 78.8594 178.18 77.9766 177.82 76.8984C177.477 75.8203 177.305 74.5156 177.305 72.9844C177.305 71.4219 177.477 70.1016 177.82 69.0234C178.18 67.9453 178.664 67.0703 179.273 66.3984C179.883 65.7266 180.594 65.2422 181.406 64.9453C182.234 64.6328 183.117 64.4766 184.055 64.4766C185.008 64.4766 185.891 64.6328 186.703 64.9453C187.531 65.2422 188.25 65.7344 188.859 66.4219C189.469 67.0938 189.945 67.9688 190.289 69.0469C190.648 70.125 190.828 71.4375 190.828 72.9844Z" fill="white"/>
<path d="M88.06 296.72V297.8H97.26V296.72H88.06ZM97.42 298.24V299.54H103.66V298.24H97.42ZM88.72 302.64V303.66H95.62V302.64H88.72ZM90.54 299.56H95.02V300.9H90.54V299.56ZM89.28 298.62V301.82H96.34V298.62H89.28ZM95.24 302.64V302.88C94.56 303.4 93.26 303.98 92.14 304.34C92.34 304.48 92.66 304.84 92.82 305.06C94.1 304.64 95.58 303.98 96.62 303.24L95.82 302.58L95.56 302.64H95.24ZM92.14 304.32V307.7C92.14 307.9 92.08 307.96 91.84 307.98C91.58 308 90.82 308 89.84 307.96C90.02 308.28 90.22 308.7 90.28 309.06C91.54 309.06 92.36 309.06 92.86 308.88C93.38 308.68 93.52 308.4 93.52 307.72V304.32H92.14ZM88.04 305.6L88.16 306.74C90.48 306.6 93.8 306.4 97.02 306.18L97.04 305.12C93.7 305.32 90.28 305.5 88.04 305.6ZM102.86 298.24C102.88 305.4 102.82 309.02 104.98 309.02C106.02 309.02 106.28 308.24 106.42 305.88C106.14 305.7 105.74 305.32 105.48 305.02C105.46 306.5 105.38 307.7 105.08 307.7C104.2 307.7 104.22 304.34 104.26 298.24H102.86ZM97.02 302.28C98.76 303.42 100.82 305.12 101.78 306.32L102.56 305.16C101.6 304 99.5 302.36 97.76 301.28L97.02 302.28ZM93.84 310.04C94.06 311.14 94.2 312.56 94.2 313.44L95.7 313.24C95.68 312.4 95.48 311.02 95.22 309.92L93.84 310.04ZM98 310C98.46 311.1 98.94 312.52 99.08 313.42L100.58 313.1C100.4 312.24 99.9 310.82 99.4 309.76L98 310ZM102.12 309.88C102.94 311.02 103.84 312.54 104.22 313.5L105.68 313.04C105.26 312.08 104.32 310.58 103.5 309.5L102.12 309.88ZM90.44 309.54C89.96 310.8 89.1 312.18 88.24 312.96L89.6 313.52C90.52 312.62 91.34 311.16 91.84 309.88L90.44 309.54ZM99.58 295.2V299.66C99.58 302.48 99.14 305.76 95.6 308.3C95.92 308.54 96.36 308.92 96.6 309.22C100.38 306.5 100.92 302.96 100.92 299.66V295.2H99.58ZM91.64 295.46C92 296.04 92.34 296.8 92.46 297.3L93.86 296.86C93.7 296.38 93.34 295.64 92.96 295.12L91.64 295.46ZM112.98 307.52V311.2C112.98 312.78 113.54 313.2 115.66 313.2C116.08 313.2 119.2 313.2 119.68 313.2C121.42 313.2 121.88 312.6 122.08 310.16C121.66 310.08 121.02 309.86 120.72 309.6C120.62 311.56 120.48 311.84 119.56 311.84C118.88 311.84 116.26 311.84 115.76 311.84C114.66 311.84 114.46 311.74 114.46 311.18V307.52H112.98ZM115.8 307.32C116.58 308.12 117.58 309.28 118.08 309.96L119.2 309.12C118.7 308.46 117.68 307.36 116.88 306.6L115.8 307.32ZM121.86 308.1C122.74 309.4 123.88 311.16 124.42 312.22L125.78 311.5C125.22 310.48 124.04 308.78 123.16 307.52L121.86 308.1ZM111.16 298.36C111.8 299.16 112.48 300.24 112.74 300.96L114 300.36C113.74 299.64 113.04 298.58 112.38 297.82L111.16 298.36ZM110.38 307.66C109.88 309.06 109.02 310.8 107.96 311.88L109.28 312.64C110.32 311.48 111.14 309.66 111.68 308.2L110.38 307.66ZM108.18 300.62V302.02H125.86V300.62H108.18ZM116.22 296.84V306.28H117.7V296.84H116.22ZM115.32 301.12C113.7 303.14 110.56 305.02 107.74 305.9C108.06 306.18 108.52 306.74 108.74 307.1C111.58 306.08 114.76 303.98 116.54 301.66L115.32 301.12ZM122.9 295.24C119.86 295.98 114.02 296.44 109.14 296.64C109.28 296.94 109.46 297.48 109.48 297.84C114.5 297.66 120.42 297.2 124.24 296.32L122.9 295.24ZM121.52 297.54C121.08 298.42 120.3 299.68 119.68 300.5L120.8 300.96C121.46 300.22 122.3 299.08 123 298.06L121.52 297.54ZM116.92 302.3C119.7 303.58 123.06 305.64 124.8 307.1L125.72 306.06C123.96 304.66 120.62 302.62 117.86 301.38L116.92 302.3ZM138.58 298.9V300.26H144.88V298.9H138.58ZM138.9 295.2C138.5 298.34 137.76 301.32 136.4 303.22C136.76 303.42 137.4 303.84 137.68 304.06C139.02 301.98 139.9 298.82 140.38 295.4L138.9 295.2ZM144.56 298.9V299.16C144.28 300.8 143.86 302.9 143.5 304.18L144.7 304.52C145.14 303.16 145.64 300.96 146.02 299.1L145.02 298.84L144.78 298.9H144.56ZM140.28 301.7V302.62C140.28 305.34 139.98 309.44 135.38 312.5C135.76 312.74 136.26 313.24 136.5 313.56C141.36 310.22 141.78 305.72 141.78 302.64V301.7H140.28ZM141.74 304.14L140.48 304.38C141.24 308.52 142.72 312 145.44 313.58C145.68 313.2 146.12 312.64 146.48 312.34C143.9 311 142.42 307.8 141.74 304.14ZM128.04 297.36V298.72H136.66V297.36H128.04ZM127.84 308.8V310.16H137.02V308.8H127.84ZM131.8 295.2V300.76H133.08V295.2H131.8ZM131.88 300.72V306.54H131.8V313.6H133.08V306.54H132.98V300.72H131.88ZM129.76 304.22H135V306.04H129.76V304.22ZM129.76 301.34H135V303.14H129.76V301.34ZM128.64 300.2V307.16H136.18V300.2H128.64ZM156 303.88V305.02H166V303.88H156ZM155.76 312.04V313.22H166.2V312.04H155.76ZM158.9 295.22V297.54H160.12V295.22H158.9ZM161.58 295.22V297.54H162.82V295.22H161.58ZM157.58 300.28H164.26V301.76H157.58V300.28ZM157.58 297.84H164.26V299.28H157.58V297.84ZM156.4 296.74V302.82H165.48V296.74H156.4ZM158.28 307.02H163.62V308.7H158.28V307.02ZM156.96 306V309.7H165.02V306H156.96ZM162.78 309.76C162.56 310.5 162.12 311.62 161.76 312.32L162.76 312.68C163.18 312.04 163.68 311.04 164.14 310.14L162.78 309.76ZM157.94 310.16C158.28 310.94 158.66 311.98 158.82 312.64L160.02 312.24C159.84 311.6 159.46 310.58 159.1 309.8L157.94 310.16ZM159.12 297.28V302.36H160.14V297.28H159.12ZM161.64 297.28V302.36H162.68V297.28H161.64ZM149.62 303.9V304.98H154.22V303.9H149.62ZM153.46 303.9V312.06C153.46 312.26 153.4 312.34 153.18 312.34C152.98 312.34 152.28 312.34 151.5 312.32C151.66 312.66 151.84 313.16 151.9 313.48C153.04 313.48 153.72 313.46 154.18 313.28C154.62 313.06 154.76 312.72 154.76 312.08V303.9H153.46ZM148.88 295.92V302H150.08V297.06H153.54V302H154.82V295.92H148.88ZM148.04 301.48V304.36H149.2V302.58H154.48V304.36H155.68V301.48H148.04ZM151.34 298.36V301.9H152.24V299.32H154.34V298.36H151.34ZM149.04 303.9V307.66C149.04 309.26 148.92 311.34 147.86 312.88C148.16 313.02 148.7 313.42 148.92 313.68C150.1 311.96 150.3 309.48 150.3 307.66V303.9H149.04ZM150.2 310L150.78 311.06C151.86 310.42 153.08 309.68 154.32 308.92L154.04 308.08C152.6 308.84 151.2 309.56 150.2 310ZM150.42 306.42C151.18 306.92 152.1 307.7 152.56 308.2L153.32 307.36C152.84 306.9 151.92 306.24 151.12 305.72L150.42 306.42ZM167.72 305.84L168.12 307.3C169.68 306.72 171.68 305.94 173.58 305.2L173.34 303.86C171.26 304.62 169.14 305.4 167.72 305.84ZM167.92 299.24V300.64H173.46V299.24H167.92ZM170.16 295.22V311.86C170.16 312.08 170.1 312.16 169.88 312.16C169.7 312.16 169.12 312.16 168.44 312.14C168.62 312.54 168.8 313.14 168.86 313.5C169.9 313.5 170.54 313.46 170.98 313.22C171.42 313 171.58 312.6 171.58 311.84V295.22H170.16ZM177.52 297.16H182.14V299.26H177.52V297.16ZM176.2 296.04V300.4H183.52V296.04H176.2ZM175.38 302.4H178.02V304.68H175.38V302.4ZM174.2 301.3V305.8H179.24V301.3H174.2ZM181.6 302.4H184.32V304.68H181.6V302.4ZM180.38 301.3V305.8H185.58V301.3H180.38ZM173.84 307.32V308.6H186.02V307.32H173.84ZM179.1 305.82V313.64H180.54V305.82H179.1ZM176.76 308.98C175.82 310.1 174.4 311.34 173.14 312.2C173.44 312.42 173.98 312.9 174.2 313.16C175.44 312.2 176.96 310.74 178.06 309.46L176.76 308.98ZM181.5 309.72C182.86 310.7 184.5 312.12 185.28 313.1L186.24 312.14C185.44 311.22 183.8 309.84 182.42 308.88L181.5 309.72ZM196.74 298.56L196.04 300H206.22V298.56H196.74ZM199.24 302.9V304.28H205.76V302.9H199.24ZM199.22 307.3V308.72H206.04V307.3H199.22ZM198.48 299.02V313.6H200.02V299.02H198.48ZM197.5 295.44C196.52 298.38 194.9 301.3 193.08 303.16C193.42 303.4 194.02 303.94 194.24 304.2C196.08 302.14 197.82 299 198.96 295.82L197.5 295.44ZM192.7 295.28C191.56 298.32 189.7 301.32 187.7 303.26C187.98 303.62 188.44 304.42 188.58 304.78C190.76 302.54 192.82 299.12 194.14 295.74L192.7 295.28ZM190.56 300.44V313.58H192.08V298.96L192.04 298.94L190.56 300.44ZM95.2 337.1V338.46H106.02V337.1H95.2ZM96.9 348.46L95.6 348.78C97.24 352.28 100.54 354.04 105.46 354.64C105.64 354.26 106.02 353.66 106.34 353.34C101.58 352.9 98.28 351.4 96.9 348.46ZM99.76 337.7V345.72C99.76 348.74 99.46 352 94.2 353.46C94.48 353.76 94.92 354.32 95.1 354.64C100.52 352.82 101.2 349.22 101.2 345.72V337.7H99.76ZM96.92 344.68H104.2V346.7H96.92V344.68ZM96.92 341.54H104.2V343.54H96.92V341.54ZM95.58 340.36V347.9H105.6V340.36H95.58ZM87.98 337.28V338.66H94.76V337.28H87.98ZM90.14 343.44V344.78H93.32V350.74H90.14V352.08H94.62V343.44H90.14ZM90.62 337.94C90.08 341.28 89.14 344.4 87.62 346.44C87.86 346.84 88.2 347.72 88.3 348.1C90.14 345.68 91.32 342.04 92.02 338.24L90.62 337.94ZM89.36 343.44V353.7H90.68V343.44H89.36ZM116 344.88V346.02H126V344.88H116ZM115.76 353.04V354.22H126.2V353.04H115.76ZM118.9 336.22V338.54H120.12V336.22H118.9ZM121.58 336.22V338.54H122.82V336.22H121.58ZM117.58 341.28H124.26V342.76H117.58V341.28ZM117.58 338.84H124.26V340.28H117.58V338.84ZM116.4 337.74V343.82H125.48V337.74H116.4ZM118.28 348.02H123.62V349.7H118.28V348.02ZM116.96 347V350.7H125.02V347H116.96ZM122.78 350.76C122.56 351.5 122.12 352.62 121.76 353.32L122.76 353.68C123.18 353.04 123.68 352.04 124.14 351.14L122.78 350.76ZM117.94 351.16C118.28 351.94 118.66 352.98 118.82 353.64L120.02 353.24C119.84 352.6 119.46 351.58 119.1 350.8L117.94 351.16ZM119.12 338.28V343.36H120.14V338.28H119.12ZM121.64 338.28V343.36H122.68V338.28H121.64ZM109.62 344.9V345.98H114.22V344.9H109.62ZM113.46 344.9V353.06C113.46 353.26 113.4 353.34 113.18 353.34C112.98 353.34 112.28 353.34 111.5 353.32C111.66 353.66 111.84 354.16 111.9 354.48C113.04 354.48 113.72 354.46 114.18 354.28C114.62 354.06 114.76 353.72 114.76 353.08V344.9H113.46ZM108.88 336.92V343H110.08V338.06H113.54V343H114.82V336.92H108.88ZM108.04 342.48V345.36H109.2V343.58H114.48V345.36H115.68V342.48H108.04ZM111.34 339.36V342.9H112.24V340.32H114.34V339.36H111.34ZM109.04 344.9V348.66C109.04 350.26 108.92 352.34 107.86 353.88C108.16 354.02 108.7 354.42 108.92 354.68C110.1 352.96 110.3 350.48 110.3 348.66V344.9H109.04ZM110.2 351L110.78 352.06C111.86 351.42 113.08 350.68 114.32 349.92L114.04 349.08C112.6 349.84 111.2 350.56 110.2 351ZM110.42 347.42C111.18 347.92 112.1 348.7 112.56 349.2L113.32 348.36C112.84 347.9 111.92 347.24 111.12 346.72L110.42 347.42ZM136.14 336.22V354.58H137.72V336.22H136.14ZM129.08 345.64V352.14H130.62V347.04H143.4V352.1H145V345.64H129.08ZM131.4 339.88H142.5V342.64H131.4V339.88ZM129.88 338.52V343.96H144.1V338.52H129.88ZM130.02 349.94V351.3H144.04V349.94H130.02ZM147.54 346.84L147.94 348.3C149.62 347.74 151.82 347.04 153.9 346.34L153.68 344.96C151.42 345.7 149.08 346.4 147.54 346.84ZM147.82 340.24V341.64H154V340.24H147.82ZM150.38 336.22V352.82C150.38 353.08 150.3 353.16 150.06 353.16C149.82 353.18 149.06 353.18 148.2 353.14C148.4 353.56 148.58 354.18 148.62 354.54C149.88 354.56 150.64 354.5 151.12 354.28C151.6 354.04 151.78 353.62 151.78 352.8V336.22H150.38ZM154.88 338.3V339.62H165.6V338.3H154.88ZM154.38 342.98V344.3H166V342.98H154.38ZM156.38 340.32C156.96 341.1 157.58 342.2 157.82 342.88L159.12 342.3C158.86 341.64 158.22 340.6 157.62 339.82L156.38 340.32ZM162.68 339.86C162.32 340.82 161.62 342.24 161.06 343.1L162.28 343.5C162.84 342.66 163.52 341.4 164.1 340.26L162.68 339.86ZM154.12 346.5V347.82H166.24V346.5H154.12ZM163.16 345.32C162.34 350.18 160.02 352.44 154.1 353.28C154.36 353.62 154.66 354.16 154.78 354.56C161.12 353.46 163.7 350.96 164.62 345.58L163.16 345.32ZM158.92 336.4C159.36 337.22 159.86 338.34 160.04 339.08L161.7 338.7C161.5 338 161 336.92 160.5 336.12L158.92 336.4ZM155.28 350.14L156.82 350.32C157.84 348.96 159.26 346.7 160.1 344.78L158.68 344.48C157.9 346.36 156.46 348.68 155.28 350.14ZM155.28 350.14C158.56 351.28 162.74 353.18 164.78 354.54L165.86 353.46C163.6 352.06 159.44 350.26 156.28 349.22L155.28 350.14ZM168.36 339.68V341.12H185.7V339.68H168.36ZM174.6 344.34V345.8H182.6V344.34H174.6ZM182.2 344.34V344.6C181.84 349.98 181.42 352.2 180.8 352.78C180.56 352.96 180.3 353 179.86 353C179.32 353 177.92 352.98 176.46 352.86C176.76 353.26 176.98 353.88 177 354.34C178.36 354.42 179.66 354.44 180.38 354.4C181.16 354.34 181.64 354.2 182.1 353.7C182.9 352.9 183.3 350.72 183.7 345.06C183.74 344.84 183.76 344.34 183.76 344.34H182.2ZM173.84 340.54C173.62 345.26 173.28 350.78 167.92 353.46C168.3 353.76 168.78 354.28 169.02 354.66C174.66 351.68 175.22 345.76 175.48 340.54H173.84ZM175.8 336.64C176.3 337.62 176.92 338.9 177.18 339.72L178.7 339.06C178.4 338.26 177.8 337.02 177.24 336.08L175.8 336.64ZM188.9 337.52C190.24 338.1 191.88 339.06 192.68 339.76L193.56 338.5C192.7 337.84 191.04 336.96 189.74 336.42L188.9 337.52ZM187.82 342.94C189.12 343.52 190.74 344.46 191.52 345.12L192.36 343.88C191.54 343.22 189.9 342.34 188.64 341.82L187.82 342.94ZM188.5 353.32L189.76 354.34C190.94 352.48 192.34 349.98 193.4 347.86L192.32 346.88C191.16 349.16 189.58 351.8 188.5 353.32ZM198.94 336.2V345.62H200.46V336.2H198.94ZM193.78 344.68V346.12H205.74V344.68H193.78ZM194.66 339.66V341.08H204.92V339.66H194.66ZM201.08 348.78C202.46 350.58 203.96 353.04 204.5 354.6L205.82 353.92C205.22 352.34 203.7 349.98 202.28 348.2L201.08 348.78ZM194.7 353.92C195.24 353.66 196.12 353.54 203.78 352.58C203.72 352.26 203.66 351.68 203.68 351.28L195.52 352.2L194.66 352.72L194.7 353.92ZM194.7 353.92C194.7 353.6 195.76 353.08 195.76 353.08V353.04C197.34 351.1 199.02 348.32 200.3 345.56L198.72 345.02C197.7 347.62 196 350.4 195.48 351.1C194.98 351.84 194.58 352.32 194.18 352.42C194.38 352.84 194.62 353.58 194.7 353.92ZM88.58 380.9V382.26H94.88V380.9H88.58ZM88.9 377.2C88.5 380.34 87.76 383.32 86.4 385.22C86.76 385.42 87.4 385.84 87.68 386.06C89.02 383.98 89.9 380.82 90.38 377.4L88.9 377.2ZM94.56 380.9V381.16C94.28 382.8 93.86 384.9 93.5 386.18L94.7 386.52C95.14 385.16 95.64 382.96 96.02 381.1L95.02 380.84L94.78 380.9H94.56ZM90.28 383.7V384.62C90.28 387.34 89.98 391.44 85.38 394.5C85.76 394.74 86.26 395.24 86.5 395.56C91.36 392.22 91.78 387.72 91.78 384.64V383.7H90.28ZM91.74 386.14L90.48 386.38C91.24 390.52 92.72 394 95.44 395.58C95.68 395.2 96.12 394.64 96.48 394.34C93.9 393 92.42 389.8 91.74 386.14ZM78.04 379.36V380.72H86.66V379.36H78.04ZM77.84 390.8V392.16H87.02V390.8H77.84ZM81.8 377.2V382.76H83.08V377.2H81.8ZM81.88 382.72V388.54H81.8V395.6H83.08V388.54H82.98V382.72H81.88ZM79.76 386.22H85V388.04H79.76V386.22ZM79.76 383.34H85V385.14H79.76V383.34ZM78.64 382.2V389.16H86.18V382.2H78.64ZM105.2 378.1V379.46H116.02V378.1H105.2ZM106.9 389.46L105.6 389.78C107.24 393.28 110.54 395.04 115.46 395.64C115.64 395.26 116.02 394.66 116.34 394.34C111.58 393.9 108.28 392.4 106.9 389.46ZM109.76 378.7V386.72C109.76 389.74 109.46 393 104.2 394.46C104.48 394.76 104.92 395.32 105.1 395.64C110.52 393.82 111.2 390.22 111.2 386.72V378.7H109.76ZM106.92 385.68H114.2V387.7H106.92V385.68ZM106.92 382.54H114.2V384.54H106.92V382.54ZM105.58 381.36V388.9H115.6V381.36H105.58ZM97.98 378.28V379.66H104.76V378.28H97.98ZM100.14 384.44V385.78H103.32V391.74H100.14V393.08H104.62V384.44H100.14ZM100.62 378.94C100.08 382.28 99.14 385.4 97.62 387.44C97.86 387.84 98.2 388.72 98.3 389.1C100.14 386.68 101.32 383.04 102.02 379.24L100.62 378.94ZM99.36 384.44V394.7H100.68V384.44H99.36ZM126 385.88V387.02H136V385.88H126ZM125.76 394.04V395.22H136.2V394.04H125.76ZM128.9 377.22V379.54H130.12V377.22H128.9ZM131.58 377.22V379.54H132.82V377.22H131.58ZM127.58 382.28H134.26V383.76H127.58V382.28ZM127.58 379.84H134.26V381.28H127.58V379.84ZM126.4 378.74V384.82H135.48V378.74H126.4ZM128.28 389.02H133.62V390.7H128.28V389.02ZM126.96 388V391.7H135.02V388H126.96ZM132.78 391.76C132.56 392.5 132.12 393.62 131.76 394.32L132.76 394.68C133.18 394.04 133.68 393.04 134.14 392.14L132.78 391.76ZM127.94 392.16C128.28 392.94 128.66 393.98 128.82 394.64L130.02 394.24C129.84 393.6 129.46 392.58 129.1 391.8L127.94 392.16ZM129.12 379.28V384.36H130.14V379.28H129.12ZM131.64 379.28V384.36H132.68V379.28H131.64ZM119.62 385.9V386.98H124.22V385.9H119.62ZM123.46 385.9V394.06C123.46 394.26 123.4 394.34 123.18 394.34C122.98 394.34 122.28 394.34 121.5 394.32C121.66 394.66 121.84 395.16 121.9 395.48C123.04 395.48 123.72 395.46 124.18 395.28C124.62 395.06 124.76 394.72 124.76 394.08V385.9H123.46ZM118.88 377.92V384H120.08V379.06H123.54V384H124.82V377.92H118.88ZM118.04 383.48V386.36H119.2V384.58H124.48V386.36H125.68V383.48H118.04ZM121.34 380.36V383.9H122.24V381.32H124.34V380.36H121.34ZM119.04 385.9V389.66C119.04 391.26 118.92 393.34 117.86 394.88C118.16 395.02 118.7 395.42 118.92 395.68C120.1 393.96 120.3 391.48 120.3 389.66V385.9H119.04ZM120.2 392L120.78 393.06C121.86 392.42 123.08 391.68 124.32 390.92L124.04 390.08C122.6 390.84 121.2 391.56 120.2 392ZM120.42 388.42C121.18 388.92 122.1 389.7 122.56 390.2L123.32 389.36C122.84 388.9 121.92 388.24 121.12 387.72L120.42 388.42ZM147 384.06V384.94H154.82V384.06H147ZM147 386.06V386.94H154.88V386.06H147ZM146.58 388.1V389.12H155.7V388.1H146.58ZM144.12 380.18C143.24 382.04 141.78 383.88 140.3 385.08C140.6 385.3 141.1 385.82 141.3 386.04C142.8 384.7 144.34 382.64 145.38 380.56L144.12 380.18ZM147.32 380.14C146.58 381.88 145.38 383.62 144.08 384.8C144.4 385 144.92 385.42 145.14 385.64C146.4 384.38 147.72 382.42 148.58 380.5L147.32 380.14ZM150.62 382.44V388.5H151.9V382.44H150.62ZM145.2 390.9V393.7C145.2 395.1 145.64 395.46 147.44 395.46C147.82 395.46 150.3 395.46 150.68 395.46C152.08 395.46 152.5 394.98 152.64 393C152.28 392.9 151.7 392.7 151.4 392.48C151.34 394.02 151.22 394.22 150.54 394.22C150.02 394.22 147.98 394.22 147.58 394.22C146.74 394.22 146.58 394.14 146.58 393.7V390.9H145.2ZM146.94 390.3C148.14 390.84 149.54 391.74 150.26 392.38L151.18 391.44C150.44 390.8 149 389.98 147.84 389.44L146.94 390.3ZM152 391.18C153.16 392.34 154.36 393.98 154.84 395.08L156.04 394.44C155.54 393.34 154.28 391.76 153.12 390.62L152 391.18ZM142.8 390.84C142.38 392.12 141.58 393.56 140.48 394.4L141.64 395.14C142.82 394.2 143.54 392.66 144.02 391.28L142.8 390.84ZM147.4 382L146.68 382.98H155.38V382H147.4ZM146.24 383.16V389.72H147.52V382.08L146.24 383.16ZM139.98 378.76V380.04H156.04V378.76H139.98ZM139.16 378.76V384.8C139.16 387.74 139.04 391.84 137.58 394.76C137.9 394.9 138.5 395.36 138.74 395.62C140.32 392.52 140.56 387.92 140.56 384.8V378.76H139.16ZM142.8 383.46V389.72H144.1V382.2L144.08 382.18L142.8 383.46ZM146.28 377.26C146.84 378 147.4 379.04 147.64 379.74L149 379.22C148.74 378.54 148.14 377.56 147.56 376.82L146.28 377.26ZM149.8 380.54C150.28 381.06 150.78 381.8 151 382.32L152.14 381.76C151.88 381.28 151.36 380.58 150.86 380.06L149.8 380.54ZM160.9 378.62V380.06H173.84V378.62H160.9ZM160.9 383.28V384.7H173.82V383.28H160.9ZM160.8 388.06V389.48H173.86V388.06H160.8ZM160.06 378.62V385.86C160.06 388.68 159.84 392.24 157.64 394.72C157.96 394.92 158.56 395.42 158.8 395.72C161.18 393.06 161.54 388.92 161.54 385.88V378.62H160.06ZM173.24 378.62V393.56C173.24 393.94 173.1 394.06 172.72 394.08C172.34 394.08 170.98 394.1 169.56 394.04C169.78 394.44 170.02 395.1 170.08 395.5C171.98 395.52 173.14 395.5 173.82 395.26C174.48 395 174.72 394.54 174.72 393.56V378.62H173.24ZM166.34 379.16V395.42H167.86V379.16H166.34ZM179.28 388.14V389.4H194.78V388.14H179.28ZM178.12 378.46V379.6H187.26V378.46H178.12ZM187.04 390.96V392.14H193.48V390.96H187.04ZM177.94 393.78V395.08H196.1V393.78H177.94ZM186.22 388.6V394.34H187.7V388.6H186.22ZM182.1 377.2V387.58H183.44V377.2H182.1ZM181.22 390.44V394.44H182.66V390.44H181.22ZM179.94 381.64H185.44V383.12H179.94V381.64ZM178.72 380.62V384.1H186.74V380.62H178.72ZM189.76 377.22C189.2 379.24 188.2 381.1 186.88 382.32C187.18 382.56 187.7 383.06 187.9 383.34C189.3 381.96 190.48 379.8 191.12 377.52L189.76 377.22ZM189.46 379.44L188.84 380.7H196.02V379.44H189.46ZM193.48 379.98C192.68 383.52 190.42 385.6 186.92 386.7C187.2 386.96 187.64 387.54 187.8 387.82C191.44 386.44 193.9 384.16 194.88 380.14L193.48 379.98ZM189.62 380.18L188.64 380.84C189.54 383.42 191.66 386.48 195.38 387.86C195.54 387.52 195.94 386.96 196.24 386.68C192.54 385.5 190.46 382.66 189.62 380.18ZM181.96 383.72C181.06 384.92 179.32 386.18 177.78 386.76C178.06 386.98 178.46 387.44 178.66 387.74C180.22 387.02 182 385.54 182.94 384.14L181.96 383.72ZM183.36 384.96C184.34 385.46 185.48 386.2 186.08 386.76L186.74 385.88C186.16 385.32 184.96 384.62 184.02 384.18L183.36 384.96ZM201.96 383.74V385.14H212.06V383.74H201.96ZM201.6 393.04V394.46H212.32V393.04H201.6ZM200.92 387.54V395.56H202.42V388.9H211.76V395.5H213.34V387.54H200.92ZM207.32 377.16C205.28 380.26 201.6 382.92 197.78 384.42C198.2 384.78 198.62 385.34 198.88 385.74C202.74 384.04 206.42 381.16 208.64 377.82L207.32 377.16ZM207.62 378.32L206.34 378.98C209 382.02 211.9 383.92 215.32 385.56C215.54 385.1 215.98 384.54 216.36 384.2C213 382.78 210.06 381.02 207.62 378.32Z" fill="white"/>
<line x1="128" y1="244" x2="167" y2="244" stroke="#FF8E30" stroke-width="6"/>
<path d="M89.0928 204.293C89.0928 203.424 89.2588 202.608 89.5908 201.847C89.9229 201.085 90.3721 200.421 90.9385 199.854C91.5146 199.278 92.1836 198.824 92.9453 198.492C93.707 198.16 94.5225 197.994 95.3916 197.994H105.03V202.198H95.3916C95.0986 202.198 94.8252 202.252 94.5713 202.359C94.3174 202.467 94.0928 202.618 93.8975 202.813C93.7119 202.999 93.5654 203.219 93.458 203.473C93.3506 203.727 93.2969 204 93.2969 204.293C93.2969 204.586 93.3506 204.864 93.458 205.128C93.5654 205.382 93.7119 205.606 93.8975 205.802C94.0928 205.987 94.3174 206.134 94.5713 206.241C94.8252 206.349 95.0986 206.402 95.3916 206.402H99.5957C100.465 206.402 101.28 206.568 102.042 206.9C102.813 207.223 103.482 207.672 104.049 208.248C104.625 208.814 105.074 209.483 105.396 210.255C105.729 211.017 105.895 211.832 105.895 212.701C105.895 213.57 105.729 214.386 105.396 215.147C105.074 215.909 104.625 216.578 104.049 217.154C103.482 217.721 102.813 218.17 102.042 218.502C101.28 218.834 100.465 219 99.5957 219H90.2646V214.796H99.5957C99.8887 214.796 100.162 214.742 100.416 214.635C100.67 214.527 100.89 214.381 101.075 214.195C101.271 214 101.422 213.775 101.529 213.521C101.637 213.268 101.69 212.994 101.69 212.701C101.69 212.408 101.637 212.135 101.529 211.881C101.422 211.627 101.271 211.407 101.075 211.222C100.89 211.026 100.67 210.875 100.416 210.768C100.162 210.66 99.8887 210.606 99.5957 210.606H95.3916C94.5225 210.606 93.707 210.44 92.9453 210.108C92.1836 209.776 91.5146 209.327 90.9385 208.761C90.3721 208.185 89.9229 207.516 89.5908 206.754C89.2588 205.982 89.0928 205.162 89.0928 204.293ZM112.867 219H108.663V197.994H112.867V208.497L120.689 197.994H125.465L118.829 206.856L125.465 219H120.689L116.075 210.504L112.867 214.796V219ZM131.617 219H127.413V197.994H131.617V219ZM150.235 219H135.528V197.994H139.732V214.796H150.235V219ZM167.14 219H152.433V197.994H156.637V214.796H167.14V219ZM189.83 208.497C189.83 206.163 189.439 204.43 188.658 203.297C187.887 202.164 186.808 201.598 185.421 201.598C184.044 201.598 182.975 202.159 182.213 203.282C181.451 204.405 181.07 206.144 181.07 208.497C181.07 210.831 181.451 212.564 182.213 213.697C182.975 214.83 184.044 215.396 185.421 215.396C186.114 215.396 186.734 215.26 187.281 214.986C187.828 214.703 188.287 214.278 188.658 213.712C189.039 213.146 189.327 212.433 189.522 211.573C189.728 210.704 189.83 209.679 189.83 208.497ZM193.829 208.497C193.829 210.489 193.609 212.174 193.17 213.551C192.73 214.928 192.13 216.041 191.368 216.891C190.606 217.74 189.713 218.355 188.688 218.736C187.672 219.107 186.583 219.293 185.421 219.293C184.259 219.293 183.165 219.103 182.14 218.722C181.124 218.331 180.235 217.711 179.474 216.861C178.722 216.002 178.126 214.889 177.687 213.521C177.247 212.145 177.027 210.47 177.027 208.497C177.027 206.505 177.247 204.825 177.687 203.458C178.126 202.081 178.722 200.968 179.474 200.118C180.235 199.269 181.124 198.653 182.14 198.272C183.165 197.892 184.259 197.701 185.421 197.701C186.583 197.701 187.672 197.896 188.688 198.287C189.713 198.668 190.606 199.288 191.368 200.147C192.13 201.007 192.73 202.12 193.17 203.487C193.609 204.854 193.829 206.524 193.829 208.497ZM202.516 219H198.312V202.198H196.217V197.994H202.516V219Z" fill="#FF8E30"/>
<defs>
<linearGradient id="paint0_linear_16_906" x1="147.5" y1="0" x2="147.5" y2="157" gradientUnits="userSpaceOnUse">
<stop stop-color="white"/>
<stop offset="0.505208" stop-color="#FF8E30"/>
<stop offset="1" stop-color="white"/>
</linearGradient>
</defs>
</svg>
