<svg width="296" height="441" viewBox="0 0 296 441" fill="none" xmlns="http://www.w3.org/2000/svg">
<rect x="1.33667" y="79.5" width="293.837" height="361" rx="11.5" fill="#FF8E30" fill-opacity="0.3" stroke="#FF8E30"/>
<path d="M148.337 0L173.571 17.5794L203.845 22.9921L209.257 53.2659L226.837 78.5L209.257 103.734L203.845 134.008L173.571 139.421L148.337 157L123.103 139.421L92.8288 134.008L87.4161 103.734L69.8367 78.5L87.4161 53.2659L92.8288 22.9921L123.103 17.5794L148.337 0Z" fill="url(#paint0_linear_16_1187)"/>
<path d="M171.678 21.8699L171.768 21.9326L171.876 21.9519L199.878 26.9585L204.885 54.9611L204.904 55.069L204.967 55.1589L221.227 78.5L204.967 101.841L204.904 101.931L204.885 102.039L199.878 130.041L171.876 135.048L171.768 135.067L171.678 135.13L148.337 151.391L124.996 135.13L124.906 135.067L124.798 135.048L96.7952 130.041L91.7885 102.039L91.7693 101.931L91.7066 101.841L75.446 78.5L91.7066 55.1589L91.7693 55.069L91.7885 54.9611L96.7952 26.9585L124.798 21.9519L124.906 21.9326L124.996 21.8699L148.337 5.60937L171.678 21.8699Z" stroke="white"/>
<path d="M116.604 94.6255V96.3503H127.463V94.6255H116.604ZM116.977 99.0355V100.721H125.503V99.0355H116.977ZM121.053 91.6659V99.9763H122.876V91.6659H121.053ZM119.152 100.329L117.486 100.819C119.231 105.347 122.308 108.502 127.012 109.874C127.267 109.404 127.796 108.659 128.207 108.287C123.68 107.13 120.603 104.249 119.152 100.329ZM125.326 99.0355V99.3491C124.013 104.053 120.073 107.032 115.467 108.169C115.82 108.561 116.271 109.345 116.467 109.835C121.445 108.365 125.561 105.17 127.188 99.4667L126.012 98.9767L125.679 99.0355H125.326ZM109.764 101.858L110.273 103.641C112.057 103.151 114.35 102.524 116.506 101.877L116.271 100.192C113.919 100.839 111.449 101.485 109.764 101.858ZM110.019 95.5271V97.2519H116.33V95.5271H110.019ZM112.429 91.6659V107.718C112.429 108.012 112.331 108.11 112.057 108.11C111.802 108.11 110.959 108.11 110.097 108.091C110.332 108.581 110.587 109.325 110.646 109.796C112.018 109.796 112.88 109.737 113.468 109.463C114.056 109.169 114.252 108.698 114.252 107.738V91.6659H112.429ZM130.579 93.2339C131.873 93.8219 133.499 94.7627 134.264 95.4487L135.342 93.9003C134.519 93.2535 132.872 92.3911 131.618 91.8815L130.579 93.2339ZM129.481 98.5455C130.755 99.0943 132.363 100.015 133.127 100.662L134.166 99.1335C133.343 98.4867 131.716 97.6439 130.481 97.1539L129.481 98.5455ZM130.167 108.365L131.735 109.619C132.892 107.757 134.205 105.405 135.244 103.328L133.891 102.113C132.735 104.347 131.206 106.875 130.167 108.365ZM140.281 91.6659V100.956H142.163V91.6659H140.281ZM135.381 99.7999V101.564H147.141V99.7999H135.381ZM136.224 94.8411V96.6051H146.377V94.8411H136.224ZM142.476 104.151C143.809 105.915 145.22 108.326 145.71 109.855L147.357 109.012C146.788 107.444 145.338 105.151 143.966 103.426L142.476 104.151ZM136.4 109.286C136.988 109.012 137.929 108.855 145.142 107.953C145.063 107.561 145.005 106.836 145.024 106.346L137.321 107.189L136.341 107.816L136.4 109.286ZM136.4 109.286C136.4 108.914 137.655 108.267 137.655 108.267V108.228C139.164 106.307 140.81 103.543 141.986 100.819L140.007 100.172C139.105 102.74 137.517 105.464 137.027 106.15C136.557 106.875 136.185 107.326 135.753 107.424C135.989 107.953 136.302 108.875 136.4 109.286ZM149.846 93.3319V96.6051H151.531V94.8019H164.683V96.6051H166.447V93.3319H149.846ZM157.47 96.0563C157.392 97.2715 157.235 98.8003 157.039 99.7999H158.627C158.783 98.8395 158.921 97.3107 159.019 96.0563H157.47ZM153.648 103.622H162.645V104.406H153.648V103.622ZM153.648 105.366H162.645V106.17H153.648V105.366ZM153.648 101.917H162.645V102.661H153.648V101.917ZM151.865 100.897V107.169H164.526V100.897H151.865ZM159.195 108.032C161.469 108.659 163.781 109.404 165.193 109.953L166.447 108.796C164.899 108.247 162.429 107.522 160.155 106.954L159.195 108.032ZM154.275 96.6051H162.115L161.9 99.1727H153.942L154.275 96.6051ZM152.747 95.6055L152.159 100.192H163.507L163.938 95.6055H152.747ZM155.647 106.973C154.413 107.64 151.708 108.365 149.571 108.679C149.885 109.012 150.336 109.6 150.571 109.953C152.786 109.6 155.471 108.855 157.117 107.973L155.647 106.973ZM149.238 97.1735V98.5455H153.57V98.3691H162.566V98.5455H167.094V97.1735H162.566V97.3499H153.57V97.1735H149.238ZM156.529 91.9991C156.98 92.6851 157.47 93.6455 157.627 94.2727L159.352 93.7435C159.136 93.1163 158.627 92.1755 158.137 91.5091L156.529 91.9991ZM170.563 93.4495H172.033V95.0567H170.563V93.4495ZM169.211 92.2343V96.2915H173.444V92.2343H169.211ZM175.62 93.4495H177.129V95.0567H175.62V93.4495ZM174.267 92.2343V96.2915H178.54V92.2343H174.267ZM178.579 97.5067L178.795 99.2315L186.949 98.2123L186.733 96.5071L178.579 97.5067ZM183.009 92.7243C183.852 93.7631 184.753 95.1939 185.106 96.1151L186.596 95.2723C186.223 94.3511 185.283 92.9791 184.42 91.9795L183.009 92.7243ZM170.935 101.309H176.757V102.681H170.935V101.309ZM170.935 98.6043H176.757V99.9763H170.935V98.6043ZM169.387 97.2127V104.092H178.383V97.2127H169.387ZM168.583 105.307V106.954H178.952V105.307H168.583ZM173.033 97.7027V103.504H172.915V109.874H174.718V103.504H174.601V97.7027H173.033ZM180.304 91.8031C180.618 102.191 181.676 109.757 185.047 109.913C185.871 109.933 186.733 109.11 187.164 105.856C186.87 105.68 186.106 105.209 185.792 104.837C185.675 106.699 185.42 107.718 185.067 107.699C183.362 107.581 182.225 100.368 182.068 91.8031H180.304ZM184.891 99.0747C183.636 102.995 180.892 106.719 177.403 108.385C177.874 108.718 178.442 109.267 178.756 109.698C182.166 107.816 184.969 103.916 186.302 99.8587L184.891 99.0747Z" fill="white"/>
<path d="M130.946 68.6719C130.946 70.4844 130.618 72.1953 129.962 73.8047C129.321 75.4141 128.43 76.8281 127.29 78.0469C126.149 79.25 124.79 80.2031 123.212 80.9062C121.649 81.6094 119.954 81.9609 118.126 81.9609C116.298 81.9609 114.571 81.6094 112.946 80.9062C111.337 80.2031 109.93 79.25 108.727 78.0469C107.524 76.8281 106.571 75.4141 105.868 73.8047C105.18 72.1953 104.837 70.4844 104.837 68.6719C104.837 66.5156 105.048 64.4141 105.469 62.3672C105.891 60.3047 106.509 58.3594 107.321 56.5312C108.134 54.6875 109.126 52.9922 110.298 51.4453C111.469 49.8984 112.798 48.5469 114.282 47.3906H123.352C122.415 48 121.501 48.6797 120.61 49.4297C119.719 50.1797 118.868 50.9844 118.055 51.8438C117.259 52.7031 116.516 53.6094 115.829 54.5625C115.141 55.5156 114.532 56.5078 114.001 57.5391C114.673 57.0859 115.399 56.7031 116.18 56.3906C116.977 56.0625 117.79 55.8984 118.618 55.8984C120.509 55.8984 122.212 56.2188 123.727 56.8594C125.259 57.4844 126.555 58.3672 127.618 59.5078C128.68 60.6328 129.501 61.9766 130.079 63.5391C130.657 65.1016 130.946 66.8125 130.946 68.6719ZM124.219 68.6719C124.219 67.7812 124.071 66.9453 123.774 66.1641C123.493 65.3672 123.087 64.6719 122.555 64.0781C122.024 63.4688 121.384 62.9922 120.634 62.6484C119.884 62.3047 119.048 62.1328 118.126 62.1328C117.204 62.1328 116.368 62.3047 115.618 62.6484C114.868 62.9922 114.227 63.4688 113.696 64.0781C113.18 64.6719 112.782 65.3672 112.501 66.1641C112.219 66.9453 112.079 67.7812 112.079 68.6719C112.079 69.5312 112.219 70.3594 112.501 71.1562C112.798 71.9375 113.212 72.6328 113.743 73.2422C114.274 73.8516 114.907 74.3359 115.641 74.6953C116.391 75.0547 117.219 75.2344 118.126 75.2344C119.048 75.2344 119.884 75.0625 120.634 74.7188C121.384 74.375 122.024 73.9062 122.555 73.3125C123.087 72.7031 123.493 72 123.774 71.2031C124.071 70.4062 124.219 69.5625 124.219 68.6719ZM159.024 70.4297C159.024 72.0703 158.735 73.5469 158.157 74.8594C157.579 76.1719 156.805 77.2812 155.837 78.1875C154.868 79.0938 153.743 79.7891 152.462 80.2734C151.196 80.7578 149.868 81 148.477 81H134.93V74.2734H148.477C148.93 74.2734 149.384 74.2031 149.837 74.0625C150.305 73.9219 150.719 73.6953 151.079 73.3828C151.454 73.0703 151.751 72.6719 151.969 72.1875C152.204 71.7031 152.321 71.1172 152.321 70.4297C152.321 69.8047 152.204 69.2578 151.969 68.7891C151.751 68.3047 151.454 67.9062 151.079 67.5938C150.719 67.2656 150.305 67.0234 149.837 66.8672C149.384 66.6953 148.93 66.6094 148.477 66.6094H134.93L136.899 47.3906H157.641V54.1172H142.946L142.337 59.8828H148.477C149.868 59.8828 151.196 60.125 152.462 60.6094C153.743 61.0938 154.868 61.7969 155.837 62.7188C156.805 63.625 157.579 64.7344 158.157 66.0469C158.735 67.3438 159.024 68.8047 159.024 70.4297ZM171.516 55.3125C171.516 53.9219 171.313 52.8984 170.907 52.2422C170.516 51.5703 169.946 51.2344 169.196 51.2344C168.477 51.2344 167.923 51.5703 167.532 52.2422C167.141 52.8984 166.946 53.9219 166.946 55.3125C166.946 56.6875 167.141 57.7109 167.532 58.3828C167.923 59.0547 168.477 59.3906 169.196 59.3906C169.946 59.3906 170.516 59.0547 170.907 58.3828C171.313 57.7109 171.516 56.6875 171.516 55.3125ZM175.969 55.3125C175.969 56.875 175.79 58.2031 175.43 59.2969C175.087 60.375 174.61 61.25 174.001 61.9219C173.391 62.5938 172.673 63.0781 171.844 63.375C171.032 63.6719 170.149 63.8203 169.196 63.8203C168.259 63.8203 167.376 63.6641 166.548 63.3516C165.735 63.0391 165.024 62.5469 164.415 61.875C163.805 61.1875 163.321 60.3047 162.962 59.2266C162.618 58.1484 162.446 56.8438 162.446 55.3125C162.446 53.75 162.618 52.4297 162.962 51.3516C163.321 50.2734 163.805 49.3984 164.415 48.7266C165.024 48.0547 165.735 47.5703 166.548 47.2734C167.376 46.9766 168.259 46.8281 169.196 46.8281C170.149 46.8281 171.032 46.9844 171.844 47.2969C172.673 47.5938 173.391 48.0781 174.001 48.75C174.61 49.4219 175.087 50.2969 175.43 51.375C175.79 52.4531 175.969 53.7656 175.969 55.3125ZM170.555 81H165.469L183.938 47.3906H189.024L170.555 81ZM187.407 72.9844C187.407 71.5781 187.204 70.5469 186.798 69.8906C186.407 69.2344 185.837 68.9062 185.087 68.9062C184.368 68.9062 183.813 69.2344 183.423 69.8906C183.032 70.5469 182.837 71.5781 182.837 72.9844C182.837 74.3438 183.032 75.3594 183.423 76.0312C183.813 76.6875 184.368 77.0156 185.087 77.0156C185.837 77.0156 186.407 76.6875 186.798 76.0312C187.204 75.3594 187.407 74.3438 187.407 72.9844ZM191.86 72.9844C191.86 74.5469 191.68 75.8672 191.321 76.9453C190.977 78.0234 190.501 78.8984 189.891 79.5703C189.282 80.2422 188.563 80.7266 187.735 81.0234C186.923 81.3203 186.04 81.4688 185.087 81.4688C184.149 81.4688 183.266 81.3125 182.438 81C181.626 80.7031 180.915 80.2188 180.305 79.5469C179.696 78.8594 179.212 77.9766 178.852 76.8984C178.509 75.8203 178.337 74.5156 178.337 72.9844C178.337 71.4219 178.509 70.1016 178.852 69.0234C179.212 67.9453 179.696 67.0703 180.305 66.3984C180.915 65.7266 181.626 65.2422 182.438 64.9453C183.266 64.6328 184.149 64.4766 185.087 64.4766C186.04 64.4766 186.923 64.6328 187.735 64.9453C188.563 65.2422 189.282 65.7344 189.891 66.4219C190.501 67.0938 190.977 67.9688 191.321 69.0469C191.68 70.125 191.86 71.4375 191.86 72.9844Z" fill="white"/>
<path d="M40.0567 297.04V298.38H55.7567V297.04H40.0567ZM38.9167 301.72V303.08H56.7567V301.72H38.9167ZM42.5967 308.2V309.4H53.1967V308.2H42.5967ZM42.6167 311.6V312.88H53.2167V311.6H42.6167ZM41.6767 304.84V313.64H43.1767V306.12H52.6367V313.58H54.1767V304.84H41.6767ZM51.5167 298.44C51.1767 299.48 50.4967 301 49.9767 301.92L51.3567 302.3C51.9167 301.4 52.5767 300.02 53.1567 298.82L51.5167 298.44ZM42.7767 298.84C43.3367 299.78 43.8367 301.08 43.9767 301.94L45.5167 301.54C45.3567 300.7 44.8367 299.44 44.2167 298.52L42.7767 298.84ZM46.5167 295.34C46.9767 296.08 47.3967 297.12 47.5167 297.78L49.0967 297.42C48.9367 296.76 48.5167 295.78 48.0167 295.06L46.5167 295.34ZM58.9767 298.12V299.48H68.0967V298.12H58.9767ZM61.2167 300C60.5767 301.56 59.5567 303.2 58.5167 304.32C58.8367 304.54 59.3767 305.02 59.5967 305.24C60.6367 304.02 61.7767 302.12 62.5167 300.4L61.2167 300ZM64.7167 303.26C63.6567 307.12 61.5967 310.18 58.5967 312.02C58.9167 312.28 59.4367 312.84 59.6567 313.12C62.7167 311.04 64.8967 307.78 66.1367 303.52L64.7167 303.26ZM64.5167 300.54C65.3967 301.64 66.3567 303.12 66.7367 304.08L67.9167 303.4C67.5367 302.44 66.5367 301 65.6367 299.94L64.5167 300.54ZM60.5767 304.8C62.6567 306.84 64.9967 309.68 65.9767 311.56L67.1967 310.6C66.1567 308.74 63.7567 306 61.6967 304L60.5767 304.8ZM70.2567 298.86V300.26H76.8967V298.86H70.2567ZM70.7167 295.18C70.1367 298.74 69.1367 302.16 67.5167 304.36C67.8167 304.62 68.3367 305.2 68.5367 305.48C70.2767 303.04 71.4367 299.34 72.1367 295.4L70.7167 295.18ZM74.3967 299.74C73.5167 306.2 71.4767 310.28 66.6367 312.54C66.9567 312.82 67.4767 313.38 67.6567 313.68C72.5967 311.1 74.8167 306.82 75.8367 299.92L74.3967 299.74ZM70.4567 301.44L69.1767 301.74C70.3167 307.06 72.4567 311.46 76.0967 313.6C76.3367 313.22 76.8167 312.68 77.1567 312.38C73.6367 310.56 71.4567 306.3 70.4567 301.44ZM61.8567 295.68C62.4367 296.46 63.0567 297.52 63.3367 298.22L64.6567 297.64C64.3567 296.96 63.7167 295.94 63.0967 295.18L61.8567 295.68ZM89.3567 307.32L90.7167 306.16C89.4767 304.7 87.6767 302.88 86.2367 301.72L84.9367 302.86C86.3567 304.02 88.0767 305.74 89.3567 307.32ZM104.237 295.24V299.48C104.237 300.94 104.577 301.44 105.957 301.44C106.257 301.44 107.917 301.44 108.317 301.44C108.817 301.44 109.317 301.42 109.597 301.34C109.537 301.06 109.497 300.52 109.457 300.18C109.177 300.24 108.617 300.28 108.297 300.28C107.937 300.28 106.357 300.28 105.997 300.28C105.597 300.28 105.517 300.12 105.517 299.5V295.24H104.237ZM98.3967 305.38L98.8167 306.84C100.337 306.24 102.237 305.5 104.037 304.8L103.777 303.42C101.777 304.18 99.7767 304.94 98.3967 305.38ZM98.6567 299.24V300.64H103.717V299.24H98.6567ZM100.837 295.22V311.92C100.837 312.18 100.757 312.26 100.517 312.26C100.277 312.26 99.5567 312.26 98.7367 312.24C98.9367 312.64 99.1167 313.26 99.1767 313.58C100.337 313.6 101.077 313.56 101.537 313.32C102.017 313.1 102.177 312.7 102.177 311.9V295.22H100.837ZM104.957 301.64C104.677 303.3 104.197 304.9 103.417 306.02C103.717 306.18 104.217 306.5 104.457 306.68C105.217 305.52 105.817 303.7 106.157 301.88L104.957 301.64ZM110.337 305.26C110.257 308.6 109.877 311.22 108.277 312.92C108.577 313.08 109.077 313.44 109.277 313.66C110.897 311.72 111.417 309 111.537 305.32L110.337 305.26ZM105.157 303.44L104.797 304.64H109.437V303.44H105.157ZM103.397 307.02V308.24H109.677V307.02H103.397ZM109.917 295.88V297.08H115.757V295.88H109.917ZM109.617 302.34V303.58H116.057V302.34H109.617ZM106.317 304.02V306.1C106.317 307.9 106.097 310.74 102.957 312.74C103.257 312.98 103.657 313.34 103.837 313.62C107.177 311.32 107.557 308.22 107.557 306.12V304.02H106.317ZM106.217 309.64C107.017 310.32 107.977 311.32 108.437 311.94L109.257 310.94C108.797 310.36 107.797 309.44 107.017 308.76L106.217 309.64ZM115.277 295.88V296.14C114.717 297.26 113.577 298.76 112.577 299.64C112.837 299.84 113.217 300.22 113.437 300.5C114.537 299.48 115.857 297.86 116.697 296.38L115.817 295.8L115.577 295.88H115.277ZM110.477 299.08C111.897 299.98 113.677 301.28 114.537 302.16L115.457 301.22C114.557 300.34 112.757 299.08 111.357 298.24L110.477 299.08ZM115.717 302.34V302.52C115.537 303.58 115.277 304.86 115.077 305.7L115.997 305.98C116.297 305.1 116.617 303.7 116.857 302.5L116.097 302.28L115.897 302.34H115.717ZM112.637 302.82V312L113.837 312.58V302.82H112.637ZM113.277 306.86V308.1H116.577V306.86H113.277ZM111.137 308.48L110.177 308.84C111.117 312.54 112.777 313.3 115.077 313.3H116.817C116.877 312.96 117.037 312.38 117.217 312.06C116.757 312.08 115.457 312.08 115.157 312.08C113.397 312.08 111.877 311.54 111.137 308.48ZM104.877 297.12V298.28H109.037V297.12H104.877ZM120.057 297.04V298.38H135.757V297.04H120.057ZM118.917 301.72V303.08H136.757V301.72H118.917ZM122.597 308.2V309.4H133.197V308.2H122.597ZM122.617 311.6V312.88H133.217V311.6H122.617ZM121.677 304.84V313.64H123.177V306.12H132.637V313.58H134.177V304.84H121.677ZM131.517 298.44C131.177 299.48 130.497 301 129.977 301.92L131.357 302.3C131.917 301.4 132.577 300.02 133.157 298.82L131.517 298.44ZM122.777 298.84C123.337 299.78 123.837 301.08 123.977 301.94L125.517 301.54C125.357 300.7 124.837 299.44 124.217 298.52L122.777 298.84ZM126.517 295.34C126.977 296.08 127.397 297.12 127.517 297.78L129.097 297.42C128.937 296.76 128.517 295.78 128.017 295.06L126.517 295.34ZM149.357 307.32L150.717 306.16C149.477 304.7 147.677 302.88 146.237 301.72L144.937 302.86C146.357 304.02 148.077 305.74 149.357 307.32ZM159.937 300.3V301.6H164.877V300.3H159.937ZM158.897 303.8V305.1H165.617V303.8H158.897ZM159.097 306.32C159.397 307.5 159.717 309.04 159.817 310.06L160.937 309.76C160.817 308.76 160.497 307.24 160.157 306.08L159.097 306.32ZM158.557 311.56L158.897 312.92C160.817 312.56 163.417 312.04 165.897 311.52L165.817 310.3C163.097 310.8 160.337 311.28 158.557 311.56ZM164.717 305.86C164.577 306.94 164.217 308.56 163.957 309.54L164.817 309.82C165.117 308.88 165.477 307.4 165.777 306.18L164.717 305.86ZM161.877 300.86V311.84L163.137 311.62V300.86H161.877ZM162.237 295.22C161.337 297.16 159.797 299 158.257 300.22C158.477 300.56 158.777 301.32 158.857 301.62C160.617 300.16 162.377 297.9 163.437 295.64L162.237 295.22ZM161.977 296.74C163.217 297.92 164.857 299.58 165.657 300.58L166.537 299.56C165.717 298.64 164.037 297.04 162.797 295.9L161.977 296.74ZM175.517 304.8C174.897 305.64 173.797 306.8 173.017 307.48L173.837 308.28C174.657 307.62 175.717 306.6 176.557 305.66L175.517 304.8ZM166.537 305.58C167.317 306.38 168.317 307.52 168.757 308.22L169.817 307.4C169.337 306.72 168.337 305.64 167.537 304.86L166.537 305.58ZM168.777 296.96V298.16H174.257V296.96H168.777ZM168.077 300.04V301.22H173.777V300.04H168.077ZM165.917 302.72V304.06H176.997V302.72H165.917ZM170.757 303.46V312.04C170.757 312.24 170.697 312.3 170.457 312.32C170.217 312.32 169.497 312.34 168.677 312.3C168.877 312.68 169.057 313.24 169.117 313.62C170.237 313.62 171.017 313.58 171.497 313.38C172.017 313.16 172.137 312.78 172.137 312.04V303.46H170.757ZM165.617 311.24L166.437 312.36C167.497 311.56 168.797 310.58 169.977 309.62L169.537 308.52C168.077 309.58 166.617 310.62 165.617 311.24ZM168.737 295.2C168.317 297.1 167.677 299.68 167.137 301.22H168.617C169.077 299.74 169.717 297.28 170.137 295.36L168.737 295.2ZM173.837 296.96V297.16C173.617 298.52 173.077 301.2 172.617 303.14L173.997 303.3C174.457 301.4 174.977 298.88 175.277 297.06L174.237 296.9L173.997 296.96H173.837ZM172.597 309.26C173.837 310.18 175.417 311.5 176.177 312.32L177.037 311.28C176.257 310.5 174.657 309.22 173.417 308.36L172.597 309.26ZM180.057 297.04V298.38H195.757V297.04H180.057ZM178.917 301.72V303.08H196.757V301.72H178.917ZM182.597 308.2V309.4H193.197V308.2H182.597ZM182.617 311.6V312.88H193.217V311.6H182.617ZM181.677 304.84V313.64H183.177V306.12H192.637V313.58H194.177V304.84H181.677ZM191.517 298.44C191.177 299.48 190.497 301 189.977 301.92L191.357 302.3C191.917 301.4 192.577 300.02 193.157 298.82L191.517 298.44ZM182.777 298.84C183.337 299.78 183.837 301.08 183.977 301.94L185.517 301.54C185.357 300.7 184.837 299.44 184.217 298.52L182.777 298.84ZM186.517 295.34C186.977 296.08 187.397 297.12 187.517 297.78L189.097 297.42C188.937 296.76 188.517 295.78 188.017 295.06L186.517 295.34ZM209.357 307.32L210.717 306.16C209.477 304.7 207.677 302.88 206.237 301.72L204.937 302.86C206.357 304.02 208.077 305.74 209.357 307.32ZM229.117 302.64V311.12C229.117 312.94 229.657 313.42 231.497 313.42C231.877 313.42 234.357 313.42 234.777 313.42C236.557 313.42 236.997 312.48 237.177 309.22C236.757 309.14 236.137 308.88 235.797 308.62C235.697 311.48 235.537 312 234.657 312C234.117 312 232.057 312 231.657 312C230.757 312 230.597 311.86 230.597 311.12V302.64H229.117ZM219.137 299.94V313.56H220.337V301.22H226.597V313.28H227.857V299.94H219.137ZM221.177 307.68V308.88H225.777V307.68H221.177ZM219.637 310.92V312.12H226.857V310.92H219.637ZM218.757 296.06V297.36H228.237V296.06H218.757ZM221.577 296.5V300.88H222.777V296.5H221.577ZM224.157 296.5V300.88H225.397V296.5H224.157ZM221.857 300.86V302.72C221.857 303.76 221.637 304.98 220.317 305.96C220.537 306.08 220.917 306.42 221.077 306.6C222.497 305.52 222.817 303.96 222.817 302.74V300.86H221.857ZM224.237 300.84V304.34C224.237 305.4 224.497 305.64 225.397 305.64C225.557 305.64 226.317 305.64 226.477 305.64C227.097 305.64 227.397 305.42 227.517 304.94C227.197 304.86 226.817 304.74 226.637 304.56C226.597 304.62 226.537 304.62 226.297 304.62C226.157 304.62 225.597 304.62 225.477 304.62C225.237 304.62 225.197 304.6 225.197 304.34V300.84H224.237ZM229.037 296.12V297.54H234.977V302.64H229.377V304.08H236.417V296.12H229.037ZM238.877 306.44V307.74H256.777V306.44H238.877ZM247.077 305.24V313.58H248.577V305.24H247.077ZM246.537 301.46H249.117V303.56H246.537V301.46ZM246.537 298.28H249.117V300.34H246.537V298.28ZM245.217 297.12V304.72H250.477V297.12H245.217ZM247.257 295.12C247.177 295.8 246.957 296.84 246.737 297.52L247.777 297.78C248.037 297.18 248.357 296.24 248.677 295.38L247.257 295.12ZM254.817 302.28C255.157 303.28 255.537 304.58 255.677 305.46L256.757 305.1C256.577 304.26 256.197 302.98 255.817 301.98L254.817 302.28ZM243.077 301.88C243.357 302.96 243.677 304.34 243.777 305.28L244.857 304.98C244.737 304.08 244.437 302.7 244.117 301.64L243.077 301.88ZM239.557 301.1C239.557 300.82 240.377 300.44 240.377 300.44V300.4C241.257 299.24 242.217 297.48 242.897 295.78L241.677 295.34C241.197 296.96 240.237 298.68 239.957 299.1C239.677 299.56 239.417 299.86 239.157 299.92C239.297 300.24 239.477 300.84 239.557 301.1ZM239.557 301.1C239.817 300.96 240.317 300.86 242.917 300.52C242.917 300.28 242.937 299.84 242.997 299.52L240.157 299.8L239.537 300.18L239.557 301.1ZM239.517 305.04C239.517 304.78 240.277 304.4 240.277 304.4V304.36C241.837 302.76 243.437 300.5 244.697 298.24L243.577 297.64C242.557 299.84 240.857 302.18 240.357 302.76C239.857 303.36 239.477 303.78 239.117 303.86C239.277 304.18 239.477 304.78 239.517 305.04ZM239.517 305.04C239.857 304.88 240.417 304.74 244.217 304.22C244.197 303.98 244.217 303.52 244.257 303.2L240.137 303.72L239.497 304.12L239.517 305.04ZM251.157 301.3C251.157 301.02 251.977 300.62 251.977 300.62V300.58C252.897 299.36 253.877 297.52 254.577 295.74L253.337 295.32C252.817 297 251.857 298.8 251.557 299.24C251.277 299.7 251.017 300.06 250.757 300.1C250.897 300.42 251.097 301.04 251.157 301.3ZM251.157 301.3C251.457 301.16 251.957 301.04 254.917 300.66C254.937 300.4 254.957 299.92 255.017 299.6L251.757 299.96L251.137 300.34L251.157 301.3ZM251.377 305.26C251.377 304.98 252.157 304.6 252.157 304.6V304.56C253.717 302.98 255.317 300.7 256.597 298.46L255.437 297.84C254.417 300.04 252.697 302.34 252.197 302.94C251.717 303.56 251.317 303.96 250.977 304.04C251.117 304.36 251.317 305 251.377 305.26ZM251.377 305.26C251.697 305.1 252.277 304.98 256.077 304.5C256.057 304.26 256.097 303.8 256.157 303.48L252.017 303.92L251.337 304.32L251.377 305.26ZM244.777 308.4C243.437 309.82 240.797 311.12 238.477 311.7C238.817 311.98 239.257 312.54 239.477 312.94C241.857 312.2 244.557 310.66 246.037 308.9L244.777 308.4ZM249.877 309.22C251.937 310.32 254.537 311.96 255.797 313.06L256.737 311.94C255.417 310.86 252.777 309.28 250.757 308.26L249.877 309.22ZM68.7567 348.9V350.14H86.9167V348.9H68.7567ZM69.3367 337.76V338.96H86.0967V337.76H69.3367ZM80.6767 347.6V352.96C80.6767 353.22 80.5767 353.3 80.2567 353.32C79.9167 353.34 78.7967 353.34 77.5967 353.3C77.7967 353.68 77.9967 354.22 78.0567 354.6C79.6767 354.6 80.6967 354.6 81.3367 354.4C81.9567 354.18 82.1167 353.78 82.1167 353V347.6H80.6767ZM77.0567 336.24V346.96H78.5367V336.24H77.0567ZM71.9567 350.98C73.1567 351.72 74.5567 352.82 75.2367 353.62L76.3367 352.62C75.6367 351.84 74.1567 350.78 72.9767 350.1L71.9567 350.98ZM72.2967 343.3H83.4167V344.54H72.2967V343.3ZM72.2967 341.1H83.4167V342.32H72.2967V341.1ZM70.8767 340.1V345.56H84.8767V340.1H70.8767ZM80.7967 345.98C82.3767 346.52 84.2767 347.56 85.2567 348.36L86.1567 347.5C85.1567 346.76 83.2567 345.76 81.6567 345.22L80.7967 345.98ZM69.5567 346.72L69.6167 347.9C73.3967 347.84 79.0767 347.72 84.4167 347.58L84.4967 346.56C79.0167 346.66 73.1967 346.72 69.5567 346.72ZM89.0967 348.56V349.82H106.617V348.56H89.0967ZM89.1767 339.78V341.02H106.537V339.78H89.1767ZM89.9767 343.24V344.46H105.817V343.24H89.9767ZM90.9967 345.92V347.08H104.837V345.92H90.9967ZM97.0567 343.78V354.62H98.5367V343.78H97.0567ZM95.2367 336.2V340.38H96.6367V336.2H95.2367ZM99.0167 336.2V340.32H100.457V336.2H99.0167ZM103.657 336.44C103.317 337.36 102.657 338.68 102.117 339.52L103.337 339.92C103.897 339.14 104.597 337.96 105.197 336.86L103.657 336.44ZM101.077 340.96C100.797 341.54 100.257 342.44 99.8567 343.04L101.097 343.42C101.557 342.88 102.117 342.14 102.617 341.38L101.077 340.96ZM90.7967 336.86C91.4567 337.8 92.1767 339.08 92.4567 339.88L93.7967 339.38C93.5167 338.56 92.7767 337.3 92.0767 336.4L90.7967 336.86ZM93.2967 341.28C93.7567 341.94 94.2167 342.84 94.3767 343.4L95.8167 343.02C95.6167 342.44 95.1567 341.58 94.6967 340.94L93.2967 341.28ZM94.9567 350.84C93.6367 351.7 91.0767 352.5 88.9967 352.84C89.2967 353.12 89.7167 353.6 89.9167 353.96C91.9967 353.5 94.6367 352.46 96.0767 351.38L94.9567 350.84ZM99.8367 351.56C101.757 352.24 104.317 353.28 105.637 353.92L106.577 352.98C105.217 352.34 102.637 351.38 100.757 350.74L99.8367 351.56ZM119.117 343.64V352.12C119.117 353.94 119.657 354.42 121.497 354.42C121.877 354.42 124.357 354.42 124.777 354.42C126.557 354.42 126.997 353.48 127.177 350.22C126.757 350.14 126.137 349.88 125.797 349.62C125.697 352.48 125.537 353 124.657 353C124.117 353 122.057 353 121.657 353C120.757 353 120.597 352.86 120.597 352.12V343.64H119.117ZM109.137 340.94V354.56H110.337V342.22H116.597V354.28H117.857V340.94H109.137ZM111.177 348.68V349.88H115.777V348.68H111.177ZM109.637 351.92V353.12H116.857V351.92H109.637ZM108.757 337.06V338.36H118.237V337.06H108.757ZM111.577 337.5V341.88H112.777V337.5H111.577ZM114.157 337.5V341.88H115.397V337.5H114.157ZM111.857 341.86V343.72C111.857 344.76 111.637 345.98 110.317 346.96C110.537 347.08 110.917 347.42 111.077 347.6C112.497 346.52 112.817 344.96 112.817 343.74V341.86H111.857ZM114.237 341.84V345.34C114.237 346.4 114.497 346.64 115.397 346.64C115.557 346.64 116.317 346.64 116.477 346.64C117.097 346.64 117.397 346.42 117.517 345.94C117.197 345.86 116.817 345.74 116.637 345.56C116.597 345.62 116.537 345.62 116.297 345.62C116.157 345.62 115.597 345.62 115.477 345.62C115.237 345.62 115.197 345.6 115.197 345.34V341.84H114.237ZM119.037 337.12V338.54H124.977V343.64H119.377V345.08H126.417V337.12H119.037ZM130.057 338.04V339.38H145.757V338.04H130.057ZM128.917 342.72V344.08H146.757V342.72H128.917ZM132.597 349.2V350.4H143.197V349.2H132.597ZM132.617 352.6V353.88H143.217V352.6H132.617ZM131.677 345.84V354.64H133.177V347.12H142.637V354.58H144.177V345.84H131.677ZM141.517 339.44C141.177 340.48 140.497 342 139.977 342.92L141.357 343.3C141.917 342.4 142.577 341.02 143.157 339.82L141.517 339.44ZM132.777 339.84C133.337 340.78 133.837 342.08 133.977 342.94L135.517 342.54C135.357 341.7 134.837 340.44 134.217 339.52L132.777 339.84ZM136.517 336.34C136.977 337.08 137.397 338.12 137.517 338.78L139.097 338.42C138.937 337.76 138.517 336.78 138.017 336.06L136.517 336.34ZM155.817 337.88V339.02H166.557V337.88H155.817ZM155.357 342.72V343.86H166.977V342.72H155.357ZM155.377 350.14V351.3H167.037V350.14H155.377ZM156.337 340.24V341.36H166.217V340.24H156.337ZM158.257 336.22V343.18H159.637V336.22H158.257ZM162.657 336.22V343.18H164.057V336.22H162.657ZM160.437 343.22V350.5H161.817V343.22H160.437ZM164.417 345.02V353.04C164.417 353.3 164.317 353.36 164.037 353.38C163.777 353.4 162.777 353.4 161.737 353.36C161.937 353.72 162.117 354.24 162.177 354.58C163.637 354.58 164.557 354.6 165.137 354.38C165.677 354.16 165.837 353.78 165.837 353.04V345.02H164.417ZM156.557 345.02V354.62H157.977V346.16H165.017V345.02H156.557ZM157.297 347.6V348.64H164.977V347.6H157.297ZM149.377 342.26V343.46H154.697V342.26H149.377ZM149.377 344.88V346.08H154.697V344.88H149.377ZM148.657 339.6V340.86H155.357V339.6H148.657ZM149.977 347.56V348.82H153.637V352.14H149.977V353.4H154.837V347.56H149.977ZM149.377 347.56V354.34H150.557V347.56H149.377ZM150.637 336.74C151.257 337.56 152.017 338.7 152.357 339.42L153.557 338.62C153.197 337.94 152.417 336.86 151.757 336.08L150.637 336.74ZM170.037 339.22V340.52H174.097V343.46H170.037V344.78H175.457V339.22H170.037ZM170.057 346.62V347.92H174.297V351.36H170.057V352.64H175.637V346.62H170.057ZM169.437 339.22V354H170.797V339.22H169.437ZM176.237 337.26V338.64H186.937V337.26H176.237ZM171.977 336.2C171.777 337.2 171.337 338.66 170.977 339.62L172.157 339.88C172.637 339 173.177 337.62 173.617 336.44L171.977 336.2ZM180.857 337.84V354.58H182.277V337.84H180.857ZM176.997 341.1V351.6H178.377V342.46H185.657V341.1H176.997ZM184.937 341.1V350C184.937 350.2 184.877 350.28 184.657 350.28C184.477 350.28 183.837 350.28 183.077 350.26C183.277 350.64 183.477 351.2 183.517 351.58C184.597 351.58 185.297 351.58 185.757 351.34C186.237 351.1 186.357 350.7 186.357 350.02V341.1H184.937ZM201.297 337.64V352.6H202.677V337.64H201.297ZM204.917 336.62V354.6H206.397V336.62H204.917ZM197.777 336.78V343.78C197.777 347.44 197.517 351.02 195.237 353.94C195.617 354.12 196.237 354.46 196.557 354.72C198.917 351.6 199.197 347.7 199.197 343.8V336.78H197.777ZM189.457 342.26V343.46H195.217V342.26H189.457ZM189.457 344.88V346.08H195.217V344.88H189.457ZM188.637 339.6V340.86H195.897V339.6H188.637ZM190.077 347.56V348.82H194.037V352.14H190.077V353.4H195.337V347.56H190.077ZM189.437 347.56V354.34H190.717V347.56H189.437ZM190.877 336.72C191.417 337.54 192.057 338.68 192.337 339.42L193.537 338.7C193.197 338 192.577 336.94 191.997 336.12L190.877 336.72ZM215.877 338.34V339.66H226.797V338.34H215.877ZM220.617 347.22V354.6H222.057V347.22H220.617ZM220.177 347C219.297 349.12 217.417 351.38 215.597 352.46C215.917 352.74 216.297 353.26 216.497 353.62C218.377 352.32 220.317 349.86 221.277 347.62L220.177 347ZM222.457 347.08L221.517 347.48C222.577 349.64 224.497 352.12 226.057 353.42C226.297 353.08 226.737 352.6 227.077 352.34C225.457 351.24 223.497 349.04 222.457 347.08ZM217.637 342.52H224.957V346.58H217.637V342.52ZM216.417 341.3V347.8H226.257V341.3H216.417ZM218.317 343.32C218.757 344.16 219.157 345.32 219.277 346.08L220.177 345.8C220.037 345.06 219.617 343.94 219.157 343.08L218.317 343.32ZM223.717 342.98C223.497 343.82 223.017 345.08 222.637 345.86L223.417 346.14C223.817 345.4 224.277 344.28 224.697 343.3L223.717 342.98ZM220.597 336.22V341.76H220.677V347.44H221.937V341.76H222.037V336.22H220.597ZM213.577 344.12C214.057 345.52 214.517 347.36 214.677 348.46L215.837 348.1C215.697 347.04 215.197 345.24 214.697 343.84L213.577 344.12ZM211.617 349.2C211.857 350.66 212.077 352.56 212.137 353.8L213.277 353.6C213.197 352.34 212.977 350.48 212.717 349.02L211.617 349.2ZM209.497 349.08C209.297 350.78 208.997 352.68 208.497 353.96C208.837 354.06 209.417 354.24 209.677 354.38C210.097 353.1 210.497 351.1 210.717 349.28L209.497 349.08ZM209.017 343.7C209.017 343.4 209.917 342.94 209.917 342.94V342.92C211.257 341.3 212.617 338.98 213.657 336.72L212.297 336.16C211.477 338.34 210.077 340.66 209.637 341.24C209.237 341.86 208.877 342.26 208.537 342.36C208.717 342.72 208.937 343.4 209.017 343.7ZM209.017 343.7C209.337 343.54 209.897 343.44 213.117 343.06C213.117 342.76 213.157 342.24 213.237 341.88L209.677 342.18L208.977 342.6L209.017 343.7ZM209.137 348.2C209.137 347.9 210.077 347.48 210.077 347.48V347.42C211.957 345.46 213.897 342.68 215.417 339.94L214.137 339.22C212.857 341.92 210.797 344.78 210.137 345.5C209.537 346.24 209.097 346.76 208.677 346.84C208.837 347.22 209.077 347.92 209.137 348.2ZM209.137 348.2C209.557 348 210.197 347.84 215.057 347.14C215.037 346.84 215.057 346.32 215.117 345.94L209.817 346.62L209.097 347.1L209.137 348.2ZM213.557 348.82C213.977 350.04 214.397 351.64 214.557 352.68L215.637 352.36C215.477 351.34 215.017 349.76 214.597 348.54L213.557 348.82ZM73.1367 380.36L71.9567 380.84C72.8967 382.8 74.6367 384.8 76.2967 385.86C76.5167 385.52 76.9767 384.98 77.2967 384.72C75.6767 383.86 73.9767 382.1 73.1367 380.36ZM60.7567 379.38H64.1367V382.9H60.7567V379.38ZM59.4967 378.08V384.18H65.4367V378.08H59.4967ZM62.2167 383.58V392.72H63.5567V383.58H62.2167ZM59.5767 386.1V393.34H60.7767V386.1H59.5767ZM58.5967 393.16L58.9767 394.58C60.9967 394 63.7567 393.26 66.3567 392.52L66.1767 391.2C63.3967 391.94 60.4767 392.72 58.5967 393.16ZM62.7567 386.98V388.32H65.6367V386.98H62.7567ZM66.1567 386.64V387.94H76.6967V386.64H66.1567ZM66.3767 379.72V381.04H76.8167V379.72H66.3767ZM68.5367 383.72V384.96H73.8967V383.72H68.5367ZM68.6767 389.94L68.2367 391.2H74.5767V389.94H68.6767ZM68.6767 387.52C68.3567 388.74 67.9167 390.2 67.5167 391.2H68.9367C69.2767 390.26 69.6967 388.8 70.0567 387.52H68.6767ZM74.1967 389.94L74.1767 390.12C73.9567 392.78 73.6967 393.92 73.2767 394.26C73.0767 394.42 72.8367 394.42 72.3967 394.42C71.8767 394.42 70.4367 394.4 69.0367 394.28C69.3167 394.66 69.5367 395.2 69.5767 395.6C70.8967 395.68 72.1967 395.68 72.8167 395.66C73.5567 395.64 73.9967 395.52 74.4167 395.14C74.9567 394.62 75.2567 393.38 75.5367 390.54C75.5567 390.36 75.5967 389.94 75.5967 389.94H74.1967ZM70.8967 377.48C69.9567 380.56 68.0367 382.92 65.4367 384.38C65.6967 384.68 66.0967 385.38 66.2367 385.7C68.9967 383.98 71.1367 381.3 72.2367 377.8L70.8967 377.48ZM87.0767 378.14V379.44H96.8967V378.14H87.0767ZM89.1567 385.58H94.9167V387.54H89.1567V385.58ZM89.1567 388.64H94.9167V390.62H89.1567V388.64ZM89.1567 382.52H94.9167V384.46H89.1567V382.52ZM87.7967 381.36V391.8H96.3167V381.36H87.7967ZM91.2967 378.78C91.1767 379.7 90.8967 381.08 90.6567 381.98L91.9567 382.24C92.2567 381.4 92.6167 380.14 92.9367 378.98L91.2967 378.78ZM89.8567 392.16C89.1167 393.02 87.5567 394.06 86.1567 394.64C86.4767 394.9 86.9367 395.36 87.1567 395.66C88.5567 395.06 90.1767 393.96 91.1567 392.94L89.8567 392.16ZM92.8367 393.02C93.9567 393.78 95.3567 394.92 96.0167 395.64L97.2167 394.78C96.4567 394.04 95.0567 393 93.9567 392.26L92.8367 393.02ZM79.9967 391.16C81.4167 392.34 83.2367 394.16 84.0967 395.4L85.0767 394.42C84.1367 393.16 82.3167 391.42 80.9167 390.3L79.9967 391.16ZM79.3567 386.58V387.88H85.6967V386.58H79.3567ZM82.8967 377.06C81.9167 379.56 80.1167 382.18 78.4567 383.64C78.7767 384 79.1367 384.58 79.3167 385C81.0567 383.28 82.8767 380.58 84.0167 377.76L82.8967 377.06ZM85.3967 386.58V386.88C84.7967 388.56 83.3367 391.04 82.2367 392.2C82.5367 392.44 82.9767 392.94 83.2167 393.26C84.3967 391.86 85.9367 389.32 86.7767 387.1L85.8167 386.5L85.6167 386.58H85.3967ZM82.2767 379.24C83.6967 380.7 85.4167 382.72 86.2167 384L87.0367 382.82C86.2567 381.6 84.4967 379.66 83.0567 378.26L82.2767 379.24ZM80.6767 383.38V384.7H85.4167V383.38H80.6767ZM98.6767 382.1V383.52H104.037V382.1H98.6767ZM100.797 377.44V390.84H102.197V377.44H100.797ZM98.5367 391.42L99.1167 392.92C100.697 392.14 102.637 391.14 104.477 390.2L104.077 388.86C102.037 389.86 99.9367 390.84 98.5367 391.42ZM104.357 380.18V381.54H116.797V380.18H104.357ZM103.697 391.96L104.097 393.38C106.017 392.84 108.537 392.12 110.957 391.42L110.797 390.14C108.197 390.84 105.477 391.56 103.697 391.96ZM111.057 377.22C111.137 387 111.977 395.6 115.137 395.6C116.397 395.6 116.817 394.74 117.037 392.08C116.717 391.92 116.257 391.62 115.957 391.28C115.897 393.36 115.697 394.16 115.317 394.16C113.597 394.16 112.437 386.68 112.517 377.22H111.057ZM113.297 378C114.177 378.64 115.197 379.56 115.717 380.18L116.617 379.32C116.117 378.72 115.037 377.84 114.177 377.26L113.297 378ZM115.057 383.44C113.837 388.32 111.517 392.16 107.917 394.44C108.237 394.68 108.797 395.18 109.017 395.44C112.617 392.9 115.037 388.92 116.437 383.7L115.057 383.44ZM106.137 384.66H108.737V388.02H106.137V384.66ZM104.957 383.44V389.26H109.957V383.44H104.957ZM120.057 379.04V380.38H135.757V379.04H120.057ZM118.917 383.72V385.08H136.757V383.72H118.917ZM122.597 390.2V391.4H133.197V390.2H122.597ZM122.617 393.6V394.88H133.217V393.6H122.617ZM121.677 386.84V395.64H123.177V388.12H132.637V395.58H134.177V386.84H121.677ZM131.517 380.44C131.177 381.48 130.497 383 129.977 383.92L131.357 384.3C131.917 383.4 132.577 382.02 133.157 380.82L131.517 380.44ZM122.777 380.84C123.337 381.78 123.837 383.08 123.977 383.94L125.517 383.54C125.357 382.7 124.837 381.44 124.217 380.52L122.777 380.84ZM126.517 377.34C126.977 378.08 127.397 379.12 127.517 379.78L129.097 379.42C128.937 378.76 128.517 377.78 128.017 377.06L126.517 377.34ZM138.977 380.12V381.48H148.097V380.12H138.977ZM141.217 382C140.577 383.56 139.557 385.2 138.517 386.32C138.837 386.54 139.377 387.02 139.597 387.24C140.637 386.02 141.777 384.12 142.517 382.4L141.217 382ZM144.717 385.26C143.657 389.12 141.597 392.18 138.597 394.02C138.917 394.28 139.437 394.84 139.657 395.12C142.717 393.04 144.897 389.78 146.137 385.52L144.717 385.26ZM144.517 382.54C145.397 383.64 146.357 385.12 146.737 386.08L147.917 385.4C147.537 384.44 146.537 383 145.637 381.94L144.517 382.54ZM140.577 386.8C142.657 388.84 144.997 391.68 145.977 393.56L147.197 392.6C146.157 390.74 143.757 388 141.697 386L140.577 386.8ZM150.257 380.86V382.26H156.897V380.86H150.257ZM150.717 377.18C150.137 380.74 149.137 384.16 147.517 386.36C147.817 386.62 148.337 387.2 148.537 387.48C150.277 385.04 151.437 381.34 152.137 377.4L150.717 377.18ZM154.397 381.74C153.517 388.2 151.477 392.28 146.637 394.54C146.957 394.82 147.477 395.38 147.657 395.68C152.597 393.1 154.817 388.82 155.837 381.92L154.397 381.74ZM150.457 383.44L149.177 383.74C150.317 389.06 152.457 393.46 156.097 395.6C156.337 395.22 156.817 394.68 157.157 394.38C153.637 392.56 151.457 388.3 150.457 383.44ZM141.857 377.68C142.437 378.46 143.057 379.52 143.337 380.22L144.657 379.64C144.357 378.96 143.717 377.94 143.097 377.18L141.857 377.68ZM174.637 377.6C173.497 379.22 171.417 380.9 169.657 381.9C170.057 382.16 170.497 382.6 170.757 382.92C172.617 381.78 174.677 380 176.037 378.18L174.637 377.6ZM175.297 383.02C174.037 384.74 171.697 386.52 169.677 387.54C170.057 387.82 170.497 388.26 170.737 388.6C172.857 387.42 175.197 385.54 176.657 383.6L175.297 383.02ZM175.697 388.8C174.317 391.08 171.717 393.16 169.077 394.34C169.457 394.64 169.877 395.14 170.117 395.48C172.897 394.12 175.517 391.88 177.077 389.32L175.697 388.8ZM158.997 384.64V385.86H169.697V384.64H158.997ZM161.557 387.96H167.317V389.62H161.557V387.96ZM160.157 386.88V390.7H168.757V386.88H160.157ZM166.157 391.6C166.857 392.56 167.637 393.82 167.977 394.62L169.117 394.02C168.757 393.26 167.937 392.02 167.237 391.12L166.157 391.6ZM161.417 381.12H167.517V382.34H161.417V381.12ZM161.417 378.94H167.517V380.14H161.417V378.94ZM159.997 377.92V383.38H168.997V377.92H159.997ZM163.677 390.14V394C163.677 394.18 163.637 394.26 163.397 394.26C163.177 394.28 162.497 394.28 161.677 394.26C161.857 394.62 162.057 395.12 162.137 395.5C163.257 395.5 164.017 395.5 164.517 395.28C165.017 395.08 165.137 394.74 165.137 394.02V390.14H163.677ZM160.897 391.16C160.457 392.2 159.737 393.26 158.937 394.02C159.257 394.22 159.777 394.62 159.997 394.82C160.797 394 161.677 392.7 162.177 391.52L160.897 391.16ZM163.217 383.74C163.517 384.24 163.857 384.96 163.997 385.42L165.437 385.06C165.297 384.58 164.937 383.88 164.617 383.42L163.217 383.74ZM187.217 378.64V379.82H192.137V378.64H187.217ZM186.297 382.6H194.357V384.6H186.297V382.6ZM184.977 381.44V385.74H195.757V381.44H184.977ZM188.277 386.48C191.217 388.7 191.397 392.9 190.377 393.86C190.097 394.2 189.757 394.24 189.337 394.24C188.997 394.24 188.517 394.22 187.977 394.16C188.217 394.52 188.317 395.1 188.357 395.46C188.817 395.5 189.257 395.52 189.637 395.5C190.377 395.5 190.877 395.36 191.417 394.8C192.897 393.44 192.697 388.4 189.297 385.86L188.277 386.48ZM189.617 387.64C188.237 388.92 185.617 390.22 183.577 390.82C183.837 391.06 184.217 391.52 184.397 391.82C186.437 391.08 189.117 389.56 190.557 388.12L189.617 387.64ZM190.597 389.62C189.057 391.3 186.017 392.92 183.437 393.68C183.737 393.92 184.117 394.4 184.337 394.74C186.877 393.86 189.957 392.04 191.617 390.12L190.597 389.62ZM187.537 377.22C186.697 378.9 185.117 381.04 182.937 382.58C183.237 382.8 183.657 383.26 183.857 383.56C186.217 381.78 187.877 379.52 188.957 377.48L187.537 377.22ZM191.617 378.64V378.9C191.217 379.72 190.437 380.9 189.757 381.6C189.997 381.8 190.377 382.18 190.557 382.44C191.397 381.62 192.397 380.36 193.057 379.2L192.197 378.56L191.917 378.64H191.617ZM183.077 377.28C182.017 380.3 180.277 383.3 178.417 385.26C178.677 385.62 179.117 386.4 179.277 386.74C181.337 384.48 183.257 381.1 184.497 377.72L183.077 377.28ZM180.997 382.6V395.54H182.437V381.2L182.417 381.18L180.997 382.6ZM189.617 381.88V385.12H190.977V381.88H189.617ZM189.157 385C187.837 386.24 185.317 387.54 183.337 388.14C183.617 388.38 183.977 388.82 184.157 389.12C186.137 388.4 188.697 386.9 190.117 385.48L189.157 385ZM194.937 386.18C193.857 386.94 191.997 388.02 190.677 388.62L191.457 389.44C192.797 388.88 194.617 387.98 195.977 387.12L194.937 386.18ZM193.617 387.98L192.457 388.28C193.157 390.72 194.477 393.08 196.157 394.28C196.377 393.92 196.817 393.4 197.137 393.14C195.557 392.18 194.257 390.1 193.617 387.98ZM206.217 379.88V381.28H216.837V379.88H206.217ZM206.817 384.44V385.84H216.297V384.44H206.817ZM208.017 393.36V394.74H215.017V393.36H208.017ZM210.617 377.2V385.18H212.137V377.2H210.617ZM207.217 387.92V395.6H208.617V389.3H214.257V395.52H215.717V387.92H207.217ZM203.697 385.1C204.237 386.48 204.777 388.26 204.977 389.36L206.197 388.94C205.977 387.88 205.397 386.12 204.837 384.78L203.697 385.1ZM201.757 390.24C202.017 391.68 202.237 393.56 202.277 394.8L203.497 394.56C203.417 393.32 203.177 391.48 202.897 390.04L201.757 390.24ZM199.497 390.08C199.297 391.74 199.017 393.6 198.517 394.86C198.857 394.96 199.457 395.16 199.737 395.3C200.137 394.04 200.537 392.08 200.757 390.3L199.497 390.08ZM199.017 384.7C199.017 384.4 199.937 383.94 199.937 383.94V383.92C201.317 382.3 202.717 379.98 203.817 377.74L202.437 377.14C201.577 379.34 200.137 381.64 199.677 382.24C199.257 382.84 198.897 383.26 198.537 383.34C198.697 383.72 198.937 384.4 199.017 384.7ZM199.017 384.7C199.337 384.54 199.897 384.44 203.117 384.06C203.117 383.76 203.157 383.24 203.237 382.88L199.677 383.18L198.977 383.6L199.017 384.7ZM199.137 389.2C199.137 388.9 200.077 388.46 200.077 388.46V388.42C202.017 386.5 203.997 383.76 205.577 381.06L204.297 380.3C202.957 382.98 200.837 385.8 200.177 386.5C199.557 387.24 199.097 387.74 198.657 387.82C198.837 388.22 199.077 388.9 199.137 389.2ZM199.137 389.2C199.557 389 200.217 388.84 205.217 388.12C205.197 387.8 205.217 387.26 205.277 386.9L199.837 387.6L199.097 388.08L199.137 389.2ZM203.817 389.86C204.257 391.1 204.737 392.74 204.937 393.8L206.057 393.42C205.857 392.38 205.357 390.76 204.877 389.52L203.817 389.86ZM222.797 383.74V385.14H232.897V383.74H222.797ZM222.437 393.04V394.46H233.157V393.04H222.437ZM221.757 387.54V395.56H223.257V388.9H232.597V395.5H234.177V387.54H221.757ZM228.157 377.16C226.117 380.26 222.437 382.92 218.617 384.42C219.037 384.78 219.457 385.34 219.717 385.74C223.577 384.04 227.257 381.16 229.477 377.82L228.157 377.16ZM228.457 378.32L227.177 378.98C229.837 382.02 232.737 383.92 236.157 385.56C236.377 385.1 236.817 384.54 237.197 384.2C233.837 382.78 230.897 381.02 228.457 378.32Z" fill="white"/>
<line x1="128.837" y1="244" x2="167.837" y2="244" stroke="#FF8E30" stroke-width="6"/>
<path d="M85.6355 204.293C85.6355 203.424 85.8015 202.608 86.1335 201.847C86.4656 201.085 86.9148 200.421 87.4812 199.854C88.0574 199.278 88.7263 198.824 89.488 198.492C90.2498 198.16 91.0652 197.994 91.9343 197.994H101.573V202.198H91.9343C91.6414 202.198 91.3679 202.252 91.114 202.359C90.8601 202.467 90.6355 202.618 90.4402 202.813C90.2546 202.999 90.1082 203.219 90.0007 203.473C89.8933 203.727 89.8396 204 89.8396 204.293C89.8396 204.586 89.8933 204.864 90.0007 205.128C90.1082 205.382 90.2546 205.606 90.4402 205.802C90.6355 205.987 90.8601 206.134 91.114 206.241C91.3679 206.349 91.6414 206.402 91.9343 206.402H96.1384C97.0076 206.402 97.823 206.568 98.5847 206.9C99.3562 207.223 100.025 207.672 100.592 208.248C101.168 208.814 101.617 209.483 101.939 210.255C102.271 211.017 102.437 211.832 102.437 212.701C102.437 213.57 102.271 214.386 101.939 215.147C101.617 215.909 101.168 216.578 100.592 217.154C100.025 217.721 99.3562 218.17 98.5847 218.502C97.823 218.834 97.0076 219 96.1384 219H86.8074V214.796H96.1384C96.4314 214.796 96.7048 214.742 96.9587 214.635C97.2126 214.527 97.4324 214.381 97.6179 214.195C97.8132 214 97.9646 213.775 98.072 213.521C98.1794 213.268 98.2332 212.994 98.2332 212.701C98.2332 212.408 98.1794 212.135 98.072 211.881C97.9646 211.627 97.8132 211.407 97.6179 211.222C97.4324 211.026 97.2126 210.875 96.9587 210.768C96.7048 210.66 96.4314 210.606 96.1384 210.606H91.9343C91.0652 210.606 90.2498 210.44 89.488 210.108C88.7263 209.776 88.0574 209.327 87.4812 208.761C86.9148 208.185 86.4656 207.516 86.1335 206.754C85.8015 205.982 85.6355 205.162 85.6355 204.293ZM109.41 219H105.206V197.994H109.41V208.497L117.232 197.994H122.008L115.372 206.856L122.008 219H117.232L112.618 210.504L109.41 214.796V219ZM128.16 219H123.956V197.994H128.16V219ZM146.778 219H132.071V197.994H136.275V214.796H146.778V219ZM163.682 219H148.975V197.994H153.179V214.796H163.682V219ZM186.373 208.497C186.373 206.163 185.982 204.43 185.201 203.297C184.429 202.164 183.35 201.598 181.964 201.598C180.587 201.598 179.517 202.159 178.756 203.282C177.994 204.405 177.613 206.144 177.613 208.497C177.613 210.831 177.994 212.564 178.756 213.697C179.517 214.83 180.587 215.396 181.964 215.396C182.657 215.396 183.277 215.26 183.824 214.986C184.371 214.703 184.83 214.278 185.201 213.712C185.582 213.146 185.87 212.433 186.065 211.573C186.27 210.704 186.373 209.679 186.373 208.497ZM190.372 208.497C190.372 210.489 190.152 212.174 189.713 213.551C189.273 214.928 188.673 216.041 187.911 216.891C187.149 217.74 186.256 218.355 185.23 218.736C184.215 219.107 183.126 219.293 181.964 219.293C180.802 219.293 179.708 219.103 178.682 218.722C177.667 218.331 176.778 217.711 176.016 216.861C175.264 216.002 174.669 214.889 174.229 213.521C173.79 212.145 173.57 210.47 173.57 208.497C173.57 206.505 173.79 204.825 174.229 203.458C174.669 202.081 175.264 200.968 176.016 200.118C176.778 199.269 177.667 198.653 178.682 198.272C179.708 197.892 180.802 197.701 181.964 197.701C183.126 197.701 184.215 197.896 185.23 198.287C186.256 198.668 187.149 199.288 187.911 200.147C188.673 201.007 189.273 202.12 189.713 203.487C190.152 204.854 190.372 206.524 190.372 208.497ZM207.613 204.293C207.613 205.162 207.447 205.982 207.115 206.754C206.783 207.516 206.329 208.185 205.753 208.761C205.186 209.327 204.522 209.776 203.76 210.108C202.999 210.44 202.183 210.606 201.314 210.606H199.205C198.912 210.606 198.638 210.66 198.385 210.768C198.131 210.875 197.906 211.026 197.711 211.222C197.525 211.407 197.379 211.627 197.271 211.881C197.164 212.135 197.11 212.408 197.11 212.701V214.796H207.042V219H192.906V212.701C192.906 211.832 193.072 211.017 193.404 210.255C193.736 209.483 194.185 208.814 194.752 208.248C195.328 207.672 195.997 207.223 196.759 206.9C197.52 206.568 198.336 206.402 199.205 206.402H201.314C201.607 206.402 201.881 206.349 202.135 206.241C202.388 206.134 202.608 205.987 202.794 205.802C202.989 205.606 203.14 205.382 203.248 205.128C203.355 204.864 203.409 204.586 203.409 204.293C203.409 204 203.355 203.727 203.248 203.473C203.14 203.219 202.989 202.999 202.794 202.813C202.608 202.618 202.388 202.467 202.135 202.359C201.881 202.252 201.607 202.198 201.314 202.198H193.814V197.994H201.314C202.183 197.994 202.999 198.16 203.76 198.492C204.522 198.824 205.186 199.278 205.753 199.854C206.329 200.421 206.783 201.085 207.115 201.847C207.447 202.608 207.613 203.424 207.613 204.293Z" fill="#FF8E30"/>
<defs>
<linearGradient id="paint0_linear_16_1187" x1="148.337" y1="0" x2="148.337" y2="157" gradientUnits="userSpaceOnUse">
<stop stop-color="white"/>
<stop offset="0.505208" stop-color="#FF8E30"/>
<stop offset="1" stop-color="white"/>
</linearGradient>
</defs>
</svg>
