<svg width="70" height="18" viewBox="0 0 70 18" fill="none" xmlns="http://www.w3.org/2000/svg">
<path d="M3.92188 3.55859V2.55859H2.92188V3.55859H3.92188ZM3.92188 10.2852H2.92188V11.2852H3.92188V10.2852ZM8.58594 10.0273L8.97558 10.9483L8.98304 10.9452L8.99044 10.9419L8.58594 10.0273ZM10.3672 8.23438L9.4498 7.83626L9.44622 7.84474L10.3672 8.23438ZM10.3672 5.62109L9.4436 6.00447L9.448 6.01509L9.45265 6.0256L10.3672 5.62109ZM8.58594 3.82812L8.18143 4.74266L8.18884 4.74594L8.1963 4.74909L8.58594 3.82812ZM3.92188 17V18H4.92188V17H3.92188ZM0.558594 17H-0.441406V18H0.558594V17ZM0.558594 0.195312V-0.804688H-0.441406V0.195312H0.558594ZM9.06641 0.441406L8.78992 1.40251L8.80217 1.40586L9.06641 0.441406ZM10.6602 1.12109L10.1437 1.97739L10.1516 1.98218L10.1597 1.98683L10.6602 1.12109ZM12.0195 2.17578L11.3057 2.87612L11.3124 2.88292L11.3192 2.88959L12.0195 2.17578ZM13.0742 3.53516L12.2084 4.03569L12.2144 4.0457L13.0742 3.53516ZM13.7539 5.14062L12.7894 5.40488L12.7929 5.41708L13.7539 5.14062ZM13.4727 9.53516L14.3904 9.93227L14.3918 9.92908L13.4727 9.53516ZM9.88672 13.1094L9.4928 12.1902L9.48961 12.1916L9.88672 13.1094ZM3.92188 13.6367V12.6367H2.92188V13.6367H3.92188ZM2.92188 3.55859V10.2852H4.92188V3.55859H2.92188ZM3.92188 11.2852H7.28516V9.28516H3.92188V11.2852ZM7.28516 11.2852C7.87382 11.2852 8.44052 11.1747 8.97558 10.9483L8.1963 9.10638C7.91885 9.22376 7.61836 9.28516 7.28516 9.28516V11.2852ZM8.99044 10.9419C9.50594 10.7139 9.96485 10.4025 10.3595 10.0079L8.94524 8.59367C8.73046 8.80845 8.47844 8.98144 8.18143 9.11281L8.99044 10.9419ZM10.3595 10.0079C10.7574 9.60995 11.0673 9.146 11.2882 8.62401L9.44622 7.84474C9.32331 8.13525 9.15668 8.38223 8.94524 8.59367L10.3595 10.0079ZM11.2845 8.63247C11.5199 8.09006 11.6367 7.51679 11.6367 6.92188H9.63672C9.63672 7.24884 9.57383 7.55056 9.44984 7.83628L11.2845 8.63247ZM11.6367 6.92188C11.6367 6.32699 11.5199 5.75507 11.2817 5.21659L9.45265 6.0256C9.57385 6.29962 9.63672 6.59489 9.63672 6.92188H11.6367ZM11.2908 5.23772C11.0707 4.70759 10.7606 4.23697 10.3595 3.83586L8.94524 5.25008C9.1535 5.45834 9.3199 5.70647 9.4436 6.00447L11.2908 5.23772ZM10.3595 3.83586C9.96152 3.43793 9.49756 3.128 8.97558 2.90716L8.1963 4.74909C8.48682 4.872 8.7338 5.03863 8.94524 5.25008L10.3595 3.83586ZM8.99044 2.91359C8.45196 2.67542 7.88004 2.55859 7.28516 2.55859V4.55859C7.61215 4.55859 7.90741 4.62146 8.18143 4.74266L8.99044 2.91359ZM7.28516 2.55859H3.92188V4.55859H7.28516V2.55859ZM3.92188 16H0.558594V18H3.92188V16ZM1.55859 17V0.195312H-0.441406V17H1.55859ZM0.558594 1.19531H7.28516V-0.804688H0.558594V1.19531ZM7.28516 1.19531C7.81258 1.19531 8.31306 1.26524 8.78995 1.40243L9.34287 -0.519619C8.67913 -0.710556 7.99211 -0.804688 7.28516 -0.804688V1.19531ZM8.80217 1.40586C9.2864 1.53853 9.73244 1.72935 10.1437 1.97739L11.1766 0.264802C10.6035 -0.0809078 9.98704 -0.343216 9.33064 -0.523052L8.80217 1.40586ZM10.1597 1.98683C10.5811 2.23045 10.9625 2.52629 11.3057 2.87612L12.7333 1.47544C12.2641 0.997147 11.7393 0.58986 11.1607 0.255359L10.1597 1.98683ZM11.3192 2.88959C11.669 3.23282 11.9649 3.61426 12.2085 4.03566L13.94 3.03465C13.6055 2.45606 13.1982 1.93124 12.7199 1.46197L11.3192 2.88959ZM12.2144 4.0457C12.4647 4.46735 12.6565 4.91949 12.7894 5.40486L14.7184 4.87639C14.5388 4.22114 14.2775 3.60297 13.9341 3.02462L12.2144 4.0457ZM12.7929 5.41708C12.9301 5.89398 13 6.39445 13 6.92188H15C15 6.21492 14.9059 5.5279 14.7149 4.86417L12.7929 5.41708ZM13 6.92188C13 7.71289 12.85 8.44953 12.5535 9.14124L14.3918 9.92908C14.7985 8.98016 15 7.97461 15 6.92188H13ZM12.5549 9.13804C12.252 9.83808 11.8419 10.4431 11.3241 10.9609L12.7384 12.3751C13.4393 11.6741 13.9902 10.8572 14.3904 9.93227L12.5549 9.13804ZM11.3241 10.9609C10.8079 11.4771 10.2004 11.887 9.4928 12.1902L10.2806 14.0285C11.2136 13.6287 12.0358 13.0776 12.7384 12.3751L11.3241 10.9609ZM9.48961 12.1916C8.80766 12.4867 8.0762 12.6367 7.28516 12.6367V14.6367C8.33786 14.6367 9.34078 14.4352 10.2838 14.0271L9.48961 12.1916ZM7.28516 12.6367H3.92188V14.6367H7.28516V12.6367ZM2.92188 13.6367V17H4.92188V13.6367H2.92188ZM29.2311 10.2852V11.2852H30.2311V10.2852H29.2311ZM28.9616 5.62109L28.038 6.00447L28.0424 6.01509L28.047 6.0256L28.9616 5.62109ZM27.1686 3.82812L26.7641 4.74266L26.7746 4.74731L26.7852 4.75172L27.1686 3.82812ZM24.5553 3.82812L24.945 4.74913L24.9534 4.74547L24.5553 3.82812ZM22.7623 5.62109L21.845 5.22298L21.8414 5.23145L22.7623 5.62109ZM22.5045 10.2852H21.5045V11.2852H22.5045V10.2852ZM32.5944 17V18H33.5944V17H32.5944ZM29.2311 17H28.2311V18H29.2311V17ZM29.2311 13.6367H30.2311V12.6367H29.2311V13.6367ZM22.5045 13.6367V12.6367H21.5045V13.6367H22.5045ZM22.5045 17V18H23.5045V17H22.5045ZM19.153 17H18.153V18H19.153V17ZM19.6803 4.30859L20.5981 4.70571L20.5995 4.70251L19.6803 4.30859ZM21.11 2.16406L20.4029 1.45694L20.3983 1.46153L21.11 2.16406ZM23.2428 0.722656L22.8489 -0.196494L22.8457 -0.195114L23.2428 0.722656ZM28.4811 0.722656L28.084 1.64043L28.0872 1.6418L28.4811 0.722656ZM32.067 4.30859L31.1479 4.70252L31.1493 4.70571L32.067 4.30859ZM30.2311 10.2852V6.92188H28.2311V10.2852H30.2311ZM30.2311 6.92188C30.2311 6.32699 30.1143 5.75507 29.8761 5.21659L28.047 6.0256C28.1682 6.29962 28.2311 6.59489 28.2311 6.92188H30.2311ZM29.8852 5.23772C29.6651 4.70759 29.3549 4.23697 28.9538 3.83586L27.5396 5.25008C27.7479 5.45834 27.9143 5.70647 28.038 6.00447L29.8852 5.23772ZM28.9538 3.83586C28.5527 3.43475 28.0821 3.12459 27.552 2.90453L26.7852 4.75172C27.0832 4.87541 27.3313 5.04181 27.5396 5.25008L28.9538 3.83586ZM27.5731 2.91359C27.0346 2.67542 26.4627 2.55859 25.8678 2.55859V4.55859C26.1948 4.55859 26.4901 4.62146 26.7641 4.74266L27.5731 2.91359ZM25.8678 2.55859C25.2729 2.55859 24.6996 2.6754 24.1572 2.91078L24.9534 4.74547C25.2391 4.62148 25.5409 4.55859 25.8678 4.55859V2.55859ZM24.1657 2.90716C23.6437 3.128 23.1797 3.43793 22.7818 3.83586L24.196 5.25008C24.4075 5.03863 24.6544 4.872 24.945 4.74909L24.1657 2.90716ZM22.7818 3.83586C22.384 4.23361 22.0723 4.6992 21.845 5.223L23.6797 6.01919C23.8118 5.71486 23.9844 5.4617 24.196 5.25008L22.7818 3.83586ZM21.8414 5.23145C21.615 5.76651 21.5045 6.33321 21.5045 6.92188H23.5045C23.5045 6.58867 23.5659 6.28818 23.6833 6.01073L21.8414 5.23145ZM21.5045 6.92188V10.2852H23.5045V6.92188H21.5045ZM22.5045 11.2852H29.2311V9.28516H22.5045V11.2852ZM32.5944 16H29.2311V18H32.5944V16ZM30.2311 17V13.6367H28.2311V17H30.2311ZM29.2311 12.6367H22.5045V14.6367H29.2311V12.6367ZM21.5045 13.6367V17H23.5045V13.6367H21.5045ZM22.5045 16H19.153V18H22.5045V16ZM20.153 17V6.92188H18.153V17H20.153ZM20.153 6.92188C20.153 6.12181 20.3035 5.38659 20.5981 4.70571L18.7625 3.91148C18.354 4.8556 18.153 5.86257 18.153 6.92188H20.153ZM20.5995 4.70251C20.9039 3.9922 21.3116 3.38323 21.8217 2.86659L20.3983 1.46153C19.7052 2.16364 19.1599 2.98436 18.7612 3.91467L20.5995 4.70251ZM21.8171 2.87117C22.3349 2.35337 22.9399 1.94333 23.6399 1.64043L22.8457 -0.195114C21.9207 0.205112 21.1038 0.756002 20.4029 1.45696L21.8171 2.87117ZM23.6367 1.6418C24.3274 1.34581 25.0678 1.19531 25.8678 1.19531V-0.804688C24.8085 -0.804688 23.7989 -0.603623 22.8489 -0.196489L23.6367 1.6418ZM25.8678 1.19531C26.6679 1.19531 27.4031 1.34581 28.084 1.64043L28.8782 -0.195114C27.9341 -0.603626 26.9271 -0.804688 25.8678 -0.804688V1.19531ZM28.0872 1.6418C28.7948 1.94507 29.4023 2.35496 29.9185 2.87117L31.3327 1.45696C30.6302 0.754417 29.808 0.20337 28.875 -0.196489L28.0872 1.6418ZM29.9185 2.87117C30.4347 3.38738 30.8446 3.99489 31.1479 4.70251L32.9862 3.91467C32.5863 2.98167 32.0353 2.15949 31.3327 1.45696L29.9185 2.87117ZM31.1493 4.70571C31.4439 5.38659 31.5944 6.12181 31.5944 6.92188H33.5944C33.5944 5.86257 33.3933 4.8556 32.9848 3.91148L31.1493 4.70571ZM31.5944 6.92188V17H33.5944V6.92188H31.5944ZM52.2434 15.3008L52.8911 16.0627L53.2434 15.7632V15.3008H52.2434ZM49.6302 16.8359L49.9737 17.7751L49.9804 17.7726L49.6302 16.8359ZM44.3216 17.0469L44.595 16.0849L44.5882 16.0831L44.3216 17.0469ZM42.2591 16.1797L41.7461 17.0381L41.7539 17.0427L42.2591 16.1797ZM40.5013 14.8203L39.7941 15.5274L39.7994 15.5326L40.5013 14.8203ZM39.1419 13.0625L38.2762 13.5631L38.2789 13.5677L39.1419 13.0625ZM38.263 10.9766L37.2984 11.2406L37.3011 11.2499L38.263 10.9766ZM38.263 6.37109L37.3018 6.09501L37.2992 6.10451L38.263 6.37109ZM39.1419 4.30859L40.0049 4.81378L40.0075 4.80922L39.1419 4.30859ZM40.5013 2.55078L41.2031 3.26313L41.2084 3.25789L40.5013 2.55078ZM44.3216 0.324219L44.5882 1.28805L44.5949 1.28612L44.3216 0.324219ZM49.6302 0.546875L49.2799 1.48354L49.2866 1.486L49.6302 0.546875ZM52.2434 2.07031L53.1009 2.58481L53.5373 1.85761L52.8911 1.30837L52.2434 2.07031ZM50.4856 5L49.7731 5.70169L50.679 6.62144L51.3431 5.5145L50.4856 5ZM48.7278 3.79297L48.3197 4.70594L48.3287 4.70987L48.7278 3.79297ZM44.5559 3.76953L44.158 2.8521L44.1539 2.85389L44.5559 3.76953ZM42.8684 4.91797L43.5698 5.63082L43.5755 5.62508L42.8684 4.91797ZM41.72 6.60547L42.6357 7.00746L42.6374 7.00339L41.72 6.60547ZM44.5559 13.6016L44.1539 14.5172L44.158 14.519L44.5559 13.6016ZM48.9973 13.4492L49.4446 14.3436L49.9973 14.0673V13.4492H48.9973ZM48.9973 8.66797V7.66797H47.9973V8.66797H48.9973ZM52.2434 8.66797H53.2434V7.66797H52.2434V8.66797ZM51.5958 14.5388C50.9028 15.1278 50.1324 15.5805 49.2799 15.8993L49.9804 17.7726C51.0498 17.3727 52.0215 16.8018 52.8911 16.0627L51.5958 14.5388ZM49.2866 15.8968C48.4374 16.2075 47.5539 16.3633 46.6302 16.3633V18.3633C47.7846 18.3633 48.901 18.1675 49.9737 17.7751L49.2866 15.8968ZM46.6302 16.3633C45.9227 16.3633 45.2453 16.2698 44.5949 16.085L44.0482 18.0088C44.8822 18.2458 45.7439 18.3633 46.6302 18.3633V16.3633ZM44.5882 16.0831C43.9351 15.9024 43.3281 15.6467 42.7642 15.3167L41.7539 17.0427C42.4713 17.4627 43.2393 17.7851 44.055 18.0107L44.5882 16.0831ZM42.772 15.3213C42.1999 14.9794 41.6774 14.5753 41.2031 14.108L39.7994 15.5326C40.3876 16.1122 41.037 16.6143 41.7461 17.0381L42.772 15.3213ZM41.2084 14.1132C40.7367 13.6416 40.3362 13.1234 40.0049 12.5573L38.2789 13.5677C38.6975 14.2829 39.2033 14.9365 39.7941 15.5274L41.2084 14.1132ZM40.0075 12.5619C39.6751 11.987 39.4139 11.3683 39.2249 10.7032L37.3011 11.2499C37.5339 12.0692 37.8586 12.8411 38.2762 13.5631L40.0075 12.5619ZM39.2275 10.7126C39.0487 10.0594 38.9583 9.37885 38.9583 8.66797H36.9583C36.9583 9.55083 37.0709 10.4093 37.2984 11.2405L39.2275 10.7126ZM38.9583 8.66797C38.9583 7.95704 39.0488 7.28133 39.2268 6.63768L37.2992 6.10451C37.0709 6.92961 36.9583 7.78515 36.9583 8.66797H38.9583ZM39.2241 6.64717C39.4127 5.99059 39.6732 5.38033 40.0049 4.81377L38.2789 3.80341C37.8605 4.51811 37.5351 5.28285 37.3018 6.09502L39.2241 6.64717ZM40.0075 4.80922C40.3379 4.23803 40.736 3.72336 41.2031 3.26311L39.7994 1.83846C39.204 2.42508 38.6959 3.08229 38.2762 3.80797L40.0075 4.80922ZM41.2084 3.25789C41.68 2.78628 42.1982 2.38576 42.7642 2.05442L41.7539 0.328392C41.0387 0.747051 40.385 1.25279 39.7941 1.84367L41.2084 3.25789ZM42.7642 2.05442C43.3281 1.72437 43.9351 1.46866 44.5882 1.28803L44.055 -0.639592C43.2393 -0.413969 42.4713 -0.0915589 41.7539 0.328392L42.7642 2.05442ZM44.5949 1.28612C45.2453 1.10128 45.9227 1.00781 46.6302 1.00781V-0.992188C45.7439 -0.992188 44.8822 -0.874719 44.0482 -0.637686L44.5949 1.28612ZM46.6302 1.00781C47.5512 1.00781 48.4324 1.16658 49.2799 1.48352L49.9804 -0.389767C48.906 -0.791584 47.7873 -0.992188 46.6302 -0.992188V1.00781ZM49.2866 1.486C50.1362 1.79685 50.9044 2.2446 51.5958 2.83225L52.8911 1.30837C52.0199 0.567901 51.0459 2.24113e-05 49.9737 -0.392248L49.2866 1.486ZM51.3859 1.55582L49.6281 4.4855L51.3431 5.5145L53.1009 2.58481L51.3859 1.55582ZM51.1981 4.29831C50.6005 3.6915 49.9082 3.21613 49.1269 2.87607L48.3287 4.70987C48.8756 4.94793 49.3551 5.27725 49.7731 5.70169L51.1981 4.29831ZM49.1359 2.88004C48.3422 2.5252 47.5038 2.34766 46.6302 2.34766V4.34766C47.2253 4.34766 47.7853 4.46699 48.3197 4.70589L49.1359 2.88004ZM46.6302 2.34766C45.7643 2.34766 44.937 2.51426 44.158 2.85211L44.9539 4.68695C45.4718 4.46231 46.0272 4.34766 46.6302 4.34766V2.34766ZM44.1539 2.85389C43.402 3.184 42.7355 3.63672 42.1613 4.21086L43.5755 5.62508C43.9702 5.23046 44.4286 4.91756 44.9579 4.68517L44.1539 2.85389ZM42.1671 4.20514C41.5875 4.77543 41.1329 5.44606 40.8026 6.20755L42.6374 7.00339C42.8696 6.46801 43.1807 6.01364 43.5698 5.6308L42.1671 4.20514ZM40.8044 6.20348C40.4647 6.97708 40.2981 7.80221 40.2981 8.66797H42.2981C42.2981 8.06498 42.4128 7.5151 42.6356 7.00746L40.8044 6.20348ZM40.2981 8.66797C40.2981 9.54006 40.4641 10.3715 40.8026 11.1518L42.6374 10.356C42.4134 9.83939 42.2981 9.28025 42.2981 8.66797H40.2981ZM40.8026 11.1518C41.1322 11.9119 41.5852 12.5841 42.1613 13.1602L43.5755 11.746C43.1829 11.3534 42.8703 10.8928 42.6374 10.356L40.8026 11.1518ZM42.1613 13.1602C42.7355 13.7344 43.402 14.1871 44.1539 14.5172L44.9579 12.6859C44.4286 12.4535 43.9702 12.1406 43.5755 11.746L42.1613 13.1602ZM44.158 14.519C44.937 14.8568 45.7643 15.0234 46.6302 15.0234V13.0234C46.0272 13.0234 45.4718 12.9088 44.9539 12.6841L44.158 14.519ZM46.6302 15.0234C47.1332 15.0234 47.6264 14.9628 48.1076 14.8401L47.6136 12.9021C47.298 12.9825 46.9709 13.0234 46.6302 13.0234V15.0234ZM48.1076 14.8401C48.5737 14.7213 49.0198 14.556 49.4446 14.3436L48.5501 12.5548C48.2561 12.7018 47.9445 12.8177 47.6136 12.9021L48.1076 14.8401ZM49.9973 13.4492V8.66797H47.9973V13.4492H49.9973ZM48.9973 9.66797H52.2434V7.66797H48.9973V9.66797ZM51.2434 8.66797V15.3008H53.2434V8.66797H51.2434ZM69.7128 17V18H70.7128V17H69.7128ZM58.1933 17H57.1933V18H58.1933V17ZM58.1933 0.195312V-0.804688H57.1933V0.195312H58.1933ZM69.7128 0.195312H70.7128V-0.804688H69.7128V0.195312ZM69.7128 3.55859V4.55859H70.7128V3.55859H69.7128ZM61.5566 3.55859V2.55859H60.5566V3.55859H61.5566ZM61.5566 6.92188H60.5566V7.92188H61.5566V6.92188ZM67.0761 6.92188H68.0761V5.92188H67.0761V6.92188ZM67.0761 10.2852V11.2852H68.0761V10.2852H67.0761ZM61.5566 10.2852V9.28516H60.5566V10.2852H61.5566ZM61.5566 13.6367H60.5566V14.6367H61.5566V13.6367ZM69.7128 13.6367H70.7128V12.6367H69.7128V13.6367ZM69.7128 16H58.1933V18H69.7128V16ZM59.1933 17V0.195312H57.1933V17H59.1933ZM58.1933 1.19531H69.7128V-0.804688H58.1933V1.19531ZM68.7128 0.195312V3.55859H70.7128V0.195312H68.7128ZM69.7128 2.55859H61.5566V4.55859H69.7128V2.55859ZM60.5566 3.55859V6.92188H62.5566V3.55859H60.5566ZM61.5566 7.92188H67.0761V5.92188H61.5566V7.92188ZM66.0761 6.92188V10.2852H68.0761V6.92188H66.0761ZM67.0761 9.28516H61.5566V11.2852H67.0761V9.28516ZM60.5566 10.2852V13.6367H62.5566V10.2852H60.5566ZM61.5566 14.6367H69.7128V12.6367H61.5566V14.6367ZM68.7128 13.6367V17H70.7128V13.6367H68.7128Z" fill="#FF8E30"/>
</svg>
