<svg width="275" height="70" viewBox="0 0 275 70" fill="none" xmlns="http://www.w3.org/2000/svg">
<rect x="39.5" y="12.5" width="235" height="45" rx="22.5" fill="url(#paint0_linear_31_190)" stroke="url(#paint1_linear_31_190)"/>
<circle cx="35" cy="35" r="34.5" fill="black" stroke="url(#paint2_linear_31_190)"/>
<circle cx="35" cy="35" r="29.75" fill="url(#paint3_linear_31_190)" stroke="url(#paint4_linear_31_190)" stroke-width="0.5"/>
<path d="M92.44 36.66V37.92H98.68V36.66H92.44ZM92.44 38.98V40.22H98.8V38.98H92.44ZM92.16 41.4V42.72H99.02V41.4H92.16ZM94.9 35.22V41.74H96.38V35.22H94.9ZM91.52 30.2H93.04V31.8H91.52V30.2ZM90.42 29.16V32.82H94.2V29.16H90.42ZM96.24 30.2H97.78V31.76H96.24V30.2ZM95.14 29.14V32.82H98.92V29.14H95.14ZM92.7 34.34H92.56L91.3 35.88V43.68H92.7V35.66H99.08V34.34H92.7ZM92.18 32.8C91.6 34.38 90.6 35.94 89.56 37.02C89.8 37.32 90.24 38.02 90.38 38.3C91.52 37.04 92.7 35.08 93.42 33.22L92.18 32.8ZM94.54 33.36C94.88 33.92 95.22 34.66 95.32 35.16L96.56 34.58C96.46 34.1 96.08 33.38 95.72 32.86L94.54 33.36ZM89.68 26.28V27.66H93.12V26.28H89.68ZM92.42 25.14V28.8H93.92V25.14H92.42ZM95.48 25.14V28.8H97V25.14H95.48ZM96.14 26.26V27.66H99.48V26.26H96.14ZM101.44 30.68H105.7V32.3H101.44V30.68ZM101.44 33.82H105.7V35.48H101.44V33.82ZM101.44 27.52H105.7V29.14H101.44V27.52ZM99.84 25.84V37.16H107.38V25.84H99.84ZM104.08 36.5V41.46C104.08 43 104.36 43.5 105.64 43.5C105.9 43.5 106.42 43.5 106.68 43.5C107.76 43.5 108.16 42.8 108.26 39.96C107.86 39.82 107.18 39.58 106.9 39.3C106.86 41.7 106.8 41.94 106.48 41.94C106.36 41.94 105.98 41.94 105.86 41.94C105.6 41.94 105.58 41.88 105.58 41.44V36.5H104.08ZM101.46 36.54C101.28 39.1 100.78 41.16 98.4 42.32C98.78 42.62 99.28 43.28 99.5 43.72C102.2 42.24 102.86 39.72 103.08 36.54H101.46ZM115.84 34V43.74H117.64V35.46H125.72V43.74H127.62V34H115.84ZM111.82 31.32V32.84H129.56V31.32H111.82ZM113.26 28.64V30.1H128.42V28.64H113.26ZM117.06 36.6V37.86H126.5V36.6H117.06ZM117.06 39.04V40.28H126.5V39.04H117.06ZM116.86 41.5V42.98H126.52V41.5H116.86ZM127.14 25.24C123.86 25.86 117.9 26.12 113 26.14C113.18 26.54 113.34 27.16 113.38 27.58C118.34 27.6 124.4 27.32 128.28 26.6L127.14 25.24ZM118.8 26.74C117.78 31.12 115.5 35.5 111.26 37.88C111.64 38.24 112.2 38.94 112.46 39.36C116.98 36.7 119.42 32.04 120.76 27.14L118.8 26.74ZM137.02 30.98V32.72H147.68V30.98H137.02ZM133.48 34.68V36.46H151.3V34.68H133.48ZM138.72 35.9C138.52 39.56 137.98 41.26 133.18 42.12C133.54 42.5 134.04 43.24 134.18 43.7C139.56 42.6 140.42 40.3 140.64 35.9H138.72ZM143.78 35.72V40.96C143.78 42.82 144.28 43.4 146.34 43.4C146.76 43.4 148.74 43.4 149.18 43.4C150.9 43.4 151.4 42.66 151.62 39.84C151.1 39.7 150.3 39.4 149.9 39.1C149.82 41.32 149.7 41.66 149 41.66C148.54 41.66 146.94 41.66 146.58 41.66C145.8 41.66 145.68 41.56 145.68 40.96V35.72H143.78ZM133.92 27.32V32H135.82V29.14H148.84V32H150.8V27.32H133.92ZM140.66 25.48C141.16 26.4 141.68 27.64 141.88 28.4L143.92 27.78C143.68 27 143.12 25.8 142.58 24.92L140.66 25.48ZM156.28 35.92V37.48H171.94V35.92H156.28ZM155.18 26.24V27.62H164.36V26.24H155.18ZM164.14 38.78V40.22H170.5V38.78H164.14ZM155 41.58V43.18H173.22V41.58H155ZM163.12 36.5V42.26H164.98V36.5H163.12ZM159.02 25.12V35.42H160.68V25.12H159.02ZM158.14 38.38V42.42H159.96V38.38H158.14ZM157.22 29.68H162.34V30.96H157.22V29.68ZM155.72 28.5V32.12H163.94V28.5H155.72ZM166.72 25.14C166.18 27.1 165.18 28.92 163.88 30.1C164.24 30.4 164.86 31.06 165.12 31.4C166.56 30.02 167.76 27.82 168.42 25.52L166.72 25.14ZM166.58 27.28L165.82 28.82H173.14V27.28H166.58ZM170.26 27.94C169.56 31.34 167.4 33.32 163.96 34.36C164.3 34.68 164.86 35.38 165.04 35.72C168.7 34.38 171.06 32.14 172.02 28.12L170.26 27.94ZM166.84 28.16L165.62 28.92C166.54 31.48 168.68 34.46 172.38 35.78C172.6 35.34 173.08 34.64 173.44 34.3C169.76 33.22 167.68 30.56 166.84 28.16ZM158.82 31.62C157.96 32.74 156.3 33.92 154.8 34.46C155.16 34.74 155.64 35.3 155.88 35.68C157.42 34.96 159.12 33.5 160.04 32.12L158.82 31.62ZM160.56 33C161.46 33.48 162.54 34.2 163.12 34.74L163.92 33.66C163.36 33.14 162.22 32.46 161.34 32.04L160.56 33ZM183.92 35.36V37.04H194.76V35.36H183.92ZM190.72 36.34L189.36 36.86C190.42 39.06 192.3 41.44 194.02 42.74C194.3 42.28 194.9 41.64 195.32 41.3C193.62 40.26 191.72 38.22 190.72 36.34ZM186.28 30.64H192.46V32.38H186.28V30.64ZM186.28 27.44H192.46V29.16H186.28V27.44ZM184.6 25.92V33.9H194.22V25.92H184.6ZM188.04 36.22C187.04 38.28 185.1 40.38 183.18 41.4C183.58 41.74 184.16 42.42 184.44 42.86C186.44 41.6 188.38 39.18 189.46 36.72L188.04 36.22ZM188.52 26.7V33.18H188.42V43.68H190.26V33.18H190.16V26.7H188.52ZM177.36 31.2V32.66H183.36V31.2H177.36ZM177.36 33.86V35.32H183.36V33.86H177.36ZM176.52 28.48V30.02H184.02V28.48H176.52ZM178.18 36.58V38.12H181.84V40.98H178.18V42.52H183.5V36.58H178.18ZM177.34 36.58V43.42H178.98V36.58H177.34ZM178.74 25.76C179.28 26.6 179.92 27.78 180.2 28.52L181.72 27.66C181.4 26.94 180.78 25.86 180.2 25.04L178.74 25.76ZM210.4 32.2V39.3H211.5V32.2H210.4ZM208.32 34.16V39.94H209.36V34.16H208.32ZM212.56 34.16V39.94H213.6V34.16H212.56ZM212.24 27.92C212.06 29.08 211.66 30.84 211.32 31.88L212.42 32.22C212.8 31.22 213.24 29.62 213.64 28.28L212.24 27.92ZM208.32 28.32C208.74 29.28 209.12 30.56 209.22 31.36L210.4 30.98C210.3 30.2 209.88 28.96 209.42 28.02L208.32 28.32ZM205.72 25.92V43.68H207.3V27.58H215.28V25.92H205.72ZM214.58 25.92V41.6C214.58 41.9 214.48 42 214.16 42.02C213.86 42.02 212.84 42.04 211.78 41.98C212 42.42 212.24 43.16 212.32 43.58C213.82 43.6 214.78 43.56 215.38 43.3C215.96 43.02 216.16 42.52 216.16 41.6V25.92H214.58ZM207.96 31.6V33.04H213.94V31.6H207.96ZM208.82 38.5V39.94H213.1V38.5H208.82ZM203.02 33.16C203.48 34.56 203.9 36.38 204.04 37.48L205.42 37.06C205.28 36 204.8 34.22 204.32 32.82L203.02 33.16ZM201.04 38.36C201.24 39.76 201.44 41.6 201.46 42.84L202.86 42.56C202.82 41.36 202.6 39.54 202.36 38.12L201.04 38.36ZM199.04 38.14C198.88 39.82 198.6 41.66 198.12 42.88C198.52 43 199.2 43.22 199.52 43.38C199.94 42.12 200.3 40.18 200.48 38.38L199.04 38.14ZM198.68 32.82C198.68 32.48 199.74 31.94 199.74 31.94V31.88C201 30.3 202.32 27.98 203.26 25.78L201.62 25.1C200.9 27.26 199.6 29.52 199.2 30.12C198.8 30.72 198.48 31.12 198.12 31.22C198.3 31.64 198.58 32.46 198.68 32.82ZM198.68 32.82C199.04 32.64 199.62 32.5 202.76 32.18C202.76 31.8 202.84 31.14 202.94 30.66L199.46 30.94L198.62 31.46L198.68 32.82ZM198.82 37.38C198.82 37.04 199.88 36.52 199.88 36.52V36.46C201.72 34.48 203.6 31.7 205.04 28.98L203.5 28.1C202.32 30.82 200.34 33.7 199.72 34.42C199.12 35.16 198.7 35.66 198.24 35.76C198.44 36.22 198.72 37.04 198.82 37.38ZM198.82 37.38C199.24 37.16 199.94 36.98 204.44 36.34C204.42 35.96 204.48 35.3 204.54 34.82L199.58 35.46L198.74 36L198.82 37.38ZM202.92 37.96C203.34 39.16 203.8 40.74 203.94 41.74L205.26 41.32C205.06 40.3 204.6 38.78 204.16 37.58L202.92 37.96Z" fill="black"/>
<path d="M244 28.3145L251.2 37.9145L232.374 37.8137" stroke="black" stroke-width="2" stroke-linecap="round"/>
<path d="M43.3532 35.7812C43.3532 32.445 43.3532 29.1706 43.3532 25.7726C39.0165 25.7726 34.7409 25.7726 30.2515 25.7726C30.2515 26.3286 30.2515 26.8847 30.2515 27.4407C30.2515 32.5377 30.2821 37.6037 30.2515 42.7007C30.221 46.6856 27.3502 49.8055 23.6244 49.9909C19.6847 50.1762 16.5391 47.5196 16.0504 43.5347C15.5007 39.1483 19.532 35.0707 23.8381 35.6267C24.3879 35.6885 24.9376 35.8121 25.6095 35.9356C25.64 35.4414 25.7011 35.0089 25.7011 34.5764C25.7011 31.7036 25.6705 28.8308 25.7011 25.958C25.7316 23.0542 27.564 21.0772 30.3432 21.0463C34.6493 20.9846 38.986 20.9846 43.2921 21.0463C46.1018 21.0772 47.9342 22.9924 47.9647 25.8653C47.9953 31.5183 48.0258 37.1713 47.9647 42.8242C47.9037 46.8709 44.9107 49.9291 41.0932 49.9909C37.1841 50.0836 34.0385 47.1798 33.7636 43.2567C33.5193 39.3645 36.2374 36.0592 40.177 35.6267C41.1543 35.5032 42.1621 35.6885 43.3532 35.7812ZM25.64 42.7007C25.6095 41.3106 24.4795 40.1677 23.1052 40.1677C21.7003 40.1677 20.4787 41.4033 20.5398 42.8242C20.5704 44.2143 21.7309 45.3264 23.1052 45.3264C24.5711 45.3264 25.7011 44.1834 25.64 42.7007ZM40.8795 45.3264C42.3454 45.3264 43.4448 44.1525 43.3837 42.6698C43.3532 41.2797 42.2232 40.1677 40.8489 40.1677C39.4746 40.1677 38.3446 41.3106 38.3141 42.7007C38.2836 44.1834 39.4135 45.3264 40.8795 45.3264Z" fill="black"/>
<defs>
<linearGradient id="paint0_linear_31_190" x1="-33.5" y1="-31" x2="371" y2="118.5" gradientUnits="userSpaceOnUse">
<stop stop-color="white"/>
<stop offset="0.505208" stop-color="#FF8E30"/>
<stop offset="1" stop-color="white"/>
</linearGradient>
<linearGradient id="paint1_linear_31_190" x1="175.5" y1="12" x2="175.5" y2="58" gradientUnits="userSpaceOnUse">
<stop stop-color="white"/>
<stop offset="0.505208" stop-color="#FF8E30"/>
<stop offset="1" stop-color="white"/>
</linearGradient>
<linearGradient id="paint2_linear_31_190" x1="35" y1="0" x2="35" y2="70" gradientUnits="userSpaceOnUse">
<stop stop-color="white"/>
<stop offset="0.505208" stop-color="#FF8E30"/>
<stop offset="1" stop-color="white"/>
</linearGradient>
<linearGradient id="paint3_linear_31_190" x1="35" y1="5" x2="35" y2="65" gradientUnits="userSpaceOnUse">
<stop stop-color="white"/>
<stop offset="0.505208" stop-color="#FF8E30"/>
<stop offset="1" stop-color="white"/>
</linearGradient>
<linearGradient id="paint4_linear_31_190" x1="35" y1="5" x2="35" y2="65" gradientUnits="userSpaceOnUse">
<stop stop-color="white"/>
<stop offset="0.505208" stop-color="#FF8E30"/>
<stop offset="1" stop-color="white"/>
</linearGradient>
</defs>
</svg>
