<svg width="384" height="72" viewBox="0 0 384 72" fill="none" xmlns="http://www.w3.org/2000/svg">
<path d="M6.74935 6.65488L6.04224 5.94778L6.74935 6.65488ZM54.8458 0.305357H55.8458V-0.694643H54.8458V0.305357ZM54.8458 14.6543V15.6543H55.8458V14.6543H54.8458ZM16.8486 16.7541L16.1415 16.047L16.8486 16.7541ZM15.3487 24.6535L14.4225 25.0309L14.4277 25.0432L15.3487 24.6535ZM16.8486 26.9534L16.1236 27.6421L16.1413 27.6607L16.1598 27.6784L16.8486 26.9534ZM44.6465 30.7031L44.2469 31.6198L44.254 31.6229L44.2611 31.6258L44.6465 30.7031ZM51.496 35.3027L50.7829 36.0038L50.7889 36.0099L50.795 36.0159L51.496 35.3027ZM56.0957 42.1522L55.1729 42.5377L55.1759 42.5448L55.179 42.5518L56.0957 42.1522ZM56.0957 58.851L55.1789 58.4514L55.1747 58.4613L56.0957 58.851ZM51.496 65.7005L52.2031 66.4076L51.496 65.7005ZM44.6465 70.3001L44.2512 69.3816L44.2469 69.3834L44.6465 70.3001ZM4.44952 72H3.44952V73H4.44952V72ZM4.44952 57.6511V56.6511H3.44952V57.6511H4.44952ZM41.3468 55.6012L40.6397 54.8941L41.3468 55.6012ZM41.3468 45.452L40.6218 46.1407L40.6394 46.1593L40.658 46.177L41.3468 45.452ZM6.74935 37.0526L6.03622 37.7536L6.04221 37.7597L6.04831 37.7657L6.74935 37.0526ZM2.14969 30.2031L1.23114 30.5984L1.23299 30.6027L2.14969 30.2031ZM1.44982 21.8037C1.44982 18.9684 1.9906 16.3219 3.06639 13.854L1.23299 13.0548C0.0422792 15.7864 -0.550183 18.7063 -0.550183 21.8037H1.44982ZM3.06639 13.854C4.15153 11.3645 5.61506 9.20339 7.45645 7.36199L6.04224 5.94778C4.01726 7.97276 2.41435 10.3446 1.23299 13.0548L3.06639 13.854ZM7.45645 7.36199C9.33271 5.48573 11.511 4.00618 13.9984 2.92193L13.1992 1.08853C10.487 2.27078 8.09902 3.891 6.04224 5.94778L7.45645 7.36199ZM13.9984 2.92193C16.4664 1.84614 19.1128 1.30536 21.9482 1.30536V-0.694643C18.8507 -0.694643 15.9309 -0.10218 13.1992 1.08853L13.9984 2.92193ZM21.9482 1.30536H54.8458V-0.694643H21.9482V1.30536ZM53.8458 0.305357V14.6543H55.8458V0.305357H53.8458ZM54.8458 13.6543H21.9482V15.6543H54.8458V13.6543ZM21.9482 13.6543C20.8229 13.6543 19.7563 13.8613 18.7588 14.2833L19.5381 16.1252C20.2738 15.8139 21.0736 15.6543 21.9482 15.6543V13.6543ZM18.7588 14.2833C17.7733 14.7002 16.899 15.2895 16.1415 16.047L17.5557 17.4612C18.1314 16.8855 18.7903 16.4416 19.5381 16.1252L18.7588 14.2833ZM16.1415 16.047C15.4126 16.7759 14.842 17.6352 14.4277 18.6143L16.2697 19.3936C16.5887 18.6395 17.018 17.9989 17.5557 17.4612L16.1415 16.047ZM14.4277 18.6143C14.0057 19.6118 13.7987 20.6785 13.7987 21.8037H15.7987C15.7987 20.9292 15.9584 20.1293 16.2697 19.3936L14.4277 18.6143ZM13.7987 21.8037C13.7987 22.9292 14.0057 24.0076 14.4226 25.0308L16.2748 24.2762C15.9584 23.4996 15.7987 22.6781 15.7987 21.8037H13.7987ZM14.4277 25.0432C14.8401 26.0178 15.4056 26.8863 16.1236 27.6421L17.5736 26.2646C17.025 25.6872 16.5906 25.0225 16.2697 24.2639L14.4277 25.0432ZM16.1598 27.6784C16.9156 28.3964 17.7841 28.9619 18.7588 29.3742L19.5381 27.5323C18.7795 27.2114 18.1148 26.7769 17.5373 26.2284L16.1598 27.6784ZM18.7588 29.3742C19.7563 29.7962 20.8229 30.0032 21.9482 30.0032V28.0032C21.0736 28.0032 20.2738 27.8436 19.5381 27.5323L18.7588 29.3742ZM21.9482 30.0032H36.2971V28.0032H21.9482V30.0032ZM36.2971 30.0032C39.1325 30.0032 41.779 30.544 44.2469 31.6198L45.0461 29.7864C42.3145 28.5957 39.3946 28.0032 36.2971 28.0032V30.0032ZM44.2611 31.6258C46.7757 32.6762 48.9463 34.1356 50.7829 36.0038L52.2091 34.6017C50.1793 32.5369 47.7836 30.9298 45.032 29.7804L44.2611 31.6258ZM50.795 36.0159C52.6632 37.8524 54.1225 40.0231 55.1729 42.5377L57.0184 41.7668C55.869 39.0151 54.2619 36.6194 52.197 34.5896L50.795 36.0159ZM55.179 42.5518C56.2547 45.0198 56.7955 47.6662 56.7955 50.5016H58.7955C58.7955 47.4041 58.2031 44.4843 57.0124 41.7526L55.179 42.5518ZM56.7955 50.5016C56.7955 53.337 56.2547 55.9834 55.179 58.4514L57.0124 59.2506C58.2031 56.5189 58.7955 53.5991 58.7955 50.5016H56.7955ZM55.1747 58.4613C54.1242 60.9444 52.663 63.1193 50.7889 64.9934L52.2031 66.4076C54.2621 64.3486 55.8673 61.9572 57.0166 59.2406L55.1747 58.4613ZM50.7889 64.9934C48.9496 66.8326 46.7737 68.296 44.2512 69.3816L45.0418 71.2187C47.7856 70.0378 50.176 68.4347 52.2031 66.4076L50.7889 64.9934ZM44.2469 69.3834C41.779 70.4592 39.1325 71 36.2971 71V73C39.3946 73 42.3145 72.4075 45.0461 71.2168L44.2469 69.3834ZM36.2971 71H4.44952V73H36.2971V71ZM5.44952 72V57.6511H3.44952V72H5.44952ZM4.44952 58.6511H36.2971V56.6511H4.44952V58.6511ZM36.2971 58.6511C37.4224 58.6511 38.4891 58.4441 39.4866 58.0221L38.7073 56.1801C37.9716 56.4914 37.1717 56.6511 36.2971 56.6511V58.6511ZM39.4866 58.0221C40.4657 57.6078 41.3249 57.0373 42.0539 56.3083L40.6397 54.8941C40.102 55.4318 39.4614 55.8611 38.7073 56.1801L39.4866 58.0221ZM42.0539 56.3083C42.8114 55.5508 43.4007 54.6765 43.8176 53.691L41.9757 52.9118C41.6593 53.6595 41.2154 54.3184 40.6397 54.8941L42.0539 56.3083ZM43.8176 53.691C44.2396 52.6936 44.4466 51.6269 44.4466 50.5016H42.4466C42.4466 51.3762 42.2869 52.176 41.9757 52.9118L43.8176 53.691ZM44.4466 50.5016C44.4466 49.3763 44.2396 48.3097 43.8176 47.3122L41.9757 48.0915C42.2869 48.8272 42.4466 49.627 42.4466 50.5016H44.4466ZM43.8176 47.3122C43.3987 46.3221 42.8041 45.4572 42.0355 44.727L40.658 46.177C41.2226 46.7134 41.6613 47.3484 41.9757 48.0915L43.8176 47.3122ZM42.0718 44.7632C41.3416 43.9946 40.4767 43.4 39.4866 42.9811L38.7073 44.8231C39.4504 45.1375 40.0854 45.5761 40.6218 46.1407L42.0718 44.7632ZM39.4866 42.9811C38.4891 42.5591 37.4224 42.3521 36.2971 42.3521V44.3521C37.1717 44.3521 37.9716 44.5118 38.7073 44.8231L39.4866 42.9811ZM36.2971 42.3521H21.9482V44.3521H36.2971V42.3521ZM21.9482 42.3521C19.1128 42.3521 16.4664 41.8114 13.9984 40.7356L13.1992 42.569C15.9309 43.7597 18.8507 44.3521 21.9482 44.3521V42.3521ZM13.9984 40.7356C11.5075 39.6498 9.32722 38.1845 7.45038 36.3395L6.04831 37.7657C8.10451 39.7871 10.4906 41.3883 13.1992 42.569L13.9984 40.7356ZM7.46247 36.3516C5.61745 34.4747 4.15219 32.2945 3.06639 29.8035L1.23299 30.6027C2.41368 33.3114 4.01487 35.6974 6.03622 37.7536L7.46247 36.3516ZM3.06823 29.8078C1.99061 27.3039 1.44982 24.6391 1.44982 21.8037H-0.550183C-0.550183 24.9013 0.0422773 27.8361 1.23115 30.5984L3.06823 29.8078ZM109.442 43.3521V44.3521H110.442V43.3521H109.442ZM108.292 23.4536L107.368 23.837L107.373 23.8476L107.377 23.8581L108.292 23.4536ZM100.642 15.8042L100.238 16.7187L100.248 16.7234L100.259 16.7278L100.642 15.8042ZM89.4932 15.8042L89.8828 16.7252L89.8913 16.7215L89.4932 15.8042ZM81.8437 23.4536L80.9264 23.0555L80.9228 23.064L81.8437 23.4536ZM80.7438 43.3521H79.7438V44.3521H80.7438V43.3521ZM123.791 72V73H124.791V72H123.791ZM109.442 72H108.442V73H109.442V72ZM109.442 57.6511H110.442V56.6511H109.442V57.6511ZM80.7438 57.6511V56.6511H79.7438V57.6511H80.7438ZM80.7438 72V73H81.7438V72H80.7438ZM66.4449 72H65.4449V73H66.4449V72ZM68.6947 17.854L69.6125 18.2512L69.6139 18.248L68.6947 17.854ZM74.7943 8.70473L74.0871 7.99761L74.0826 8.0022L74.7943 8.70473ZM83.8936 2.55519L83.4997 1.63604L83.4965 1.63742L83.8936 2.55519ZM106.242 2.55519L105.845 3.47297L105.848 3.47433L106.242 2.55519ZM121.541 17.854L120.622 18.248L120.623 18.2512L121.541 17.854ZM110.442 43.3521V29.0032H108.442V43.3521H110.442ZM110.442 29.0032C110.442 26.9027 110.031 24.9146 109.206 23.0491L107.377 23.8581C108.085 25.4591 108.442 27.1706 108.442 29.0032H110.442ZM109.215 23.0703C108.434 21.1876 107.345 19.5432 105.949 18.1469L104.535 19.5611C105.738 20.7646 106.683 22.1865 107.368 23.837L109.215 23.0703ZM105.949 18.1469C104.553 16.7505 102.908 15.6621 101.026 14.8806L100.259 16.7278C101.909 17.4129 103.331 18.3576 104.535 19.5611L105.949 18.1469ZM101.047 14.8897C99.1814 14.0646 97.1932 13.6543 95.0927 13.6543V15.6543C96.9253 15.6543 98.6368 16.0106 100.238 16.7187L101.047 14.8897ZM95.0927 13.6543C92.9922 13.6543 90.9899 14.0645 89.0951 14.8869L89.8913 16.7215C91.5294 16.0106 93.2602 15.6543 95.0927 15.6543V13.6543ZM89.1035 14.8832C87.2546 15.6655 85.6295 16.7537 84.2364 18.1469L85.6506 19.5611C86.8573 18.3544 88.2653 17.4095 89.8828 16.7252L89.1035 14.8832ZM84.2364 18.1469C82.8434 19.5398 81.7406 21.1793 80.9264 23.0555L82.7611 23.8517C83.4801 22.1949 84.4438 20.7679 85.6506 19.5611L84.2364 18.1469ZM80.9228 23.064C80.135 24.926 79.7438 26.909 79.7438 29.0032H81.7438C81.7438 27.1644 82.0859 25.4477 82.7647 23.8433L80.9228 23.064ZM79.7438 29.0032V43.3521H81.7438V29.0032H79.7438ZM80.7438 44.3521H109.442V42.3521H80.7438V44.3521ZM123.791 71H109.442V73H123.791V71ZM110.442 72V57.6511H108.442V72H110.442ZM109.442 56.6511H80.7438V58.6511H109.442V56.6511ZM79.7438 57.6511V72H81.7438V57.6511H79.7438ZM80.7438 71H66.4449V73H80.7438V71ZM67.4449 72V29.0032H65.4449V72H67.4449ZM67.4449 29.0032C67.4449 25.1665 68.1695 21.5859 69.6125 18.2512L67.7769 17.4569C66.2201 21.055 65.4449 24.9072 65.4449 29.0032H67.4449ZM69.6139 18.248C71.0666 14.8582 73.031 11.9143 75.5059 9.40726L74.0826 8.0022C71.4246 10.6947 69.3226 13.8504 67.7756 17.4601L69.6139 18.248ZM75.5014 9.41183C78.0096 6.90361 80.9368 4.92418 84.2907 3.47296L83.4965 1.63742C79.9176 3.18597 76.7785 5.30624 74.0872 7.99762L75.5014 9.41183ZM84.2875 3.47433C87.6576 2.03002 91.256 1.30536 95.0927 1.30536V-0.694643C90.9967 -0.694643 87.1291 0.0805836 83.4997 1.63604L84.2875 3.47433ZM95.0927 1.30536C98.9295 1.30536 102.51 2.03002 105.845 3.47296L106.639 1.63742C103.041 0.0805817 99.1887 -0.694643 95.0927 -0.694643V1.30536ZM105.848 3.47433C109.235 4.92593 112.177 6.90519 114.684 9.41183L116.098 7.99762C113.405 5.30465 110.248 3.18423 106.636 1.63604L105.848 3.47433ZM114.684 9.41183C117.191 11.9185 119.17 14.8609 120.622 18.248L122.46 17.4601C120.912 13.8477 118.791 10.6906 116.098 7.99762L114.684 9.41183ZM120.623 18.2512C122.066 21.5859 122.791 25.1665 122.791 29.0032H124.791C124.791 24.9072 124.015 21.055 122.459 17.4569L120.623 18.2512ZM122.791 29.0032V72H124.791V29.0032H122.791ZM186.436 72V73H187.436V72H186.436ZM136.24 72H135.24V73H136.24V72ZM136.24 0.305357V-0.694643H135.24V0.305357H136.24ZM150.589 0.305357H151.589V-0.694643H150.589V0.305357ZM150.589 57.6511H149.589V58.6511H150.589V57.6511ZM186.436 57.6511H187.436V56.6511H186.436V57.6511ZM186.436 71H136.24V73H186.436V71ZM137.24 72V0.305357H135.24V72H137.24ZM136.24 1.30536H150.589V-0.694643H136.24V1.30536ZM149.589 0.305357V57.6511H151.589V0.305357H149.589ZM150.589 58.6511H186.436V56.6511H150.589V58.6511ZM185.436 57.6511V72H187.436V57.6511H185.436ZM236.132 43.3521V44.3521H237.132V43.3521H236.132ZM234.982 23.4536L234.059 23.837L234.063 23.8476L234.068 23.8581L234.982 23.4536ZM227.333 15.8042L226.928 16.7187L226.939 16.7234L226.949 16.7278L227.333 15.8042ZM216.184 15.8042L216.573 16.7252L216.582 16.7215L216.184 15.8042ZM208.534 23.4536L207.617 23.0555L207.613 23.064L208.534 23.4536ZM207.434 43.3521H206.434V44.3521H207.434V43.3521ZM250.481 72V73H251.481V72H250.481ZM236.132 72H235.132V73H236.132V72ZM236.132 57.6511H237.132V56.6511H236.132V57.6511ZM207.434 57.6511V56.6511H206.434V57.6511H207.434ZM207.434 72V73H208.434V72H207.434ZM193.135 72H192.135V73H193.135V72ZM195.385 17.854L196.303 18.2512L196.304 18.248L195.385 17.854ZM201.485 8.70473L200.778 7.99761L200.773 8.0022L201.485 8.70473ZM210.584 2.55519L210.19 1.63604L210.187 1.63742L210.584 2.55519ZM232.932 2.55519L232.535 3.47297L232.539 3.47433L232.932 2.55519ZM248.231 17.854L247.312 18.248L247.314 18.2512L248.231 17.854ZM237.132 43.3521V29.0032H235.132V43.3521H237.132ZM237.132 29.0032C237.132 26.9027 236.722 24.9146 235.897 23.0491L234.068 23.8581C234.776 25.4591 235.132 27.1706 235.132 29.0032H237.132ZM235.906 23.0703C235.124 21.1876 234.036 19.5432 232.64 18.1469L231.225 19.5611C232.429 20.7646 233.374 22.1865 234.059 23.837L235.906 23.0703ZM232.64 18.1469C231.243 16.7505 229.599 15.6621 227.716 14.8806L226.949 16.7278C228.6 17.4129 230.022 18.3576 231.225 19.5611L232.64 18.1469ZM227.737 14.8897C225.872 14.0646 223.884 13.6543 221.783 13.6543V15.6543C223.616 15.6543 225.327 16.0106 226.928 16.7187L227.737 14.8897ZM221.783 13.6543C219.683 13.6543 217.68 14.0645 215.786 14.8869L216.582 16.7215C218.22 16.0106 219.951 15.6543 221.783 15.6543V13.6543ZM215.794 14.8832C213.945 15.6655 212.32 16.7537 210.927 18.1469L212.341 19.5611C213.548 18.3544 214.956 17.4095 216.573 16.7252L215.794 14.8832ZM210.927 18.1469C209.534 19.5398 208.431 21.1793 207.617 23.0555L209.452 23.8517C210.171 22.1949 211.134 20.7679 212.341 19.5611L210.927 18.1469ZM207.613 23.064C206.826 24.926 206.434 26.909 206.434 29.0032H208.434C208.434 27.1644 208.776 25.4477 209.455 23.8433L207.613 23.064ZM206.434 29.0032V43.3521H208.434V29.0032H206.434ZM207.434 44.3521H236.132V42.3521H207.434V44.3521ZM250.481 71H236.132V73H250.481V71ZM237.132 72V57.6511H235.132V72H237.132ZM236.132 56.6511H207.434V58.6511H236.132V56.6511ZM206.434 57.6511V72H208.434V57.6511H206.434ZM207.434 71H193.135V73H207.434V71ZM194.135 72V29.0032H192.135V72H194.135ZM194.135 29.0032C194.135 25.1665 194.86 21.5859 196.303 18.2512L194.467 17.4569C192.911 21.055 192.135 24.9072 192.135 29.0032H194.135ZM196.304 18.248C197.757 14.8582 199.722 11.9143 202.196 9.40726L200.773 8.0022C198.115 10.6947 196.013 13.8504 194.466 17.4601L196.304 18.248ZM202.192 9.41183C204.7 6.90361 207.627 4.92418 210.981 3.47296L210.187 1.63742C206.608 3.18597 203.469 5.30624 200.778 7.99762L202.192 9.41183ZM210.978 3.47433C214.348 2.03002 217.947 1.30536 221.783 1.30536V-0.694643C217.687 -0.694643 213.82 0.0805836 210.19 1.63604L210.978 3.47433ZM221.783 1.30536C225.62 1.30536 229.201 2.03002 232.535 3.47296L233.33 1.63742C229.732 0.0805817 225.879 -0.694643 221.783 -0.694643V1.30536ZM232.539 3.47433C235.926 4.92593 238.868 6.90519 241.375 9.41183L242.789 7.99762C240.096 5.30465 236.939 3.18423 233.326 1.63604L232.539 3.47433ZM241.375 9.41183C243.881 11.9185 245.861 14.8609 247.312 18.248L249.15 17.4601C247.602 13.8477 245.482 10.6906 242.789 7.99762L241.375 9.41183ZM247.314 18.2512C248.756 21.5859 249.481 25.1665 249.481 29.0032H251.481C251.481 24.9072 250.706 21.055 249.149 17.4569L247.314 18.2512ZM249.481 29.0032V72H251.481V29.0032H249.481ZM277.279 14.6543V13.6543H276.279V14.6543H277.279ZM277.279 43.3521H276.279V44.3521H277.279V43.3521ZM297.178 42.2522L297.567 43.1732L297.575 43.17L297.582 43.1668L297.178 42.2522ZM304.777 34.6028L303.86 34.2047L303.856 34.2132L304.777 34.6028ZM304.777 23.4536L303.853 23.837L303.858 23.8476L303.863 23.8581L304.777 23.4536ZM297.178 15.8042L296.773 16.7187L296.781 16.722L296.788 16.7252L297.178 15.8042ZM277.279 72V73H278.279V72H277.279ZM262.93 72H261.93V73H262.93V72ZM262.93 0.305357V-0.694643H261.93V0.305357H262.93ZM299.227 1.35528L298.951 2.31638L298.963 2.31974L299.227 1.35528ZM306.027 4.25506L305.51 5.11135L305.518 5.11615L305.526 5.1208L306.027 4.25506ZM311.827 8.75473L311.113 9.45507L311.119 9.46186L311.126 9.46853L311.827 8.75473ZM316.326 14.5543L315.46 15.0548L315.466 15.0648L316.326 14.5543ZM319.226 21.4038L318.261 21.668L318.265 21.6802L319.226 21.4038ZM319.326 36.2027L318.361 35.9407L318.357 35.9536L319.326 36.2027ZM316.676 42.8522L315.802 42.3665L315.796 42.3772L316.676 42.8522ZM306.877 53.2514L306.344 52.4049L305.624 52.8581L305.956 53.6418L306.877 53.2514ZM314.826 72V73H316.336L315.747 71.6096L314.826 72ZM299.577 72L298.66 72.397L298.92 73H299.577V72ZM293.328 57.5511L294.246 57.1541L293.983 56.547L293.322 56.5511L293.328 57.5511ZM277.279 57.6511L277.273 56.6511L276.279 56.6573V57.6511H277.279ZM276.279 14.6543V43.3521H278.279V14.6543H276.279ZM277.279 44.3521H291.628V42.3521H277.279V44.3521ZM291.628 44.3521C293.722 44.3521 295.705 43.961 297.567 43.1732L296.788 41.3313C295.184 42.01 293.467 42.3521 291.628 42.3521V44.3521ZM297.582 43.1668C299.425 42.3518 301.045 41.2494 302.434 39.8596L301.02 38.4454C299.81 39.6553 298.397 40.6194 296.773 41.3377L297.582 43.1668ZM302.434 39.8596C303.828 38.4664 304.916 36.8414 305.698 34.9924L303.856 34.2132C303.172 35.8306 302.227 37.2387 301.02 38.4454L302.434 39.8596ZM305.694 35.0009C306.517 33.106 306.927 31.1037 306.927 29.0032H304.927C304.927 30.8358 304.571 32.5665 303.86 34.2047L305.694 35.0009ZM306.927 29.0032C306.927 26.9027 306.517 24.9146 305.692 23.0491L303.863 23.8581C304.571 25.4591 304.927 27.1706 304.927 29.0032H306.927ZM305.701 23.0703C304.919 21.1876 303.831 19.5432 302.434 18.1469L301.02 19.5611C302.224 20.7646 303.168 22.1865 303.853 23.837L305.701 23.0703ZM302.434 18.1469C301.041 16.7537 299.416 15.6655 297.567 14.8832L296.788 16.7252C298.405 17.4095 299.814 18.3544 301.02 19.5611L302.434 18.1469ZM297.582 14.8897C295.717 14.0646 293.729 13.6543 291.628 13.6543V15.6543C293.461 15.6543 295.172 16.0106 296.773 16.7187L297.582 14.8897ZM291.628 13.6543H277.279V15.6543H291.628V13.6543ZM277.279 71H262.93V73H277.279V71ZM263.93 72V0.305357H261.93V72H263.93ZM262.93 1.30536H291.628V-0.694643H262.93V1.30536ZM291.628 1.30536C294.171 1.30536 296.611 1.64323 298.951 2.3163L299.504 0.394253C296.977 -0.332569 294.351 -0.694643 291.628 -0.694643V1.30536ZM298.963 2.31974C301.31 2.96277 303.492 3.89362 305.51 5.11135L306.543 3.39877C304.363 2.08336 302.011 1.08102 299.492 0.39082L298.963 2.31974ZM305.526 5.1208C307.581 6.3086 309.443 7.75276 311.113 9.45507L312.54 8.05439C310.744 6.22362 308.739 4.66801 306.527 3.38933L305.526 5.1208ZM311.126 9.46853C312.829 11.1387 314.273 13.0002 315.46 15.0548L317.192 14.0538C315.913 11.842 314.358 9.83714 312.527 8.04092L311.126 9.46853ZM315.466 15.0648C316.686 17.1197 317.618 19.3198 318.262 21.668L320.19 21.1395C319.501 18.6215 318.499 16.2553 317.186 14.0438L315.466 15.0648ZM318.265 21.6802C318.938 24.02 319.276 26.4598 319.276 29.0032H321.276C321.276 26.2803 320.914 23.6539 320.187 21.1273L318.265 21.6802ZM319.276 29.0032C319.276 31.383 318.971 33.6947 318.361 35.9407L320.291 36.4646C320.948 34.0444 321.276 31.5564 321.276 29.0032H319.276ZM318.357 35.9536C317.779 38.2045 316.927 40.3414 315.802 42.3665L317.55 43.3378C318.758 41.1632 319.673 38.8672 320.294 36.4517L318.357 35.9536ZM315.796 42.3772C314.705 44.3989 313.357 46.2613 311.749 47.9655L313.204 49.338C314.929 47.5091 316.381 45.5051 317.556 43.3271L315.796 42.3772ZM311.749 47.9655C310.141 49.6703 308.34 51.1498 306.344 52.4049L307.409 54.0979C309.547 52.7532 311.479 51.1663 313.204 49.338L311.749 47.9655ZM305.956 53.6418L313.906 72.3904L315.747 71.6096L307.798 52.861L305.956 53.6418ZM314.826 71H299.577V73H314.826V71ZM300.495 71.603L294.246 57.1541L292.41 57.9481L298.66 72.397L300.495 71.603ZM293.322 56.5511L277.273 56.6511L277.285 58.6511L293.334 58.5511L293.322 56.5511ZM276.279 57.6511V72H278.279V57.6511H276.279ZM361.973 72V73H362.973V72H361.973ZM347.674 72H346.674V73H347.674V72ZM347.674 49.5517H348.674V48.7729L347.919 48.5821L347.674 49.5517ZM338.925 45.702L338.367 46.5324L338.372 46.5356L338.925 45.702ZM332.125 39.4024L331.333 40.0127L331.337 40.0179L332.125 39.4024ZM327.675 31.253L326.73 31.5787L326.734 31.5914L327.675 31.253ZM326.125 0.305357V-0.694643H325.125V0.305357H326.125ZM340.474 0.305357H341.474V-0.694643H340.474V0.305357ZM341.574 27.4033L340.651 27.7867L340.655 27.7973L340.66 27.8078L341.574 27.4033ZM349.224 35.0528L348.819 35.9673L348.83 35.9719L348.84 35.9763L349.224 35.0528ZM360.373 35.0528L360.763 35.9738L360.771 35.9701L360.373 35.0528ZM368.022 27.4033L367.105 27.0052L367.101 27.0137L368.022 27.4033ZM369.172 0.305357V-0.694643H368.172V0.305357H369.172ZM383.471 0.305357H384.471V-0.694643H383.471V0.305357ZM381.871 31.253L380.929 30.918L380.927 30.9241L381.871 31.253ZM377.472 39.4024L378.26 40.0179L378.264 40.0127L377.472 39.4024ZM370.672 45.702L371.229 46.5324L370.672 45.702ZM361.973 49.5517L361.728 48.5821L360.973 48.7729V49.5517H361.973ZM361.973 71H347.674V73H361.973V71ZM348.674 72V49.5517H346.674V72H348.674ZM347.919 48.5821C344.859 47.8092 342.047 46.5712 339.477 44.8683L338.372 46.5356C341.135 48.3658 344.155 49.6942 347.429 50.5212L347.919 48.5821ZM339.482 44.8715C336.934 43.1624 334.746 41.1344 332.913 38.787L331.337 40.0179C333.304 42.5367 335.649 44.7085 338.367 46.5324L339.482 44.8715ZM332.917 38.7922C331.082 36.4091 329.648 33.7846 328.616 30.9147L326.734 31.5914C327.836 34.6544 329.369 37.4628 331.333 40.0127L332.917 38.7922ZM328.621 30.9274C327.625 28.0365 327.125 24.9972 327.125 21.8037H325.125C325.125 25.2098 325.659 28.47 326.73 31.5787L328.621 30.9274ZM327.125 21.8037V0.305357H325.125V21.8037H327.125ZM326.125 1.30536H340.474V-0.694643H326.125V1.30536ZM339.474 0.305357V21.8037H341.474V0.305357H339.474ZM339.474 21.8037C339.474 23.8981 339.866 25.8952 340.651 27.7867L342.498 27.02C341.817 25.3784 341.474 23.6425 341.474 21.8037H339.474ZM340.66 27.8078C341.475 29.6503 342.577 31.2703 343.967 32.6601L345.381 31.2459C344.171 30.0359 343.207 28.6228 342.489 26.9988L340.66 27.8078ZM343.967 32.6601C345.357 34.0499 346.977 35.1524 348.819 35.9673L349.628 34.1382C348.004 33.4199 346.591 32.4559 345.381 31.2459L343.967 32.6601ZM348.84 35.9763C350.732 36.7615 352.729 37.1527 354.823 37.1527V35.1527C352.985 35.1527 351.249 34.8106 349.607 34.1292L348.84 35.9763ZM354.823 37.1527C356.918 37.1527 358.901 36.7615 360.763 35.9737L359.983 34.1318C358.379 34.8106 356.662 35.1527 354.823 35.1527V37.1527ZM360.771 35.9701C362.647 35.1559 364.287 34.0531 365.68 32.6601L364.265 31.2459C363.059 32.4527 361.632 33.4164 359.975 34.1354L360.771 35.9701ZM365.68 32.6601C367.073 31.2669 368.161 29.6419 368.943 27.793L367.101 27.0137C366.417 28.6312 365.472 30.0392 364.265 31.2459L365.68 32.6601ZM368.94 27.8014C369.762 25.9065 370.172 23.9042 370.172 21.8037H368.172C368.172 23.6363 367.816 25.367 367.105 27.0052L368.94 27.8014ZM370.172 21.8037V0.305357H368.172V21.8037H370.172ZM369.172 1.30536H383.471V-0.694643H369.172V1.30536ZM382.471 0.305357V21.8037H384.471V0.305357H382.471ZM382.471 21.8037C382.471 24.9936 381.956 28.0297 380.929 30.918L382.814 31.5881C383.92 28.4768 384.471 25.2134 384.471 21.8037H382.471ZM380.927 30.9241C379.929 33.7902 378.513 36.4115 376.679 38.7922L378.264 40.0127C380.23 37.4604 381.747 34.6488 382.816 31.582L380.927 30.9241ZM376.683 38.787C374.851 41.1344 372.663 43.1624 370.115 44.8715L371.229 46.5324C373.948 44.7085 376.293 42.5367 378.26 40.0179L376.683 38.787ZM370.115 44.8715C367.58 46.5722 364.786 47.8095 361.728 48.5821L362.218 50.5212C365.492 49.694 368.498 48.3648 371.229 46.5324L370.115 44.8715ZM360.973 49.5517V72H362.973V49.5517H360.973Z" fill="#FF8E30"/>
</svg>
