<svg width="342" height="75" viewBox="0 0 342 75" fill="none" xmlns="http://www.w3.org/2000/svg">
<path d="M51.6457 66.7005L52.3528 67.4076L51.6457 66.7005ZM0.649503 73H-0.350497V74H0.649503V73ZM0.649503 1.30536V0.305357H-0.350497V1.30536H0.649503ZM51.6457 7.65488L50.9326 8.35592L50.9386 8.36201L50.9447 8.36801L51.6457 7.65488ZM50.3958 37.1527L49.8703 36.3019L48.4025 37.2085L49.9187 38.0315L50.3958 37.1527ZM53.5456 39.7525L52.783 40.3995L52.788 40.4053L52.793 40.411L53.5456 39.7525ZM57.4453 47.4019L56.4713 47.6284L56.4744 47.6419L56.4779 47.6553L57.4453 47.4019ZM14.9984 58.6511H13.9984V59.6511H14.9984V58.6511ZM41.5464 56.6012L40.8393 55.8941L41.5464 56.6012ZM41.5464 46.452L40.8214 47.1407L40.8391 47.1593L40.8577 47.177L41.5464 46.452ZM14.9984 44.3521V43.3521H13.9984V44.3521H14.9984ZM14.9984 30.0032H13.9984V31.0032H14.9984V30.0032ZM43.0963 25.6535L44.0174 26.0432L44.0224 26.0308L43.0963 25.6535ZM41.5464 17.7541L40.8214 18.4429L40.8391 18.4615L40.8577 18.4791L41.5464 17.7541ZM14.9984 15.6543V14.6543H13.9984V15.6543H14.9984ZM56.9952 51.5016C56.9952 54.337 56.4544 56.9834 55.3787 59.4514L57.212 60.2506C58.4028 57.5189 58.9952 54.5991 58.9952 51.5016H56.9952ZM55.3787 59.4514C54.2944 61.9388 52.8148 64.1171 50.9386 65.9934L52.3528 67.4076C54.4096 65.3508 56.0298 62.9628 57.212 60.2506L55.3787 59.4514ZM50.9386 65.9934C49.0972 67.8348 46.9361 69.2983 44.4466 70.3834L45.2458 72.2168C47.956 71.0355 50.3278 69.4326 52.3528 67.4076L50.9386 65.9934ZM44.4466 70.3834C41.9786 71.4592 39.3322 72 36.4968 72V74C39.5943 74 42.5141 73.4075 45.2458 72.2168L44.4466 70.3834ZM36.4968 72H0.649503V74H36.4968V72ZM1.6495 73V1.30536H-0.350497V73H1.6495ZM0.649503 2.30536H36.4968V0.305357H0.649503V2.30536ZM36.4968 2.30536C39.3322 2.30536 41.9786 2.84614 44.4466 3.92193L45.2458 2.08853C42.5141 0.89782 39.5943 0.305357 36.4968 0.305357V2.30536ZM44.4466 3.92193C46.9325 5.0055 49.0917 6.48331 50.9326 8.35592L52.3588 6.95385C50.3333 4.89342 47.9595 3.27145 45.2458 2.08853L44.4466 3.92193ZM50.9447 8.36801C52.8173 10.2089 54.2951 12.3681 55.3787 14.854L57.212 14.0548C56.0291 11.341 54.4072 8.96726 52.3467 6.94176L50.9447 8.36801ZM55.3787 14.854C56.4544 17.3219 56.9952 19.9684 56.9952 22.8037H58.9952C58.9952 19.7063 58.4028 16.7864 57.212 14.0548L55.3787 14.854ZM56.9952 22.8037C56.9952 24.0445 56.8247 25.3259 56.4779 26.6501L58.4126 27.1568C58.7991 25.6812 58.9952 24.2294 58.9952 22.8037H56.9952ZM56.4779 26.6501C56.1298 27.979 55.6393 29.2609 55.0056 30.4968L56.7852 31.4095C57.4846 30.0455 58.0274 28.6276 58.4126 27.1568L56.4779 26.6501ZM55.0056 30.4968C54.3751 31.7262 53.6208 32.8412 52.743 33.8444L54.2481 35.1614C55.2369 34.0314 56.0824 32.7799 56.7852 31.4095L55.0056 30.4968ZM52.743 33.8444C51.8712 34.8407 50.9134 35.6576 49.8703 36.3019L50.9213 38.0035C52.1447 37.2479 53.2534 36.2982 54.2481 35.1614L52.743 33.8444ZM49.9187 38.0315C50.9675 38.6009 51.9228 39.3856 52.783 40.3995L54.3081 39.1055C53.3018 37.9195 52.1572 36.971 50.8729 36.2738L49.9187 38.0315ZM52.793 40.411C53.6708 41.4142 54.4251 42.5291 55.0556 43.7585L56.8352 42.8459C56.1324 41.4755 55.2869 40.224 54.2981 39.094L52.793 40.411ZM55.0556 43.7585C55.6845 44.985 56.1564 46.2744 56.4713 47.6284L58.4193 47.1754C58.0675 45.663 57.5394 44.2192 56.8352 42.8459L55.0556 43.7585ZM56.4779 47.6553C56.8247 48.9795 56.9952 50.2608 56.9952 51.5016H58.9952C58.9952 50.0759 58.7991 48.6242 58.4126 47.1486L56.4779 47.6553ZM14.9984 59.6511H36.4968V57.6511H14.9984V59.6511ZM36.4968 59.6511C37.6221 59.6511 38.6888 59.4441 39.6863 59.0221L38.907 57.1801C38.1713 57.4914 37.3714 57.6511 36.4968 57.6511V59.6511ZM39.6863 59.0221C40.6654 58.6078 41.5246 58.0373 42.2536 57.3083L40.8393 55.8941C40.3017 56.4318 39.6611 56.8611 38.907 57.1801L39.6863 59.0221ZM42.2536 57.3083C43.0111 56.5508 43.6004 55.6765 44.0173 54.691L42.1754 53.9118C41.859 54.6595 41.4151 55.3184 40.8393 55.8941L42.2536 57.3083ZM44.0173 54.691C44.4393 53.6936 44.6463 52.6269 44.6463 51.5016H42.6463C42.6463 52.3762 42.4866 53.176 42.1754 53.9118L44.0173 54.691ZM44.6463 51.5016C44.6463 50.3763 44.4393 49.3097 44.0173 48.3122L42.1754 49.0915C42.4866 49.8272 42.6463 50.627 42.6463 51.5016H44.6463ZM44.0173 48.3122C43.5984 47.3221 43.0038 46.4572 42.2352 45.727L40.8577 47.177C41.4223 47.7134 41.861 48.3484 42.1754 49.0915L44.0173 48.3122ZM42.2714 45.7632C41.5413 44.9946 40.6764 44.4 39.6863 43.9811L38.907 45.8231C39.6501 46.1375 40.285 46.5761 40.8214 47.1407L42.2714 45.7632ZM39.6863 43.9811C38.6888 43.5591 37.6221 43.3521 36.4968 43.3521V45.3521C37.3714 45.3521 38.1713 45.5118 38.907 45.8231L39.6863 43.9811ZM36.4968 43.3521H14.9984V45.3521H36.4968V43.3521ZM13.9984 44.3521V58.6511H15.9984V44.3521H13.9984ZM14.9984 31.0032H36.4968V29.0032H14.9984V31.0032ZM36.4968 31.0032C37.6221 31.0032 38.6888 30.7962 39.6863 30.3742L38.907 28.5323C38.1713 28.8436 37.3714 29.0032 36.4968 29.0032V31.0032ZM39.6863 30.3742C40.6654 29.96 41.5246 29.3894 42.2536 28.6605L40.8393 27.2463C40.3017 27.7839 39.6611 28.2132 38.907 28.5323L39.6863 30.3742ZM42.2536 28.6605C43.0111 27.903 43.6004 27.0286 44.0173 26.0432L42.1754 25.2639C41.859 26.0117 41.4151 26.6705 40.8393 27.2463L42.2536 28.6605ZM44.0224 26.0308C44.4393 25.0076 44.6463 23.9292 44.6463 22.8037H42.6463C42.6463 23.6781 42.4866 24.4996 42.1702 25.2762L44.0224 26.0308ZM44.6463 22.8037C44.6463 21.6785 44.4393 20.6118 44.0173 19.6143L42.1754 20.3936C42.4866 21.1293 42.6463 21.9292 42.6463 22.8037H44.6463ZM44.0173 19.6143C43.5984 18.6242 43.0038 17.7593 42.2352 17.0291L40.8577 18.4791C41.4223 19.0155 41.861 19.6505 42.1754 20.3936L44.0173 19.6143ZM42.2714 17.0654C41.5413 16.2968 40.6764 15.7022 39.6863 15.2833L38.907 17.1252C39.6501 17.4396 40.285 17.8783 40.8214 18.4429L42.2714 17.0654ZM39.6863 15.2833C38.6888 14.8613 37.6221 14.6543 36.4968 14.6543V16.6543C37.3714 16.6543 38.1713 16.8139 38.907 17.1252L39.6863 15.2833ZM36.4968 14.6543H14.9984V16.6543H36.4968V14.6543ZM13.9984 15.6543V30.0032H15.9984V15.6543H13.9984ZM137.739 47.3019L136.777 47.0285L136.775 47.0353L137.739 47.3019ZM134.04 56.1513L134.903 56.6564L134.905 56.6519L134.04 56.1513ZM128.24 63.6507L127.533 62.9436L128.24 63.6507ZM120.741 69.5003L121.246 70.3633L121.253 70.3587L120.741 69.5003ZM111.891 73.2L111.627 72.2354L111.618 72.2381L111.891 73.2ZM92.1927 73.2L92.4661 72.2381L92.4593 72.2362L92.1927 73.2ZM83.3433 69.5003L82.8304 70.3587L82.8365 70.3623L82.8427 70.3659L83.3433 69.5003ZM69.9943 56.1513L69.1287 56.6519L69.1322 56.6581L69.1359 56.6642L69.9943 56.1513ZM66.2446 47.3019L65.28 47.5659L65.2835 47.578L66.2446 47.3019ZM66.2446 27.6034L65.2827 27.33L65.2801 27.3394L66.2446 27.6034ZM69.9943 18.7541L69.1359 18.2411L69.1313 18.2489L69.9943 18.7541ZM75.8439 11.2546L76.551 11.9617L75.8439 11.2546ZM83.3433 5.45505L82.8427 4.58937L82.8382 4.59203L83.3433 5.45505ZM92.1927 1.75532L92.4593 2.71916L92.466 2.71723L92.1927 1.75532ZM111.891 1.75532L111.618 2.71727L111.627 2.71985L111.891 1.75532ZM128.24 11.2546L127.533 11.9617L128.24 11.2546ZM137.739 27.6034L136.775 27.8674L136.777 27.8768L137.739 27.6034ZM123.04 28.6033L122.121 28.9972L122.123 29.0012L123.04 28.6033ZM118.141 21.3539L117.428 22.0552L117.434 22.061L117.439 22.0667L118.141 21.3539ZM110.891 16.4542L110.493 17.3717L110.497 17.3734L110.891 16.4542ZM85.8931 21.3539L86.5945 22.0667L86.6002 22.061L85.8931 21.3539ZM80.9935 28.6033L81.9109 29.0012L81.9127 28.9972L80.9935 28.6033ZM80.9935 46.302L80.0761 46.6999L80.0779 46.704L80.9935 46.302ZM110.891 58.4011L110.497 57.4819L110.493 57.4837L110.891 58.4011ZM118.141 53.5015L117.434 52.7943L117.428 52.8001L118.141 53.5015ZM123.04 46.302L123.956 46.704L123.958 46.6999L123.04 46.302ZM138.089 37.4527C138.089 40.763 137.651 43.9539 136.777 47.0285L138.701 47.5753C139.627 44.3171 140.089 40.9418 140.089 37.4527H138.089ZM136.775 47.0353C135.931 50.088 134.73 52.959 133.174 55.6506L134.905 56.6519C136.548 53.8106 137.814 50.7821 138.703 47.5685L136.775 47.0353ZM133.177 55.6461C131.62 58.3046 129.74 60.7367 127.533 62.9436L128.947 64.3578C131.273 62.0317 133.259 59.4641 134.903 56.6564L133.177 55.6461ZM127.533 62.9436C125.324 65.1522 122.89 67.0512 120.228 68.6418L121.253 70.3587C124.058 68.6829 126.623 66.6821 128.947 64.3578L127.533 62.9436ZM120.235 68.6372C117.581 70.1913 114.712 71.3911 111.627 72.2355L112.155 74.1645C115.403 73.2756 118.434 72.009 121.246 70.3633L120.235 68.6372ZM111.618 72.2381C108.543 73.1119 105.352 73.5499 102.042 73.5499V75.5499C105.531 75.5499 108.906 75.0879 112.165 74.1619L111.618 72.2381ZM102.042 73.5499C98.7316 73.5499 95.5407 73.1119 92.466 72.2381L91.9193 74.1619C95.1775 75.0879 98.5528 75.5499 102.042 75.5499V73.5499ZM92.4593 72.2362C89.4066 71.3918 86.5356 70.1912 83.844 68.6346L82.8427 70.3659C85.684 72.0091 88.7125 73.2749 91.9261 74.1638L92.4593 72.2362ZM83.8563 68.6418C81.1943 67.0512 78.7597 65.1522 76.551 62.9436L75.1368 64.3578C77.4611 66.6821 80.0261 68.6829 82.8304 70.3587L83.8563 68.6418ZM76.551 62.9436C74.3423 60.7349 72.4434 58.3003 70.8527 55.6383L69.1359 56.6642C70.8117 59.4685 72.8124 62.0335 75.1368 64.3578L76.551 62.9436ZM70.86 55.6506C69.3018 52.9563 68.0836 50.0821 67.2057 47.0258L65.2835 47.578C66.2055 50.788 67.4871 53.8133 69.1287 56.6519L70.86 55.6506ZM67.2091 47.0379C66.3669 43.9606 65.9447 40.7664 65.9447 37.4527H63.9447C63.9447 40.9384 64.3891 44.3104 65.2801 47.5659L67.2091 47.0379ZM65.9447 37.4527C65.9447 34.1389 66.3669 30.9448 67.2091 27.8674L65.2801 27.3394C64.3891 30.5949 63.9447 33.9669 63.9447 37.4527H65.9447ZM67.2065 27.8768C68.0843 24.7883 69.3017 21.9168 70.8573 19.2592L69.1313 18.2489C67.4872 21.0576 66.2048 24.0857 65.2827 27.33L67.2065 27.8768ZM70.8527 19.267C72.4434 16.6051 74.3423 14.1704 76.551 11.9617L75.1368 10.5475C72.8124 12.8718 70.8117 15.4368 69.1359 18.2411L70.8527 19.267ZM76.551 11.9617C78.7579 9.75486 81.19 7.87428 83.8485 6.31806L82.8382 4.59203C80.0304 6.23557 77.4629 8.22137 75.1368 10.5475L76.551 11.9617ZM83.844 6.32071C86.5356 4.76408 89.4066 3.56349 92.4593 2.71914L91.9261 0.791512C88.7125 1.68036 85.684 2.94625 82.8427 4.58938L83.844 6.32071ZM92.466 2.71723C95.5407 1.84339 98.7316 1.40542 102.042 1.40542V-0.594576C98.5528 -0.594576 95.1775 -0.132608 91.9193 0.793419L92.466 2.71723ZM102.042 1.40542C105.352 1.40542 108.543 1.84339 111.618 2.71723L112.165 0.793419C108.906 -0.132608 105.531 -0.594576 102.042 -0.594576V1.40542ZM111.627 2.71985C114.712 3.56418 117.581 4.76403 120.235 6.31806L121.246 4.59203C118.434 2.9463 115.403 1.67967 112.155 0.790794L111.627 2.71985ZM120.235 6.31806C122.894 7.87428 125.326 9.75486 127.533 11.9617L128.947 10.5475C126.621 8.22137 124.053 6.23557 121.246 4.59203L120.235 6.31806ZM127.533 11.9617C129.74 14.1686 131.62 16.6007 133.177 19.2592L134.903 18.2489C133.259 15.4412 131.273 12.8736 128.947 10.5475L127.533 11.9617ZM133.177 19.2592C134.731 21.914 135.93 24.7823 136.775 27.8674L138.704 27.3394C137.815 24.0916 136.548 21.0603 134.903 18.2489L133.177 19.2592ZM136.777 27.8768C137.651 30.9514 138.089 34.1423 138.089 37.4527H140.089C140.089 33.9635 139.627 30.5883 138.701 27.33L136.777 27.8768ZM125.84 37.4527C125.84 34.1881 125.214 31.1024 123.958 28.2054L122.123 29.0012C123.266 31.6372 123.84 34.451 123.84 37.4527H125.84ZM123.96 28.2094C122.711 25.2963 121.006 22.7699 118.842 20.641L117.439 22.0667C119.409 24.0042 120.97 26.3107 122.121 28.9972L123.96 28.2094ZM118.854 20.6525C116.725 18.4887 114.198 16.7835 111.285 15.5351L110.497 17.3734C113.184 18.5247 115.49 20.086 117.428 22.0552L118.854 20.6525ZM111.289 15.5368C108.392 14.2803 105.306 13.6544 102.042 13.6544V15.6544C105.044 15.6544 107.857 16.2283 110.493 17.3716L111.289 15.5368ZM102.042 13.6544C98.7456 13.6544 95.643 14.2797 92.7447 15.5368L93.5405 17.3716C96.1751 16.2289 99.0054 15.6544 102.042 15.6544V13.6544ZM92.7447 15.5368C89.8666 16.7851 87.3443 18.4885 85.186 20.6468L86.6002 22.061C88.575 20.0862 90.8857 18.5231 93.5405 17.3716L92.7447 15.5368ZM85.1918 20.641C83.028 22.7699 81.3228 25.2963 80.0744 28.2094L81.9127 28.9972C83.064 26.3107 84.6253 24.0042 86.5945 22.0667L85.1918 20.641ZM80.0761 28.2054C78.8196 31.1024 78.1936 34.1881 78.1936 37.4527H80.1936C80.1936 34.451 80.7676 31.6372 81.9109 29.0012L80.0761 28.2054ZM78.1936 37.4527C78.1936 40.7172 78.8196 43.8029 80.0761 46.6999L81.9109 45.9041C80.7676 43.2681 80.1936 40.4543 80.1936 37.4527H78.1936ZM80.0779 46.704C81.3266 49.5484 83.0298 52.0523 85.186 54.2086L86.6002 52.7943C84.6235 50.8176 83.0602 48.5218 81.9091 45.9L80.0779 46.704ZM85.186 54.2086C87.3443 56.3668 89.8666 58.0702 92.7447 59.3185L93.5405 57.4837C90.8857 56.3322 88.575 54.7691 86.6002 52.7943L85.186 54.2086ZM92.7447 59.3185C95.643 60.5756 98.7456 61.201 102.042 61.201V59.201C99.0054 59.201 96.1751 58.6264 93.5405 57.4837L92.7447 59.3185ZM102.042 61.201C105.306 61.201 108.392 60.575 111.289 59.3185L110.493 57.4837C107.857 58.627 105.044 59.201 102.042 59.201V61.201ZM111.285 59.3202C114.198 58.0718 116.725 56.3666 118.854 54.2028L117.428 52.8001C115.49 54.7693 113.184 56.3306 110.497 57.4819L111.285 59.3202ZM118.848 54.2086C121.004 52.0523 122.707 49.5484 123.956 46.704L122.125 45.9C120.974 48.5218 119.41 50.8176 117.434 52.7943L118.848 54.2086ZM123.958 46.6999C125.214 43.8029 125.84 40.7172 125.84 37.4527H123.84C123.84 40.4543 123.266 43.2681 122.123 45.9041L123.958 46.6999ZM205.884 73V74H206.884V73H205.884ZM190.535 73L189.672 73.5055L189.962 74H190.535V73ZM162.887 25.8035L163.75 25.2981L161.887 22.1181V25.8035H162.887ZM162.887 73V74H163.887V73H162.887ZM148.538 73H147.538V74H148.538V73ZM148.538 1.30536V0.305357H147.538V1.30536H148.538ZM163.887 1.30536L164.75 0.800295L164.461 0.305357H163.887V1.30536ZM191.535 48.5518L190.672 49.0569L192.535 52.2406V48.5518H191.535ZM191.535 1.30536V0.305357H190.535V1.30536H191.535ZM205.884 1.30536H206.884V0.305357H205.884V1.30536ZM205.884 72H190.535V74H205.884V72ZM191.398 72.4945L163.75 25.2981L162.025 26.309L189.672 73.5055L191.398 72.4945ZM161.887 25.8035V73H163.887V25.8035H161.887ZM162.887 72H148.538V74H162.887V72ZM149.538 73V1.30536H147.538V73H149.538ZM148.538 2.30536H163.887V0.305357H148.538V2.30536ZM163.024 1.81042L190.672 49.0569L192.398 48.0468L164.75 0.800295L163.024 1.81042ZM192.535 48.5518V1.30536H190.535V48.5518H192.535ZM191.535 2.30536H205.884V0.305357H191.535V2.30536ZM204.884 1.30536V73H206.884V1.30536H204.884ZM273.529 55.5513L274.447 55.9484L274.448 55.9452L273.529 55.5513ZM267.38 64.6506L268.082 65.3623L268.087 65.3577L267.38 64.6506ZM258.23 70.7502L257.836 69.831L257.833 69.8324L258.23 70.7502ZM235.882 70.7502L235.485 71.6679L235.488 71.6693L235.882 70.7502ZM226.783 64.6506L226.071 65.3532L226.08 65.3623L226.783 64.6506ZM220.683 55.5513L219.764 55.9452L219.765 55.9484L220.683 55.5513ZM218.433 1.30536V0.305357H217.433V1.30536H218.433ZM232.732 1.30536H233.732V0.305357H232.732V1.30536ZM233.832 49.9017L232.911 50.2914L232.914 50.2988L232.918 50.3062L233.832 49.9017ZM241.482 57.5512L241.077 58.4657L241.088 58.4703L241.098 58.4747L241.482 57.5512ZM252.631 57.5512L253.02 58.4722L253.029 58.4685L252.631 57.5512ZM260.28 49.9017L259.366 49.4972L259.362 49.5046L259.359 49.5121L260.28 49.9017ZM261.43 1.30536V0.305357H260.43V1.30536H261.43ZM275.779 1.30536H276.779V0.305357H275.779V1.30536ZM274.779 44.3521C274.779 48.1889 274.054 51.7873 272.61 55.1574L274.448 55.9452C276.004 52.3158 276.779 48.4482 276.779 44.3521H274.779ZM272.611 55.1542C271.16 58.5081 269.181 61.4353 266.672 63.9435L268.087 65.3577C270.778 62.6663 272.898 59.5273 274.447 55.9484L272.611 55.1542ZM266.677 63.939C264.17 66.4139 261.226 68.3783 257.836 69.831L258.624 71.6693C262.234 70.1223 265.39 68.0203 268.082 65.3623L266.677 63.939ZM257.833 69.8324C254.498 71.2753 250.918 72 247.081 72V74C251.177 74 255.029 73.2248 258.627 71.6679L257.833 69.8324ZM247.081 72C243.244 72 239.646 71.2753 236.276 69.831L235.488 71.6693C239.117 73.2248 242.985 74 247.081 74V72ZM236.279 69.8324C232.922 68.38 229.994 66.4155 227.485 63.939L226.08 65.3623C228.771 68.0187 231.909 70.1206 235.485 71.6679L236.279 69.8324ZM227.494 63.9481C225.018 61.4394 223.053 58.5108 221.601 55.1542L219.765 55.9484C221.313 59.5246 223.415 62.6622 226.071 65.3532L227.494 63.9481ZM221.602 55.1574C220.158 51.7873 219.433 48.1889 219.433 44.3521H217.433C217.433 48.4482 218.208 52.3158 219.764 55.9452L221.602 55.1574ZM219.433 44.3521V1.30536H217.433V44.3521H219.433ZM218.433 2.30536H232.732V0.305357H218.433V2.30536ZM231.732 1.30536V44.3521H233.732V1.30536H231.732ZM231.732 44.3521C231.732 46.4464 232.123 48.4294 232.911 50.2914L234.753 49.5121C234.074 47.9077 233.732 46.1909 233.732 44.3521H231.732ZM232.918 50.3062C233.732 52.1487 234.835 53.7687 236.225 55.1585L237.639 53.7443C236.429 52.5343 235.465 51.1212 234.747 49.4972L232.918 50.3062ZM236.225 55.1585C237.615 56.5483 239.235 57.6508 241.077 58.4657L241.886 56.6366C240.262 55.9183 238.849 54.9543 237.639 53.7443L236.225 55.1585ZM241.098 58.4747C242.99 59.2599 244.987 59.6511 247.081 59.6511V57.6511C245.242 57.6511 243.506 57.309 241.865 56.6276L241.098 58.4747ZM247.081 59.6511C249.175 59.6511 251.158 59.2599 253.02 58.4721L252.241 56.6302C250.637 57.309 248.92 57.6511 247.081 57.6511V59.6511ZM253.029 58.4685C254.905 57.6543 256.544 56.5515 257.937 55.1585L256.523 53.7443C255.316 54.9511 253.889 55.9148 252.233 56.6338L253.029 58.4685ZM257.937 55.1585C259.331 53.7653 260.419 52.1403 261.201 50.2914L259.359 49.5121C258.675 51.1296 257.73 52.5376 256.523 53.7443L257.937 55.1585ZM261.195 50.3062C262.02 48.4408 262.43 46.4526 262.43 44.3521H260.43C260.43 46.1847 260.074 47.8962 259.366 49.4972L261.195 50.3062ZM262.43 44.3521V1.30536H260.43V44.3521H262.43ZM261.43 2.30536H275.779V0.305357H261.43V2.30536ZM274.779 1.30536V44.3521H276.779V1.30536H274.779ZM290.328 7.65488L289.621 6.94778L290.328 7.65488ZM338.424 1.30536H339.424V0.305357H338.424V1.30536ZM338.424 15.6543V16.6543H339.424V15.6543H338.424ZM300.427 17.7541L299.72 17.047L300.427 17.7541ZM298.927 25.6535L298.001 26.0309L298.006 26.0432L298.927 25.6535ZM300.427 27.9534L299.702 28.6421L299.72 28.6607L299.738 28.6784L300.427 27.9534ZM328.225 31.7031L327.825 32.6198L327.832 32.6229L327.84 32.6258L328.225 31.7031ZM335.075 36.3027L334.361 37.0038L334.367 37.0099L334.373 37.0159L335.075 36.3027ZM339.674 43.1522L338.751 43.5377L338.754 43.5448L338.757 43.5518L339.674 43.1522ZM339.674 59.851L338.757 59.4514L338.753 59.4613L339.674 59.851ZM335.075 66.7005L335.782 67.4076L335.075 66.7005ZM328.225 71.3001L327.83 70.3816L327.825 70.3834L328.225 71.3001ZM288.028 73H287.028V74H288.028V73ZM288.028 58.6511V57.6511H287.028V58.6511H288.028ZM324.925 56.6012L324.218 55.8941L324.925 56.6012ZM324.925 46.452L324.2 47.1407L324.218 47.1593L324.237 47.177L324.925 46.452ZM290.328 38.0526L289.615 38.7536L289.621 38.7597L289.627 38.7657L290.328 38.0526ZM285.728 31.2031L284.81 31.5984L284.812 31.6027L285.728 31.2031ZM285.028 22.8037C285.028 19.9684 285.569 17.3219 286.645 14.854L284.812 14.0548C283.621 16.7864 283.028 19.7063 283.028 22.8037H285.028ZM286.645 14.854C287.73 12.3645 289.194 10.2034 291.035 8.36199L289.621 6.94778C287.596 8.97276 285.993 11.3446 284.812 14.0548L286.645 14.854ZM291.035 8.36199C292.911 6.48573 295.09 5.00618 297.577 3.92193L296.778 2.08853C294.066 3.27078 291.678 4.891 289.621 6.94778L291.035 8.36199ZM297.577 3.92193C300.045 2.84614 302.691 2.30536 305.527 2.30536V0.305357C302.429 0.305357 299.509 0.89782 296.778 2.08853L297.577 3.92193ZM305.527 2.30536H338.424V0.305357H305.527V2.30536ZM337.424 1.30536V15.6543H339.424V1.30536H337.424ZM338.424 14.6543H305.527V16.6543H338.424V14.6543ZM305.527 14.6543C304.401 14.6543 303.335 14.8613 302.337 15.2833L303.117 17.1252C303.852 16.8139 304.652 16.6543 305.527 16.6543V14.6543ZM302.337 15.2833C301.352 15.7002 300.478 16.2895 299.72 17.047L301.134 18.4612C301.71 17.8855 302.369 17.4416 303.117 17.1252L302.337 15.2833ZM299.72 17.047C298.991 17.7759 298.421 18.6352 298.006 19.6143L299.848 20.3936C300.167 19.6395 300.597 18.9989 301.134 18.4612L299.72 17.047ZM298.006 19.6143C297.584 20.6118 297.377 21.6785 297.377 22.8037H299.377C299.377 21.9292 299.537 21.1293 299.848 20.3936L298.006 19.6143ZM297.377 22.8037C297.377 23.9292 297.584 25.0076 298.001 26.0308L299.853 25.2762C299.537 24.4996 299.377 23.6781 299.377 22.8037H297.377ZM298.006 26.0432C298.419 27.0178 298.984 27.8863 299.702 28.6421L301.152 27.2646C300.604 26.6872 300.169 26.0225 299.848 25.2639L298.006 26.0432ZM299.738 28.6784C300.494 29.3964 301.363 29.9619 302.337 30.3742L303.117 28.5323C302.358 28.2114 301.693 27.7769 301.116 27.2284L299.738 28.6784ZM302.337 30.3742C303.335 30.7962 304.401 31.0032 305.527 31.0032V29.0032C304.652 29.0032 303.852 28.8436 303.117 28.5323L302.337 30.3742ZM305.527 31.0032H319.876V29.0032H305.527V31.0032ZM319.876 31.0032C322.711 31.0032 325.357 31.544 327.825 32.6198L328.625 30.7864C325.893 29.5957 322.973 29.0032 319.876 29.0032V31.0032ZM327.84 32.6258C330.354 33.6762 332.525 35.1356 334.361 37.0038L335.788 35.6017C333.758 33.5369 331.362 31.9298 328.61 30.7804L327.84 32.6258ZM334.373 37.0159C336.242 38.8524 337.701 41.0231 338.751 43.5377L340.597 42.7668C339.447 40.0151 337.84 37.6194 335.776 35.5896L334.373 37.0159ZM338.757 43.5518C339.833 46.0198 340.374 48.6662 340.374 51.5016H342.374C342.374 48.4041 341.782 45.4843 340.591 42.7526L338.757 43.5518ZM340.374 51.5016C340.374 54.337 339.833 56.9834 338.757 59.4514L340.591 60.2506C341.782 57.5189 342.374 54.5991 342.374 51.5016H340.374ZM338.753 59.4613C337.703 61.9444 336.241 64.1193 334.367 65.9934L335.782 67.4076C337.841 65.3486 339.446 62.9572 340.595 60.2406L338.753 59.4613ZM334.367 65.9934C332.528 67.8326 330.352 69.296 327.83 70.3816L328.62 72.2187C331.364 71.0378 333.755 69.4347 335.782 67.4076L334.367 65.9934ZM327.825 70.3834C325.357 71.4592 322.711 72 319.876 72V74C322.973 74 325.893 73.4075 328.625 72.2168L327.825 70.3834ZM319.876 72H288.028V74H319.876V72ZM289.028 73V58.6511H287.028V73H289.028ZM288.028 59.6511H319.876V57.6511H288.028V59.6511ZM319.876 59.6511C321.001 59.6511 322.068 59.4441 323.065 59.0221L322.286 57.1801C321.55 57.4914 320.75 57.6511 319.876 57.6511V59.6511ZM323.065 59.0221C324.044 58.6078 324.903 58.0373 325.632 57.3083L324.218 55.8941C323.681 56.4318 323.04 56.8611 322.286 57.1801L323.065 59.0221ZM325.632 57.3083C326.39 56.5508 326.979 55.6765 327.396 54.691L325.554 53.9118C325.238 54.6595 324.794 55.3184 324.218 55.8941L325.632 57.3083ZM327.396 54.691C327.818 53.6936 328.025 52.6269 328.025 51.5016H326.025C326.025 52.3762 325.865 53.176 325.554 53.9118L327.396 54.691ZM328.025 51.5016C328.025 50.3763 327.818 49.3097 327.396 48.3122L325.554 49.0915C325.865 49.8272 326.025 50.627 326.025 51.5016H328.025ZM327.396 48.3122C326.977 47.3221 326.383 46.4572 325.614 45.727L324.237 47.177C324.801 47.7134 325.24 48.3484 325.554 49.0915L327.396 48.3122ZM325.65 45.7632C324.92 44.9946 324.055 44.4 323.065 43.9811L322.286 45.8231C323.029 46.1375 323.664 46.5761 324.2 47.1407L325.65 45.7632ZM323.065 43.9811C322.068 43.5591 321.001 43.3521 319.876 43.3521V45.3521C320.75 45.3521 321.55 45.5118 322.286 45.8231L323.065 43.9811ZM319.876 43.3521H305.527V45.3521H319.876V43.3521ZM305.527 43.3521C302.691 43.3521 300.045 42.8114 297.577 41.7356L296.778 43.569C299.509 44.7597 302.429 45.3521 305.527 45.3521V43.3521ZM297.577 41.7356C295.086 40.6498 292.906 39.1845 291.029 37.3395L289.627 38.7657C291.683 40.7871 294.069 42.3883 296.778 43.569L297.577 41.7356ZM291.041 37.3516C289.196 35.4747 287.731 33.2945 286.645 30.8035L284.812 31.6027C285.992 34.3114 287.593 36.6974 289.615 38.7536L291.041 37.3516ZM286.647 30.8078C285.569 28.3039 285.028 25.6391 285.028 22.8037H283.028C283.028 25.9013 283.621 28.8361 284.81 31.5984L286.647 30.8078Z" fill="#FF8E30"/>
</svg>
