<svg width="166" height="165" viewBox="0 0 166 165" fill="none" xmlns="http://www.w3.org/2000/svg">
<path d="M119.867 87.8249V109.037H114.75V71.9676H50.7551V109.008H45.4V87.8249H3.74865C0.773554 87.8249 0 87.0216 0 84.106V3.77843C0 0.803334 0.803276 0 3.71887 0H161.399C164.374 0 165.058 0.833089 165.058 3.68918V84.1953C165.058 87.1704 164.225 87.8546 161.399 87.8546H119.748L119.867 87.8249ZM110.495 66.4934C111.023 64.7219 111.46 62.9246 111.804 61.1085C111.879 59.7211 111.879 58.3308 111.804 56.9434C111.876 56.4931 111.791 56.0318 111.563 55.6366C111.336 55.2414 110.98 54.936 110.555 54.7715C109.051 53.9657 107.854 52.687 107.149 51.1328C106.445 49.5787 106.272 47.8358 106.657 46.1736C106.947 44.8734 107.558 43.6665 108.435 42.6632C109.311 41.66 110.425 40.8923 111.674 40.4303C112.924 39.9683 114.269 39.8267 115.587 40.0184C116.906 40.2102 118.155 40.7293 119.221 41.5282C120.287 42.327 121.136 43.3802 121.69 44.5916C122.244 45.803 122.486 47.1339 122.393 48.4628C122.301 49.7917 121.877 51.0763 121.16 52.1991C120.443 53.3219 119.456 54.2473 118.29 54.8906C117.756 55.1624 117.351 55.6323 117.159 56.1996C116.832 59.5912 116.624 62.9829 116.386 66.434C119.361 66.91 119.777 67.2967 119.777 70.8966V82.4102H159.584V15.8573H98.684V10.5913H159.674V5.38492H5.53373V10.6807H66.5529V15.9763H5.56342V82.4102H45.3702V70.8966C45.3702 67.2967 45.6975 66.91 48.8214 66.4042C48.5536 63.2803 48.2263 60.1565 48.0478 57.0326C48.0969 56.5618 47.9969 56.0875 47.7621 55.6765C47.5272 55.2655 47.1694 54.9386 46.7388 54.7419C45.1994 53.8945 43.9915 52.5518 43.3111 50.9316C42.6306 49.3115 42.5175 47.509 42.9902 45.8166C43.3386 44.5432 43.9979 43.3762 44.9086 42.4205C45.8194 41.4647 46.9533 40.75 48.2084 40.3407C49.4636 39.9313 50.8007 39.84 52.0999 40.075C53.399 40.31 54.6195 40.8639 55.6517 41.687C56.6839 42.5101 57.4956 43.5766 58.0139 44.7909C58.5321 46.0051 58.7409 47.3291 58.6212 48.6439C58.5015 49.9586 58.0571 51.2231 57.3281 52.3238C56.5991 53.4245 55.6082 54.3269 54.4443 54.95C53.9981 55.1881 53.4328 55.7236 53.403 56.1402C53.0954 59.645 53.5835 63.174 54.831 66.4637H61.3465C61.3465 61.9416 61.3465 57.5384 61.3465 53.1055C61.3692 50.3119 62.2771 47.5975 63.9396 45.3523C65.6021 43.1072 67.9337 41.4469 70.5991 40.6101L71.9974 40.1638C68.0405 32.2203 68.7843 26.0916 74.1989 21.6587C76.563 19.7407 79.5147 18.694 82.5589 18.694C85.6032 18.694 88.5549 19.7407 90.919 21.6587C96.4526 26.0618 97.2559 32.2501 93.2395 40.2234L94.0131 40.4911C96.9652 41.2713 99.5599 43.0414 101.363 45.5054C103.167 47.9695 104.069 50.978 103.92 54.0278V66.6125L110.495 66.4934ZM98.5948 66.4934C98.5948 61.7035 98.7435 57.0624 98.5948 52.4213C98.4525 50.4874 97.5864 48.6782 96.1691 47.3547C94.7519 46.0312 92.8878 45.2907 90.9487 45.281C85.4746 45.281 80.0004 45.281 74.5262 45.281C72.4788 45.3191 70.5257 46.1495 69.0777 47.5976C67.6296 49.0456 66.7993 50.9986 66.7612 53.046C66.7612 54.7121 66.7612 56.3781 66.7612 58.0442V66.4934H98.5948ZM90.6215 31.9526C90.6215 30.3782 90.1553 28.839 89.2818 27.5291C88.4083 26.2192 87.1665 25.1973 85.713 24.5921C84.2595 23.9869 82.6594 23.8256 81.1144 24.1284C79.5694 24.4313 78.1487 25.1848 77.0313 26.2939C75.9139 27.4031 75.1498 28.8182 74.8355 30.3609C74.5211 31.9036 74.6706 33.5049 75.2649 34.9628C75.8593 36.4208 76.872 37.67 78.1754 38.5532C79.4787 39.4365 81.0144 39.9141 82.5887 39.9258C83.6408 39.9298 84.6832 39.7254 85.656 39.3246C86.6287 38.9238 87.5125 38.3345 88.2565 37.5906C89.0004 36.8466 89.5897 35.9628 89.9905 34.9901C90.3913 34.0173 90.5957 32.9749 90.5917 31.9228L90.6215 31.9526ZM50.6362 45.281C49.934 45.281 49.2604 45.56 48.7639 46.0565C48.2673 46.5531 47.9883 47.2266 47.9883 47.9289C47.9883 48.6311 48.2673 49.3046 48.7639 49.8012C49.2604 50.2978 49.934 50.5766 50.6362 50.5766C50.9943 50.5728 51.348 50.498 51.677 50.3565C52.0059 50.215 52.3035 50.0096 52.5526 49.7523C52.8016 49.4949 52.9971 49.1907 53.1277 48.8573C53.2584 48.5239 53.3217 48.1678 53.3138 47.8098C53.2829 47.1153 52.9832 46.4601 52.4779 45.9826C51.9727 45.5051 51.3016 45.2429 50.6064 45.2513L50.6362 45.281ZM117.249 47.9289C117.249 47.4039 117.093 46.8908 116.8 46.4547C116.508 46.0187 116.093 45.6793 115.607 45.4798C115.121 45.2803 114.588 45.2297 114.073 45.3343C113.559 45.4389 113.087 45.694 112.718 46.0673C112.349 46.4406 112.099 46.9152 112 47.4308C111.901 47.9463 111.958 48.4796 112.163 48.9629C112.368 49.4462 112.712 49.8577 113.151 50.145C113.591 50.4324 114.106 50.5825 114.63 50.5766C115.328 50.561 115.99 50.2711 116.475 49.7698C116.96 49.2685 117.227 48.5963 117.219 47.8991L117.249 47.9289Z" fill="url(#paint0_linear_34_2383)"/>
<path d="M28.4717 133.464L34.7195 137.986L40.9672 133.464C39.8752 131.955 39.1528 130.21 38.8582 128.37C38.5637 126.531 38.7052 124.648 39.2713 122.873C40.043 120.297 41.683 118.068 43.9125 116.565C46.0745 115.068 48.6718 114.328 51.2985 114.463C53.9252 114.597 56.4334 115.598 58.431 117.309C63.1316 121.355 63.7861 126.74 60.4242 133.523L66.672 137.956L72.9197 133.464C70.8129 131.097 69.7328 127.99 69.9169 124.826C70.101 121.663 71.5343 118.702 73.9014 116.595C76.2686 114.488 79.3757 113.408 82.5392 113.592C85.7027 113.777 88.6635 115.21 90.7703 117.577C95.2924 121.683 95.8874 127.514 92.4363 133.464L98.7435 137.986L104.961 133.464C103.822 131.89 103.086 130.061 102.816 128.137C102.546 126.213 102.752 124.253 103.414 122.426C104.286 119.964 105.963 117.867 108.175 116.476C110.39 115.024 113.027 114.352 115.668 114.567C118.309 114.783 120.802 115.873 122.753 117.666C127.215 121.742 127.751 127.246 124.419 133.553L130.696 138.016L136.914 133.523C134.959 131.204 133.964 128.225 134.132 125.196C134.3 122.166 135.618 119.316 137.818 117.226C140.017 115.137 142.932 113.967 145.966 113.954C148.999 113.942 151.923 115.089 154.14 117.16C159.049 121.177 159.733 126.383 156.252 133.851C156.802 134.078 157.338 134.337 157.859 134.624C160.035 135.644 161.879 137.257 163.179 139.278C164.479 141.299 165.182 143.646 165.207 146.049C165.386 151.374 165.207 156.7 165.207 162.025C165.207 164.078 164.196 165 162.232 165H4.55193C0.952062 165 0.327342 164.375 0.327342 160.775V147.298C0.143082 144.479 0.863133 141.675 2.3828 139.294C3.90247 136.913 6.14243 135.079 8.77661 134.059L9.19307 133.791C5.68246 126.443 6.48576 120.939 11.6327 116.982C13.8094 115.321 16.4926 114.461 19.2295 114.548C21.9664 114.634 24.5897 115.662 26.657 117.458C31.2386 121.445 31.8931 127.306 28.4717 133.464ZM32.0419 159.645C32.0419 154.944 32.0419 150.392 32.0419 145.87C31.9364 143.88 31.0786 142.005 29.6424 140.624C28.2062 139.243 26.2989 138.46 24.3066 138.432C20.7167 138.432 17.1168 138.432 13.507 138.432C12.4386 138.42 11.3786 138.623 10.3906 139.03C9.40263 139.437 8.50686 140.039 7.75691 140.8C7.00696 141.561 6.41827 142.466 6.02604 143.459C5.63381 144.453 5.44612 145.516 5.4742 146.584C5.4742 149.411 5.4742 152.237 5.4742 155.063V159.645H32.0419ZM63.8159 159.645C63.8805 159.533 63.9305 159.413 63.9646 159.288C63.9646 155.033 63.9646 150.779 63.9646 146.495C63.9812 145.425 63.7808 144.364 63.3755 143.374C62.9701 142.384 62.3683 141.486 61.6064 140.735C60.8444 139.985 59.9383 139.396 58.9425 139.005C57.9467 138.615 56.8821 138.43 55.8129 138.462H45.5191C44.4344 138.429 43.3545 138.619 42.3464 139.02C41.3383 139.422 40.4236 140.027 39.6591 140.797C38.8946 141.567 38.2966 142.486 37.9024 143.497C37.5081 144.508 37.3259 145.589 37.3672 146.673C37.3672 150.64 37.3672 154.607 37.3672 158.574C37.3349 158.97 37.3349 159.368 37.3672 159.764L63.8159 159.645ZM95.9172 159.645C95.9172 154.885 95.9172 150.303 95.9172 145.721C95.7969 143.761 94.938 141.919 93.5137 140.566C92.0895 139.214 90.2055 138.451 88.2414 138.432C84.5225 138.432 80.8335 138.432 77.1146 138.432C75.0696 138.486 73.124 139.326 71.6831 140.778C70.2421 142.23 69.4169 144.182 69.3793 146.227C69.3793 148.488 69.3793 150.779 69.3793 153.04V159.645H95.9172ZM127.84 159.645C127.84 154.885 127.989 150.303 127.84 145.721C127.713 143.763 126.852 141.925 125.429 140.574C124.006 139.223 122.126 138.458 120.164 138.432C116.495 138.432 112.836 138.432 109.186 138.432C108.144 138.436 107.114 138.646 106.153 139.049C105.192 139.452 104.321 140.041 103.588 140.782C102.856 141.523 102.277 142.401 101.884 143.366C101.492 144.331 101.294 145.364 101.302 146.406C101.302 148.786 101.302 151.166 101.302 153.546V159.496L127.84 159.645ZM133.225 159.645H159.763C159.763 154.885 159.941 150.244 159.763 145.602C159.622 143.697 158.776 141.912 157.39 140.597C156.003 139.282 154.176 138.531 152.265 138.492C148.457 138.492 144.649 138.492 140.811 138.492C138.875 138.554 137.032 139.336 135.64 140.683C134.249 142.031 133.409 143.848 133.284 145.781C133.076 150.303 133.225 154.885 133.225 159.615V159.645ZM18.7134 133.107C20.0275 133.118 21.3157 132.741 22.4159 132.022C23.5162 131.304 24.3793 130.276 24.8969 129.068C25.4144 127.86 25.5633 126.526 25.3248 125.233C25.0862 123.941 24.4708 122.748 23.5561 121.804C22.6414 120.861 21.4681 120.209 20.1838 119.93C18.8995 119.652 17.5615 119.759 16.338 120.239C15.1146 120.719 14.0603 121.55 13.3078 122.627C12.5553 123.704 12.1381 124.98 12.1087 126.294C12.0929 127.174 12.2517 128.049 12.5758 128.867C12.9 129.686 13.383 130.432 13.9971 131.062C14.6112 131.693 15.3442 132.196 16.1537 132.542C16.9632 132.887 17.8332 133.07 18.7134 133.077V133.107ZM57.3897 126.473C57.3956 125.153 57.0097 123.862 56.281 122.762C55.5523 121.662 54.5137 120.803 53.2965 120.294C52.0793 119.785 50.7384 119.649 49.4437 119.903C48.149 120.157 46.9588 120.789 46.0238 121.72C45.0888 122.651 44.4511 123.838 44.1916 125.132C43.932 126.425 44.0622 127.767 44.5657 128.986C45.0693 130.206 45.9234 131.248 47.02 131.982C48.1165 132.715 49.4062 133.107 50.7255 133.107C52.4802 133.084 54.1555 132.372 55.3908 131.126C56.6261 129.879 57.3226 128.198 57.3302 126.443L57.3897 126.473ZM82.7078 119.808C81.3885 119.802 80.0971 120.188 78.9973 120.917C77.8974 121.646 77.0386 122.684 76.5296 123.902C76.0206 125.119 75.8844 126.46 76.1382 127.754C76.392 129.049 77.0243 130.239 77.9551 131.174C78.886 132.109 80.0733 132.747 81.3669 133.006C82.6604 133.266 84.0019 133.136 85.2214 132.632C86.4408 132.129 87.4834 131.275 88.217 130.178C88.9506 129.081 89.3422 127.792 89.3422 126.473C89.3501 125.591 89.1824 124.717 88.8488 123.901C88.5152 123.086 88.0225 122.345 87.3993 121.722C86.7761 121.098 86.035 120.606 85.2193 120.272C84.4035 119.938 83.5295 119.771 82.6482 119.779L82.7078 119.808ZM114.601 133.107C115.911 133.101 117.191 132.708 118.279 131.979C119.368 131.25 120.217 130.215 120.721 129.006C121.225 127.796 121.361 126.465 121.112 125.178C120.864 123.892 120.241 122.707 119.323 121.772C118.405 120.838 117.231 120.194 115.949 119.923C114.667 119.652 113.334 119.764 112.115 120.247C110.897 120.729 109.848 121.561 109.099 122.636C108.351 123.712 107.936 124.984 107.907 126.294C107.891 127.177 108.051 128.054 108.377 128.874C108.703 129.694 109.188 130.442 109.806 131.073C110.423 131.704 111.159 132.206 111.972 132.55C112.785 132.894 113.659 133.073 114.541 133.077L114.601 133.107ZM153.277 126.443C153.277 125.123 152.885 123.834 152.152 122.737C151.418 121.641 150.376 120.787 149.156 120.283C147.937 119.78 146.595 119.649 145.302 119.909C144.008 120.168 142.821 120.806 141.89 121.741C140.959 122.676 140.327 123.866 140.073 125.161C139.819 126.456 139.956 127.797 140.464 129.014C140.973 130.231 141.832 131.27 142.932 131.998C144.032 132.727 145.323 133.113 146.643 133.107C148.408 133.06 150.083 132.318 151.303 131.042C152.523 129.766 153.19 128.059 153.158 126.294L153.277 126.443Z" fill="url(#paint1_linear_34_2383)"/>
<defs>
<linearGradient id="paint0_linear_34_2383" x1="82.5292" y1="0" x2="82.5292" y2="109.037" gradientUnits="userSpaceOnUse">
<stop stop-color="white"/>
<stop offset="0.505208" stop-color="#FF8E30"/>
<stop offset="1" stop-color="white"/>
</linearGradient>
<linearGradient id="paint1_linear_34_2383" x1="82.7928" y1="113.572" x2="82.7928" y2="165" gradientUnits="userSpaceOnUse">
<stop stop-color="white"/>
<stop offset="0.505208" stop-color="#FF8E30"/>
<stop offset="1" stop-color="white"/>
</linearGradient>
</defs>
</svg>
