<svg width="170" height="170" viewBox="0 0 170 170" fill="none" xmlns="http://www.w3.org/2000/svg">
<path d="M159.035 170H120.739V164.556H31.3582C22.1054 164.556 16.4441 158.878 16.4441 149.597C16.4441 142.059 16.427 134.521 16.4613 126.984C16.4613 126.038 16.1906 125.514 15.3818 124.928C14.3016 124.196 13.4045 123.225 12.7602 122.091C8.5759 113.919 4.49442 105.693 0.423227 97.4664C0.143514 96.8503 0.00422192 96.1797 0.0154212 95.5032C-0.0051404 69.2354 -0.0051404 42.9675 0.0154212 16.6996C0.0154212 7.2809 7.21198 0.14404 16.6189 0.0583838C18.9013 0.0378263 21.2076 -0.10265 23.4728 0.14404C29.6173 0.829288 34.0723 4.02598 36.8378 9.56964C37.0674 10.0288 37.2765 10.4913 37.5232 11.0189H138.597C147.881 11.0189 153.552 16.6722 153.552 25.9334C153.552 42.8362 153.545 59.739 153.532 76.6417C153.532 77.8683 153.806 78.7729 154.731 79.6363C156.859 81.6235 158.888 83.7169 160.927 85.8035C168.213 93.2419 171.167 102.154 169.583 112.425C168.158 121.676 166.767 130.927 164.786 140.072C163.651 145.317 161.359 150.313 159.645 155.438C159.304 156.394 159.108 157.395 159.066 158.409C158.994 162.202 159.035 166.026 159.035 170ZM32.9003 126.089H115.548C115.647 124.938 115.753 123.859 115.839 122.78C116.387 115.78 116.867 108.773 117.498 101.777C117.902 97.1615 121.325 93.7216 125.722 93.3001C130.211 92.865 134.19 95.6711 135.465 100.201C135.955 101.938 136.38 103.692 136.836 105.439L137.014 105.405V38.5419H38.3799V40.6833C38.3799 55.6492 38.1058 70.6218 38.4965 85.5671C38.6918 93.1048 37.746 100.033 33.5445 106.371C33.1847 106.882 32.9713 107.482 32.9277 108.105C32.8797 114.049 32.9003 119.984 32.9003 126.089ZM38.4553 32.9435H135.616C140.756 32.9435 142.583 34.8005 142.583 39.9912C142.583 67.0037 142.599 94.0139 142.631 121.022C142.692 122.428 143.108 123.795 143.84 124.996C144.204 125.62 145.533 126.151 146.239 125.98C146.945 125.808 147.504 124.739 148.011 123.986C148.199 123.708 148.059 123.204 148.059 122.807C148.059 90.3718 148.059 57.9367 148.059 25.5017C148.059 19.8312 144.69 16.4975 138.971 16.4975H38.4553V32.9435ZM27.4103 119.549C25.9539 121.364 24.6482 123.293 23.0101 124.883C22.2836 125.592 21.9032 126.093 21.9067 127.086C21.9444 134.682 21.9067 142.278 21.9272 149.874C21.9272 155.798 25.2171 159.07 31.18 159.07H120.894C120.572 157.666 120.465 156.47 120.023 155.411C117.583 149.525 115.685 143.515 115.294 137.115C115.188 135.32 115.277 133.517 115.277 131.654H33.733C29.5385 131.654 27.4343 129.533 27.4275 125.322C27.4069 123.338 27.4103 121.358 27.4103 119.549ZM153.552 86.3928V87.9963C153.552 99.762 153.552 111.525 153.552 123.287C153.552 127.497 151.232 130.543 147.384 131.444C143.762 132.298 140.115 130.564 138.501 126.73C136.363 121.642 134.444 116.451 132.675 111.226C131.617 108.105 131.044 104.819 130.191 101.633C129.687 99.7552 128.172 98.6656 126.421 98.7616C124.591 98.8609 123.251 100.163 122.963 102.167C122.85 102.955 122.785 103.757 122.724 104.566C122.107 112.706 121.603 120.861 120.853 128.988C120.092 137.266 121.579 145.112 124.889 152.663C125.032 152.908 125.231 153.116 125.469 153.271C125.707 153.425 125.978 153.521 126.26 153.551C135.342 153.601 144.424 153.601 153.508 153.551C153.783 153.506 154.044 153.397 154.27 153.234C154.497 153.07 154.681 152.856 154.81 152.608C156.064 149.549 157.552 146.53 158.319 143.358C159.813 136.981 160.934 130.516 162.089 124.064C162.976 119.124 163.994 114.18 164.409 109.191C165.19 99.7209 160.872 92.4607 153.552 86.3928ZM5.35802 21.8596H32.8831C32.8831 19.8723 32.9311 17.9982 32.8831 16.124C32.7289 11.084 29.206 6.719 24.213 5.84531C21.6017 5.39647 18.8773 5.50268 16.2043 5.53695C13.7267 5.54654 11.3304 6.42161 9.4299 8.01078C7.52939 9.59995 6.24421 11.8033 5.79667 14.2396C5.35459 16.6928 5.48824 19.2316 5.35802 21.8596ZM10.8411 93.1836V27.5951H5.56021V93.1836H10.8411ZM16.5572 27.5506V93.1323H21.8416V27.5506H16.5572ZM32.7803 93.1905V27.5951H27.496V93.1836L32.7803 93.1905ZM7.27024 98.8164C7.51356 99.3543 7.66091 99.7106 7.83568 100.057C10.9645 106.33 14.0693 112.614 17.2666 118.853C17.6333 119.569 18.5586 120.535 19.1274 120.477C19.8608 120.398 20.7518 119.531 21.139 118.764C24.2952 112.634 27.3486 106.453 30.426 100.283C30.6488 99.8408 30.8167 99.3714 31.0566 98.7993L7.27024 98.8164ZM153.408 164.525V159.187H126.26V164.525H153.408Z" fill="url(#paint0_linear_34_2387)"/>
<path d="M69.7158 43.6543C71.2133 44.1442 72.824 44.4321 74.1948 45.1618C84.6709 50.7226 95.0991 56.3691 105.541 61.995C108.173 63.4134 109.653 65.6097 109.653 68.6179C109.653 71.6261 108.128 73.8052 105.5 75.2134C95.1093 80.8085 84.7429 86.4583 74.3147 91.978C67.5397 95.5653 60.3431 91.1386 60.326 83.4604C60.3031 73.4101 60.3031 63.3598 60.326 53.3094C60.35 48.0193 64.4828 43.901 69.7158 43.6543ZM65.7988 68.474C65.7988 73.3838 65.7988 78.297 65.7988 83.2068C65.7988 87.1162 68.5917 88.8567 71.9913 87.0339C82.1464 81.5862 92.2844 76.1042 102.405 70.588C103.146 70.1803 103.982 69.2518 104.04 68.5117C104.088 67.9018 103.169 66.9733 102.464 66.5861C92.3518 61.079 82.2149 55.605 72.0529 50.1642C68.626 48.3277 65.8193 50.0203 65.8056 53.8953C65.7885 58.7606 65.8022 63.6156 65.8022 68.4706L65.7988 68.474Z" fill="url(#paint1_linear_34_2387)"/>
<path d="M112.333 106.974V112.456H110.411C97.8443 112.456 85.2777 112.456 72.7146 112.429C71.4843 112.429 70.8572 112.672 70.3157 113.926C68.4652 118.284 65.0314 120.645 60.2988 120.638C55.5662 120.631 52.1496 118.239 50.2887 113.902C49.7918 112.737 49.2401 112.405 48.0578 112.432C44.9222 112.504 41.7831 112.456 38.5104 112.456V106.974C41.6597 106.974 44.8365 106.94 48.0133 106.995C49.1476 107.015 49.7644 106.786 50.2716 105.573C52.105 101.218 55.508 98.8915 60.2474 98.7716C62.4391 98.7194 64.5929 99.3486 66.4116 100.572C68.2304 101.796 69.6245 103.554 70.4014 105.603C70.8401 106.71 71.3644 107.005 72.5021 107.001C85.1235 106.96 97.7483 106.974 110.373 106.974H112.333ZM65.7956 109.715C65.7859 108.271 65.2107 106.889 64.1934 105.864C63.1761 104.839 61.7976 104.254 60.3536 104.233C58.9104 104.23 57.5238 104.794 56.4924 105.803C55.4611 106.813 54.8676 108.187 54.8397 109.629C54.8352 110.358 54.9748 111.08 55.2506 111.755C55.5264 112.429 55.9328 113.043 56.4466 113.559C56.9603 114.076 57.5712 114.486 58.2441 114.766C58.917 115.046 59.6386 115.19 60.3674 115.19C61.8084 115.164 63.1824 114.577 64.1964 113.553C65.2104 112.529 65.7842 111.149 65.7956 109.708V109.715Z" fill="url(#paint2_linear_34_2387)"/>
<path d="M68.6877 22.0068H101.316V27.3449H68.6877V22.0068Z" fill="url(#paint3_linear_34_2387)"/>
<path d="M85.089 137.139C91.2575 137.139 97.4259 137.139 103.594 137.139C107.864 137.139 110.315 140.137 109.54 144.358C108.536 149.84 104.177 153.554 98.6117 153.578C89.5371 153.617 80.4615 153.617 71.3847 153.578C65.8365 153.551 61.4466 149.809 60.4665 144.327C59.6988 140.103 62.1457 137.132 66.4328 137.132C72.6469 137.128 78.8657 137.13 85.089 137.139ZM65.8981 142.679C66.0729 145.732 68.0948 148.034 70.9289 148.058C80.2958 148.145 89.6628 148.145 99.0297 148.058C101.963 148.034 104.129 145.568 104.047 142.672L65.8981 142.679Z" fill="url(#paint4_linear_34_2387)"/>
<defs>
<linearGradient id="paint0_linear_34_2387" x1="84.9995" y1="0" x2="84.9995" y2="170" gradientUnits="userSpaceOnUse">
<stop stop-color="white"/>
<stop offset="0.505208" stop-color="#FF8E30"/>
<stop offset="1" stop-color="white"/>
</linearGradient>
<linearGradient id="paint1_linear_34_2387" x1="84.981" y1="43.6543" x2="84.981" y2="93.2419" gradientUnits="userSpaceOnUse">
<stop stop-color="white"/>
<stop offset="0.505208" stop-color="#FF8E30"/>
<stop offset="1" stop-color="white"/>
</linearGradient>
<linearGradient id="paint2_linear_34_2387" x1="75.4219" y1="98.7686" x2="75.4219" y2="120.638" gradientUnits="userSpaceOnUse">
<stop stop-color="white"/>
<stop offset="0.505208" stop-color="#FF8E30"/>
<stop offset="1" stop-color="white"/>
</linearGradient>
<linearGradient id="paint3_linear_34_2387" x1="85.0017" y1="22.0068" x2="85.0017" y2="27.3449" gradientUnits="userSpaceOnUse">
<stop stop-color="white"/>
<stop offset="0.505208" stop-color="#FF8E30"/>
<stop offset="1" stop-color="white"/>
</linearGradient>
<linearGradient id="paint4_linear_34_2387" x1="85.0044" y1="137.13" x2="85.0044" y2="153.607" gradientUnits="userSpaceOnUse">
<stop stop-color="white"/>
<stop offset="0.505208" stop-color="#FF8E30"/>
<stop offset="1" stop-color="white"/>
</linearGradient>
</defs>
</svg>
