<svg width="175" height="165" viewBox="0 0 175 165" fill="none" xmlns="http://www.w3.org/2000/svg">
<path d="M90.1392 164.925H20.1275C15.9053 164.925 15.4731 164.313 15.2471 160.174C14.8581 152.94 15.9353 145.998 18.0896 139.076C21.3642 128.561 24.1968 117.906 27.2287 107.314C28.0865 104.321 28.6716 103.893 31.8 103.893H148.349C151.59 103.893 152.085 104.268 153.003 107.483C156.816 120.781 160.939 134.026 164.267 147.457C165.453 152.245 164.832 157.514 164.729 162.561C164.729 163.349 163.153 164.276 162.136 164.818C161.491 165.151 160.53 164.925 159.709 164.925H90.1392ZM21.454 158.728H158.655V152.85H21.454V158.728ZM147.351 109.96H38.11C32.5181 109.96 32.5181 109.96 31.3013 115.432C31.2915 115.602 31.3026 115.773 31.3346 115.941H149.047L147.351 109.96ZM78.603 146.49C79.6236 138.348 80.621 130.406 81.6317 122.364H74.6135C73.5663 127.228 72.4825 131.938 71.5616 136.683C71.1194 138.957 69.9525 140.06 67.6419 140.12C67.0967 140.137 66.2091 140.486 66.0827 140.875C65.5076 142.663 65.1452 144.532 64.6765 146.49H78.603ZM41.3282 146.566C46.8801 146.566 52.0764 146.59 57.286 146.527C57.5448 146.483 57.7892 146.378 57.9982 146.219C58.2073 146.06 58.3747 145.853 58.4862 145.616C59.0247 143.884 59.407 142.102 59.8525 140.316C55.2746 139.651 54.5333 138.784 55.2647 135.15C55.3644 134.641 55.4907 134.136 55.5971 133.627C56.3751 129.891 57.1497 126.154 57.9675 122.214C56.6377 122.214 55.5805 122.337 54.5698 122.188C52.7812 121.922 52.123 122.753 51.7672 124.382C50.986 127.936 50.0485 131.453 49.1674 134.984C47.9906 139.675 47.9872 139.671 43.2431 140.193C43.1134 140.193 42.9971 140.35 42.8375 140.459C42.3554 142.368 41.88 144.306 41.3282 146.566ZM119.252 146.463C118.012 138.258 116.819 130.343 115.595 122.357H108.946C109.395 127.011 109.864 131.513 110.239 136.018C110.459 138.634 109.485 139.751 106.955 140.077C106.469 140.14 105.987 140.237 105.425 140.333C105.681 142.451 105.921 144.419 106.17 146.463H119.252ZM87.8053 122.321C86.7914 130.393 85.7907 138.388 84.79 146.364H99.9665C99.8103 144.818 99.674 143.488 99.5377 142.155C99.5377 142.005 99.5011 141.856 99.4978 141.709C99.4978 140.512 98.9592 140.094 97.7092 140.047C94.7503 139.937 94.0023 139.05 93.7363 136.094C93.3241 131.516 92.862 126.942 92.4065 122.321H87.8053ZM144.323 122.321C144.419 122.936 144.462 123.434 144.582 123.916C145.533 127.813 146.54 131.696 147.444 135.602C148.083 138.358 147.168 139.592 144.349 140.09C144.017 140.15 143.684 140.273 143.282 140.393C143.714 142.181 144.073 143.85 144.545 145.486C144.662 145.895 145.14 146.483 145.463 146.503C149.506 146.573 153.548 146.55 157.804 146.55L150.872 122.321H144.323ZM35.6099 122.414C29.4761 121.729 29.4761 121.729 27.9369 127.171C27.7108 127.956 27.4615 128.737 27.2387 129.525C25.6729 135.09 24.0771 140.662 22.4414 146.427H35.0348C35.5335 144.372 36.0322 142.334 36.5342 140.273C32.3053 139.608 31.5806 138.528 32.5447 134.665C33.5421 130.632 34.5594 126.596 35.6099 122.41V122.414ZM138.455 146.48C138.029 144.748 137.551 143.255 137.315 141.723C137.112 140.393 136.493 139.984 135.223 140.06C132.823 140.23 131.526 139.03 131.018 136.683C130.276 133.268 129.385 129.881 128.544 126.486C127.414 121.932 127.407 121.928 122.71 122.227C122.41 122.286 122.115 122.368 121.829 122.473C123.029 130.452 124.229 138.431 125.436 146.467L138.455 146.48ZM103.906 133.794C103.527 129.864 103.165 126.081 102.806 122.357H98.5868C98.9592 126.267 99.3149 130.004 99.6773 133.794H103.906ZM65.9165 133.794C66.731 129.91 67.5189 126.17 68.3335 122.294H64.2376L61.7941 133.794H65.9165ZM43.1567 133.833C44.1075 129.967 45.0317 126.187 45.9858 122.314H41.9199C40.9691 126.177 40.0416 129.94 39.0841 133.833H43.1567ZM140.745 133.814C139.974 130.742 139.263 127.932 138.565 125.116C137.737 121.792 137.567 121.696 133.864 122.53C134.788 126.273 135.712 130.017 136.653 133.814H140.745Z" fill="url(#paint0_linear_34_1605)"/>
<path d="M101.356 79.3876C101.988 83.2142 102.513 86.818 103.251 90.3819C103.358 90.8972 104.461 91.5322 105.123 91.5521C108.62 91.6718 112.128 91.5521 115.632 91.6386C118.085 91.6984 119.502 93.3008 119.006 95.2956C118.524 97.2371 117.105 97.7291 115.266 97.7225C106.469 97.6893 97.6726 97.7225 88.8758 97.7225C80.8271 97.7225 72.7751 97.7225 64.723 97.7225C62.2063 97.7225 60.6438 96.0602 61.1824 94.0156C61.6644 92.2004 63.0508 91.6353 64.7729 91.6353C68.1273 91.6353 71.4818 91.5721 74.8363 91.6552C76.2758 91.6951 76.9906 91.3227 77.1901 89.7669C77.6222 86.3891 78.2273 83.0347 78.8058 79.4076H28.9077C25.2905 79.4076 24.4162 78.5365 24.4162 74.9527C24.4162 51.4592 24.4162 27.9713 24.4162 4.48889C24.4162 0.871778 25.2573 0.0273438 28.891 0.0273438C69.6721 0.0273438 110.453 0.0273438 151.234 0.0273438C154.998 0.0273438 155.816 0.848507 155.816 4.63517C155.816 27.9735 155.816 51.3129 155.816 74.6535C155.816 78.613 155.031 79.4109 151.161 79.4109H101.356V79.3876ZM116.007 42.9938H30.7428V73.1375H116.007V42.9938ZM30.6597 36.471H115.918V6.23427H30.6597V36.471ZM149.552 73.1873V6.17776H122.337V73.1873H149.552ZM95.1293 79.3909C92.0076 79.3909 89.1119 79.3544 86.2195 79.4275C85.7707 79.4275 85.016 79.9129 84.9496 80.272C84.2647 83.9589 83.6962 87.6624 83.0778 91.4524H97.1307C96.4492 87.3366 95.7976 83.417 95.1293 79.3909Z" fill="url(#paint1_linear_34_1605)"/>
<path d="M18.2658 91.6286C18.2725 92.8383 18.0383 94.0373 17.5769 95.1556C17.1155 96.274 16.4362 97.2893 15.5784 98.1424C14.7207 98.9955 13.7017 99.6693 12.5809 100.125C11.46 100.58 10.2598 100.808 9.05012 100.794C6.62008 100.764 4.30149 99.7703 2.60439 98.0308C0.907298 96.2913 -0.0292805 93.9489 0.000698132 91.5189C0.0306768 89.0888 1.02476 86.7702 2.76425 85.0731C4.50374 83.376 6.84615 82.4395 9.27619 82.4694C11.6814 82.4966 13.9778 83.4757 15.6626 85.1924C17.3475 86.909 18.2835 89.2233 18.2658 91.6286ZM9.18643 94.6207C9.59828 94.6568 10.0132 94.6072 10.4049 94.475C10.7966 94.3428 11.1567 94.1309 11.4624 93.8525C11.7682 93.5742 12.0129 93.2355 12.1812 92.8579C12.3494 92.4802 12.4376 92.0718 12.4402 91.6584C12.4427 91.245 12.3595 90.8355 12.1959 90.4558C12.0322 90.0761 11.7917 89.7345 11.4894 89.4524C11.1871 89.1703 10.8297 88.954 10.4396 88.817C10.0495 88.68 9.63527 88.6253 9.223 88.6564C8.81114 88.6203 8.39626 88.6699 8.00452 88.8021C7.61279 88.9343 7.2527 89.1462 6.94698 89.4246C6.64126 89.7029 6.39654 90.0416 6.22827 90.4192C6.05999 90.7969 5.9718 91.2053 5.96927 91.6187C5.96673 92.0321 6.0499 92.4416 6.21354 92.8213C6.37717 93.201 6.61772 93.5426 6.92 93.8247C7.22229 94.1068 7.57974 94.3231 7.96983 94.4601C8.35991 94.5971 8.77416 94.6518 9.18643 94.6207Z" fill="url(#paint2_linear_34_1605)"/>
<path d="M174.057 82.3859C174.061 82.9842 173.887 83.57 173.557 84.0688C173.226 84.5676 172.755 84.9567 172.203 85.1865C171.65 85.4163 171.042 85.4765 170.455 85.3592C169.869 85.242 169.33 84.9527 168.908 84.5283C168.487 84.1039 168.201 83.5635 168.088 82.976C167.975 82.3886 168.039 81.7807 168.272 81.2299C168.506 80.6791 168.898 80.2103 169.399 79.8833C169.9 79.5563 170.487 79.3859 171.085 79.3938C171.869 79.4182 172.614 79.7419 173.167 80.2984C173.72 80.8548 174.038 81.6018 174.057 82.3859Z" fill="url(#paint3_linear_34_1605)"/>
<path d="M67.2297 54.7364C72.2165 55.3548 73.2139 55.9232 73.2438 57.9811C73.2737 60.039 72.4493 60.4613 67.233 61.3057C67.233 62.9447 67.2596 64.6302 67.233 66.3224C67.1798 68.8059 66.0595 70.2022 64.1745 70.2188C62.2894 70.2354 61.1358 68.7926 61.1092 66.369C61.0893 64.6735 61.1092 62.9779 61.1092 61.1727C58.5792 60.7671 55.002 61.8376 55.1018 57.8781C55.1915 54.2743 58.4961 55.1653 61.1092 54.8062C61.1092 53.0475 61.1092 51.2988 61.1092 49.5501C61.1391 47.2761 62.2562 45.8598 64.0381 45.79C65.9232 45.7136 67.1665 47.1431 67.2297 49.5468C67.2563 51.2622 67.2297 52.9644 67.2297 54.7364Z" fill="url(#paint4_linear_34_1605)"/>
<path d="M45.916 51.7704C48.2765 52.2691 51.7805 51.0589 51.7805 54.9453C51.7805 58.7719 48.3629 57.7612 45.8362 58.1269C45.8362 60.8996 45.8529 63.5559 45.8362 66.2156C45.8163 68.8054 44.6394 70.2781 42.6879 70.2283C40.8128 70.1817 39.6958 68.7588 39.6759 66.2953C39.6526 63.6357 39.6759 60.9761 39.6759 58.2267C37.2489 57.6282 33.6019 58.8716 33.7449 54.8024C33.8745 51.1155 37.1824 52.1959 39.4963 51.8568C39.9451 49.4166 38.9478 45.8394 42.8209 45.9092C46.5078 45.9724 45.68 49.3501 45.916 51.7704Z" fill="url(#paint5_linear_34_1605)"/>
<path d="M82.3863 64.2613C77.712 63.8857 76.1993 63.1975 76.4653 61.2294C76.6083 60.1456 77.6222 58.859 78.603 58.2971C79.5837 57.7353 81.0332 57.9646 82.5027 57.8051C82.5027 55.0025 82.4827 52.2597 82.5027 49.5203C82.526 47.2131 83.643 45.84 85.4516 45.8035C87.2601 45.7669 88.4869 47.1333 88.5268 49.4039C88.5733 52.1467 88.5268 54.8961 88.5268 57.7419C90.9504 58.3669 94.6173 57.1834 94.5475 61.1329C94.4777 64.8864 91.0867 63.9322 88.703 64.2115C88.2575 66.6351 89.3014 70.1225 85.5247 70.1358C81.748 70.1491 82.7055 66.7282 82.3863 64.2613Z" fill="url(#paint6_linear_34_1605)"/>
<path d="M109.897 64.1246C109.894 64.9137 109.589 65.6717 109.043 66.2416C108.497 66.8115 107.753 67.1498 106.965 67.1865C106.154 67.1865 105.376 66.8643 104.802 66.2907C104.228 65.7171 103.906 64.9391 103.906 64.1279C103.906 63.3167 104.228 62.5388 104.802 61.9652C105.376 61.3916 106.154 61.0693 106.965 61.0693C107.751 61.1075 108.493 61.4454 109.039 62.0136C109.584 62.5817 109.891 63.3371 109.897 64.1246Z" fill="url(#paint7_linear_34_1605)"/>
<path d="M109.9 50.963C109.9 51.5562 109.724 52.136 109.394 52.6287C109.063 53.1214 108.594 53.5049 108.045 53.7303C107.497 53.9558 106.893 54.0131 106.312 53.8949C105.731 53.7767 105.198 53.4885 104.781 53.0667C104.364 52.6449 104.081 52.1086 103.97 51.5261C103.858 50.9435 103.922 50.3409 104.154 49.7947C104.385 49.2486 104.774 48.7836 105.27 48.4589C105.767 48.1342 106.348 47.9643 106.941 47.9709C107.333 47.97 107.721 48.047 108.083 48.1974C108.444 48.3479 108.772 48.5688 109.048 48.8473C109.323 49.1257 109.54 49.4562 109.687 49.8194C109.833 50.1826 109.906 50.5714 109.9 50.963Z" fill="url(#paint8_linear_34_1605)"/>
<path d="M94.6672 19.8418C94.6672 22.2255 94.6971 24.6092 94.6672 26.9895C94.634 29.0873 93.4571 30.4537 91.7316 30.5136C90.0062 30.5734 88.6232 29.2702 88.5933 27.189C88.5157 22.2753 88.5157 17.3616 88.5933 12.448C88.6265 10.3801 90.0228 9.06024 91.7616 9.14336C93.5003 9.22647 94.634 10.5962 94.6672 12.7006C94.6971 15.0744 94.6672 17.458 94.6672 19.8418Z" fill="url(#paint9_linear_34_1605)"/>
<path d="M57.9941 19.9908C57.9941 22.3712 58.034 24.7549 57.9941 27.1353C57.9509 29.2065 56.6842 30.6095 54.9322 30.4931C52.974 30.3634 51.97 29.1633 51.9401 27.255C51.9002 22.2682 51.8769 17.2813 51.9567 12.2945C51.99 10.353 53.3497 9.0963 55.0153 9.12955C56.6809 9.1628 57.9276 10.4826 57.9742 12.3976C58.0373 14.9276 57.9941 17.4609 57.9941 19.9908Z" fill="url(#paint10_linear_34_1605)"/>
<path d="M42.761 19.7614C42.761 18.272 42.7012 16.7693 42.761 15.2899C42.8541 13.4713 43.8648 12.321 45.69 12.2412C47.5151 12.1615 48.722 13.2985 48.8017 15.0771C48.9541 18.2793 48.9452 21.4871 48.7751 24.6884C48.6721 26.4603 47.4453 27.5308 45.567 27.3945C43.8315 27.2682 42.8741 26.1611 42.771 24.459C42.6912 22.8997 42.7644 21.3306 42.761 19.7614Z" fill="url(#paint11_linear_34_1605)"/>
<path d="M97.7757 19.8584C97.7757 18.2926 97.7158 16.7234 97.7923 15.1642C97.8787 13.4321 98.8894 12.3583 100.592 12.2485C102.427 12.1289 103.673 13.1728 103.757 14.988C103.906 18.1862 103.906 21.3977 103.757 24.5959C103.683 26.3945 102.506 27.4883 100.645 27.3985C98.783 27.3088 97.8322 26.1585 97.7657 24.33C97.7125 22.8439 97.7657 21.3379 97.7657 19.8584H97.7757Z" fill="url(#paint12_linear_34_1605)"/>
<path d="M61.0992 19.7052C61.0992 18.2125 61.0328 16.7131 61.1159 15.2304C61.2189 13.4018 62.2628 12.2948 64.088 12.2383C65.8201 12.1851 67.0236 13.2356 67.1034 14.9145C67.253 18.1859 67.2596 21.4738 67.1034 24.7452C67.0203 26.4241 65.8334 27.458 64.078 27.4048C62.2296 27.3417 61.2223 26.2213 61.1225 24.4128C61.0328 22.8402 61.0992 21.2711 61.0992 19.7052Z" fill="url(#paint13_linear_34_1605)"/>
<path d="M79.4275 19.7983C79.4275 18.3821 79.4275 16.9625 79.4275 15.5462C79.4275 13.618 80.3883 12.4278 82.3198 12.2217C84.0054 12.0488 85.4083 13.3254 85.4815 15.2603C85.5945 18.3156 85.5978 21.3775 85.4815 24.4294C85.4017 26.3743 83.9987 27.5745 82.2733 27.3983C80.4315 27.2121 79.5006 26.0684 79.4441 24.2632C79.3942 22.7805 79.4308 21.2877 79.4275 19.7983Z" fill="url(#paint14_linear_34_1605)"/>
<path d="M113.035 19.7621C112.999 20.5002 113.245 21.4643 112.872 21.9331C112.118 22.8772 111.047 24.1306 110.067 24.1705C109.086 24.2104 107.663 23.1066 107.187 22.1359C106.652 21.0421 106.835 19.5261 106.938 18.2129C107.088 16.2946 108.444 15.1344 110.176 15.3106C112.015 15.4934 112.892 16.6404 112.995 18.429C113.022 18.8712 112.995 19.3166 112.995 19.7588L113.035 19.7621Z" fill="url(#paint15_linear_34_1605)"/>
<path d="M76.309 19.8583C76.349 20.4494 76.349 21.0425 76.309 21.6336C76.0863 23.2161 75.1953 24.2068 73.5597 24.3198C71.8276 24.4395 70.6673 23.5884 70.3947 21.8896C70.2108 20.6444 70.1862 19.3809 70.3215 18.1295C70.4944 16.3442 71.545 15.2538 73.4034 15.3203C75.2618 15.3868 76.196 16.4938 76.329 18.3124C76.3689 18.8277 76.329 19.3496 76.329 19.8682L76.309 19.8583Z" fill="url(#paint16_linear_34_1605)"/>
<path d="M39.636 19.8942C39.6759 20.4842 39.6759 21.0762 39.636 21.6662C39.3933 23.375 38.376 24.3259 36.6439 24.3259C35.0182 24.3259 33.9377 23.4615 33.7415 21.8491C33.5878 20.5237 33.5878 19.185 33.7415 17.8596C33.9344 16.1375 35.0714 15.2498 36.7935 15.303C38.4159 15.3562 39.3866 16.3004 39.6326 17.8862C39.6883 18.5498 39.6938 19.2166 39.6493 19.8809L39.636 19.8942Z" fill="url(#paint17_linear_34_1605)"/>
<path d="M132.826 36.64C131.334 36.64 129.834 36.7232 128.358 36.6168C126.423 36.4771 125.093 35.1407 125.26 33.485C125.449 31.5834 126.59 30.5462 128.534 30.5395C131.44 30.5229 134.349 30.4863 137.251 30.5395C139.246 30.5827 140.466 31.7762 140.426 33.5316C140.38 35.5263 139.17 36.4904 137.295 36.6068C135.808 36.7165 134.316 36.6434 132.826 36.64Z" fill="url(#paint18_linear_34_1605)"/>
<path d="M133.126 12.2058C134.542 12.2058 135.961 12.1559 137.374 12.2058C139.193 12.2855 140.337 13.243 140.413 15.1048C140.489 16.9665 139.416 18.1501 137.617 18.2365C134.495 18.3927 131.357 18.3894 128.235 18.2598C126.327 18.18 125.05 16.6806 125.266 15.025C125.502 13.233 126.596 12.2556 128.431 12.1891H133.126V12.2058Z" fill="url(#paint19_linear_34_1605)"/>
<path d="M132.723 27.4317C131.234 27.4317 129.731 27.4849 128.255 27.4317C126.393 27.3486 125.33 26.2215 125.293 24.4396C125.256 22.754 126.264 21.5206 127.999 21.4475C131.27 21.3278 134.552 21.3178 137.82 21.4674C139.542 21.5472 140.479 22.774 140.43 24.5061C140.38 26.2382 139.366 27.2887 137.637 27.4018C136.005 27.5081 134.362 27.425 132.723 27.425V27.4317Z" fill="url(#paint20_linear_34_1605)"/>
<defs>
<linearGradient id="paint0_linear_34_1605" x1="90.076" y1="103.893" x2="90.076" y2="165" gradientUnits="userSpaceOnUse">
<stop stop-color="white"/>
<stop offset="0.505208" stop-color="#FF8E30"/>
<stop offset="1" stop-color="white"/>
</linearGradient>
<linearGradient id="paint1_linear_34_1605" x1="90.1159" y1="0.0273437" x2="90.1159" y2="97.7226" gradientUnits="userSpaceOnUse">
<stop stop-color="white"/>
<stop offset="0.505208" stop-color="#FF8E30"/>
<stop offset="1" stop-color="white"/>
</linearGradient>
<linearGradient id="paint2_linear_34_1605" x1="9.13301" y1="82.4688" x2="9.13301" y2="100.795" gradientUnits="userSpaceOnUse">
<stop stop-color="white"/>
<stop offset="0.505208" stop-color="#FF8E30"/>
<stop offset="1" stop-color="white"/>
</linearGradient>
<linearGradient id="paint3_linear_34_1605" x1="171.045" y1="79.3936" x2="171.045" y2="85.4176" gradientUnits="userSpaceOnUse">
<stop stop-color="white"/>
<stop offset="0.505208" stop-color="#FF8E30"/>
<stop offset="1" stop-color="white"/>
</linearGradient>
<linearGradient id="paint4_linear_34_1605" x1="64.1722" y1="45.7871" x2="64.1722" y2="70.2189" gradientUnits="userSpaceOnUse">
<stop stop-color="white"/>
<stop offset="0.505208" stop-color="#FF8E30"/>
<stop offset="1" stop-color="white"/>
</linearGradient>
<linearGradient id="paint5_linear_34_1605" x1="42.7607" y1="45.9082" x2="42.7607" y2="70.2295" gradientUnits="userSpaceOnUse">
<stop stop-color="white"/>
<stop offset="0.505208" stop-color="#FF8E30"/>
<stop offset="1" stop-color="white"/>
</linearGradient>
<linearGradient id="paint6_linear_34_1605" x1="85.4923" y1="45.8027" x2="85.4923" y2="70.1359" gradientUnits="userSpaceOnUse">
<stop stop-color="white"/>
<stop offset="0.505208" stop-color="#FF8E30"/>
<stop offset="1" stop-color="white"/>
</linearGradient>
<linearGradient id="paint7_linear_34_1605" x1="106.902" y1="61.0693" x2="106.902" y2="67.1865" gradientUnits="userSpaceOnUse">
<stop stop-color="white"/>
<stop offset="0.505208" stop-color="#FF8E30"/>
<stop offset="1" stop-color="white"/>
</linearGradient>
<linearGradient id="paint8_linear_34_1605" x1="106.908" y1="47.9707" x2="106.908" y2="53.9549" gradientUnits="userSpaceOnUse">
<stop stop-color="white"/>
<stop offset="0.505208" stop-color="#FF8E30"/>
<stop offset="1" stop-color="white"/>
</linearGradient>
<linearGradient id="paint9_linear_34_1605" x1="91.6078" y1="9.13965" x2="91.6078" y2="30.5155" gradientUnits="userSpaceOnUse">
<stop stop-color="white"/>
<stop offset="0.505208" stop-color="#FF8E30"/>
<stop offset="1" stop-color="white"/>
</linearGradient>
<linearGradient id="paint10_linear_34_1605" x1="54.9577" y1="9.12891" x2="54.9577" y2="30.4998" gradientUnits="userSpaceOnUse">
<stop stop-color="white"/>
<stop offset="0.505208" stop-color="#FF8E30"/>
<stop offset="1" stop-color="white"/>
</linearGradient>
<linearGradient id="paint11_linear_34_1605" x1="45.8217" y1="12.2373" x2="45.8217" y2="27.4062" gradientUnits="userSpaceOnUse">
<stop stop-color="white"/>
<stop offset="0.505208" stop-color="#FF8E30"/>
<stop offset="1" stop-color="white"/>
</linearGradient>
<linearGradient id="paint12_linear_34_1605" x1="100.805" y1="12.2393" x2="100.805" y2="27.4036" gradientUnits="userSpaceOnUse">
<stop stop-color="white"/>
<stop offset="0.505208" stop-color="#FF8E30"/>
<stop offset="1" stop-color="white"/>
</linearGradient>
<linearGradient id="paint13_linear_34_1605" x1="64.1461" y1="12.2363" x2="64.1461" y2="27.4068" gradientUnits="userSpaceOnUse">
<stop stop-color="white"/>
<stop offset="0.505208" stop-color="#FF8E30"/>
<stop offset="1" stop-color="white"/>
</linearGradient>
<linearGradient id="paint14_linear_34_1605" x1="82.4926" y1="12.2061" x2="82.4926" y2="27.4153" gradientUnits="userSpaceOnUse">
<stop stop-color="white"/>
<stop offset="0.505208" stop-color="#FF8E30"/>
<stop offset="1" stop-color="white"/>
</linearGradient>
<linearGradient id="paint15_linear_34_1605" x1="109.952" y1="15.293" x2="109.952" y2="24.1715" gradientUnits="userSpaceOnUse">
<stop stop-color="white"/>
<stop offset="0.505208" stop-color="#FF8E30"/>
<stop offset="1" stop-color="white"/>
</linearGradient>
<linearGradient id="paint16_linear_34_1605" x1="73.2912" y1="15.3174" x2="73.2912" y2="24.3309" gradientUnits="userSpaceOnUse">
<stop stop-color="white"/>
<stop offset="0.505208" stop-color="#FF8E30"/>
<stop offset="1" stop-color="white"/>
</linearGradient>
<linearGradient id="paint17_linear_34_1605" x1="36.6526" y1="15.3008" x2="36.6526" y2="24.3259" gradientUnits="userSpaceOnUse">
<stop stop-color="white"/>
<stop offset="0.505208" stop-color="#FF8E30"/>
<stop offset="1" stop-color="white"/>
</linearGradient>
<linearGradient id="paint18_linear_34_1605" x1="132.836" y1="30.5117" x2="132.836" y2="36.6709" gradientUnits="userSpaceOnUse">
<stop stop-color="white"/>
<stop offset="0.505208" stop-color="#FF8E30"/>
<stop offset="1" stop-color="white"/>
</linearGradient>
<linearGradient id="paint19_linear_34_1605" x1="132.83" y1="12.1836" x2="132.83" y2="18.3555" gradientUnits="userSpaceOnUse">
<stop stop-color="white"/>
<stop offset="0.505208" stop-color="#FF8E30"/>
<stop offset="1" stop-color="white"/>
</linearGradient>
<linearGradient id="paint20_linear_34_1605" x1="132.862" y1="21.3564" x2="132.862" y2="27.4559" gradientUnits="userSpaceOnUse">
<stop stop-color="white"/>
<stop offset="0.505208" stop-color="#FF8E30"/>
<stop offset="1" stop-color="white"/>
</linearGradient>
</defs>
</svg>
