<svg width="160" height="38" viewBox="0 0 160 38" fill="none" xmlns="http://www.w3.org/2000/svg">
<rect x="0.5" y="0.5" width="159" height="37" rx="9.5" fill="url(#paint0_linear_34_2197)" stroke="#FF8E30"/>
<path d="M41.84 13.122V14.832H52.046V13.122H41.84ZM47.366 26.334C48.608 26.982 50.282 27.99 51.074 28.656L52.478 27.162C51.614 26.514 49.904 25.578 48.68 25.002L47.366 26.334ZM44.774 24.966C43.838 25.704 42.038 26.622 40.616 27.126C41.066 27.54 41.642 28.17 41.966 28.584C43.388 28.026 45.26 27.09 46.484 26.244L44.774 24.966ZM41.264 23.508V25.344H52.478V23.508H41.264ZM43.568 17.874V18.99H50.3V17.874H43.568ZM43.568 19.692V20.844H50.426V19.692H43.568ZM43.586 21.582V22.752H50.12V21.582H43.586ZM42.668 15.732V24.048H44.54V17.118H49.13V24.048H51.074V15.732H42.668ZM45.818 11.754C45.71 13.266 45.404 15.354 45.098 16.722L46.862 16.902C47.276 15.624 47.78 13.626 48.104 11.826L45.818 11.754ZM35.63 15.894V17.928H41.318V15.894H35.63ZM37.43 11.97V23.994H39.464V11.97H37.43ZM35.396 24.246L36.17 26.406C37.736 25.83 39.662 25.074 41.462 24.336L41.12 22.428C39.032 23.13 36.818 23.85 35.396 24.246ZM60.794 17.73V28.62H63.044V17.73H60.794ZM57.77 20.916H66.284V21.888H57.77V20.916ZM57.77 18.414H66.284V19.368H57.77V18.414ZM55.646 16.758V23.544H68.498V16.758H55.646ZM53.954 24.48V26.334H70.082V24.48H53.954ZM56.924 13.716H59.462V14.76H56.924V13.716ZM54.998 12.42V16.038H61.478V12.42H54.998ZM64.466 13.716H67.058V14.76H64.466V13.716ZM62.558 12.42V16.038H69.074V12.42H62.558ZM71.864 23.526V25.362H88.136V23.526H71.864ZM73.628 20.394V22.068H84.41V20.394H73.628ZM78.812 22.752V26.55C78.812 26.802 78.686 26.874 78.344 26.892C78.038 26.91 76.616 26.91 75.572 26.856C75.86 27.36 76.184 28.08 76.31 28.638C77.894 28.638 79.082 28.638 79.928 28.404C80.792 28.134 81.098 27.684 81.098 26.64V22.752H78.812ZM83.942 20.376V20.772C82.916 21.438 80.72 22.284 78.812 22.734C79.082 23.022 79.586 23.58 79.82 23.922C82.196 23.364 84.536 22.482 86.372 21.492L85.004 20.286L84.536 20.376H83.942ZM76.364 17.172H83.618V18.18H76.364V17.172ZM74.204 15.696V19.656H85.904V15.696H74.204ZM72.116 13.05V14.868H87.83V13.05H72.116ZM78.398 11.952C78.686 12.69 78.956 13.662 79.046 14.274L81.368 13.842C81.278 13.212 80.954 12.276 80.612 11.574L78.398 11.952ZM90.998 12.528C91.502 13.374 92.132 14.526 92.42 15.228L94.148 14.364C93.86 13.68 93.23 12.618 92.708 11.79L90.998 12.528ZM100.142 21.42V27.414H102.068V21.42H100.142ZM99.188 16.668H103.22V17.946H99.188V16.668ZM97.28 15.03V19.584H105.218V15.03H97.28ZM96.362 20.376V28.602H98.36V22.104H103.922V28.584H105.992V20.376H96.362ZM97.514 23.31V24.912H105.002V23.31H97.514ZM97.532 26.154V27.882H105.02V26.154H97.532ZM96.272 12.474V14.292H106.064V12.474H96.272ZM89.882 15.048V16.992H95.264V15.048H89.882ZM94.346 19.26L93.14 20.286C93.752 20.934 94.976 22.284 95.534 23.058L96.794 21.33C96.416 20.97 94.85 19.584 94.346 19.26ZM94.472 15.048V15.444C93.59 18.072 91.448 20.718 89.198 22.068C89.522 22.464 90.044 23.544 90.224 24.12C92.708 22.41 95.21 19.224 96.452 15.732L95.264 14.976L94.904 15.048H94.472ZM92.042 21.204V28.62H94.148V18.666L92.042 21.204ZM107.774 17.064V19.062H116.414V17.064H107.774ZM117.278 13.896V24.012H119.384V13.896H117.278ZM111.212 13.5V28.602H113.336V13.5H111.212ZM121.544 12.06V25.974C121.544 26.316 121.4 26.424 121.058 26.424C120.68 26.424 119.528 26.424 118.34 26.388C118.646 27 118.988 27.99 119.096 28.62C120.752 28.62 121.94 28.548 122.696 28.206C123.434 27.846 123.686 27.252 123.686 25.974V12.06H121.544ZM114.83 11.79C113.084 12.582 110.186 13.248 107.558 13.644C107.81 14.094 108.116 14.85 108.206 15.336C110.924 14.958 114.092 14.346 116.378 13.446L114.83 11.79ZM111.194 18.018C110.474 20.124 108.908 22.752 107.36 24.246C107.72 24.822 108.26 25.722 108.476 26.37C110.168 24.57 111.752 21.348 112.652 18.648L111.194 18.018ZM113.012 19.836L111.896 20.952C112.778 21.762 114.452 23.508 115.244 24.48L116.468 22.626C115.946 22.158 113.714 20.286 113.012 19.836Z" fill="white"/>
<defs>
<linearGradient id="paint0_linear_34_2197" x1="80" y1="0" x2="80" y2="38" gradientUnits="userSpaceOnUse">
<stop stop-color="#FF8E30"/>
<stop offset="1" stop-color="#6C2700"/>
</linearGradient>
</defs>
</svg>
