<svg width="160" height="38" viewBox="0 0 160 38" fill="none" xmlns="http://www.w3.org/2000/svg">
<rect x="0.5" y="0.5" width="159" height="37" rx="9.5" fill="url(#paint0_linear_34_1627)" stroke="#FF8E30"/>
<path d="M36.17 18.684V20.394H41.678V18.684H36.17ZM35.162 12.474V28.602H37.124V14.364H41.786V12.474H35.162ZM40.634 12.474V15.84C40.634 16.038 40.562 16.092 40.274 16.11C40.022 16.11 39.032 16.11 38.15 16.074C38.402 16.596 38.672 17.37 38.744 17.928C40.076 17.928 41.048 17.91 41.75 17.622C42.452 17.334 42.632 16.794 42.632 15.876V12.474H40.634ZM38.438 19.8L36.818 20.214C37.826 23.796 39.59 26.892 42.272 28.494C42.596 27.954 43.226 27.18 43.694 26.784C41.138 25.506 39.338 22.788 38.438 19.8ZM41.048 18.684V19.098C40.58 22.374 39.05 25.47 36.548 27.18C37.016 27.54 37.664 28.17 37.97 28.656C40.724 26.658 42.416 23.166 43.064 19.062L41.768 18.594L41.426 18.684H41.048ZM27.188 13.32V15.102H34.262V13.32H27.188ZM26.666 23.508V25.326H34.694V23.508H26.666ZM26.666 16.344V18.162H34.676V16.344H26.666ZM27.098 20.25V22.068H34.334V20.25H27.098ZM29.798 11.772V17.028H31.796V11.772H29.798ZM29.798 21.006V28.566H31.796V21.006H29.798ZM32.192 17.982C31.94 18.846 31.418 20.034 30.986 20.79L32.516 21.222C32.966 20.52 33.488 19.458 33.992 18.432L32.192 17.982ZM27.728 18.468C28.034 19.116 28.34 19.98 28.43 20.52L30.086 19.998C29.978 19.458 29.636 18.63 29.294 18L27.728 18.468ZM50.858 25.956V27.918H58.922V25.956H50.858ZM49.958 13.482V15.39H56.33V13.482H49.958ZM50.426 11.61C49.382 13.608 47.384 15.804 44.414 17.37C44.9 17.748 45.62 18.54 45.926 19.08C49.166 17.136 51.326 14.724 52.856 12.096L50.426 11.61ZM55.646 13.482V13.842C53.99 18.378 49.346 21.87 44.378 23.31C44.828 23.76 45.368 24.642 45.638 25.236C51.002 23.436 55.808 19.764 57.914 14.166L56.42 13.374L56.06 13.482H55.646ZM47.6 17.442C48.842 18.378 50.444 19.764 51.128 20.7L52.874 19.134C52.082 18.198 50.444 16.92 49.202 16.038L47.6 17.442ZM57.914 20.466V28.638H60.164V20.466H57.914ZM51.776 20.466H51.254L49.616 22.068V28.602H51.776V22.428H58.994V20.466H51.776ZM63.404 12.888V14.994H78.722V12.888H63.404ZM71.45 18.954V21.078H77.804V18.954H71.45ZM62.792 25.83V27.936H79.244V25.83H62.792ZM70.388 13.734V26.856H72.692V13.734H70.388ZM65.006 17.784V26.964H67.256V17.784H65.006ZM92.834 12.906C93.662 13.5 94.67 14.4 95.138 15.012L96.65 13.716C96.146 13.122 95.084 12.276 94.274 11.718L92.834 12.906ZM80.918 14.778V16.884H97.118V14.778H80.918ZM81.584 18.954V21.042H89.378V18.954H81.584ZM84.32 20.142V26.244H86.48V20.142H84.32ZM80.9 25.938L81.512 28.116C83.852 27.63 87.038 26.964 90.008 26.316L89.846 24.39C86.606 25.002 83.078 25.614 80.9 25.938ZM89.756 11.79C89.774 20.124 90.908 28.638 94.814 28.638C96.524 28.638 97.262 27.792 97.586 24.354C96.974 24.138 96.182 23.616 95.696 23.112C95.588 25.38 95.39 26.37 94.994 26.37C93.284 26.37 91.916 19.188 92.078 11.79H89.756ZM105.308 20.826V22.734H115.136V20.826H105.308ZM111.68 21.96L110.15 22.518C111.086 24.534 112.688 26.658 114.218 27.864C114.542 27.342 115.226 26.604 115.694 26.226C114.182 25.308 112.544 23.562 111.68 21.96ZM107.738 16.902H112.706V18.072H107.738V16.902ZM107.738 14.112H112.706V15.246H107.738V14.112ZM105.83 12.402V19.764H114.704V12.402H105.83ZM108.782 21.816C107.936 23.58 106.262 25.362 104.552 26.28C105.002 26.658 105.668 27.432 105.992 27.936C107.792 26.766 109.448 24.606 110.402 22.374L108.782 21.816ZM109.268 13.248V18.954H109.16V28.602H111.248V18.954H111.122V13.248H109.268ZM99.332 17.208V18.846H104.894V17.208H99.332ZM99.332 19.656V21.276H104.894V19.656H99.332ZM98.558 14.706V16.416H105.47V14.706H98.558ZM100.25 22.14V23.868H103.148V25.884H100.25V27.612H105.002V22.14H100.25ZM99.296 22.14V28.386H101.132V22.14H99.296ZM100.502 12.438C100.97 13.212 101.528 14.31 101.762 14.994L103.49 14.04C103.22 13.374 102.662 12.384 102.158 11.628L100.502 12.438ZM127.196 20.358V27.648H129.338V20.358H127.196ZM123.092 26.352V28.242H133.262V26.352H123.092ZM123.992 22.878V24.678H132.56V22.878H123.992ZM126.116 14.328H130.4V16.902H126.116V14.328ZM124.118 12.51V18.72H132.488V12.51H124.118ZM131.606 18.954C129.608 19.458 126.35 19.8 123.524 19.944C123.722 20.394 123.956 21.114 124.01 21.582C126.926 21.492 130.418 21.186 132.902 20.556L131.606 18.954ZM119.312 13.392V28.602H121.418V13.392H119.312ZM116.72 16.776V18.792H123.326V16.776H116.72ZM119.438 17.586C118.862 19.584 117.602 22.194 116.342 23.634C116.684 24.174 117.152 25.074 117.35 25.704C118.736 23.922 120.014 20.718 120.698 18.144L119.438 17.586ZM122.228 11.898C120.824 12.528 118.556 13.05 116.504 13.392C116.738 13.842 117.026 14.58 117.116 15.03C119.276 14.778 121.796 14.292 123.686 13.572L122.228 11.898ZM121.364 19.278L120.428 20.124C120.986 20.88 122.066 22.518 122.498 23.382L123.722 21.69C123.38 21.276 121.814 19.656 121.364 19.278Z" fill="white"/>
<defs>
<linearGradient id="paint0_linear_34_1627" x1="80" y1="0" x2="80" y2="38" gradientUnits="userSpaceOnUse">
<stop stop-color="#FF8E30"/>
<stop offset="1" stop-color="#6C2700"/>
</linearGradient>
</defs>
</svg>
