<svg width="23" height="207" viewBox="0 0 23 207" fill="none" xmlns="http://www.w3.org/2000/svg">
<path d="M4.58203 7.24609L5.22062 6.47654L4.07254 5.52385L3.62755 6.94782L4.58203 7.24609ZM4.48633 7.68359L3.49405 7.55956L3.49021 7.5903L3.48828 7.62121L4.48633 7.68359ZM5.04687 10.1172L4.19885 10.6472L4.20321 10.6541L5.04687 10.1172ZM5.73047 10.9102L6.3854 10.1545L6.38341 10.1527L5.73047 10.9102ZM6.63281 11.4844L7.33815 12.1932L8.37305 11.1635L7.03895 10.5706L6.63281 11.4844ZM3.88477 14.2187L3.30927 15.0366L3.99539 15.5194L4.59011 14.9276L3.88477 14.2187ZM2.55859 13.0156L3.31682 12.3636L3.31022 12.356L2.55859 13.0156ZM1.56055 11.5527L2.44879 11.0933L2.44546 11.087L1.56055 11.5527ZM0.945312 9.89844L1.91893 9.67024L1.91682 9.66124L1.91454 9.65228L0.945312 9.89844ZM1.30078 5.20898L0.380193 4.81843L0.378799 4.82175L1.30078 5.20898ZM2.90039 2.83008L2.19803 2.11822L2.19328 2.12297L2.90039 2.83008ZM5.33398 1.23047L4.95189 0.306337L4.94873 0.307656L5.33398 1.23047ZM11.623 1.23047L12.002 0.305061L11.623 1.23047ZM14.0703 2.83008L14.7822 2.12772L14.7774 2.12297L14.0703 2.83008ZM15.6426 5.20898L16.5678 4.82963L16.5665 4.82636L15.6426 5.20898ZM15.3555 11.5664L14.4705 11.1006L14.4673 11.107L15.3555 11.5664ZM14.3437 13.043L13.593 12.3823L13.5856 12.3909L14.3437 13.043ZM13.0176 14.2461L12.379 15.0156L12.9676 15.5041L13.5931 15.0639L13.0176 14.2461ZM12.2793 9.16016L11.6775 9.95879L12.7524 10.7688L13.2176 9.50586L12.2793 9.16016ZM12.4023 8.64062L11.4084 8.53019L11.4078 8.53594L12.4023 8.64062ZM12.1426 6.67187L11.2167 7.04979L11.2206 7.05911L12.1426 6.67187ZM11.3496 5.49609L12.0473 4.77955L12.0374 4.77014L11.3496 5.49609ZM10.0918 4.7168L9.72342 5.6465L9.72935 5.6488L10.0918 4.7168ZM7.98633 4.44336L7.93377 3.44474L7.90765 3.44612L7.88164 3.44885L7.98633 4.44336ZM7.45312 4.51172L7.30478 3.52278L7.2758 3.52713L7.24711 3.53317L7.45312 4.51172ZM6.50977 4.8125L6.01363 3.94426L4.69549 4.69748L5.90795 5.61113L6.50977 4.8125ZM3.62755 6.94782C3.56492 7.14825 3.51995 7.35235 3.49405 7.55956L5.4786 7.80763C5.48916 7.72317 5.508 7.6356 5.53651 7.54437L3.62755 6.94782ZM3.48828 7.62121C3.47786 7.78777 3.47266 7.95441 3.47266 8.12109L5.47266 8.12109C5.47266 7.99611 5.47656 7.87108 5.48438 7.74597L3.48828 7.62121ZM3.47266 8.12109C3.47266 8.57865 3.53577 9.02575 3.66451 9.4588L5.58158 8.88886C5.50981 8.64743 5.47266 8.3927 5.47266 8.12109L3.47266 8.12109ZM3.66451 9.4588C3.78983 9.88032 3.96779 10.2774 4.19888 10.6472L5.89487 9.58719C5.76138 9.37359 5.65679 9.14181 5.58158 8.88886L3.66451 9.4588ZM4.20321 10.6541C4.44593 11.0355 4.7376 11.3745 5.07753 11.6676L6.38341 10.1527C6.19469 9.99006 6.03063 9.80046 5.89054 9.58031L4.20321 10.6541ZM5.07554 11.6658C5.42306 11.967 5.80756 12.2119 6.22667 12.3982L7.03895 10.5706C6.80181 10.4652 6.58476 10.3272 6.3854 10.1545L5.07554 11.6658ZM5.92747 10.7755L3.17942 13.5099L4.59011 14.9276L7.33815 12.1932L5.92747 10.7755ZM4.46026 13.4009C4.03549 13.102 3.65482 12.7566 3.31678 12.3636L1.80041 13.6677C2.24623 14.1861 2.74967 14.6428 3.30927 15.0366L4.46026 13.4009ZM3.31022 12.356C2.97186 11.9705 2.68502 11.5501 2.44876 11.0933L0.672328 12.0122C0.982952 12.6127 1.36147 13.1676 1.80697 13.6752L3.31022 12.356ZM2.44546 11.087C2.21236 10.6441 2.03668 10.1727 1.91893 9.67024L-0.0283036 10.1266C0.12738 10.7909 0.361856 11.4223 0.675628 12.0185L2.44546 11.087ZM1.91454 9.65228C1.78976 9.16097 1.72656 8.65132 1.72656 8.12109L-0.273438 8.12109C-0.273438 8.81222 -0.190808 9.48747 -0.0239186 10.1446L1.91454 9.65228ZM1.72656 8.12109C1.72656 7.21845 1.8936 6.37994 2.22276 5.59622L0.378799 4.82175C-0.0576594 5.86094 -0.273438 6.96384 -0.273438 8.12109L1.72656 8.12109ZM2.22136 5.59953C2.55472 4.81375 3.01602 4.12866 3.6075 3.53718L2.19328 2.12297C1.41758 2.89868 0.812464 3.79952 0.380199 4.81843L2.22136 5.59953ZM3.60274 3.54191C4.1898 2.96268 4.89156 2.49881 5.71924 2.15328L4.94873 0.307656C3.8988 0.745977 2.97817 1.34851 2.19805 2.11824L3.60274 3.54191ZM5.71607 2.15459C6.53104 1.81764 7.43867 1.64258 8.45117 1.64258L8.45117 -0.357423C7.20325 -0.357423 6.03276 -0.140555 4.95189 0.306343L5.71607 2.15459ZM8.45117 1.64258C9.49423 1.64258 10.4209 1.81875 11.2441 2.15587L12.002 0.305061C10.9112 -0.141667 9.72322 -0.357423 8.45117 -0.357423L8.45117 1.64258ZM11.2441 2.15587C12.0888 2.50179 12.7902 2.96417 13.3632 3.53718L14.7774 2.12297C14.0015 1.34703 13.0714 0.742998 12.002 0.305061L11.2441 2.15587ZM13.3585 3.53242C13.9407 4.12254 14.3935 4.80645 14.7187 5.59161L16.5665 4.82636C16.1443 3.80683 15.5489 2.9048 14.7821 2.12773L13.3585 3.53242ZM14.7173 5.58834C15.0394 6.37396 15.2031 7.21523 15.2031 8.12109L17.2031 8.12109C17.2031 6.96706 16.9931 5.86693 16.5678 4.82963L14.7173 5.58834ZM15.2031 8.12109C15.2031 8.6513 15.1399 9.1668 15.0142 9.66957L16.9545 10.1546C17.1205 9.49075 17.2031 8.81225 17.2031 8.12109L15.2031 8.12109ZM15.0142 9.66957C14.8873 10.1772 14.7059 10.6536 14.4706 11.1007L16.2404 12.0322C16.5519 11.4402 16.7898 10.8136 16.9545 10.1546L15.0142 9.66957ZM14.4673 11.107C14.232 11.5618 13.9413 11.9866 13.593 12.3823L15.0945 13.7036C15.5483 13.1879 15.932 12.6283 16.2437 12.0258L14.4673 11.107ZM13.5856 12.3909C13.2475 12.784 12.8669 13.1294 12.4421 13.4283L13.5931 15.0639C14.1527 14.6701 14.6561 14.2134 15.1019 13.695L13.5856 12.3909ZM13.6562 13.4765L5.22062 6.47654L3.94344 8.01564L12.379 15.0156L13.6562 13.4765ZM13.2176 9.50586C13.3084 9.25961 13.3694 9.00561 13.3968 8.74531L11.4078 8.53594C11.3988 8.62199 11.3778 8.71434 11.341 8.81445L13.2176 9.50586ZM13.3962 8.75106C13.4189 8.54677 13.4297 8.33652 13.4297 8.12109L11.4297 8.12109C11.4297 8.27025 11.4222 8.40635 11.4085 8.53019L13.3962 8.75106ZM13.4297 8.12109C13.4297 7.48213 13.3092 6.867 13.0646 6.28464L11.2206 7.05911C11.3588 7.38821 11.4297 7.73922 11.4297 8.12109L13.4297 8.12109ZM13.0684 6.29398C12.834 5.71973 12.4919 5.21261 12.0472 4.77962L10.652 6.21256C10.9 6.45406 11.0865 6.73079 11.2167 7.04977L13.0684 6.29398ZM12.0374 4.77014C11.5874 4.34384 11.0543 4.01813 10.4542 3.78479L9.72935 5.6488C10.1137 5.79827 10.4191 5.99209 10.6619 6.22205L12.0374 4.77014ZM10.4602 3.78711C9.84121 3.54187 9.16626 3.42969 8.45117 3.42969L8.45117 5.42969C8.95744 5.42969 9.37624 5.50891 9.72343 5.64648L10.4602 3.78711ZM8.45117 3.42969C8.29302 3.42969 8.12006 3.43494 7.93377 3.44474L8.03889 5.44198C8.19895 5.43355 8.33589 5.42969 8.45117 5.42969L8.45117 3.42969ZM7.88164 3.44885C7.69306 3.4687 7.50075 3.49339 7.30478 3.52278L7.60146 5.50065C7.77009 5.47536 7.93324 5.45447 8.09101 5.43786L7.88164 3.44885ZM7.24711 3.53317C7.05405 3.57381 6.86484 3.6198 6.67962 3.67125L7.21491 5.59828C7.35781 5.55859 7.50585 5.52254 7.65914 5.49027L7.24711 3.53317ZM6.67962 3.67125C6.44804 3.73557 6.22345 3.82435 6.01363 3.94426L7.0059 5.68074C7.05129 5.65481 7.11836 5.6251 7.21491 5.59828L6.67962 3.67125ZM5.90795 5.61113L11.6775 9.95879L12.8811 8.36152L7.11158 4.01386L5.90795 5.61113ZM0.999999 24.7652L-1.08252e-06 24.7652L-1.12623e-06 25.7652L0.999999 25.7652L0.999999 24.7652ZM0.999999 21.0328L0.999999 20.0328L-8.75662e-07 20.0328L-9.19373e-07 21.0328L0.999999 21.0328ZM15.6426 21.0328L16.6426 21.0328L16.6426 20.0328L15.6426 20.0328L15.6426 21.0328ZM15.6426 21.9352L16.297 22.6913L16.6426 22.3922L16.6426 21.9352L15.6426 21.9352ZM14.2207 23.1656L13.5663 22.4095L12.7914 23.08L13.4808 23.8383L14.2207 23.1656ZM15.4785 25.2027L14.5454 25.5625L14.5478 25.5684L15.4785 25.2027ZM15.4102 30.1246L14.4937 29.7243L14.4899 29.7332L15.4102 30.1246ZM14.002 32.2027L13.3002 31.4902L13.2948 31.4956L14.002 32.2027ZM11.9102 33.5973L11.5225 32.6753L11.5099 32.6809L11.9102 33.5973ZM0.999999 34.1168L-1.49129e-06 34.1168L-1.535e-06 35.1168L0.999998 35.1168L0.999999 34.1168ZM0.999999 30.3844L0.999999 29.3844L-1.28443e-06 29.3844L-1.32814e-06 30.3844L0.999999 30.3844ZM10.4473 30.1656L10.0592 29.2439L10.0504 29.2478L10.4473 30.1656ZM11.9512 26.4879L12.8728 26.0998L11.9512 26.4879ZM10.4473 24.984L10.0503 25.9019L10.0592 25.9056L10.4473 24.984ZM2 24.7652L2 21.0328L-9.19373e-07 21.0328L-1.08252e-06 24.7652L2 24.7652ZM0.999999 22.0328L15.6426 22.0328L15.6426 20.0328L0.999999 20.0328L0.999999 22.0328ZM14.6426 21.0328L14.6426 21.9352L16.6426 21.9352L16.6426 21.0328L14.6426 21.0328ZM14.9882 21.179L13.5663 22.4095L14.8751 23.9218L16.297 22.6913L14.9882 21.179ZM13.4808 23.8383C13.9447 24.3486 14.2984 24.9216 14.5455 25.5625L16.4116 24.843C16.0753 23.9708 15.5904 23.1857 14.9606 22.493L13.4808 23.8383ZM14.5478 25.5684C14.8024 26.2165 14.9297 26.89 14.9297 27.5953L16.9297 27.5953C16.9297 26.6418 16.7562 25.7202 16.4093 24.8371L14.5478 25.5684ZM14.9297 27.5953C14.9297 28.3553 14.7832 29.0617 14.4938 29.7243L16.3266 30.5249C16.7298 29.6016 16.9297 28.6217 16.9297 27.5953L14.9297 27.5953ZM14.4899 29.7332C14.2028 30.4085 13.8067 30.9914 13.3003 31.4902L14.7036 32.9152C15.4003 32.2291 15.9431 31.4267 16.3304 30.516L14.4899 29.7332ZM13.2948 31.4956C12.7975 31.993 12.2099 32.3864 11.5226 32.6754L12.2977 34.5191C13.2146 34.1336 14.0215 33.5974 14.7091 32.9098L13.2948 31.4956ZM11.5099 32.6809C10.8486 32.9697 10.1378 33.1168 9.36719 33.1168L9.36719 35.1168C10.4013 35.1168 11.3858 34.9175 12.3104 34.5137L11.5099 32.6809ZM9.36719 33.1168L0.999999 33.1168L0.999998 35.1168L9.36719 35.1168L9.36719 33.1168ZM2 34.1168L2 30.3844L-1.32814e-06 30.3844L-1.49129e-06 34.1168L2 34.1168ZM0.999999 31.3844L9.36719 31.3844L9.36719 29.3844L0.999999 29.3844L0.999999 31.3844ZM9.36719 31.3844C9.88068 31.3844 10.3764 31.2858 10.8442 31.0835L10.0504 29.2478C9.84367 29.3371 9.61931 29.3844 9.36719 29.3844L9.36719 31.3844ZM10.8353 31.0873C11.2959 30.8933 11.7063 30.6216 12.0567 30.2712L10.6425 28.857C10.4825 29.0169 10.2913 29.1462 10.0592 29.244L10.8353 31.0873ZM12.0567 30.2712C12.4027 29.9251 12.6741 29.5232 12.869 29.0723L11.0333 28.2785C10.9366 28.5021 10.8069 28.6926 10.6425 28.857L12.0567 30.2712ZM12.869 29.0723C13.0713 28.6045 13.1699 28.1088 13.1699 27.5953L11.1699 27.5953C11.1699 27.8474 11.1227 28.0718 11.0333 28.2785L12.869 29.0723ZM13.1699 27.5953C13.1699 27.0759 13.0726 26.5743 12.8728 26.0998L11.0295 26.8759C11.1214 27.0942 11.1699 27.3308 11.1699 27.5953L13.1699 27.5953ZM12.8728 26.0998C12.6789 25.6393 12.4072 25.2289 12.0567 24.8784L10.6425 26.2927C10.8025 26.4526 10.9318 26.6438 11.0295 26.8759L12.8728 26.0998ZM12.0567 24.8784C11.7063 24.528 11.2959 24.2563 10.8353 24.0623L10.0592 25.9056C10.2913 26.0034 10.4825 26.1327 10.6425 26.2927L12.0567 24.8784ZM10.8442 24.0661C10.3764 23.8638 9.88068 23.7652 9.36719 23.7652L9.36719 25.7652C9.61931 25.7652 9.84367 25.8125 10.0504 25.9018L10.8442 24.0661ZM9.36719 23.7652L0.999999 23.7652L0.999999 25.7652L9.36719 25.7652L9.36719 23.7652ZM0.999998 45.2375L0.644003 44.303L-1.94727e-06 44.5483L-1.97739e-06 45.2375L0.999998 45.2375ZM15.6426 39.6594L16.6426 39.6594L16.6426 38.2083L15.2866 38.7249L15.6426 39.6594ZM15.6426 43.9113L15.9732 44.8551L16.6426 44.6206L16.6426 43.9113L15.6426 43.9113ZM6.50976 47.1105L6.17916 46.1668L3.47921 47.1126L6.18042 48.0548L6.50976 47.1105ZM15.6426 50.2961L16.6426 50.2961L16.6426 49.5858L15.9719 49.3519L15.6426 50.2961ZM15.6426 54.5617L15.2866 55.4962L16.6426 56.0128L16.6426 54.5617L15.6426 54.5617ZM0.999998 48.9836L-2.14114e-06 48.9836L-2.17126e-06 49.6727L0.644003 49.9181L0.999998 48.9836ZM1.35599 46.172L15.9986 40.5939L15.2866 38.7249L0.644003 44.303L1.35599 46.172ZM14.6426 39.6594L14.6426 43.9113L16.6426 43.9113L16.6426 39.6594L14.6426 39.6594ZM15.312 42.9676L6.17916 46.1668L6.84037 48.0543L15.9732 44.8551L15.312 42.9676ZM6.18042 48.0548L15.3132 51.2403L15.9719 49.3519L6.83911 46.1663L6.18042 48.0548ZM14.6426 50.2961L14.6426 54.5617L16.6426 54.5617L16.6426 50.2961L14.6426 50.2961ZM15.9986 53.6272L1.35599 48.0491L0.644003 49.9181L15.2866 55.4962L15.9986 53.6272ZM2 48.9836L2 45.2375L-1.97739e-06 45.2375L-2.14114e-06 48.9836L2 48.9836ZM18.6504 65.0809L19.0642 64.1705L19.0526 64.1652L19.0409 64.1603L18.6504 65.0809ZM17.8574 64.5477L17.136 65.2402L17.1431 65.2476L17.1503 65.2548L17.8574 64.5477ZM17.3242 63.741L16.4036 64.1316L16.4064 64.1381L16.4093 64.1447L17.3242 63.741ZM17.3242 61.7859L16.4139 61.3721L16.4064 61.3885L16.3995 61.4052L17.3242 61.7859ZM17.8574 60.993L17.1649 60.2716L17.1502 60.2857L17.136 60.3004L17.8574 60.993ZM18.6504 60.4598L18.2598 59.5392L18.2481 59.5441L18.2366 59.5494L18.6504 60.4598ZM20.5781 60.4598L20.9818 59.5448L20.9752 59.542L20.9687 59.5392L20.5781 60.4598ZM21.3711 60.993L20.664 61.7001L21.3711 60.993ZM21.9043 61.7859L20.9837 62.1765L20.9865 62.1831L20.9894 62.1896L21.9043 61.7859ZM21.9043 63.741L20.9939 63.3272L20.9865 63.3436L20.9796 63.3603L21.9043 63.741ZM21.3711 64.5477L20.664 63.8405L20.6568 63.8478L20.6497 63.8551L21.3711 64.5477ZM20.5781 65.0809L20.1974 64.1562L20.1807 64.163L20.1643 64.1705L20.5781 65.0809ZM0.999997 64.6434L-2.82565e-06 64.6434L-2.86936e-06 65.6434L0.999997 65.6434L0.999997 64.6434ZM0.999997 60.8836L0.999997 59.8836L-2.6176e-06 59.8836L-2.66131e-06 60.8836L0.999997 60.8836ZM15.6426 60.8836L16.6426 60.8836L16.6426 59.8836L15.6426 59.8836L15.6426 60.8836ZM15.6426 64.6434L15.6426 65.6434L16.6426 65.6434L16.6426 64.6434L15.6426 64.6434ZM19.6211 64.2859C19.4104 64.2859 19.2287 64.2453 19.0642 64.1705L18.2366 65.9912C18.6736 66.1899 19.139 66.2859 19.6211 66.2859L19.6211 64.2859ZM19.0409 64.1603C18.8567 64.0821 18.7003 63.9763 18.5645 63.8405L17.1503 65.2548C17.4703 65.5747 17.8425 65.8244 18.2598 66.0014L19.0409 64.1603ZM18.5788 63.8551C18.4466 63.7174 18.3321 63.5482 18.2391 63.3374L16.4093 64.1447C16.5897 64.5536 16.8307 64.9222 17.136 65.2402L18.5788 63.8551ZM18.2448 63.3505C18.1727 63.1805 18.1328 62.9907 18.1328 62.7703L16.1328 62.7703C16.1328 63.2427 16.2205 63.6999 16.4036 64.1316L18.2448 63.3505ZM18.1328 62.7703C18.1328 62.5501 18.1727 62.3517 18.2489 62.1667L16.3995 61.4052C16.2205 61.8399 16.1328 62.2978 16.1328 62.7703L18.1328 62.7703ZM18.2346 62.1997C18.3267 61.9971 18.4419 61.8281 18.5788 61.6855L17.136 60.3004C16.8354 60.6136 16.5952 60.9732 16.4139 61.3721L18.2346 62.1997ZM18.55 61.7144C18.6926 61.5775 18.8616 61.4622 19.0642 61.3701L18.2366 59.5494C17.8377 59.7307 17.478 59.971 17.1649 60.2716L18.55 61.7144ZM19.0409 61.3803C19.2109 61.3083 19.4007 61.2684 19.6211 61.2684L19.6211 59.2684C19.1487 59.2684 18.6915 59.3561 18.2598 59.5392L19.0409 61.3803ZM19.6211 61.2684C19.8286 61.2684 20.0143 61.3069 20.1876 61.3803L20.9687 59.5392C20.5404 59.3575 20.0881 59.2684 19.6211 59.2684L19.6211 61.2684ZM20.1745 61.3747C20.382 61.4662 20.5406 61.5767 20.664 61.7001L22.0782 60.2859C21.7641 59.9717 21.394 59.7267 20.9818 59.5448L20.1745 61.3747ZM20.664 61.7001C20.7997 61.8358 20.9056 61.9923 20.9837 62.1765L22.8249 61.3954C22.6478 60.978 22.3982 60.6058 22.0782 60.2859L20.664 61.7001ZM20.9894 62.1896C21.0687 62.3694 21.1094 62.5597 21.1094 62.7703L23.1094 62.7703C23.1094 62.2882 23.0133 61.8223 22.8192 61.3823L20.9894 62.1896ZM21.1094 62.7703C21.1094 62.981 21.0687 63.1627 20.9939 63.3272L22.8147 64.1548C23.0133 63.7178 23.1094 63.2524 23.1094 62.7703L21.1094 62.7703ZM20.9796 63.3603C20.9002 63.5531 20.7948 63.7098 20.664 63.8405L22.0782 65.2548C22.4032 64.9298 22.6531 64.5488 22.829 64.1218L20.9796 63.3603ZM20.6497 63.8551C20.5329 63.9768 20.3868 64.0782 20.1974 64.1562L20.9589 66.0055C21.3892 65.8283 21.7717 65.5743 22.0925 65.2402L20.6497 63.8551ZM20.1643 64.1705C19.9962 64.2469 19.8186 64.2859 19.6211 64.2859L19.6211 66.2859C20.098 66.2859 20.5584 66.1883 20.9919 65.9912L20.1643 64.1705ZM2 64.6434L2 60.8836L-2.66131e-06 60.8836L-2.82565e-06 64.6434L2 64.6434ZM0.999997 61.8836L15.6426 61.8836L15.6426 59.8836L0.999997 59.8836L0.999997 61.8836ZM14.6426 60.8836L14.6426 64.6434L16.6426 64.6434L16.6426 60.8836L14.6426 60.8836ZM15.6426 63.6434L0.999997 63.6434L0.999997 65.6434L15.6426 65.6434L15.6426 63.6434ZM0.999997 76.1332L-3.32789e-06 76.1332L-3.3716e-06 77.1332L0.999997 77.1332L0.999997 76.1332ZM0.999997 72.4008L0.999997 71.4008L-3.12103e-06 71.4008L-3.16474e-06 72.4008L0.999997 72.4008ZM15.6426 72.4008L16.6426 72.4008L16.6426 71.4008L15.6426 71.4008L15.6426 72.4008ZM15.6426 73.3031L16.2208 74.119L16.6426 73.8201L16.6426 73.3031L15.6426 73.3031ZM13.9062 74.5336L13.3281 73.7177L12.4067 74.3707L13.1663 75.2063L13.9062 74.5336ZM15.1641 76.5844L14.2295 76.9404L14.2333 76.95L15.1641 76.5844ZM15.6152 82.2582L15.6152 83.2582L16.6152 83.2582L16.6152 82.2582L15.6152 82.2582ZM11.8965 82.2582L10.8965 82.2582L10.8965 83.2582L11.8965 83.2582L11.8965 82.2582ZM11.6777 77.8559L12.5994 77.4678L11.6777 77.8559ZM2 76.1332L2 72.4008L-3.16474e-06 72.4008L-3.32789e-06 76.1332L2 76.1332ZM0.999997 73.4008L15.6426 73.4008L15.6426 71.4008L0.999997 71.4008L0.999997 73.4008ZM14.6426 72.4008L14.6426 73.3031L16.6426 73.3031L16.6426 72.4008L14.6426 72.4008ZM15.0644 72.4872L13.3281 73.7177L14.4844 75.3495L16.2208 74.119L15.0644 72.4872ZM13.1663 75.2063C13.6284 75.7146 13.982 76.2906 14.2296 76.9404L16.0985 76.2284C15.7627 75.3469 15.2778 74.5557 14.6462 73.8609L13.1663 75.2063ZM14.2333 76.95C14.4885 77.5995 14.6152 78.2685 14.6152 78.9633L16.6152 78.9633C16.6152 78.0175 16.4412 77.1005 16.0948 76.2187L14.2333 76.95ZM14.6152 78.9633L14.6152 82.2582L16.6152 82.2582L16.6152 78.9633L14.6152 78.9633ZM15.6152 81.2582L11.8965 81.2582L11.8965 83.2582L15.6152 83.2582L15.6152 81.2582ZM12.8965 82.2582L12.8965 78.9633L10.8965 78.9633L10.8965 82.2582L12.8965 82.2582ZM12.8965 78.9633C12.8965 78.4439 12.7991 77.9423 12.5994 77.4678L10.7561 78.2439C10.848 78.4622 10.8965 78.6988 10.8965 78.9633L12.8965 78.9633ZM12.5994 77.4678C12.4054 77.0072 12.1337 76.5969 11.7833 76.2464L10.3691 77.6606C10.529 77.8206 10.6584 78.0118 10.7561 78.2439L12.5994 77.4678ZM11.7833 76.2464C11.4328 75.896 11.0225 75.6242 10.5619 75.4303L9.78577 77.2736C10.0179 77.3713 10.2091 77.5006 10.3691 77.6606L11.7833 76.2464ZM10.5619 75.4303C10.0874 75.2305 9.58578 75.1332 9.0664 75.1332L9.0664 77.1332C9.33088 77.1332 9.56751 77.1817 9.78577 77.2736L10.5619 75.4303ZM9.0664 75.1332L0.999997 75.1332L0.999997 77.1332L9.0664 77.1332L9.0664 75.1332ZM5.38867 102.184L5.00341 103.106L5.00658 103.108L5.38867 102.184ZM2.9414 100.584L2.23904 101.296L2.24379 101.3L2.9414 100.584ZM1.31445 98.2051L0.397222 98.6035L0.399133 98.6078L1.31445 98.2051ZM1.31445 92.3809L0.40057 91.9747L0.39578 91.9858L1.31445 92.3809ZM2.9414 90.002L2.24372 89.2854L2.23429 89.2948L2.9414 90.002ZM5.38867 88.4023L5.00658 87.4782L5.00342 87.4795L5.38867 88.4023ZM11.541 88.4023L11.9231 87.4782L11.541 88.4023ZM13.9883 90.002L14.6907 89.2902L14.6906 89.2901L13.9883 90.002ZM15.6152 92.3809L16.5339 91.9858L16.5324 91.9825L15.6152 92.3809ZM15.6426 98.2051L14.7186 97.8224L14.7141 97.8337L15.6426 98.2051ZM14.0703 100.584L13.3679 99.8721L13.3632 99.8769L14.0703 100.584ZM11.623 102.184L11.2441 101.258L11.241 101.259L11.623 102.184ZM10.0781 98.7109L9.71567 97.7789L9.70516 97.783L9.69474 97.7873L10.0781 98.7109ZM11.3359 97.918L10.6476 97.1924L10.6383 97.2015L11.3359 97.918ZM12.1426 96.7285L11.2234 96.3346L11.2186 96.3458L11.2141 96.3571L12.1426 96.7285ZM12.1426 93.8437L11.2167 94.2217L11.2206 94.231L12.1426 93.8437ZM11.3359 92.668L12.0242 91.9425L12.0237 91.942L11.3359 92.668ZM10.0781 91.8887L9.70975 92.8184L9.71568 92.8207L10.0781 91.8887ZM5.62109 92.668L4.94275 91.9331L4.93283 91.9425L5.62109 92.668ZM4.77343 93.8437L3.8682 93.4188L3.86302 93.4299L3.85812 93.441L4.77343 93.8437ZM4.75976 96.7285L5.68177 96.3413L5.67891 96.3346L4.75976 96.7285ZM6.82421 98.7109L7.20151 97.7848L7.19411 97.7818L7.18666 97.7789L6.82421 98.7109ZM8.45117 101.771C7.47972 101.771 6.58964 101.598 5.77076 101.259L5.00658 103.108C6.08353 103.553 7.23511 103.771 8.45117 103.771L8.45117 101.771ZM5.77392 101.261C4.94515 100.915 4.23687 100.45 3.63902 99.8675L2.24379 101.3C3.03135 102.067 3.95458 102.669 5.00342 103.106L5.77392 101.261ZM3.64375 99.8721C3.05333 99.2896 2.58187 98.6026 2.22976 97.8023L0.399133 98.6078C0.849107 99.6305 1.46228 100.529 2.23906 101.296L3.64375 99.8721ZM2.23167 97.8067C1.89738 97.0371 1.72656 96.2028 1.72656 95.293L-0.273442 95.293C-0.273442 96.4613 -0.05234 97.5684 0.397232 98.6035L2.23167 97.8067ZM1.72656 95.293C1.72656 94.3936 1.8969 93.5578 2.23312 92.7759L0.39578 91.9858C-0.0518553 93.0268 -0.273442 94.1325 -0.273442 95.293L1.72656 95.293ZM2.22826 92.787C2.58054 91.9944 3.05358 91.304 3.64851 90.7091L2.23429 89.2948C1.46204 90.0671 0.850439 90.9627 0.400638 91.9747L2.22826 92.787ZM3.63902 90.7184C4.23687 90.1363 4.94515 89.6711 5.77392 89.3252L5.00342 87.4795C3.95458 87.9174 3.03135 88.5186 2.24379 89.2855L3.63902 90.7184ZM5.77076 89.3265C6.58964 88.9879 7.47972 88.8145 8.45117 88.8145L8.45117 86.8145C7.23511 86.8145 6.08353 87.0329 5.00658 87.4782L5.77076 89.3265ZM8.45117 88.8145C9.44315 88.8145 10.342 88.9887 11.1589 89.3265L11.9231 87.4782C10.8442 87.0321 9.68314 86.8145 8.45117 86.8145L8.45117 88.8145ZM11.1589 89.3265C11.9956 89.6724 12.7005 90.1362 13.2859 90.7138L14.6906 89.2901C13.9089 88.5188 12.9823 87.9161 11.9231 87.4782L11.1589 89.3265ZM13.2859 90.7137C13.8866 91.3065 14.3564 91.9928 14.698 92.7792L16.5324 91.9825C16.0902 90.9642 15.4754 90.0645 14.6907 89.2902L13.2859 90.7137ZM14.6966 92.7759C15.0328 93.5578 15.2031 94.3936 15.2031 95.293L17.2031 95.293C17.2031 94.1325 16.9815 93.0268 16.5339 91.9858L14.6966 92.7759ZM15.2031 95.293C15.2031 96.2092 15.039 97.049 14.7187 97.8224L16.5665 98.5877C16.9936 97.5564 17.2031 96.4548 17.2031 95.293L15.2031 95.293ZM14.7141 97.8337C14.3995 98.6202 13.9513 99.2966 13.368 99.8721L14.7727 101.296C15.5565 100.522 16.1565 99.6128 16.5711 98.5765L14.7141 97.8337ZM13.3632 99.8769C12.7902 100.45 12.0887 100.912 11.2441 101.258L12.002 103.109C13.0714 102.671 14.0015 102.067 14.7774 101.291L13.3632 99.8769ZM11.241 101.259C10.4297 101.595 9.50464 101.771 8.45117 101.771L8.45117 103.771C9.73103 103.771 10.9205 103.556 12.0051 103.108L11.241 101.259ZM8.45117 100.012C9.16473 100.012 9.84004 99.8925 10.4615 99.6345L9.69474 97.7873C9.35005 97.9304 8.94073 98.0117 8.45117 98.0117L8.45117 100.012ZM10.4406 99.6429C11.0462 99.4074 11.5825 99.0736 12.0335 98.6344L10.6383 97.2015C10.3967 97.4368 10.0944 97.6316 9.71567 97.7789L10.4406 99.6429ZM12.0242 98.6434C12.4845 98.2067 12.8353 97.6894 13.0711 97.0999L11.2141 96.3571C11.0853 96.6791 10.8983 96.9548 10.6477 97.1925L12.0242 98.6434ZM13.0617 97.1224C13.3091 96.5451 13.4297 95.9319 13.4297 95.293L11.4297 95.293C11.4297 95.6749 11.3588 96.0187 11.2234 96.3346L13.0617 97.1224ZM13.4297 95.293C13.4297 94.654 13.3091 94.0389 13.0646 93.4565L11.2206 94.231C11.3588 94.5601 11.4297 94.9111 11.4297 95.293L13.4297 95.293ZM13.0684 93.4659C12.8316 92.8857 12.481 92.3758 12.0242 91.9425L10.6477 93.3934C10.9019 93.6346 11.0889 93.9086 11.2167 94.2216L13.0684 93.4659ZM12.0237 91.942C11.5737 91.5157 11.0406 91.19 10.4406 90.9567L9.71568 92.8207C10.1 92.9701 10.4055 93.164 10.6482 93.3939L12.0237 91.942ZM10.4465 90.959C9.82919 90.7144 9.15922 90.6016 8.45117 90.6016L8.45117 92.6016C8.94624 92.6016 9.3609 92.6801 9.70976 92.8184L10.4465 90.959ZM8.45117 90.6016C7.77103 90.6016 7.12076 90.7172 6.51054 90.959L7.24727 92.8184C7.60319 92.6773 8.00109 92.6016 8.45117 92.6016L8.45117 90.6016ZM6.51054 90.959C5.92159 91.1924 5.39522 91.5156 4.94281 91.9332L6.29937 93.4028C6.55789 93.1641 6.87007 92.9678 7.24727 92.8184L6.51054 90.959ZM4.93283 91.9425C4.4863 92.3661 4.13042 92.8602 3.8682 93.4188L5.67867 94.2687C5.83572 93.9341 6.04494 93.6443 6.30935 93.3934L4.93283 91.9425ZM3.85812 93.441C3.60033 94.0269 3.47265 94.6475 3.47265 95.293L5.47265 95.293C5.47265 94.9176 5.5455 94.5721 5.68875 94.2465L3.85812 93.441ZM3.47265 95.293C3.47265 95.9319 3.59319 96.5451 3.84062 97.1224L5.67891 96.3346C5.54352 96.0187 5.47265 95.6749 5.47265 95.293L3.47265 95.293ZM3.83778 97.1157C4.07993 97.6923 4.42412 98.2015 4.86879 98.6344L6.26402 97.2015C6.01597 96.96 5.8224 96.6762 5.68174 96.3413L3.83778 97.1157ZM4.86879 98.6344C5.31983 99.0736 5.85617 99.4074 6.46177 99.6429L7.18666 97.7789C6.80789 97.6316 6.50568 97.4368 6.26402 97.2015L4.86879 98.6344ZM6.44692 99.637C7.07192 99.8917 7.74419 100.012 8.45117 100.012L8.45117 98.0117C7.97325 98.0117 7.56089 97.9313 7.20151 97.7848L6.44692 99.637ZM0.999995 113.468L-4.95986e-06 113.468L-5.00357e-06 114.468L0.999995 114.468L0.999995 113.468ZM0.999995 109.736L0.999995 108.736L-4.753e-06 108.736L-4.79671e-06 109.736L0.999995 109.736ZM15.6426 109.736L16.6426 109.736L16.6426 108.736L15.6426 108.736L15.6426 109.736ZM15.6426 110.638L16.297 111.394L16.6426 111.095L16.6426 110.638L15.6426 110.638ZM14.2207 111.869L13.5663 111.113L12.7914 111.783L13.4808 112.541L14.2207 111.869ZM15.4785 113.906L14.5454 114.266L14.5478 114.272L15.4785 113.906ZM15.4102 118.828L14.4937 118.427L14.4899 118.436L15.4102 118.828ZM14.0019 120.906L13.3002 120.193L13.2948 120.199L14.0019 120.906ZM11.9102 122.3L11.5225 121.378L11.5099 121.384L11.9102 122.3ZM0.999995 122.82L-5.36863e-06 122.82L-5.41234e-06 123.82L0.999995 123.82L0.999995 122.82ZM0.999995 119.088L0.999995 118.088L-5.16177e-06 118.088L-5.20548e-06 119.088L0.999995 119.088ZM10.4473 118.869L10.0592 117.947L10.0503 117.951L10.4473 118.869ZM11.9512 115.191L12.8728 114.803L11.9512 115.191ZM10.4473 113.687L10.0503 114.605L10.0592 114.609L10.4473 113.687ZM2 113.468L2 109.736L-4.79671e-06 109.736L-4.95986e-06 113.468L2 113.468ZM0.999995 110.736L15.6426 110.736L15.6426 108.736L0.999995 108.736L0.999995 110.736ZM14.6426 109.736L14.6426 110.638L16.6426 110.638L16.6426 109.736L14.6426 109.736ZM14.9882 109.882L13.5663 111.113L14.8751 112.625L16.297 111.394L14.9882 109.882ZM13.4808 112.541C13.9447 113.052 14.2984 113.625 14.5455 114.266L16.4116 113.546C16.0753 112.674 15.5904 111.889 14.9606 111.196L13.4808 112.541ZM14.5478 114.272C14.8024 114.92 14.9297 115.593 14.9297 116.298L16.9297 116.298C16.9297 115.345 16.7562 114.423 16.4093 113.54L14.5478 114.272ZM14.9297 116.298C14.9297 117.058 14.7832 117.765 14.4938 118.427L16.3266 119.228C16.7298 118.305 16.9297 117.325 16.9297 116.298L14.9297 116.298ZM14.4899 118.436C14.2028 119.112 13.8067 119.695 13.3003 120.193L14.7036 121.618C15.4003 120.932 15.9431 120.13 16.3304 119.219L14.4899 118.436ZM13.2948 120.199C12.7975 120.696 12.2099 121.09 11.5226 121.379L12.2977 123.222C13.2145 122.837 14.0215 122.301 14.7091 121.613L13.2948 120.199ZM11.5099 121.384C10.8486 121.673 10.1378 121.82 9.36718 121.82L9.36718 123.82C10.4013 123.82 11.3858 123.621 12.3104 123.217L11.5099 121.384ZM9.36718 121.82L0.999995 121.82L0.999995 123.82L9.36718 123.82L9.36718 121.82ZM1.99999 122.82L1.99999 119.088L-5.20548e-06 119.088L-5.36863e-06 122.82L1.99999 122.82ZM0.999995 120.088L9.36718 120.088L9.36718 118.088L0.999995 118.088L0.999995 120.088ZM9.36718 120.088C9.88068 120.088 10.3764 119.989 10.8442 119.787L10.0503 117.951C9.84367 118.04 9.61931 118.088 9.36718 118.088L9.36718 120.088ZM10.8353 119.79C11.2959 119.596 11.7063 119.325 12.0567 118.974L10.6425 117.56C10.4825 117.72 10.2913 117.849 10.0592 117.947L10.8353 119.79ZM12.0567 118.974C12.4027 118.628 12.6741 118.226 12.869 117.775L11.0333 116.982C10.9366 117.205 10.8069 117.396 10.6425 117.56L12.0567 118.974ZM12.869 117.775C13.0713 117.308 13.1699 116.812 13.1699 116.298L11.1699 116.298C11.1699 116.551 11.1227 116.775 11.0333 116.982L12.869 117.775ZM13.1699 116.298C13.1699 115.779 13.0726 115.277 12.8728 114.803L11.0295 115.579C11.1214 115.797 11.1699 116.034 11.1699 116.298L13.1699 116.298ZM12.8728 114.803C12.6789 114.342 12.4072 113.932 12.0567 113.582L10.6425 114.996C10.8025 115.156 10.9318 115.347 11.0295 115.579L12.8728 114.803ZM12.0567 113.582C11.7063 113.231 11.2959 112.959 10.8353 112.765L10.0592 114.609C10.2913 114.706 10.4825 114.836 10.6425 114.996L12.0567 113.582ZM10.8442 112.769C10.3764 112.567 9.88068 112.468 9.36718 112.468L9.36718 114.468C9.61931 114.468 9.84367 114.516 10.0503 114.605L10.8442 112.769ZM9.36718 112.468L0.999995 112.468L0.999995 114.468L9.36718 114.468L9.36718 112.468ZM0.999993 149.007L-6.5133e-06 149.007L-6.55702e-06 150.007L0.999993 150.007L0.999993 149.007ZM0.999994 145.288L0.999994 144.288L-6.30704e-06 144.288L-6.35075e-06 145.288L0.999994 145.288ZM11.0215 145.138L10.6501 144.209L10.6343 144.216L10.6187 144.223L11.0215 145.138ZM12.0195 144.14L11.1042 143.737L11.0974 143.753L11.091 143.768L12.0195 144.14ZM12.0195 142.691L11.0964 143.075L11.1002 143.084L11.1042 143.093L12.0195 142.691ZM11.623 142.103L12.3301 141.396L12.3206 141.386L12.3108 141.377L11.623 142.103ZM11.0215 141.706L11.4242 140.791L11.4087 140.784L11.3929 140.778L11.0215 141.706ZM0.999994 141.57L-6.1882e-06 141.57L-6.23191e-06 142.57L0.999994 142.57L0.999994 141.57ZM0.999994 137.837L0.999994 136.837L-5.98134e-06 136.837L-6.02505e-06 137.837L0.999994 137.837ZM11.0215 137.687L10.6501 136.758L10.6343 136.765L10.6187 136.771L11.0215 137.687ZM12.0195 136.689L11.1042 136.286L11.0974 136.301L11.091 136.317L12.0195 136.689ZM12.0195 135.239L11.0964 135.624L11.1002 135.633L11.1042 135.642L12.0195 135.239ZM11.623 134.652L12.3301 133.944L12.3206 133.935L12.3108 133.926L11.623 134.652ZM11.0215 134.255L11.4242 133.34L11.4087 133.333L11.3929 133.327L11.0215 134.255ZM0.999994 134.118L-5.8625e-06 134.118L-5.90621e-06 135.118L0.999994 135.118L0.999994 134.118ZM0.999994 130.386L0.999994 129.386L-5.65564e-06 129.386L-5.69935e-06 130.386L0.999994 130.386ZM15.6426 130.386L16.6426 130.386L16.6426 129.386L15.6426 129.386L15.6426 130.386ZM15.6426 131.288L16.3125 132.031L16.6426 131.733L16.6426 131.288L15.6426 131.288ZM14.5215 132.3L13.8515 131.558L13.1341 132.205L13.7566 132.944L14.5215 132.3ZM15.5332 134.009L14.5991 134.366L14.602 134.373L15.5332 134.009ZM15.5195 137.96L14.5892 137.593L14.5875 137.598L15.5195 137.96ZM14.1934 139.683L13.577 138.895L12.5391 139.708L13.601 140.488L14.1934 139.683ZM15.5195 141.378L16.4426 140.993L16.4387 140.984L15.5195 141.378ZM15.8066 142.39L14.8189 142.546L14.8209 142.558L14.8232 142.571L15.8066 142.39ZM15.4648 145.589L14.547 145.192L14.5451 145.197L15.4648 145.589ZM14.2617 147.366L13.561 146.653L13.5546 146.659L13.5483 146.666L14.2617 147.366ZM1.99999 149.007L1.99999 145.288L-6.35075e-06 145.288L-6.5133e-06 149.007L1.99999 149.007ZM0.999994 146.288L10.2969 146.288L10.2969 144.288L0.999994 144.288L0.999994 146.288ZM10.2969 146.288C10.6872 146.288 11.0662 146.211 11.4242 146.053L10.6187 144.223C10.521 144.266 10.417 144.288 10.2969 144.288L10.2969 146.288ZM11.3929 146.066C11.7462 145.925 12.061 145.718 12.3301 145.449L10.9159 144.034C10.8387 144.112 10.7525 144.168 10.6501 144.209L11.3929 146.066ZM12.3301 145.449C12.5993 145.179 12.8067 144.865 12.948 144.511L11.091 143.768C11.0501 143.871 10.9931 143.957 10.9159 144.034L12.3301 145.449ZM12.9348 144.543C13.0924 144.185 13.1699 143.806 13.1699 143.415L11.1699 143.415C11.1699 143.535 11.1472 143.639 11.1042 143.737L12.9348 144.543ZM13.1699 143.415C13.1699 143.025 13.0924 142.646 12.9348 142.288L11.1042 143.093C11.1472 143.191 11.1699 143.295 11.1699 143.415L13.1699 143.415ZM12.9426 142.306C12.7995 141.963 12.5925 141.658 12.3301 141.396L10.9159 142.81C10.9999 142.894 11.0572 142.981 11.0964 143.075L12.9426 142.306ZM12.3108 141.377C12.0506 141.13 11.7526 140.935 11.4242 140.791L10.6187 142.622C10.7461 142.678 10.8491 142.747 10.9353 142.829L12.3108 141.377ZM11.3929 140.778C11.0422 140.637 10.6741 140.57 10.2969 140.57L10.2969 142.57C10.43 142.57 10.545 142.593 10.6501 142.635L11.3929 140.778ZM10.2969 140.57L0.999994 140.57L0.999994 142.57L10.2969 142.57L10.2969 140.57ZM1.99999 141.57L1.99999 137.837L-6.02505e-06 137.837L-6.1882e-06 141.57L1.99999 141.57ZM0.999994 138.837L10.2969 138.837L10.2969 136.837L0.999994 136.837L0.999994 138.837ZM10.2969 138.837C10.6872 138.837 11.0662 138.76 11.4242 138.602L10.6187 136.771C10.521 136.814 10.417 136.837 10.2969 136.837L10.2969 138.837ZM11.3929 138.615C11.7462 138.474 12.061 138.266 12.3301 137.997L10.9159 136.583C10.8387 136.66 10.7525 136.717 10.6501 136.758L11.3929 138.615ZM12.3301 137.997C12.5993 137.728 12.8067 137.413 12.948 137.06L11.091 136.317C11.0501 136.42 10.9931 136.506 10.9159 136.583L12.3301 137.997ZM12.9348 137.091C13.0924 136.733 13.1699 136.354 13.1699 135.964L11.1699 135.964C11.1699 136.084 11.1472 136.188 11.1042 136.286L12.9348 137.091ZM13.1699 135.964C13.1699 135.574 13.0924 135.195 12.9348 134.837L11.1042 135.642C11.1472 135.74 11.1699 135.844 11.1699 135.964L13.1699 135.964ZM12.9426 134.855C12.7995 134.511 12.5925 134.207 12.3301 133.944L10.9159 135.359C10.9999 135.443 11.0572 135.53 11.0964 135.624L12.9426 134.855ZM12.3108 133.926C12.0506 133.679 11.7526 133.484 11.4242 133.34L10.6187 135.17C10.7461 135.226 10.8491 135.296 10.9353 135.378L12.3108 133.926ZM11.3929 133.327C11.0422 133.186 10.6741 133.118 10.2969 133.118L10.2969 135.118C10.43 135.118 10.545 135.142 10.6501 135.184L11.3929 133.327ZM10.2969 133.118L0.999994 133.118L0.999994 135.118L10.2969 135.118L10.2969 133.118ZM1.99999 134.118L1.99999 130.386L-5.69935e-06 130.386L-5.8625e-06 134.118L1.99999 134.118ZM0.999994 131.386L15.6426 131.386L15.6426 129.386L0.999994 129.386L0.999994 131.386ZM14.6426 130.386L14.6426 131.288L16.6426 131.288L16.6426 130.386L14.6426 130.386ZM14.9726 130.546L13.8515 131.558L15.1914 133.042L16.3125 132.031L14.9726 130.546ZM13.7566 132.944C14.1238 133.38 14.403 133.853 14.5991 134.366L16.4672 133.652C16.1894 132.925 15.7942 132.259 15.2864 131.656L13.7566 132.944ZM14.602 134.373C14.8027 134.886 14.9023 135.414 14.9023 135.964L16.9023 135.964C16.9023 135.165 16.7559 134.389 16.4644 133.645L14.602 134.373ZM14.9023 135.964C14.9023 136.52 14.7992 137.061 14.5893 137.593L16.4498 138.327C16.7502 137.565 16.9023 136.775 16.9023 135.964L14.9023 135.964ZM14.5875 137.598C14.4058 138.065 14.0838 138.499 13.577 138.895L14.8097 140.47C15.5607 139.883 16.1228 139.168 16.4515 138.323L14.5875 137.598ZM13.601 140.488C13.8363 140.662 14.0295 140.853 14.1863 141.062L15.7863 139.862C15.5057 139.488 15.1702 139.16 14.7857 138.877L13.601 140.488ZM14.1863 141.062C14.3597 141.293 14.4966 141.53 14.6004 141.772L16.4387 140.984C16.269 140.588 16.0504 140.214 15.7863 139.862L14.1863 141.062ZM14.5964 141.763C14.703 142.019 14.7768 142.279 14.8189 142.546L16.7944 142.234C16.7271 141.808 16.6095 141.394 16.4426 140.994L14.5964 141.763ZM14.8232 142.571C14.8765 142.86 14.9023 143.141 14.9023 143.415L16.9023 143.415C16.9023 143.015 16.8644 142.612 16.7901 142.209L14.8232 142.571ZM14.9023 143.415C14.9023 144.061 14.7815 144.65 14.547 145.192L16.3827 145.986C16.7315 145.179 16.9023 144.319 16.9023 143.415L14.9023 143.415ZM14.5451 145.197C14.3027 145.765 13.9745 146.247 13.561 146.653L14.9624 148.08C15.5698 147.483 16.0437 146.781 16.3846 145.982L14.5451 145.197ZM13.5483 146.666C13.1422 147.079 12.66 147.407 12.0919 147.65L12.8768 149.489C13.6759 149.148 14.3787 148.674 14.9752 148.067L13.5483 146.666ZM12.0919 147.65C11.5377 147.886 10.9426 148.007 10.2969 148.007L10.2969 150.007C11.2007 150.007 12.0639 149.836 12.8768 149.489L12.0919 147.65ZM10.2969 148.007L0.999994 148.007L0.999993 150.007L10.2969 150.007L10.2969 148.007ZM4.58202 162.466L5.22061 161.696L4.07254 160.743L3.62754 162.167L4.58202 162.466ZM4.48632 162.903L3.49404 162.779L3.4902 162.81L3.48827 162.841L4.48632 162.903ZM5.04687 165.337L4.19884 165.867L4.20321 165.874L5.04687 165.337ZM5.73046 166.13L6.38539 165.374L6.3834 165.372L5.73046 166.13ZM6.63281 166.704L7.33815 167.413L8.37304 166.383L7.03894 165.79L6.63281 166.704ZM3.88476 169.438L3.30927 170.256L3.99538 170.739L4.5901 170.147L3.88476 169.438ZM2.55859 168.235L3.31681 167.583L3.31021 167.576L2.55859 168.235ZM1.56054 166.772L2.44878 166.313L2.44546 166.307L1.56054 166.772ZM0.945305 165.118L1.91892 164.89L1.91681 164.881L1.91454 164.872L0.945305 165.118ZM1.30077 160.429L0.380187 160.038L0.378792 160.041L1.30077 160.429ZM2.90038 158.05L2.19802 157.338L2.19328 157.342L2.90038 158.05ZM5.33398 156.45L4.95189 155.526L4.94873 155.527L5.33398 156.45ZM11.623 156.45L12.002 155.525L11.623 156.45ZM14.0703 158.05L14.7822 157.347L14.7774 157.342L14.0703 158.05ZM15.6426 160.429L16.5678 160.049L16.5665 160.046L15.6426 160.429ZM15.3555 166.786L14.4705 166.32L14.4672 166.327L15.3555 166.786ZM14.3437 168.262L13.593 167.602L13.5856 167.61L14.3437 168.262ZM13.0176 169.466L12.379 170.235L12.9676 170.724L13.5931 170.283L13.0176 169.466ZM12.2793 164.38L11.6775 165.178L12.7524 165.988L13.2176 164.725L12.2793 164.38ZM12.4023 163.86L11.4084 163.75L11.4078 163.755L12.4023 163.86ZM12.1426 161.891L11.2167 162.269L11.2206 162.279L12.1426 161.891ZM11.3496 160.716L12.0473 159.999L12.0373 159.99L11.3496 160.716ZM10.0918 159.936L9.72342 160.866L9.72934 160.868L10.0918 159.936ZM7.98632 159.663L7.93376 158.664L7.90764 158.666L7.88164 158.668L7.98632 159.663ZM7.45312 159.731L7.30478 158.742L7.27579 158.747L7.24711 158.753L7.45312 159.731ZM6.50976 160.032L6.01362 159.164L4.69548 159.917L5.90794 160.831L6.50976 160.032ZM3.62754 162.167C3.56491 162.368 3.51994 162.572 3.49404 162.779L5.4786 163.027C5.48916 162.943 5.50799 162.855 5.5365 162.764L3.62754 162.167ZM3.48827 162.841C3.47786 163.007 3.47265 163.174 3.47265 163.341L5.47265 163.341C5.47265 163.216 5.47656 163.091 5.48437 162.965L3.48827 162.841ZM3.47265 163.341C3.47265 163.798 3.53576 164.245 3.6645 164.678L5.58158 164.108C5.5098 163.867 5.47265 163.612 5.47265 163.341L3.47265 163.341ZM3.6645 164.678C3.78982 165.1 3.96778 165.497 4.19887 165.867L5.89487 164.807C5.76137 164.593 5.65678 164.361 5.58158 164.108L3.6645 164.678ZM4.20321 165.874C4.44593 166.255 4.73759 166.594 5.07752 166.887L6.3834 165.372C6.19468 165.21 6.03062 165.02 5.89053 164.8L4.20321 165.874ZM5.07553 166.885C5.42305 167.187 5.80755 167.431 6.22667 167.618L7.03894 165.79C6.80181 165.685 6.58475 165.547 6.38539 165.374L5.07553 166.885ZM5.92746 165.995L3.17942 168.729L4.5901 170.147L7.33815 167.413L5.92746 165.995ZM4.46025 168.62C4.03548 168.322 3.65481 167.976 3.31677 167.583L1.8004 168.887C2.24622 169.406 2.74966 169.862 3.30927 170.256L4.46025 168.62ZM3.31021 167.576C2.97185 167.19 2.68501 166.77 2.44876 166.313L0.672322 167.232C0.982945 167.832 1.36147 168.387 1.80696 168.895L3.31021 167.576ZM2.44546 166.307C2.21236 165.864 2.03667 165.392 1.91892 164.89L-0.0283104 165.346C0.127373 166.01 0.361849 166.642 0.675621 167.238L2.44546 166.307ZM1.91454 164.872C1.78976 164.38 1.72656 163.871 1.72656 163.341L-0.273445 163.341C-0.273445 164.032 -0.190815 164.707 -0.0239254 165.364L1.91454 164.872ZM1.72656 163.341C1.72656 162.438 1.89359 161.599 2.22276 160.816L0.378792 160.041C-0.0576662 161.08 -0.273445 162.183 -0.273445 163.341L1.72656 163.341ZM2.22136 160.819C2.55472 160.033 3.01601 159.348 3.60749 158.757L2.19328 157.342C1.41757 158.118 0.812457 159.019 0.380192 160.038L2.22136 160.819ZM3.60273 158.761C4.18979 158.182 4.89156 157.718 5.71923 157.373L4.94873 155.527C3.89879 155.965 2.97817 156.568 2.19804 157.338L3.60273 158.761ZM5.71607 157.374C6.53103 157.037 7.43867 156.862 8.45117 156.862L8.45117 154.862C7.20325 154.862 6.03276 155.079 4.95189 155.526L5.71607 157.374ZM8.45117 156.862C9.49422 156.862 10.4209 157.038 11.2441 157.375L12.002 155.525C10.9112 155.078 9.72321 154.862 8.45117 154.862L8.45117 156.862ZM11.2441 157.375C12.0887 157.721 12.7902 158.184 13.3632 158.757L14.7774 157.342C14.0015 156.567 13.0714 155.963 12.002 155.525L11.2441 157.375ZM13.3585 158.752C13.9407 159.342 14.3935 160.026 14.7187 160.811L16.5665 160.046C16.1442 159.026 15.5488 158.124 14.7821 157.347L13.3585 158.752ZM14.7173 160.808C15.0394 161.593 15.2031 162.435 15.2031 163.341L17.2031 163.341C17.2031 162.187 16.9931 161.086 16.5678 160.049L14.7173 160.808ZM15.2031 163.341C15.2031 163.871 15.1399 164.386 15.0142 164.889L16.9545 165.374C17.1205 164.71 17.2031 164.032 17.2031 163.341L15.2031 163.341ZM15.0142 164.889C14.8873 165.397 14.7059 165.873 14.4705 166.32L16.2404 167.252C16.5519 166.66 16.7898 166.033 16.9545 165.374L15.0142 164.889ZM14.4672 166.327C14.232 166.781 13.9413 167.206 13.593 167.602L15.0945 168.923C15.5483 168.407 15.932 167.848 16.2437 167.245L14.4672 166.327ZM13.5856 167.61C13.2475 168.004 12.8668 168.349 12.4421 168.648L13.5931 170.283C14.1527 169.89 14.6561 169.433 15.1019 168.915L13.5856 167.61ZM13.6562 168.696L5.22061 161.696L3.94344 163.235L12.379 170.235L13.6562 168.696ZM13.2176 164.725C13.3084 164.479 13.3694 164.225 13.3968 163.965L11.4078 163.755C11.3988 163.842 11.3778 163.934 11.3409 164.034L13.2176 164.725ZM13.3962 163.971C13.4189 163.766 13.4297 163.556 13.4297 163.341L11.4297 163.341C11.4297 163.49 11.4222 163.626 11.4085 163.75L13.3962 163.971ZM13.4297 163.341C13.4297 162.702 13.3091 162.087 13.0646 161.504L11.2206 162.279C11.3588 162.608 11.4297 162.959 11.4297 163.341L13.4297 163.341ZM13.0684 161.514C12.834 160.939 12.4919 160.432 12.0472 159.999L10.652 161.432C10.9 161.674 11.0865 161.95 11.2167 162.269L13.0684 161.514ZM12.0373 159.99C11.5874 159.563 11.0543 159.238 10.4542 159.004L9.72934 160.868C10.1137 161.018 10.4191 161.212 10.6619 161.442L12.0373 159.99ZM10.4602 159.007C9.8412 158.761 9.16625 158.649 8.45116 158.649L8.45116 160.649C8.95743 160.649 9.37623 160.728 9.72343 160.866L10.4602 159.007ZM8.45116 158.649C8.29301 158.649 8.12005 158.654 7.93376 158.664L8.03888 160.661C8.19894 160.653 8.33588 160.649 8.45116 160.649L8.45116 158.649ZM7.88164 158.668C7.69305 158.688 7.50074 158.713 7.30478 158.742L7.60146 160.72C7.77008 160.695 7.93324 160.674 8.09101 160.657L7.88164 158.668ZM7.24711 158.753C7.05404 158.793 6.86484 158.839 6.67962 158.891L7.2149 160.818C7.35781 160.778 7.50584 160.742 7.65913 160.71L7.24711 158.753ZM6.67962 158.891C6.44803 158.955 6.22345 159.044 6.01362 159.164L7.0059 160.9C7.05128 160.874 7.11836 160.845 7.2149 160.818L6.67962 158.891ZM5.90794 160.831L11.6775 165.178L12.8811 163.581L7.11157 159.233L5.90794 160.831ZM0.999992 179.985L-7.86738e-06 179.985L-7.9111e-06 180.985L0.999992 180.985L0.999992 179.985ZM0.999992 176.252L0.999992 175.252L-7.66052e-06 175.252L-7.70423e-06 176.252L0.999992 176.252ZM15.6426 176.252L16.6426 176.252L16.6426 175.252L15.6426 175.252L15.6426 176.252ZM15.6426 177.155L16.2969 177.911L16.6426 177.612L16.6426 177.155L15.6426 177.155ZM14.2207 178.385L13.5663 177.629L12.7914 178.3L13.4808 179.058L14.2207 178.385ZM15.4785 180.422L14.5454 180.782L14.5478 180.788L15.4785 180.422ZM15.4101 185.344L14.4937 184.944L14.4899 184.953L15.4101 185.344ZM14.0019 187.422L13.3002 186.71L13.2948 186.715L14.0019 187.422ZM11.9101 188.817L11.5225 187.895L11.5099 187.9L11.9101 188.817ZM0.999992 189.336L-8.27615e-06 189.336L-8.31987e-06 190.336L0.999992 190.336L0.999992 189.336ZM0.999992 185.604L0.999992 184.604L-8.06929e-06 184.604L-8.113e-06 185.604L0.999992 185.604ZM10.4473 185.385L10.0592 184.463L10.0503 184.467L10.4473 185.385ZM11.9512 181.707L12.8728 181.319L11.9512 181.707ZM10.4473 180.204L10.0503 181.121L10.0592 181.125L10.4473 180.204ZM1.99999 179.985L1.99999 176.252L-7.70423e-06 176.252L-7.86738e-06 179.985L1.99999 179.985ZM0.999992 177.252L15.6426 177.252L15.6426 175.252L0.999992 175.252L0.999992 177.252ZM14.6426 176.252L14.6426 177.155L16.6426 177.155L16.6426 176.252L14.6426 176.252ZM14.9882 176.399L13.5663 177.629L14.8751 179.141L16.2969 177.911L14.9882 176.399ZM13.4808 179.058C13.9447 179.568 14.2984 180.141 14.5455 180.782L16.4116 180.063C16.0753 179.19 15.5904 178.405 14.9606 177.712L13.4808 179.058ZM14.5478 180.788C14.8024 181.436 14.9297 182.109 14.9297 182.815L16.9297 182.815C16.9297 181.861 16.7562 180.94 16.4093 180.057L14.5478 180.788ZM14.9297 182.815C14.9297 183.575 14.7832 184.281 14.4937 184.944L16.3265 185.744C16.7298 184.821 16.9297 183.841 16.9297 182.815L14.9297 182.815ZM14.4899 184.953C14.2028 185.628 13.8067 186.211 13.3003 186.71L14.7036 188.135C15.4003 187.449 15.9431 186.646 16.3304 185.736L14.4899 184.953ZM13.2948 186.715C12.7975 187.212 12.2099 187.606 11.5226 187.895L12.2977 189.739C13.2145 189.353 14.0215 188.817 14.7091 188.129L13.2948 186.715ZM11.5099 187.9C10.8486 188.189 10.1378 188.336 9.36718 188.336L9.36718 190.336C10.4013 190.336 11.3858 190.137 12.3104 189.733L11.5099 187.9ZM9.36718 188.336L0.999992 188.336L0.999992 190.336L9.36718 190.336L9.36718 188.336ZM1.99999 189.336L1.99999 185.604L-8.113e-06 185.604L-8.27615e-06 189.336L1.99999 189.336ZM0.999992 186.604L9.36718 186.604L9.36718 184.604L0.999992 184.604L0.999992 186.604ZM9.36718 186.604C9.88068 186.604 10.3764 186.505 10.8442 186.303L10.0503 184.467C9.84367 184.557 9.61931 184.604 9.36718 184.604L9.36718 186.604ZM10.8353 186.307C11.2959 186.113 11.7063 185.841 12.0567 185.491L10.6425 184.076C10.4825 184.236 10.2913 184.366 10.0592 184.464L10.8353 186.307ZM12.0567 185.491C12.4027 185.145 12.674 184.743 12.869 184.292L11.0333 183.498C10.9366 183.722 10.8069 183.912 10.6425 184.076L12.0567 185.491ZM12.869 184.292C13.0713 183.824 13.1699 183.328 13.1699 182.815L11.1699 182.815C11.1699 183.067 11.1227 183.291 11.0333 183.498L12.869 184.292ZM13.1699 182.815C13.1699 182.295 13.0726 181.794 12.8728 181.319L11.0295 182.095C11.1214 182.314 11.1699 182.55 11.1699 182.815L13.1699 182.815ZM12.8728 181.319C12.6789 180.859 12.4072 180.448 12.0567 180.098L10.6425 181.512C10.8025 181.672 10.9318 181.863 11.0295 182.095L12.8728 181.319ZM12.0567 180.098C11.7063 179.748 11.2959 179.476 10.8353 179.282L10.0592 181.125C10.2913 181.223 10.4825 181.352 10.6425 181.512L12.0567 180.098ZM10.8442 179.286C10.3764 179.083 9.88068 178.985 9.36718 178.985L9.36718 180.985C9.61931 180.985 9.84367 181.032 10.0503 181.121L10.8442 179.286ZM9.36718 178.985L0.999992 178.985L0.999992 180.985L9.36718 180.985L9.36718 178.985ZM1.50585 201.51L0.589408 201.109L0.585614 201.118L1.50585 201.51ZM2.91405 199.418L2.21237 198.705L2.20693 198.711L2.20157 198.716L2.91405 199.418ZM5.00585 198.01L4.61447 197.089L4.60558 197.093L5.00585 198.01ZM11.8965 197.504L11.8965 198.504L12.8965 198.504L12.8965 197.504L11.8965 197.504ZM11.8965 195.686L11.8965 194.686L10.8965 194.686L10.8965 195.686L11.8965 195.686ZM15.6152 195.686L16.6152 195.686L16.6152 194.686L15.6152 194.686L15.6152 195.686ZM15.6152 197.504L14.6152 197.504L14.6152 198.504L15.6152 198.504L15.6152 197.504ZM21.4668 197.504L22.4668 197.504L22.4668 196.504L21.4668 196.504L21.4668 197.504ZM21.4668 201.223L21.4668 202.223L22.4668 202.223L22.4668 201.223L21.4668 201.223ZM15.6152 201.223L15.6152 200.223L14.6152 200.223L14.6152 201.223L15.6152 201.223ZM15.6152 206.883L15.6152 207.883L16.6152 207.883L16.6152 206.883L15.6152 206.883ZM11.8965 206.883L10.8965 206.883L10.8965 207.883L11.8965 207.883L11.8965 206.883ZM11.8965 201.223L12.8965 201.223L12.8965 200.223L11.8965 200.223L11.8965 201.223ZM6.4414 201.441L6.05332 200.52L6.04449 200.524L6.4414 201.441ZM5.55273 202.043L6.25983 202.75L5.55273 202.043ZM4.93749 202.945L4.02467 202.537L4.02015 202.547L4.01586 202.557L4.93749 202.945ZM4.71874 206.883L4.71874 207.883L5.71874 207.883L5.71874 206.883L4.71874 206.883ZM0.999991 206.883L-9.04313e-06 206.883L-9.08685e-06 207.883L0.999991 207.883L0.999991 206.883ZM1.99999 204.053C1.99999 203.278 2.14395 202.565 2.42609 201.901L0.585614 201.118C0.193269 202.041 -8.87439e-06 203.022 -8.91943e-06 204.053L1.99999 204.053ZM2.42225 201.91C2.72088 201.226 3.12207 200.632 3.62654 200.12L2.20157 198.716C1.52114 199.407 0.983529 200.207 0.589452 201.109L2.42225 201.91ZM3.61574 200.13C4.12797 199.626 4.72241 199.225 5.40612 198.926L4.60558 197.093C3.70336 197.487 2.90327 198.025 2.21237 198.705L3.61574 200.13ZM5.39722 198.93C6.06061 198.648 6.7745 198.504 7.54882 198.504L7.54882 196.504C6.51845 196.504 5.53703 196.697 4.61449 197.09L5.39722 198.93ZM7.54882 198.504L11.8965 198.504L11.8965 196.504L7.54882 196.504L7.54882 198.504ZM12.8965 197.504L12.8965 195.686L10.8965 195.686L10.8965 197.504L12.8965 197.504ZM11.8965 196.686L15.6152 196.686L15.6152 194.686L11.8965 194.686L11.8965 196.686ZM14.6152 195.686L14.6152 197.504L16.6152 197.504L16.6152 195.686L14.6152 195.686ZM15.6152 198.504L21.4668 198.504L21.4668 196.504L15.6152 196.504L15.6152 198.504ZM20.4668 197.504L20.4668 201.223L22.4668 201.223L22.4668 197.504L20.4668 197.504ZM21.4668 200.223L15.6152 200.223L15.6152 202.223L21.4668 202.223L21.4668 200.223ZM14.6152 201.223L14.6152 206.883L16.6152 206.883L16.6152 201.223L14.6152 201.223ZM15.6152 205.883L11.8965 205.883L11.8965 207.883L15.6152 207.883L15.6152 205.883ZM12.8965 206.883L12.8965 201.223L10.8965 201.223L10.8965 206.883L12.8965 206.883ZM11.8965 200.223L7.54882 200.223L7.54882 202.223L11.8965 202.223L11.8965 200.223ZM7.54882 200.223C7.02944 200.223 6.52779 200.32 6.05334 200.52L6.82946 202.363C7.04771 202.271 7.28434 202.223 7.54882 202.223L7.54882 200.223ZM6.04449 200.524C5.59362 200.719 5.19164 200.99 4.84562 201.336L6.25983 202.75C6.42423 202.586 6.6147 202.456 6.83831 202.359L6.04449 200.524ZM4.84562 201.336C4.49984 201.682 4.22682 202.085 4.02467 202.537L5.85031 203.354C5.95806 203.113 6.0952 202.915 6.25983 202.75L4.84562 201.336ZM4.01586 202.557C3.81609 203.032 3.71874 203.533 3.71874 204.053L5.71874 204.053C5.71874 203.788 5.76723 203.552 5.85913 203.333L4.01586 202.557ZM3.71874 204.053L3.71874 206.883L5.71874 206.883L5.71874 204.053L3.71874 204.053ZM4.71874 205.883L0.999991 205.883L0.999991 207.883L4.71874 207.883L4.71874 205.883ZM1.99999 206.883L1.99999 204.053L-8.91943e-06 204.053L-9.04313e-06 206.883L1.99999 206.883Z" fill="#FF8E30"/>
</svg>
